%TF.GenerationSoftware,KiCad,Pcbnew,(7.0.0)*%
%TF.CreationDate,2024-02-07T11:39:00-06:00*%
%TF.ProjectId,16f15313,31366631-3533-4313-932e-6b696361645f,rev?*%
%TF.SameCoordinates,Original*%
%TF.FileFunction,Legend,Bot*%
%TF.FilePolarity,Positive*%
%FSLAX46Y46*%
G04 Gerber Fmt 4.6, Leading zero omitted, Abs format (unit mm)*
G04 Created by KiCad (PCBNEW (7.0.0)) date 2024-02-07 11:39:00*
%MOMM*%
%LPD*%
G01*
G04 APERTURE LIST*
%ADD10C,0.100000*%
%ADD11C,0.250000*%
%ADD12C,0.150000*%
%ADD13C,1.000000*%
%ADD14C,0.125000*%
%ADD15C,0.200000*%
%ADD16C,0.500000*%
%ADD17C,0.120000*%
G04 APERTURE END LIST*
D10*
X124250000Y-104250000D02*
X125000000Y-105000000D01*
X118750000Y-105000000D02*
X119750000Y-105000000D01*
D11*
X120500000Y-105000000D02*
G75*
G03*
X120500000Y-105000000I-250000J0D01*
G01*
D12*
X143000000Y-109250000D02*
X145750000Y-109250000D01*
G36*
X111250000Y-97750000D02*
G01*
X111250000Y-96750000D01*
X126500000Y-80250000D01*
X127500000Y-80250000D01*
X111250000Y-97750000D01*
G37*
X111250000Y-97750000D02*
X111250000Y-96750000D01*
X126500000Y-80250000D01*
X127500000Y-80250000D01*
X111250000Y-97750000D01*
X140750000Y-107750000D02*
X143000000Y-109250000D01*
X121750000Y-113250000D02*
X119500000Y-111750000D01*
D10*
X122250000Y-105000000D02*
X123000000Y-105750000D01*
D13*
X136434598Y-80500000D02*
G75*
G03*
X151495378Y-88991911I10065402J250000D01*
G01*
D12*
X119500000Y-109250000D02*
X116750000Y-109250000D01*
D11*
X123250000Y-105750000D02*
G75*
G03*
X123250000Y-105750000I-250000J0D01*
G01*
D12*
X119500000Y-111750000D02*
X116750000Y-111750000D01*
D11*
X135500000Y-80250000D02*
G75*
G03*
X151312123Y-90141586I11000000J0D01*
G01*
D10*
X119750000Y-105000000D02*
X122250000Y-105000000D01*
X123000000Y-104250000D02*
X124250000Y-104250000D01*
X118500000Y-104250000D02*
X118750000Y-105000000D01*
X122250000Y-105000000D02*
X123000000Y-104250000D01*
D11*
X125250000Y-105000000D02*
G75*
G03*
X125250000Y-105000000I-250000J0D01*
G01*
D12*
X121750000Y-107750000D02*
X119500000Y-109250000D01*
X140750000Y-113250000D02*
X143000000Y-111750000D01*
X125000000Y-80250000D02*
X111250000Y-95250000D01*
G36*
X111250000Y-96250000D02*
G01*
X111250000Y-95750000D01*
X125500000Y-80250000D01*
X126000000Y-80250000D01*
X111250000Y-96250000D01*
G37*
X111250000Y-96250000D02*
X111250000Y-95750000D01*
X125500000Y-80250000D01*
X126000000Y-80250000D01*
X111250000Y-96250000D01*
D11*
X137250001Y-80250000D02*
G75*
G03*
X151222483Y-88203656I9249999J0D01*
G01*
D12*
X143000000Y-111750000D02*
X145750000Y-111750000D01*
D11*
X124000000Y-108282380D02*
X124333333Y-107806190D01*
X124571428Y-108282380D02*
X124571428Y-107282380D01*
X124571428Y-107282380D02*
X124190476Y-107282380D01*
X124190476Y-107282380D02*
X124095238Y-107330000D01*
X124095238Y-107330000D02*
X124047619Y-107377619D01*
X124047619Y-107377619D02*
X124000000Y-107472857D01*
X124000000Y-107472857D02*
X124000000Y-107615714D01*
X124000000Y-107615714D02*
X124047619Y-107710952D01*
X124047619Y-107710952D02*
X124095238Y-107758571D01*
X124095238Y-107758571D02*
X124190476Y-107806190D01*
X124190476Y-107806190D02*
X124571428Y-107806190D01*
X123619047Y-107996666D02*
X123142857Y-107996666D01*
X123714285Y-108282380D02*
X123380952Y-107282380D01*
X123380952Y-107282380D02*
X123047619Y-108282380D01*
X122523809Y-107282380D02*
X122428571Y-107282380D01*
X122428571Y-107282380D02*
X122333333Y-107330000D01*
X122333333Y-107330000D02*
X122285714Y-107377619D01*
X122285714Y-107377619D02*
X122238095Y-107472857D01*
X122238095Y-107472857D02*
X122190476Y-107663333D01*
X122190476Y-107663333D02*
X122190476Y-107901428D01*
X122190476Y-107901428D02*
X122238095Y-108091904D01*
X122238095Y-108091904D02*
X122285714Y-108187142D01*
X122285714Y-108187142D02*
X122333333Y-108234761D01*
X122333333Y-108234761D02*
X122428571Y-108282380D01*
X122428571Y-108282380D02*
X122523809Y-108282380D01*
X122523809Y-108282380D02*
X122619047Y-108234761D01*
X122619047Y-108234761D02*
X122666666Y-108187142D01*
X122666666Y-108187142D02*
X122714285Y-108091904D01*
X122714285Y-108091904D02*
X122761904Y-107901428D01*
X122761904Y-107901428D02*
X122761904Y-107663333D01*
X122761904Y-107663333D02*
X122714285Y-107472857D01*
X122714285Y-107472857D02*
X122666666Y-107377619D01*
X122666666Y-107377619D02*
X122619047Y-107330000D01*
X122619047Y-107330000D02*
X122523809Y-107282380D01*
X139690476Y-108282380D02*
X140023809Y-107806190D01*
X140261904Y-108282380D02*
X140261904Y-107282380D01*
X140261904Y-107282380D02*
X139880952Y-107282380D01*
X139880952Y-107282380D02*
X139785714Y-107330000D01*
X139785714Y-107330000D02*
X139738095Y-107377619D01*
X139738095Y-107377619D02*
X139690476Y-107472857D01*
X139690476Y-107472857D02*
X139690476Y-107615714D01*
X139690476Y-107615714D02*
X139738095Y-107710952D01*
X139738095Y-107710952D02*
X139785714Y-107758571D01*
X139785714Y-107758571D02*
X139880952Y-107806190D01*
X139880952Y-107806190D02*
X140261904Y-107806190D01*
X139309523Y-107996666D02*
X138833333Y-107996666D01*
X139404761Y-108282380D02*
X139071428Y-107282380D01*
X139071428Y-107282380D02*
X138738095Y-108282380D01*
X137928571Y-107282380D02*
X138404761Y-107282380D01*
X138404761Y-107282380D02*
X138452380Y-107758571D01*
X138452380Y-107758571D02*
X138404761Y-107710952D01*
X138404761Y-107710952D02*
X138309523Y-107663333D01*
X138309523Y-107663333D02*
X138071428Y-107663333D01*
X138071428Y-107663333D02*
X137976190Y-107710952D01*
X137976190Y-107710952D02*
X137928571Y-107758571D01*
X137928571Y-107758571D02*
X137880952Y-107853809D01*
X137880952Y-107853809D02*
X137880952Y-108091904D01*
X137880952Y-108091904D02*
X137928571Y-108187142D01*
X137928571Y-108187142D02*
X137976190Y-108234761D01*
X137976190Y-108234761D02*
X138071428Y-108282380D01*
X138071428Y-108282380D02*
X138309523Y-108282380D01*
X138309523Y-108282380D02*
X138404761Y-108234761D01*
X138404761Y-108234761D02*
X138452380Y-108187142D01*
X137142857Y-121282380D02*
X137142857Y-120615714D01*
X137142857Y-120710952D02*
X137071428Y-120663333D01*
X137071428Y-120663333D02*
X136928571Y-120615714D01*
X136928571Y-120615714D02*
X136714285Y-120615714D01*
X136714285Y-120615714D02*
X136571428Y-120663333D01*
X136571428Y-120663333D02*
X136500000Y-120758571D01*
X136500000Y-120758571D02*
X136500000Y-121282380D01*
X136500000Y-120758571D02*
X136428571Y-120663333D01*
X136428571Y-120663333D02*
X136285714Y-120615714D01*
X136285714Y-120615714D02*
X136071428Y-120615714D01*
X136071428Y-120615714D02*
X135928571Y-120663333D01*
X135928571Y-120663333D02*
X135857142Y-120758571D01*
X135857142Y-120758571D02*
X135857142Y-121282380D01*
X134500000Y-120615714D02*
X134500000Y-121425238D01*
X134500000Y-121425238D02*
X134571428Y-121520476D01*
X134571428Y-121520476D02*
X134642857Y-121568095D01*
X134642857Y-121568095D02*
X134785714Y-121615714D01*
X134785714Y-121615714D02*
X135000000Y-121615714D01*
X135000000Y-121615714D02*
X135142857Y-121568095D01*
X134500000Y-121234761D02*
X134642857Y-121282380D01*
X134642857Y-121282380D02*
X134928571Y-121282380D01*
X134928571Y-121282380D02*
X135071428Y-121234761D01*
X135071428Y-121234761D02*
X135142857Y-121187142D01*
X135142857Y-121187142D02*
X135214285Y-121091904D01*
X135214285Y-121091904D02*
X135214285Y-120806190D01*
X135214285Y-120806190D02*
X135142857Y-120710952D01*
X135142857Y-120710952D02*
X135071428Y-120663333D01*
X135071428Y-120663333D02*
X134928571Y-120615714D01*
X134928571Y-120615714D02*
X134642857Y-120615714D01*
X134642857Y-120615714D02*
X134500000Y-120663333D01*
X133928571Y-120615714D02*
X133571428Y-121282380D01*
X133571428Y-121282380D02*
X133214285Y-120615714D01*
X132785714Y-120282380D02*
X131857142Y-120282380D01*
X131857142Y-120282380D02*
X132357142Y-120663333D01*
X132357142Y-120663333D02*
X132142857Y-120663333D01*
X132142857Y-120663333D02*
X132000000Y-120710952D01*
X132000000Y-120710952D02*
X131928571Y-120758571D01*
X131928571Y-120758571D02*
X131857142Y-120853809D01*
X131857142Y-120853809D02*
X131857142Y-121091904D01*
X131857142Y-121091904D02*
X131928571Y-121187142D01*
X131928571Y-121187142D02*
X132000000Y-121234761D01*
X132000000Y-121234761D02*
X132142857Y-121282380D01*
X132142857Y-121282380D02*
X132571428Y-121282380D01*
X132571428Y-121282380D02*
X132714285Y-121234761D01*
X132714285Y-121234761D02*
X132785714Y-121187142D01*
X130571429Y-121282380D02*
X130571429Y-120282380D01*
X130571429Y-121234761D02*
X130714286Y-121282380D01*
X130714286Y-121282380D02*
X131000000Y-121282380D01*
X131000000Y-121282380D02*
X131142857Y-121234761D01*
X131142857Y-121234761D02*
X131214286Y-121187142D01*
X131214286Y-121187142D02*
X131285714Y-121091904D01*
X131285714Y-121091904D02*
X131285714Y-120806190D01*
X131285714Y-120806190D02*
X131214286Y-120710952D01*
X131214286Y-120710952D02*
X131142857Y-120663333D01*
X131142857Y-120663333D02*
X131000000Y-120615714D01*
X131000000Y-120615714D02*
X130714286Y-120615714D01*
X130714286Y-120615714D02*
X130571429Y-120663333D01*
X129857143Y-121187142D02*
X129785714Y-121234761D01*
X129785714Y-121234761D02*
X129857143Y-121282380D01*
X129857143Y-121282380D02*
X129928571Y-121234761D01*
X129928571Y-121234761D02*
X129857143Y-121187142D01*
X129857143Y-121187142D02*
X129857143Y-121282380D01*
X128500000Y-121234761D02*
X128642857Y-121282380D01*
X128642857Y-121282380D02*
X128928571Y-121282380D01*
X128928571Y-121282380D02*
X129071428Y-121234761D01*
X129071428Y-121234761D02*
X129142857Y-121187142D01*
X129142857Y-121187142D02*
X129214285Y-121091904D01*
X129214285Y-121091904D02*
X129214285Y-120806190D01*
X129214285Y-120806190D02*
X129142857Y-120710952D01*
X129142857Y-120710952D02*
X129071428Y-120663333D01*
X129071428Y-120663333D02*
X128928571Y-120615714D01*
X128928571Y-120615714D02*
X128642857Y-120615714D01*
X128642857Y-120615714D02*
X128500000Y-120663333D01*
X127642857Y-121282380D02*
X127785714Y-121234761D01*
X127785714Y-121234761D02*
X127857143Y-121187142D01*
X127857143Y-121187142D02*
X127928571Y-121091904D01*
X127928571Y-121091904D02*
X127928571Y-120806190D01*
X127928571Y-120806190D02*
X127857143Y-120710952D01*
X127857143Y-120710952D02*
X127785714Y-120663333D01*
X127785714Y-120663333D02*
X127642857Y-120615714D01*
X127642857Y-120615714D02*
X127428571Y-120615714D01*
X127428571Y-120615714D02*
X127285714Y-120663333D01*
X127285714Y-120663333D02*
X127214286Y-120710952D01*
X127214286Y-120710952D02*
X127142857Y-120806190D01*
X127142857Y-120806190D02*
X127142857Y-121091904D01*
X127142857Y-121091904D02*
X127214286Y-121187142D01*
X127214286Y-121187142D02*
X127285714Y-121234761D01*
X127285714Y-121234761D02*
X127428571Y-121282380D01*
X127428571Y-121282380D02*
X127642857Y-121282380D01*
X126500000Y-121282380D02*
X126500000Y-120615714D01*
X126500000Y-120710952D02*
X126428571Y-120663333D01*
X126428571Y-120663333D02*
X126285714Y-120615714D01*
X126285714Y-120615714D02*
X126071428Y-120615714D01*
X126071428Y-120615714D02*
X125928571Y-120663333D01*
X125928571Y-120663333D02*
X125857143Y-120758571D01*
X125857143Y-120758571D02*
X125857143Y-121282380D01*
X125857143Y-120758571D02*
X125785714Y-120663333D01*
X125785714Y-120663333D02*
X125642857Y-120615714D01*
X125642857Y-120615714D02*
X125428571Y-120615714D01*
X125428571Y-120615714D02*
X125285714Y-120663333D01*
X125285714Y-120663333D02*
X125214285Y-120758571D01*
X125214285Y-120758571D02*
X125214285Y-121282380D01*
X143190476Y-114782380D02*
X143523809Y-114306190D01*
X143761904Y-114782380D02*
X143761904Y-113782380D01*
X143761904Y-113782380D02*
X143380952Y-113782380D01*
X143380952Y-113782380D02*
X143285714Y-113830000D01*
X143285714Y-113830000D02*
X143238095Y-113877619D01*
X143238095Y-113877619D02*
X143190476Y-113972857D01*
X143190476Y-113972857D02*
X143190476Y-114115714D01*
X143190476Y-114115714D02*
X143238095Y-114210952D01*
X143238095Y-114210952D02*
X143285714Y-114258571D01*
X143285714Y-114258571D02*
X143380952Y-114306190D01*
X143380952Y-114306190D02*
X143761904Y-114306190D01*
X142809523Y-114496666D02*
X142333333Y-114496666D01*
X142904761Y-114782380D02*
X142571428Y-113782380D01*
X142571428Y-113782380D02*
X142238095Y-114782380D01*
X141999999Y-113782380D02*
X141380952Y-113782380D01*
X141380952Y-113782380D02*
X141714285Y-114163333D01*
X141714285Y-114163333D02*
X141571428Y-114163333D01*
X141571428Y-114163333D02*
X141476190Y-114210952D01*
X141476190Y-114210952D02*
X141428571Y-114258571D01*
X141428571Y-114258571D02*
X141380952Y-114353809D01*
X141380952Y-114353809D02*
X141380952Y-114591904D01*
X141380952Y-114591904D02*
X141428571Y-114687142D01*
X141428571Y-114687142D02*
X141476190Y-114734761D01*
X141476190Y-114734761D02*
X141571428Y-114782380D01*
X141571428Y-114782380D02*
X141857142Y-114782380D01*
X141857142Y-114782380D02*
X141952380Y-114734761D01*
X141952380Y-114734761D02*
X141999999Y-114687142D01*
D14*
X149924095Y-114809523D02*
X150724095Y-114809523D01*
X150724095Y-114809523D02*
X150724095Y-114619047D01*
X150724095Y-114619047D02*
X150686000Y-114504761D01*
X150686000Y-114504761D02*
X150609809Y-114428571D01*
X150609809Y-114428571D02*
X150533619Y-114390476D01*
X150533619Y-114390476D02*
X150381238Y-114352380D01*
X150381238Y-114352380D02*
X150266952Y-114352380D01*
X150266952Y-114352380D02*
X150114571Y-114390476D01*
X150114571Y-114390476D02*
X150038380Y-114428571D01*
X150038380Y-114428571D02*
X149962190Y-114504761D01*
X149962190Y-114504761D02*
X149924095Y-114619047D01*
X149924095Y-114619047D02*
X149924095Y-114809523D01*
X149924095Y-114009523D02*
X150457428Y-114009523D01*
X150724095Y-114009523D02*
X150686000Y-114047619D01*
X150686000Y-114047619D02*
X150647904Y-114009523D01*
X150647904Y-114009523D02*
X150686000Y-113971428D01*
X150686000Y-113971428D02*
X150724095Y-114009523D01*
X150724095Y-114009523D02*
X150647904Y-114009523D01*
X149962190Y-113666667D02*
X149924095Y-113590476D01*
X149924095Y-113590476D02*
X149924095Y-113438095D01*
X149924095Y-113438095D02*
X149962190Y-113361905D01*
X149962190Y-113361905D02*
X150038380Y-113323809D01*
X150038380Y-113323809D02*
X150076476Y-113323809D01*
X150076476Y-113323809D02*
X150152666Y-113361905D01*
X150152666Y-113361905D02*
X150190761Y-113438095D01*
X150190761Y-113438095D02*
X150190761Y-113552381D01*
X150190761Y-113552381D02*
X150228857Y-113628571D01*
X150228857Y-113628571D02*
X150305047Y-113666667D01*
X150305047Y-113666667D02*
X150343142Y-113666667D01*
X150343142Y-113666667D02*
X150419333Y-113628571D01*
X150419333Y-113628571D02*
X150457428Y-113552381D01*
X150457428Y-113552381D02*
X150457428Y-113438095D01*
X150457428Y-113438095D02*
X150419333Y-113361905D01*
X149962190Y-112676190D02*
X149924095Y-112752381D01*
X149924095Y-112752381D02*
X149924095Y-112904762D01*
X149924095Y-112904762D02*
X149962190Y-112980952D01*
X149962190Y-112980952D02*
X150038380Y-113019048D01*
X150038380Y-113019048D02*
X150343142Y-113019048D01*
X150343142Y-113019048D02*
X150419333Y-112980952D01*
X150419333Y-112980952D02*
X150457428Y-112904762D01*
X150457428Y-112904762D02*
X150457428Y-112752381D01*
X150457428Y-112752381D02*
X150419333Y-112676190D01*
X150419333Y-112676190D02*
X150343142Y-112638095D01*
X150343142Y-112638095D02*
X150266952Y-112638095D01*
X150266952Y-112638095D02*
X150190761Y-113019048D01*
X150457428Y-112295238D02*
X149924095Y-112295238D01*
X150381238Y-112295238D02*
X150419333Y-112257143D01*
X150419333Y-112257143D02*
X150457428Y-112180953D01*
X150457428Y-112180953D02*
X150457428Y-112066667D01*
X150457428Y-112066667D02*
X150419333Y-111990476D01*
X150419333Y-111990476D02*
X150343142Y-111952381D01*
X150343142Y-111952381D02*
X149924095Y-111952381D01*
X150647904Y-112333334D02*
X150686000Y-112295238D01*
X150686000Y-112295238D02*
X150724095Y-112219048D01*
X150724095Y-112219048D02*
X150647904Y-112066667D01*
X150647904Y-112066667D02*
X150686000Y-111990476D01*
X150686000Y-111990476D02*
X150724095Y-111952381D01*
X149924095Y-111457143D02*
X149962190Y-111533333D01*
X149962190Y-111533333D02*
X150000285Y-111571428D01*
X150000285Y-111571428D02*
X150076476Y-111609524D01*
X150076476Y-111609524D02*
X150305047Y-111609524D01*
X150305047Y-111609524D02*
X150381238Y-111571428D01*
X150381238Y-111571428D02*
X150419333Y-111533333D01*
X150419333Y-111533333D02*
X150457428Y-111457143D01*
X150457428Y-111457143D02*
X150457428Y-111342857D01*
X150457428Y-111342857D02*
X150419333Y-111266666D01*
X150419333Y-111266666D02*
X150381238Y-111228571D01*
X150381238Y-111228571D02*
X150305047Y-111190476D01*
X150305047Y-111190476D02*
X150076476Y-111190476D01*
X150076476Y-111190476D02*
X150000285Y-111228571D01*
X150000285Y-111228571D02*
X149962190Y-111266666D01*
X149962190Y-111266666D02*
X149924095Y-111342857D01*
X149924095Y-111342857D02*
X149924095Y-111457143D01*
X150000285Y-110847618D02*
X149962190Y-110809523D01*
X149962190Y-110809523D02*
X149924095Y-110847618D01*
X149924095Y-110847618D02*
X149962190Y-110885714D01*
X149962190Y-110885714D02*
X150000285Y-110847618D01*
X150000285Y-110847618D02*
X149924095Y-110847618D01*
X150419333Y-110847618D02*
X150381238Y-110809523D01*
X150381238Y-110809523D02*
X150343142Y-110847618D01*
X150343142Y-110847618D02*
X150381238Y-110885714D01*
X150381238Y-110885714D02*
X150419333Y-110847618D01*
X150419333Y-110847618D02*
X150343142Y-110847618D01*
X149924095Y-109986666D02*
X150724095Y-109986666D01*
X150457428Y-109605714D02*
X149924095Y-109605714D01*
X150381238Y-109605714D02*
X150419333Y-109567619D01*
X150419333Y-109567619D02*
X150457428Y-109491429D01*
X150457428Y-109491429D02*
X150457428Y-109377143D01*
X150457428Y-109377143D02*
X150419333Y-109300952D01*
X150419333Y-109300952D02*
X150343142Y-109262857D01*
X150343142Y-109262857D02*
X149924095Y-109262857D01*
X150457428Y-108539047D02*
X149809809Y-108539047D01*
X149809809Y-108539047D02*
X149733619Y-108577142D01*
X149733619Y-108577142D02*
X149695523Y-108615238D01*
X149695523Y-108615238D02*
X149657428Y-108691428D01*
X149657428Y-108691428D02*
X149657428Y-108805714D01*
X149657428Y-108805714D02*
X149695523Y-108881904D01*
X149962190Y-108539047D02*
X149924095Y-108615238D01*
X149924095Y-108615238D02*
X149924095Y-108767619D01*
X149924095Y-108767619D02*
X149962190Y-108843809D01*
X149962190Y-108843809D02*
X150000285Y-108881904D01*
X150000285Y-108881904D02*
X150076476Y-108920000D01*
X150076476Y-108920000D02*
X150305047Y-108920000D01*
X150305047Y-108920000D02*
X150381238Y-108881904D01*
X150381238Y-108881904D02*
X150419333Y-108843809D01*
X150419333Y-108843809D02*
X150457428Y-108767619D01*
X150457428Y-108767619D02*
X150457428Y-108615238D01*
X150457428Y-108615238D02*
X150419333Y-108539047D01*
X150000285Y-108158094D02*
X149962190Y-108119999D01*
X149962190Y-108119999D02*
X149924095Y-108158094D01*
X149924095Y-108158094D02*
X149962190Y-108196190D01*
X149962190Y-108196190D02*
X150000285Y-108158094D01*
X150000285Y-108158094D02*
X149924095Y-108158094D01*
X149924095Y-107297142D02*
X150724095Y-107297142D01*
X150724095Y-107297142D02*
X150152666Y-107030476D01*
X150152666Y-107030476D02*
X150724095Y-106763809D01*
X150724095Y-106763809D02*
X149924095Y-106763809D01*
X150457428Y-106039999D02*
X149924095Y-106039999D01*
X150457428Y-106382856D02*
X150038380Y-106382856D01*
X150038380Y-106382856D02*
X149962190Y-106344761D01*
X149962190Y-106344761D02*
X149924095Y-106268571D01*
X149924095Y-106268571D02*
X149924095Y-106154285D01*
X149924095Y-106154285D02*
X149962190Y-106078094D01*
X149962190Y-106078094D02*
X150000285Y-106039999D01*
X149962190Y-105316189D02*
X149924095Y-105392380D01*
X149924095Y-105392380D02*
X149924095Y-105544761D01*
X149924095Y-105544761D02*
X149962190Y-105620951D01*
X149962190Y-105620951D02*
X150000285Y-105659046D01*
X150000285Y-105659046D02*
X150076476Y-105697142D01*
X150076476Y-105697142D02*
X150305047Y-105697142D01*
X150305047Y-105697142D02*
X150381238Y-105659046D01*
X150381238Y-105659046D02*
X150419333Y-105620951D01*
X150419333Y-105620951D02*
X150457428Y-105544761D01*
X150457428Y-105544761D02*
X150457428Y-105392380D01*
X150457428Y-105392380D02*
X150419333Y-105316189D01*
X149924095Y-104973332D02*
X150457428Y-104973332D01*
X150724095Y-104973332D02*
X150686000Y-105011428D01*
X150686000Y-105011428D02*
X150647904Y-104973332D01*
X150647904Y-104973332D02*
X150686000Y-104935237D01*
X150686000Y-104935237D02*
X150724095Y-104973332D01*
X150724095Y-104973332D02*
X150647904Y-104973332D01*
X149924095Y-104478095D02*
X149962190Y-104554285D01*
X149962190Y-104554285D02*
X150000285Y-104592380D01*
X150000285Y-104592380D02*
X150076476Y-104630476D01*
X150076476Y-104630476D02*
X150305047Y-104630476D01*
X150305047Y-104630476D02*
X150381238Y-104592380D01*
X150381238Y-104592380D02*
X150419333Y-104554285D01*
X150419333Y-104554285D02*
X150457428Y-104478095D01*
X150457428Y-104478095D02*
X150457428Y-104363809D01*
X150457428Y-104363809D02*
X150419333Y-104287618D01*
X150419333Y-104287618D02*
X150381238Y-104249523D01*
X150381238Y-104249523D02*
X150305047Y-104211428D01*
X150305047Y-104211428D02*
X150076476Y-104211428D01*
X150076476Y-104211428D02*
X150000285Y-104249523D01*
X150000285Y-104249523D02*
X149962190Y-104287618D01*
X149962190Y-104287618D02*
X149924095Y-104363809D01*
X149924095Y-104363809D02*
X149924095Y-104478095D01*
X150343142Y-103121904D02*
X150343142Y-103388570D01*
X149924095Y-103388570D02*
X150724095Y-103388570D01*
X150724095Y-103388570D02*
X150724095Y-103007618D01*
X149924095Y-102359999D02*
X150343142Y-102359999D01*
X150343142Y-102359999D02*
X150419333Y-102398094D01*
X150419333Y-102398094D02*
X150457428Y-102474285D01*
X150457428Y-102474285D02*
X150457428Y-102626666D01*
X150457428Y-102626666D02*
X150419333Y-102702856D01*
X149962190Y-102359999D02*
X149924095Y-102436190D01*
X149924095Y-102436190D02*
X149924095Y-102626666D01*
X149924095Y-102626666D02*
X149962190Y-102702856D01*
X149962190Y-102702856D02*
X150038380Y-102740952D01*
X150038380Y-102740952D02*
X150114571Y-102740952D01*
X150114571Y-102740952D02*
X150190761Y-102702856D01*
X150190761Y-102702856D02*
X150228857Y-102626666D01*
X150228857Y-102626666D02*
X150228857Y-102436190D01*
X150228857Y-102436190D02*
X150266952Y-102359999D01*
X150457428Y-101636189D02*
X149924095Y-101636189D01*
X150457428Y-101979046D02*
X150038380Y-101979046D01*
X150038380Y-101979046D02*
X149962190Y-101940951D01*
X149962190Y-101940951D02*
X149924095Y-101864761D01*
X149924095Y-101864761D02*
X149924095Y-101750475D01*
X149924095Y-101750475D02*
X149962190Y-101674284D01*
X149962190Y-101674284D02*
X150000285Y-101636189D01*
X149962190Y-101293332D02*
X149924095Y-101217141D01*
X149924095Y-101217141D02*
X149924095Y-101064760D01*
X149924095Y-101064760D02*
X149962190Y-100988570D01*
X149962190Y-100988570D02*
X150038380Y-100950474D01*
X150038380Y-100950474D02*
X150076476Y-100950474D01*
X150076476Y-100950474D02*
X150152666Y-100988570D01*
X150152666Y-100988570D02*
X150190761Y-101064760D01*
X150190761Y-101064760D02*
X150190761Y-101179046D01*
X150190761Y-101179046D02*
X150228857Y-101255236D01*
X150228857Y-101255236D02*
X150305047Y-101293332D01*
X150305047Y-101293332D02*
X150343142Y-101293332D01*
X150343142Y-101293332D02*
X150419333Y-101255236D01*
X150419333Y-101255236D02*
X150457428Y-101179046D01*
X150457428Y-101179046D02*
X150457428Y-101064760D01*
X150457428Y-101064760D02*
X150419333Y-100988570D01*
X150457428Y-100721903D02*
X150457428Y-100417141D01*
X150724095Y-100607617D02*
X150038380Y-100607617D01*
X150038380Y-100607617D02*
X149962190Y-100569522D01*
X149962190Y-100569522D02*
X149924095Y-100493332D01*
X149924095Y-100493332D02*
X149924095Y-100417141D01*
X149924095Y-100036189D02*
X149962190Y-100112379D01*
X149962190Y-100112379D02*
X150000285Y-100150474D01*
X150000285Y-100150474D02*
X150076476Y-100188570D01*
X150076476Y-100188570D02*
X150305047Y-100188570D01*
X150305047Y-100188570D02*
X150381238Y-100150474D01*
X150381238Y-100150474D02*
X150419333Y-100112379D01*
X150419333Y-100112379D02*
X150457428Y-100036189D01*
X150457428Y-100036189D02*
X150457428Y-99921903D01*
X150457428Y-99921903D02*
X150419333Y-99845712D01*
X150419333Y-99845712D02*
X150381238Y-99807617D01*
X150381238Y-99807617D02*
X150305047Y-99769522D01*
X150305047Y-99769522D02*
X150076476Y-99769522D01*
X150076476Y-99769522D02*
X150000285Y-99807617D01*
X150000285Y-99807617D02*
X149962190Y-99845712D01*
X149962190Y-99845712D02*
X149924095Y-99921903D01*
X149924095Y-99921903D02*
X149924095Y-100036189D01*
X150686000Y-98527617D02*
X150724095Y-98603807D01*
X150724095Y-98603807D02*
X150724095Y-98718093D01*
X150724095Y-98718093D02*
X150686000Y-98832379D01*
X150686000Y-98832379D02*
X150609809Y-98908569D01*
X150609809Y-98908569D02*
X150533619Y-98946664D01*
X150533619Y-98946664D02*
X150381238Y-98984760D01*
X150381238Y-98984760D02*
X150266952Y-98984760D01*
X150266952Y-98984760D02*
X150114571Y-98946664D01*
X150114571Y-98946664D02*
X150038380Y-98908569D01*
X150038380Y-98908569D02*
X149962190Y-98832379D01*
X149962190Y-98832379D02*
X149924095Y-98718093D01*
X149924095Y-98718093D02*
X149924095Y-98641902D01*
X149924095Y-98641902D02*
X149962190Y-98527617D01*
X149962190Y-98527617D02*
X150000285Y-98489521D01*
X150000285Y-98489521D02*
X150266952Y-98489521D01*
X150266952Y-98489521D02*
X150266952Y-98641902D01*
X149924095Y-98032379D02*
X149962190Y-98108569D01*
X149962190Y-98108569D02*
X150000285Y-98146664D01*
X150000285Y-98146664D02*
X150076476Y-98184760D01*
X150076476Y-98184760D02*
X150305047Y-98184760D01*
X150305047Y-98184760D02*
X150381238Y-98146664D01*
X150381238Y-98146664D02*
X150419333Y-98108569D01*
X150419333Y-98108569D02*
X150457428Y-98032379D01*
X150457428Y-98032379D02*
X150457428Y-97918093D01*
X150457428Y-97918093D02*
X150419333Y-97841902D01*
X150419333Y-97841902D02*
X150381238Y-97803807D01*
X150381238Y-97803807D02*
X150305047Y-97765712D01*
X150305047Y-97765712D02*
X150076476Y-97765712D01*
X150076476Y-97765712D02*
X150000285Y-97803807D01*
X150000285Y-97803807D02*
X149962190Y-97841902D01*
X149962190Y-97841902D02*
X149924095Y-97918093D01*
X149924095Y-97918093D02*
X149924095Y-98032379D01*
X150762190Y-97879998D02*
X150647904Y-97994283D01*
X149924095Y-97422854D02*
X150457428Y-97422854D01*
X150381238Y-97422854D02*
X150419333Y-97384759D01*
X150419333Y-97384759D02*
X150457428Y-97308569D01*
X150457428Y-97308569D02*
X150457428Y-97194283D01*
X150457428Y-97194283D02*
X150419333Y-97118092D01*
X150419333Y-97118092D02*
X150343142Y-97079997D01*
X150343142Y-97079997D02*
X149924095Y-97079997D01*
X150343142Y-97079997D02*
X150419333Y-97041902D01*
X150419333Y-97041902D02*
X150457428Y-96965711D01*
X150457428Y-96965711D02*
X150457428Y-96851426D01*
X150457428Y-96851426D02*
X150419333Y-96775235D01*
X150419333Y-96775235D02*
X150343142Y-96737140D01*
X150343142Y-96737140D02*
X149924095Y-96737140D01*
X149962190Y-96051425D02*
X149924095Y-96127616D01*
X149924095Y-96127616D02*
X149924095Y-96279997D01*
X149924095Y-96279997D02*
X149962190Y-96356187D01*
X149962190Y-96356187D02*
X150038380Y-96394283D01*
X150038380Y-96394283D02*
X150343142Y-96394283D01*
X150343142Y-96394283D02*
X150419333Y-96356187D01*
X150419333Y-96356187D02*
X150457428Y-96279997D01*
X150457428Y-96279997D02*
X150457428Y-96127616D01*
X150457428Y-96127616D02*
X150419333Y-96051425D01*
X150419333Y-96051425D02*
X150343142Y-96013330D01*
X150343142Y-96013330D02*
X150266952Y-96013330D01*
X150266952Y-96013330D02*
X150190761Y-96394283D01*
X150457428Y-95746664D02*
X150457428Y-95327616D01*
X150457428Y-95327616D02*
X149924095Y-95746664D01*
X149924095Y-95746664D02*
X149924095Y-95327616D01*
X150724095Y-94657140D02*
X149924095Y-94390473D01*
X149924095Y-94390473D02*
X150724095Y-94123807D01*
X149924095Y-93857140D02*
X150457428Y-93857140D01*
X150724095Y-93857140D02*
X150686000Y-93895236D01*
X150686000Y-93895236D02*
X150647904Y-93857140D01*
X150647904Y-93857140D02*
X150686000Y-93819045D01*
X150686000Y-93819045D02*
X150724095Y-93857140D01*
X150724095Y-93857140D02*
X150647904Y-93857140D01*
X149962190Y-93171426D02*
X149924095Y-93247617D01*
X149924095Y-93247617D02*
X149924095Y-93399998D01*
X149924095Y-93399998D02*
X149962190Y-93476188D01*
X149962190Y-93476188D02*
X150038380Y-93514284D01*
X150038380Y-93514284D02*
X150343142Y-93514284D01*
X150343142Y-93514284D02*
X150419333Y-93476188D01*
X150419333Y-93476188D02*
X150457428Y-93399998D01*
X150457428Y-93399998D02*
X150457428Y-93247617D01*
X150457428Y-93247617D02*
X150419333Y-93171426D01*
X150419333Y-93171426D02*
X150343142Y-93133331D01*
X150343142Y-93133331D02*
X150266952Y-93133331D01*
X150266952Y-93133331D02*
X150190761Y-93514284D01*
X150457428Y-92866665D02*
X149924095Y-92676189D01*
X150457428Y-92485712D02*
X149924095Y-92676189D01*
X149924095Y-92676189D02*
X149733619Y-92752379D01*
X149733619Y-92752379D02*
X149695523Y-92790474D01*
X149695523Y-92790474D02*
X149657428Y-92866665D01*
X149924095Y-92180950D02*
X150457428Y-92180950D01*
X150305047Y-92180950D02*
X150381238Y-92142855D01*
X150381238Y-92142855D02*
X150419333Y-92104760D01*
X150419333Y-92104760D02*
X150457428Y-92028569D01*
X150457428Y-92028569D02*
X150457428Y-91952379D01*
X149924095Y-91342855D02*
X150343142Y-91342855D01*
X150343142Y-91342855D02*
X150419333Y-91380950D01*
X150419333Y-91380950D02*
X150457428Y-91457141D01*
X150457428Y-91457141D02*
X150457428Y-91609522D01*
X150457428Y-91609522D02*
X150419333Y-91685712D01*
X149962190Y-91342855D02*
X149924095Y-91419046D01*
X149924095Y-91419046D02*
X149924095Y-91609522D01*
X149924095Y-91609522D02*
X149962190Y-91685712D01*
X149962190Y-91685712D02*
X150038380Y-91723808D01*
X150038380Y-91723808D02*
X150114571Y-91723808D01*
X150114571Y-91723808D02*
X150190761Y-91685712D01*
X150190761Y-91685712D02*
X150228857Y-91609522D01*
X150228857Y-91609522D02*
X150228857Y-91419046D01*
X150228857Y-91419046D02*
X150266952Y-91342855D01*
D11*
X120500000Y-114782380D02*
X120833333Y-114306190D01*
X121071428Y-114782380D02*
X121071428Y-113782380D01*
X121071428Y-113782380D02*
X120690476Y-113782380D01*
X120690476Y-113782380D02*
X120595238Y-113830000D01*
X120595238Y-113830000D02*
X120547619Y-113877619D01*
X120547619Y-113877619D02*
X120500000Y-113972857D01*
X120500000Y-113972857D02*
X120500000Y-114115714D01*
X120500000Y-114115714D02*
X120547619Y-114210952D01*
X120547619Y-114210952D02*
X120595238Y-114258571D01*
X120595238Y-114258571D02*
X120690476Y-114306190D01*
X120690476Y-114306190D02*
X121071428Y-114306190D01*
X120119047Y-114496666D02*
X119642857Y-114496666D01*
X120214285Y-114782380D02*
X119880952Y-113782380D01*
X119880952Y-113782380D02*
X119547619Y-114782380D01*
X119261904Y-113877619D02*
X119214285Y-113830000D01*
X119214285Y-113830000D02*
X119119047Y-113782380D01*
X119119047Y-113782380D02*
X118880952Y-113782380D01*
X118880952Y-113782380D02*
X118785714Y-113830000D01*
X118785714Y-113830000D02*
X118738095Y-113877619D01*
X118738095Y-113877619D02*
X118690476Y-113972857D01*
X118690476Y-113972857D02*
X118690476Y-114068095D01*
X118690476Y-114068095D02*
X118738095Y-114210952D01*
X118738095Y-114210952D02*
X119309523Y-114782380D01*
X119309523Y-114782380D02*
X118690476Y-114782380D01*
D12*
X139035713Y-100282380D02*
X138416666Y-100282380D01*
X138416666Y-100282380D02*
X138749999Y-100663333D01*
X138749999Y-100663333D02*
X138607142Y-100663333D01*
X138607142Y-100663333D02*
X138511904Y-100710952D01*
X138511904Y-100710952D02*
X138464285Y-100758571D01*
X138464285Y-100758571D02*
X138416666Y-100853809D01*
X138416666Y-100853809D02*
X138416666Y-101091904D01*
X138416666Y-101091904D02*
X138464285Y-101187142D01*
X138464285Y-101187142D02*
X138511904Y-101234761D01*
X138511904Y-101234761D02*
X138607142Y-101282380D01*
X138607142Y-101282380D02*
X138892856Y-101282380D01*
X138892856Y-101282380D02*
X138988094Y-101234761D01*
X138988094Y-101234761D02*
X139035713Y-101187142D01*
X138083332Y-100282380D02*
X137464285Y-100282380D01*
X137464285Y-100282380D02*
X137797618Y-100663333D01*
X137797618Y-100663333D02*
X137654761Y-100663333D01*
X137654761Y-100663333D02*
X137559523Y-100710952D01*
X137559523Y-100710952D02*
X137511904Y-100758571D01*
X137511904Y-100758571D02*
X137464285Y-100853809D01*
X137464285Y-100853809D02*
X137464285Y-101091904D01*
X137464285Y-101091904D02*
X137511904Y-101187142D01*
X137511904Y-101187142D02*
X137559523Y-101234761D01*
X137559523Y-101234761D02*
X137654761Y-101282380D01*
X137654761Y-101282380D02*
X137940475Y-101282380D01*
X137940475Y-101282380D02*
X138035713Y-101234761D01*
X138035713Y-101234761D02*
X138083332Y-101187142D01*
X136845237Y-100282380D02*
X136749999Y-100282380D01*
X136749999Y-100282380D02*
X136654761Y-100330000D01*
X136654761Y-100330000D02*
X136607142Y-100377619D01*
X136607142Y-100377619D02*
X136559523Y-100472857D01*
X136559523Y-100472857D02*
X136511904Y-100663333D01*
X136511904Y-100663333D02*
X136511904Y-100901428D01*
X136511904Y-100901428D02*
X136559523Y-101091904D01*
X136559523Y-101091904D02*
X136607142Y-101187142D01*
X136607142Y-101187142D02*
X136654761Y-101234761D01*
X136654761Y-101234761D02*
X136749999Y-101282380D01*
X136749999Y-101282380D02*
X136845237Y-101282380D01*
X136845237Y-101282380D02*
X136940475Y-101234761D01*
X136940475Y-101234761D02*
X136988094Y-101187142D01*
X136988094Y-101187142D02*
X137035713Y-101091904D01*
X137035713Y-101091904D02*
X137083332Y-100901428D01*
X137083332Y-100901428D02*
X137083332Y-100663333D01*
X137083332Y-100663333D02*
X137035713Y-100472857D01*
X137035713Y-100472857D02*
X136988094Y-100377619D01*
X136988094Y-100377619D02*
X136940475Y-100330000D01*
X136940475Y-100330000D02*
X136845237Y-100282380D01*
D15*
X131738857Y-106690476D02*
X130538857Y-106690476D01*
X130538857Y-106690476D02*
X130538857Y-106995238D01*
X130538857Y-106995238D02*
X130596000Y-107071428D01*
X130596000Y-107071428D02*
X130653142Y-107109523D01*
X130653142Y-107109523D02*
X130767428Y-107147619D01*
X130767428Y-107147619D02*
X130938857Y-107147619D01*
X130938857Y-107147619D02*
X131053142Y-107109523D01*
X131053142Y-107109523D02*
X131110285Y-107071428D01*
X131110285Y-107071428D02*
X131167428Y-106995238D01*
X131167428Y-106995238D02*
X131167428Y-106690476D01*
X131738857Y-107490476D02*
X130538857Y-107490476D01*
X131624571Y-108328571D02*
X131681714Y-108290475D01*
X131681714Y-108290475D02*
X131738857Y-108176190D01*
X131738857Y-108176190D02*
X131738857Y-108099999D01*
X131738857Y-108099999D02*
X131681714Y-107985713D01*
X131681714Y-107985713D02*
X131567428Y-107909523D01*
X131567428Y-107909523D02*
X131453142Y-107871428D01*
X131453142Y-107871428D02*
X131224571Y-107833332D01*
X131224571Y-107833332D02*
X131053142Y-107833332D01*
X131053142Y-107833332D02*
X130824571Y-107871428D01*
X130824571Y-107871428D02*
X130710285Y-107909523D01*
X130710285Y-107909523D02*
X130596000Y-107985713D01*
X130596000Y-107985713D02*
X130538857Y-108099999D01*
X130538857Y-108099999D02*
X130538857Y-108176190D01*
X130538857Y-108176190D02*
X130596000Y-108290475D01*
X130596000Y-108290475D02*
X130653142Y-108328571D01*
X131738857Y-109090475D02*
X131738857Y-108633332D01*
X131738857Y-108861904D02*
X130538857Y-108861904D01*
X130538857Y-108861904D02*
X130710285Y-108785713D01*
X130710285Y-108785713D02*
X130824571Y-108709523D01*
X130824571Y-108709523D02*
X130881714Y-108633332D01*
X130538857Y-109776190D02*
X130538857Y-109623809D01*
X130538857Y-109623809D02*
X130596000Y-109547618D01*
X130596000Y-109547618D02*
X130653142Y-109509523D01*
X130653142Y-109509523D02*
X130824571Y-109433333D01*
X130824571Y-109433333D02*
X131053142Y-109395237D01*
X131053142Y-109395237D02*
X131510285Y-109395237D01*
X131510285Y-109395237D02*
X131624571Y-109433333D01*
X131624571Y-109433333D02*
X131681714Y-109471428D01*
X131681714Y-109471428D02*
X131738857Y-109547618D01*
X131738857Y-109547618D02*
X131738857Y-109699999D01*
X131738857Y-109699999D02*
X131681714Y-109776190D01*
X131681714Y-109776190D02*
X131624571Y-109814285D01*
X131624571Y-109814285D02*
X131510285Y-109852380D01*
X131510285Y-109852380D02*
X131224571Y-109852380D01*
X131224571Y-109852380D02*
X131110285Y-109814285D01*
X131110285Y-109814285D02*
X131053142Y-109776190D01*
X131053142Y-109776190D02*
X130996000Y-109699999D01*
X130996000Y-109699999D02*
X130996000Y-109547618D01*
X130996000Y-109547618D02*
X131053142Y-109471428D01*
X131053142Y-109471428D02*
X131110285Y-109433333D01*
X131110285Y-109433333D02*
X131224571Y-109395237D01*
X131110285Y-110461904D02*
X131110285Y-110195238D01*
X131738857Y-110195238D02*
X130538857Y-110195238D01*
X130538857Y-110195238D02*
X130538857Y-110576190D01*
X131738857Y-111299999D02*
X131738857Y-110842856D01*
X131738857Y-111071428D02*
X130538857Y-111071428D01*
X130538857Y-111071428D02*
X130710285Y-110995237D01*
X130710285Y-110995237D02*
X130824571Y-110919047D01*
X130824571Y-110919047D02*
X130881714Y-110842856D01*
X130538857Y-112023809D02*
X130538857Y-111642857D01*
X130538857Y-111642857D02*
X131110285Y-111604761D01*
X131110285Y-111604761D02*
X131053142Y-111642857D01*
X131053142Y-111642857D02*
X130996000Y-111719047D01*
X130996000Y-111719047D02*
X130996000Y-111909523D01*
X130996000Y-111909523D02*
X131053142Y-111985714D01*
X131053142Y-111985714D02*
X131110285Y-112023809D01*
X131110285Y-112023809D02*
X131224571Y-112061904D01*
X131224571Y-112061904D02*
X131510285Y-112061904D01*
X131510285Y-112061904D02*
X131624571Y-112023809D01*
X131624571Y-112023809D02*
X131681714Y-111985714D01*
X131681714Y-111985714D02*
X131738857Y-111909523D01*
X131738857Y-111909523D02*
X131738857Y-111719047D01*
X131738857Y-111719047D02*
X131681714Y-111642857D01*
X131681714Y-111642857D02*
X131624571Y-111604761D01*
X130538857Y-112328571D02*
X130538857Y-112823809D01*
X130538857Y-112823809D02*
X130996000Y-112557143D01*
X130996000Y-112557143D02*
X130996000Y-112671428D01*
X130996000Y-112671428D02*
X131053142Y-112747619D01*
X131053142Y-112747619D02*
X131110285Y-112785714D01*
X131110285Y-112785714D02*
X131224571Y-112823809D01*
X131224571Y-112823809D02*
X131510285Y-112823809D01*
X131510285Y-112823809D02*
X131624571Y-112785714D01*
X131624571Y-112785714D02*
X131681714Y-112747619D01*
X131681714Y-112747619D02*
X131738857Y-112671428D01*
X131738857Y-112671428D02*
X131738857Y-112442857D01*
X131738857Y-112442857D02*
X131681714Y-112366666D01*
X131681714Y-112366666D02*
X131624571Y-112328571D01*
X131738857Y-113585714D02*
X131738857Y-113128571D01*
X131738857Y-113357143D02*
X130538857Y-113357143D01*
X130538857Y-113357143D02*
X130710285Y-113280952D01*
X130710285Y-113280952D02*
X130824571Y-113204762D01*
X130824571Y-113204762D02*
X130881714Y-113128571D01*
X130538857Y-113852381D02*
X130538857Y-114347619D01*
X130538857Y-114347619D02*
X130996000Y-114080953D01*
X130996000Y-114080953D02*
X130996000Y-114195238D01*
X130996000Y-114195238D02*
X131053142Y-114271429D01*
X131053142Y-114271429D02*
X131110285Y-114309524D01*
X131110285Y-114309524D02*
X131224571Y-114347619D01*
X131224571Y-114347619D02*
X131510285Y-114347619D01*
X131510285Y-114347619D02*
X131624571Y-114309524D01*
X131624571Y-114309524D02*
X131681714Y-114271429D01*
X131681714Y-114271429D02*
X131738857Y-114195238D01*
X131738857Y-114195238D02*
X131738857Y-113966667D01*
X131738857Y-113966667D02*
X131681714Y-113890476D01*
X131681714Y-113890476D02*
X131624571Y-113852381D01*
D11*
X124250000Y-113782380D02*
X124583333Y-113306190D01*
X124821428Y-113782380D02*
X124821428Y-112782380D01*
X124821428Y-112782380D02*
X124440476Y-112782380D01*
X124440476Y-112782380D02*
X124345238Y-112830000D01*
X124345238Y-112830000D02*
X124297619Y-112877619D01*
X124297619Y-112877619D02*
X124250000Y-112972857D01*
X124250000Y-112972857D02*
X124250000Y-113115714D01*
X124250000Y-113115714D02*
X124297619Y-113210952D01*
X124297619Y-113210952D02*
X124345238Y-113258571D01*
X124345238Y-113258571D02*
X124440476Y-113306190D01*
X124440476Y-113306190D02*
X124821428Y-113306190D01*
X123869047Y-113496666D02*
X123392857Y-113496666D01*
X123964285Y-113782380D02*
X123630952Y-112782380D01*
X123630952Y-112782380D02*
X123297619Y-113782380D01*
X122440476Y-113782380D02*
X123011904Y-113782380D01*
X122726190Y-113782380D02*
X122726190Y-112782380D01*
X122726190Y-112782380D02*
X122821428Y-112925238D01*
X122821428Y-112925238D02*
X122916666Y-113020476D01*
X122916666Y-113020476D02*
X123011904Y-113068095D01*
D16*
X132349999Y-82302857D02*
X130826190Y-82302857D01*
X131588094Y-83064761D02*
X131588094Y-81540952D01*
X128673809Y-82302857D02*
X127150000Y-82302857D01*
D12*
X145761904Y-81542380D02*
X145761904Y-82351904D01*
X145761904Y-82351904D02*
X145714285Y-82447142D01*
X145714285Y-82447142D02*
X145666666Y-82494761D01*
X145666666Y-82494761D02*
X145571428Y-82542380D01*
X145571428Y-82542380D02*
X145380952Y-82542380D01*
X145380952Y-82542380D02*
X145285714Y-82494761D01*
X145285714Y-82494761D02*
X145238095Y-82447142D01*
X145238095Y-82447142D02*
X145190476Y-82351904D01*
X145190476Y-82351904D02*
X145190476Y-81542380D01*
X144761904Y-82494761D02*
X144619047Y-82542380D01*
X144619047Y-82542380D02*
X144380952Y-82542380D01*
X144380952Y-82542380D02*
X144285714Y-82494761D01*
X144285714Y-82494761D02*
X144238095Y-82447142D01*
X144238095Y-82447142D02*
X144190476Y-82351904D01*
X144190476Y-82351904D02*
X144190476Y-82256666D01*
X144190476Y-82256666D02*
X144238095Y-82161428D01*
X144238095Y-82161428D02*
X144285714Y-82113809D01*
X144285714Y-82113809D02*
X144380952Y-82066190D01*
X144380952Y-82066190D02*
X144571428Y-82018571D01*
X144571428Y-82018571D02*
X144666666Y-81970952D01*
X144666666Y-81970952D02*
X144714285Y-81923333D01*
X144714285Y-81923333D02*
X144761904Y-81828095D01*
X144761904Y-81828095D02*
X144761904Y-81732857D01*
X144761904Y-81732857D02*
X144714285Y-81637619D01*
X144714285Y-81637619D02*
X144666666Y-81590000D01*
X144666666Y-81590000D02*
X144571428Y-81542380D01*
X144571428Y-81542380D02*
X144333333Y-81542380D01*
X144333333Y-81542380D02*
X144190476Y-81590000D01*
X143428571Y-82018571D02*
X143285714Y-82066190D01*
X143285714Y-82066190D02*
X143238095Y-82113809D01*
X143238095Y-82113809D02*
X143190476Y-82209047D01*
X143190476Y-82209047D02*
X143190476Y-82351904D01*
X143190476Y-82351904D02*
X143238095Y-82447142D01*
X143238095Y-82447142D02*
X143285714Y-82494761D01*
X143285714Y-82494761D02*
X143380952Y-82542380D01*
X143380952Y-82542380D02*
X143761904Y-82542380D01*
X143761904Y-82542380D02*
X143761904Y-81542380D01*
X143761904Y-81542380D02*
X143428571Y-81542380D01*
X143428571Y-81542380D02*
X143333333Y-81590000D01*
X143333333Y-81590000D02*
X143285714Y-81637619D01*
X143285714Y-81637619D02*
X143238095Y-81732857D01*
X143238095Y-81732857D02*
X143238095Y-81828095D01*
X143238095Y-81828095D02*
X143285714Y-81923333D01*
X143285714Y-81923333D02*
X143333333Y-81970952D01*
X143333333Y-81970952D02*
X143428571Y-82018571D01*
X143428571Y-82018571D02*
X143761904Y-82018571D01*
X148990475Y-84162380D02*
X148990475Y-83162380D01*
X148990475Y-83162380D02*
X148609523Y-83162380D01*
X148609523Y-83162380D02*
X148514285Y-83210000D01*
X148514285Y-83210000D02*
X148466666Y-83257619D01*
X148466666Y-83257619D02*
X148419047Y-83352857D01*
X148419047Y-83352857D02*
X148419047Y-83495714D01*
X148419047Y-83495714D02*
X148466666Y-83590952D01*
X148466666Y-83590952D02*
X148514285Y-83638571D01*
X148514285Y-83638571D02*
X148609523Y-83686190D01*
X148609523Y-83686190D02*
X148990475Y-83686190D01*
X147799999Y-83162380D02*
X147609523Y-83162380D01*
X147609523Y-83162380D02*
X147514285Y-83210000D01*
X147514285Y-83210000D02*
X147419047Y-83305238D01*
X147419047Y-83305238D02*
X147371428Y-83495714D01*
X147371428Y-83495714D02*
X147371428Y-83829047D01*
X147371428Y-83829047D02*
X147419047Y-84019523D01*
X147419047Y-84019523D02*
X147514285Y-84114761D01*
X147514285Y-84114761D02*
X147609523Y-84162380D01*
X147609523Y-84162380D02*
X147799999Y-84162380D01*
X147799999Y-84162380D02*
X147895237Y-84114761D01*
X147895237Y-84114761D02*
X147990475Y-84019523D01*
X147990475Y-84019523D02*
X148038094Y-83829047D01*
X148038094Y-83829047D02*
X148038094Y-83495714D01*
X148038094Y-83495714D02*
X147990475Y-83305238D01*
X147990475Y-83305238D02*
X147895237Y-83210000D01*
X147895237Y-83210000D02*
X147799999Y-83162380D01*
X147038094Y-83162380D02*
X146799999Y-84162380D01*
X146799999Y-84162380D02*
X146609523Y-83448095D01*
X146609523Y-83448095D02*
X146419047Y-84162380D01*
X146419047Y-84162380D02*
X146180952Y-83162380D01*
X145799999Y-83638571D02*
X145466666Y-83638571D01*
X145323809Y-84162380D02*
X145799999Y-84162380D01*
X145799999Y-84162380D02*
X145799999Y-83162380D01*
X145799999Y-83162380D02*
X145323809Y-83162380D01*
X144323809Y-84162380D02*
X144657142Y-83686190D01*
X144895237Y-84162380D02*
X144895237Y-83162380D01*
X144895237Y-83162380D02*
X144514285Y-83162380D01*
X144514285Y-83162380D02*
X144419047Y-83210000D01*
X144419047Y-83210000D02*
X144371428Y-83257619D01*
X144371428Y-83257619D02*
X144323809Y-83352857D01*
X144323809Y-83352857D02*
X144323809Y-83495714D01*
X144323809Y-83495714D02*
X144371428Y-83590952D01*
X144371428Y-83590952D02*
X144419047Y-83638571D01*
X144419047Y-83638571D02*
X144514285Y-83686190D01*
X144514285Y-83686190D02*
X144895237Y-83686190D01*
X143104761Y-83162380D02*
X142914285Y-83162380D01*
X142914285Y-83162380D02*
X142819047Y-83210000D01*
X142819047Y-83210000D02*
X142723809Y-83305238D01*
X142723809Y-83305238D02*
X142676190Y-83495714D01*
X142676190Y-83495714D02*
X142676190Y-83829047D01*
X142676190Y-83829047D02*
X142723809Y-84019523D01*
X142723809Y-84019523D02*
X142819047Y-84114761D01*
X142819047Y-84114761D02*
X142914285Y-84162380D01*
X142914285Y-84162380D02*
X143104761Y-84162380D01*
X143104761Y-84162380D02*
X143199999Y-84114761D01*
X143199999Y-84114761D02*
X143295237Y-84019523D01*
X143295237Y-84019523D02*
X143342856Y-83829047D01*
X143342856Y-83829047D02*
X143342856Y-83495714D01*
X143342856Y-83495714D02*
X143295237Y-83305238D01*
X143295237Y-83305238D02*
X143199999Y-83210000D01*
X143199999Y-83210000D02*
X143104761Y-83162380D01*
X142247618Y-84162380D02*
X142247618Y-83162380D01*
X142247618Y-83162380D02*
X141676190Y-84162380D01*
X141676190Y-84162380D02*
X141676190Y-83162380D01*
X140723809Y-84162380D02*
X141199999Y-84162380D01*
X141199999Y-84162380D02*
X141199999Y-83162380D01*
X140199999Y-83686190D02*
X140199999Y-84162380D01*
X140533332Y-83162380D02*
X140199999Y-83686190D01*
X140199999Y-83686190D02*
X139866666Y-83162380D01*
X147347618Y-85782380D02*
X147347618Y-84782380D01*
X147347618Y-84782380D02*
X146776190Y-85782380D01*
X146776190Y-85782380D02*
X146776190Y-84782380D01*
X146109523Y-84782380D02*
X145919047Y-84782380D01*
X145919047Y-84782380D02*
X145823809Y-84830000D01*
X145823809Y-84830000D02*
X145728571Y-84925238D01*
X145728571Y-84925238D02*
X145680952Y-85115714D01*
X145680952Y-85115714D02*
X145680952Y-85449047D01*
X145680952Y-85449047D02*
X145728571Y-85639523D01*
X145728571Y-85639523D02*
X145823809Y-85734761D01*
X145823809Y-85734761D02*
X145919047Y-85782380D01*
X145919047Y-85782380D02*
X146109523Y-85782380D01*
X146109523Y-85782380D02*
X146204761Y-85734761D01*
X146204761Y-85734761D02*
X146299999Y-85639523D01*
X146299999Y-85639523D02*
X146347618Y-85449047D01*
X146347618Y-85449047D02*
X146347618Y-85115714D01*
X146347618Y-85115714D02*
X146299999Y-84925238D01*
X146299999Y-84925238D02*
X146204761Y-84830000D01*
X146204761Y-84830000D02*
X146109523Y-84782380D01*
X144652380Y-85782380D02*
X144652380Y-84782380D01*
X144652380Y-84782380D02*
X144414285Y-84782380D01*
X144414285Y-84782380D02*
X144271428Y-84830000D01*
X144271428Y-84830000D02*
X144176190Y-84925238D01*
X144176190Y-84925238D02*
X144128571Y-85020476D01*
X144128571Y-85020476D02*
X144080952Y-85210952D01*
X144080952Y-85210952D02*
X144080952Y-85353809D01*
X144080952Y-85353809D02*
X144128571Y-85544285D01*
X144128571Y-85544285D02*
X144176190Y-85639523D01*
X144176190Y-85639523D02*
X144271428Y-85734761D01*
X144271428Y-85734761D02*
X144414285Y-85782380D01*
X144414285Y-85782380D02*
X144652380Y-85782380D01*
X143699999Y-85496666D02*
X143223809Y-85496666D01*
X143795237Y-85782380D02*
X143461904Y-84782380D01*
X143461904Y-84782380D02*
X143128571Y-85782380D01*
X142938094Y-84782380D02*
X142366666Y-84782380D01*
X142652380Y-85782380D02*
X142652380Y-84782380D01*
X142080951Y-85496666D02*
X141604761Y-85496666D01*
X142176189Y-85782380D02*
X141842856Y-84782380D01*
X141842856Y-84782380D02*
X141509523Y-85782380D01*
X137964285Y-98282380D02*
X138535713Y-98282380D01*
X138249999Y-98282380D02*
X138249999Y-97282380D01*
X138249999Y-97282380D02*
X138345237Y-97425238D01*
X138345237Y-97425238D02*
X138440475Y-97520476D01*
X138440475Y-97520476D02*
X138535713Y-97568095D01*
X137535713Y-98282380D02*
X137535713Y-97282380D01*
X136964285Y-98282380D02*
X137392856Y-97710952D01*
X136964285Y-97282380D02*
X137535713Y-97853809D01*
X120254761Y-81782380D02*
X119635714Y-81782380D01*
X119635714Y-81782380D02*
X119969047Y-82163333D01*
X119969047Y-82163333D02*
X119826190Y-82163333D01*
X119826190Y-82163333D02*
X119730952Y-82210952D01*
X119730952Y-82210952D02*
X119683333Y-82258571D01*
X119683333Y-82258571D02*
X119635714Y-82353809D01*
X119635714Y-82353809D02*
X119635714Y-82591904D01*
X119635714Y-82591904D02*
X119683333Y-82687142D01*
X119683333Y-82687142D02*
X119730952Y-82734761D01*
X119730952Y-82734761D02*
X119826190Y-82782380D01*
X119826190Y-82782380D02*
X120111904Y-82782380D01*
X120111904Y-82782380D02*
X120207142Y-82734761D01*
X120207142Y-82734761D02*
X120254761Y-82687142D01*
X119207142Y-82687142D02*
X119159523Y-82734761D01*
X119159523Y-82734761D02*
X119207142Y-82782380D01*
X119207142Y-82782380D02*
X119254761Y-82734761D01*
X119254761Y-82734761D02*
X119207142Y-82687142D01*
X119207142Y-82687142D02*
X119207142Y-82782380D01*
X118826190Y-81782380D02*
X118207143Y-81782380D01*
X118207143Y-81782380D02*
X118540476Y-82163333D01*
X118540476Y-82163333D02*
X118397619Y-82163333D01*
X118397619Y-82163333D02*
X118302381Y-82210952D01*
X118302381Y-82210952D02*
X118254762Y-82258571D01*
X118254762Y-82258571D02*
X118207143Y-82353809D01*
X118207143Y-82353809D02*
X118207143Y-82591904D01*
X118207143Y-82591904D02*
X118254762Y-82687142D01*
X118254762Y-82687142D02*
X118302381Y-82734761D01*
X118302381Y-82734761D02*
X118397619Y-82782380D01*
X118397619Y-82782380D02*
X118683333Y-82782380D01*
X118683333Y-82782380D02*
X118778571Y-82734761D01*
X118778571Y-82734761D02*
X118826190Y-82687142D01*
X117873809Y-82115714D02*
X117635714Y-82782380D01*
X117635714Y-82782380D02*
X117397619Y-82115714D01*
X116416666Y-82401428D02*
X115654762Y-82401428D01*
X114102381Y-81782380D02*
X114578571Y-81782380D01*
X114578571Y-81782380D02*
X114626190Y-82258571D01*
X114626190Y-82258571D02*
X114578571Y-82210952D01*
X114578571Y-82210952D02*
X114483333Y-82163333D01*
X114483333Y-82163333D02*
X114245238Y-82163333D01*
X114245238Y-82163333D02*
X114150000Y-82210952D01*
X114150000Y-82210952D02*
X114102381Y-82258571D01*
X114102381Y-82258571D02*
X114054762Y-82353809D01*
X114054762Y-82353809D02*
X114054762Y-82591904D01*
X114054762Y-82591904D02*
X114102381Y-82687142D01*
X114102381Y-82687142D02*
X114150000Y-82734761D01*
X114150000Y-82734761D02*
X114245238Y-82782380D01*
X114245238Y-82782380D02*
X114483333Y-82782380D01*
X114483333Y-82782380D02*
X114578571Y-82734761D01*
X114578571Y-82734761D02*
X114626190Y-82687142D01*
X113721428Y-82115714D02*
X113483333Y-82782380D01*
X113483333Y-82782380D02*
X113245238Y-82115714D01*
X131035713Y-88282380D02*
X130416666Y-88282380D01*
X130416666Y-88282380D02*
X130749999Y-88663333D01*
X130749999Y-88663333D02*
X130607142Y-88663333D01*
X130607142Y-88663333D02*
X130511904Y-88710952D01*
X130511904Y-88710952D02*
X130464285Y-88758571D01*
X130464285Y-88758571D02*
X130416666Y-88853809D01*
X130416666Y-88853809D02*
X130416666Y-89091904D01*
X130416666Y-89091904D02*
X130464285Y-89187142D01*
X130464285Y-89187142D02*
X130511904Y-89234761D01*
X130511904Y-89234761D02*
X130607142Y-89282380D01*
X130607142Y-89282380D02*
X130892856Y-89282380D01*
X130892856Y-89282380D02*
X130988094Y-89234761D01*
X130988094Y-89234761D02*
X131035713Y-89187142D01*
X130083332Y-88282380D02*
X129464285Y-88282380D01*
X129464285Y-88282380D02*
X129797618Y-88663333D01*
X129797618Y-88663333D02*
X129654761Y-88663333D01*
X129654761Y-88663333D02*
X129559523Y-88710952D01*
X129559523Y-88710952D02*
X129511904Y-88758571D01*
X129511904Y-88758571D02*
X129464285Y-88853809D01*
X129464285Y-88853809D02*
X129464285Y-89091904D01*
X129464285Y-89091904D02*
X129511904Y-89187142D01*
X129511904Y-89187142D02*
X129559523Y-89234761D01*
X129559523Y-89234761D02*
X129654761Y-89282380D01*
X129654761Y-89282380D02*
X129940475Y-89282380D01*
X129940475Y-89282380D02*
X130035713Y-89234761D01*
X130035713Y-89234761D02*
X130083332Y-89187142D01*
X128845237Y-88282380D02*
X128749999Y-88282380D01*
X128749999Y-88282380D02*
X128654761Y-88330000D01*
X128654761Y-88330000D02*
X128607142Y-88377619D01*
X128607142Y-88377619D02*
X128559523Y-88472857D01*
X128559523Y-88472857D02*
X128511904Y-88663333D01*
X128511904Y-88663333D02*
X128511904Y-88901428D01*
X128511904Y-88901428D02*
X128559523Y-89091904D01*
X128559523Y-89091904D02*
X128607142Y-89187142D01*
X128607142Y-89187142D02*
X128654761Y-89234761D01*
X128654761Y-89234761D02*
X128749999Y-89282380D01*
X128749999Y-89282380D02*
X128845237Y-89282380D01*
X128845237Y-89282380D02*
X128940475Y-89234761D01*
X128940475Y-89234761D02*
X128988094Y-89187142D01*
X128988094Y-89187142D02*
X129035713Y-89091904D01*
X129035713Y-89091904D02*
X129083332Y-88901428D01*
X129083332Y-88901428D02*
X129083332Y-88663333D01*
X129083332Y-88663333D02*
X129035713Y-88472857D01*
X129035713Y-88472857D02*
X128988094Y-88377619D01*
X128988094Y-88377619D02*
X128940475Y-88330000D01*
X128940475Y-88330000D02*
X128845237Y-88282380D01*
D11*
X139440476Y-113782380D02*
X139773809Y-113306190D01*
X140011904Y-113782380D02*
X140011904Y-112782380D01*
X140011904Y-112782380D02*
X139630952Y-112782380D01*
X139630952Y-112782380D02*
X139535714Y-112830000D01*
X139535714Y-112830000D02*
X139488095Y-112877619D01*
X139488095Y-112877619D02*
X139440476Y-112972857D01*
X139440476Y-112972857D02*
X139440476Y-113115714D01*
X139440476Y-113115714D02*
X139488095Y-113210952D01*
X139488095Y-113210952D02*
X139535714Y-113258571D01*
X139535714Y-113258571D02*
X139630952Y-113306190D01*
X139630952Y-113306190D02*
X140011904Y-113306190D01*
X139059523Y-113496666D02*
X138583333Y-113496666D01*
X139154761Y-113782380D02*
X138821428Y-112782380D01*
X138821428Y-112782380D02*
X138488095Y-113782380D01*
X137726190Y-113115714D02*
X137726190Y-113782380D01*
X137964285Y-112734761D02*
X138202380Y-113449047D01*
X138202380Y-113449047D02*
X137583333Y-113449047D01*
X120785714Y-106330000D02*
X120880952Y-106282380D01*
X120880952Y-106282380D02*
X121023809Y-106282380D01*
X121023809Y-106282380D02*
X121166666Y-106330000D01*
X121166666Y-106330000D02*
X121261904Y-106425238D01*
X121261904Y-106425238D02*
X121309523Y-106520476D01*
X121309523Y-106520476D02*
X121357142Y-106710952D01*
X121357142Y-106710952D02*
X121357142Y-106853809D01*
X121357142Y-106853809D02*
X121309523Y-107044285D01*
X121309523Y-107044285D02*
X121261904Y-107139523D01*
X121261904Y-107139523D02*
X121166666Y-107234761D01*
X121166666Y-107234761D02*
X121023809Y-107282380D01*
X121023809Y-107282380D02*
X120928571Y-107282380D01*
X120928571Y-107282380D02*
X120785714Y-107234761D01*
X120785714Y-107234761D02*
X120738095Y-107187142D01*
X120738095Y-107187142D02*
X120738095Y-106853809D01*
X120738095Y-106853809D02*
X120928571Y-106853809D01*
X120309523Y-107282380D02*
X120309523Y-106282380D01*
X120309523Y-106282380D02*
X119738095Y-107282380D01*
X119738095Y-107282380D02*
X119738095Y-106282380D01*
X119261904Y-107282380D02*
X119261904Y-106282380D01*
X119261904Y-106282380D02*
X119023809Y-106282380D01*
X119023809Y-106282380D02*
X118880952Y-106330000D01*
X118880952Y-106330000D02*
X118785714Y-106425238D01*
X118785714Y-106425238D02*
X118738095Y-106520476D01*
X118738095Y-106520476D02*
X118690476Y-106710952D01*
X118690476Y-106710952D02*
X118690476Y-106853809D01*
X118690476Y-106853809D02*
X118738095Y-107044285D01*
X118738095Y-107044285D02*
X118785714Y-107139523D01*
X118785714Y-107139523D02*
X118880952Y-107234761D01*
X118880952Y-107234761D02*
X119023809Y-107282380D01*
X119023809Y-107282380D02*
X119261904Y-107282380D01*
X143904761Y-106282380D02*
X143571428Y-107282380D01*
X143571428Y-107282380D02*
X143238095Y-106282380D01*
X142333333Y-107187142D02*
X142380952Y-107234761D01*
X142380952Y-107234761D02*
X142523809Y-107282380D01*
X142523809Y-107282380D02*
X142619047Y-107282380D01*
X142619047Y-107282380D02*
X142761904Y-107234761D01*
X142761904Y-107234761D02*
X142857142Y-107139523D01*
X142857142Y-107139523D02*
X142904761Y-107044285D01*
X142904761Y-107044285D02*
X142952380Y-106853809D01*
X142952380Y-106853809D02*
X142952380Y-106710952D01*
X142952380Y-106710952D02*
X142904761Y-106520476D01*
X142904761Y-106520476D02*
X142857142Y-106425238D01*
X142857142Y-106425238D02*
X142761904Y-106330000D01*
X142761904Y-106330000D02*
X142619047Y-106282380D01*
X142619047Y-106282380D02*
X142523809Y-106282380D01*
X142523809Y-106282380D02*
X142380952Y-106330000D01*
X142380952Y-106330000D02*
X142333333Y-106377619D01*
X141333333Y-107187142D02*
X141380952Y-107234761D01*
X141380952Y-107234761D02*
X141523809Y-107282380D01*
X141523809Y-107282380D02*
X141619047Y-107282380D01*
X141619047Y-107282380D02*
X141761904Y-107234761D01*
X141761904Y-107234761D02*
X141857142Y-107139523D01*
X141857142Y-107139523D02*
X141904761Y-107044285D01*
X141904761Y-107044285D02*
X141952380Y-106853809D01*
X141952380Y-106853809D02*
X141952380Y-106710952D01*
X141952380Y-106710952D02*
X141904761Y-106520476D01*
X141904761Y-106520476D02*
X141857142Y-106425238D01*
X141857142Y-106425238D02*
X141761904Y-106330000D01*
X141761904Y-106330000D02*
X141619047Y-106282380D01*
X141619047Y-106282380D02*
X141523809Y-106282380D01*
X141523809Y-106282380D02*
X141380952Y-106330000D01*
X141380952Y-106330000D02*
X141333333Y-106377619D01*
D12*
X132709048Y-116867380D02*
X133166191Y-116867380D01*
X132937619Y-116867380D02*
X132937619Y-115867380D01*
X132937619Y-115867380D02*
X133013810Y-116010238D01*
X133013810Y-116010238D02*
X133090000Y-116105476D01*
X133090000Y-116105476D02*
X133166191Y-116153095D01*
X132251905Y-116295952D02*
X132328095Y-116248333D01*
X132328095Y-116248333D02*
X132366190Y-116200714D01*
X132366190Y-116200714D02*
X132404286Y-116105476D01*
X132404286Y-116105476D02*
X132404286Y-116057857D01*
X132404286Y-116057857D02*
X132366190Y-115962619D01*
X132366190Y-115962619D02*
X132328095Y-115915000D01*
X132328095Y-115915000D02*
X132251905Y-115867380D01*
X132251905Y-115867380D02*
X132099524Y-115867380D01*
X132099524Y-115867380D02*
X132023333Y-115915000D01*
X132023333Y-115915000D02*
X131985238Y-115962619D01*
X131985238Y-115962619D02*
X131947143Y-116057857D01*
X131947143Y-116057857D02*
X131947143Y-116105476D01*
X131947143Y-116105476D02*
X131985238Y-116200714D01*
X131985238Y-116200714D02*
X132023333Y-116248333D01*
X132023333Y-116248333D02*
X132099524Y-116295952D01*
X132099524Y-116295952D02*
X132251905Y-116295952D01*
X132251905Y-116295952D02*
X132328095Y-116343571D01*
X132328095Y-116343571D02*
X132366190Y-116391190D01*
X132366190Y-116391190D02*
X132404286Y-116486428D01*
X132404286Y-116486428D02*
X132404286Y-116676904D01*
X132404286Y-116676904D02*
X132366190Y-116772142D01*
X132366190Y-116772142D02*
X132328095Y-116819761D01*
X132328095Y-116819761D02*
X132251905Y-116867380D01*
X132251905Y-116867380D02*
X132099524Y-116867380D01*
X132099524Y-116867380D02*
X132023333Y-116819761D01*
X132023333Y-116819761D02*
X131985238Y-116772142D01*
X131985238Y-116772142D02*
X131947143Y-116676904D01*
X131947143Y-116676904D02*
X131947143Y-116486428D01*
X131947143Y-116486428D02*
X131985238Y-116391190D01*
X131985238Y-116391190D02*
X132023333Y-116343571D01*
X132023333Y-116343571D02*
X132099524Y-116295952D01*
X131124285Y-116867380D02*
X131124285Y-116200714D01*
X131124285Y-116295952D02*
X131086190Y-116248333D01*
X131086190Y-116248333D02*
X131010000Y-116200714D01*
X131010000Y-116200714D02*
X130895714Y-116200714D01*
X130895714Y-116200714D02*
X130819523Y-116248333D01*
X130819523Y-116248333D02*
X130781428Y-116343571D01*
X130781428Y-116343571D02*
X130781428Y-116867380D01*
X130781428Y-116343571D02*
X130743333Y-116248333D01*
X130743333Y-116248333D02*
X130667142Y-116200714D01*
X130667142Y-116200714D02*
X130552857Y-116200714D01*
X130552857Y-116200714D02*
X130476666Y-116248333D01*
X130476666Y-116248333D02*
X130438571Y-116343571D01*
X130438571Y-116343571D02*
X130438571Y-116867380D01*
X130057618Y-116867380D02*
X130057618Y-116200714D01*
X130057618Y-116295952D02*
X130019523Y-116248333D01*
X130019523Y-116248333D02*
X129943333Y-116200714D01*
X129943333Y-116200714D02*
X129829047Y-116200714D01*
X129829047Y-116200714D02*
X129752856Y-116248333D01*
X129752856Y-116248333D02*
X129714761Y-116343571D01*
X129714761Y-116343571D02*
X129714761Y-116867380D01*
X129714761Y-116343571D02*
X129676666Y-116248333D01*
X129676666Y-116248333D02*
X129600475Y-116200714D01*
X129600475Y-116200714D02*
X129486190Y-116200714D01*
X129486190Y-116200714D02*
X129409999Y-116248333D01*
X129409999Y-116248333D02*
X129371904Y-116343571D01*
X129371904Y-116343571D02*
X129371904Y-116867380D01*
X140250000Y-111000000D02*
X140250000Y-116836420D01*
X122250000Y-111000000D02*
X122250000Y-116836420D01*
X140250000Y-116250000D02*
X133826072Y-116250000D01*
X128673928Y-116250000D02*
X122250000Y-116250000D01*
X140250000Y-116250000D02*
X139123496Y-116836421D01*
X140250000Y-116250000D02*
X139123496Y-115663579D01*
X122250000Y-116250000D02*
X123376504Y-115663579D01*
X122250000Y-116250000D02*
X123376504Y-116836421D01*
%TO.C,D1*%
X125101904Y-94717380D02*
X125101904Y-93717380D01*
X124530476Y-94717380D02*
X124959047Y-94145952D01*
X124530476Y-93717380D02*
X125101904Y-94288809D01*
D17*
%TO.C,R2*%
X126420000Y-87530000D02*
X132960000Y-87530000D01*
X126420000Y-87860000D02*
X126420000Y-87530000D01*
X126420000Y-89940000D02*
X126420000Y-90270000D01*
X126420000Y-90270000D02*
X132960000Y-90270000D01*
X132960000Y-87530000D02*
X132960000Y-87860000D01*
X132960000Y-90270000D02*
X132960000Y-89940000D01*
%TO.C,R3*%
X134398000Y-99468000D02*
X140938000Y-99468000D01*
X134398000Y-99798000D02*
X134398000Y-99468000D01*
X134398000Y-101878000D02*
X134398000Y-102208000D01*
X134398000Y-102208000D02*
X140938000Y-102208000D01*
X140938000Y-99468000D02*
X140938000Y-99798000D01*
X140938000Y-102208000D02*
X140938000Y-101878000D01*
%TO.C,G\u002A\u002A\u002A*%
G36*
X115192569Y-100534816D02*
G01*
X115211834Y-100594171D01*
X115201866Y-100652779D01*
X115145866Y-100753507D01*
X115048617Y-100850097D01*
X114919335Y-100931907D01*
X114887041Y-100947870D01*
X114797504Y-100987743D01*
X114732502Y-101002672D01*
X114671815Y-100994801D01*
X114595223Y-100966273D01*
X114522400Y-100921231D01*
X114473896Y-100843019D01*
X114478312Y-100747905D01*
X114489930Y-100723177D01*
X114520206Y-100702329D01*
X114579907Y-100692707D01*
X114683038Y-100690374D01*
X114827098Y-100680316D01*
X114968621Y-100638287D01*
X115066432Y-100562826D01*
X115087569Y-100541463D01*
X115145689Y-100516071D01*
X115192569Y-100534816D01*
G37*
G36*
X114861723Y-99962276D02*
G01*
X114889578Y-100016954D01*
X114890080Y-100021720D01*
X114868790Y-100089217D01*
X114803122Y-100166389D01*
X114702606Y-100245625D01*
X114576776Y-100319311D01*
X114435164Y-100379837D01*
X114417170Y-100386117D01*
X114305172Y-100423493D01*
X114208898Y-100452980D01*
X114147508Y-100468660D01*
X114050205Y-100475292D01*
X113926830Y-100455769D01*
X113815796Y-100410818D01*
X113728400Y-100347037D01*
X113675935Y-100271031D01*
X113669698Y-100189399D01*
X113696523Y-100125731D01*
X113753346Y-100082907D01*
X113843601Y-100075977D01*
X113974554Y-100102881D01*
X114031212Y-100117323D01*
X114250882Y-100142790D01*
X114451072Y-100114368D01*
X114631317Y-100032107D01*
X114704077Y-99989418D01*
X114800059Y-99953087D01*
X114861723Y-99962276D01*
G37*
G36*
X121874546Y-100681282D02*
G01*
X121958192Y-100748772D01*
X121977516Y-100767195D01*
X122048622Y-100826891D01*
X122151404Y-100907325D01*
X122275224Y-101000272D01*
X122409440Y-101097511D01*
X122483496Y-101151101D01*
X122599871Y-101239443D01*
X122692993Y-101315456D01*
X122754787Y-101372418D01*
X122777180Y-101403609D01*
X122766950Y-101442407D01*
X122729573Y-101500736D01*
X122702190Y-101523354D01*
X122612756Y-101550430D01*
X122499456Y-101541620D01*
X122376939Y-101497074D01*
X122325538Y-101465234D01*
X122233827Y-101390353D01*
X122133072Y-101291968D01*
X122030533Y-101179090D01*
X121933466Y-101060729D01*
X121849130Y-100945895D01*
X121784783Y-100843599D01*
X121747682Y-100762851D01*
X121745086Y-100712661D01*
X121752095Y-100701009D01*
X121804449Y-100665124D01*
X121874546Y-100681282D01*
G37*
G36*
X122165256Y-100385642D02*
G01*
X122222777Y-100402669D01*
X122312764Y-100433914D01*
X122442426Y-100481172D01*
X122618969Y-100546238D01*
X122646860Y-100556424D01*
X122818650Y-100615882D01*
X122994282Y-100671943D01*
X123154631Y-100718709D01*
X123280577Y-100750282D01*
X123331313Y-100761881D01*
X123451919Y-100794813D01*
X123551148Y-100829087D01*
X123611381Y-100858917D01*
X123626008Y-100870368D01*
X123682421Y-100942262D01*
X123685581Y-101014342D01*
X123634592Y-101078149D01*
X123610842Y-101091960D01*
X123506274Y-101113804D01*
X123357660Y-101103693D01*
X123167645Y-101061965D01*
X122938875Y-100988961D01*
X122875117Y-100965995D01*
X122723897Y-100909427D01*
X122609855Y-100861909D01*
X122519919Y-100817160D01*
X122441017Y-100768899D01*
X122360079Y-100710845D01*
X122325656Y-100684188D01*
X122212818Y-100582925D01*
X122140993Y-100492987D01*
X122115715Y-100420937D01*
X122115425Y-100401932D01*
X122118788Y-100387069D01*
X122132996Y-100381040D01*
X122165256Y-100385642D01*
G37*
G36*
X112497633Y-98953512D02*
G01*
X112545041Y-98967693D01*
X112654137Y-99007299D01*
X112794492Y-99063595D01*
X112953554Y-99131481D01*
X113118771Y-99205860D01*
X113121953Y-99207327D01*
X113368853Y-99294455D01*
X113627033Y-99337789D01*
X113881871Y-99336122D01*
X114118743Y-99288250D01*
X114259425Y-99244590D01*
X114358653Y-99218125D01*
X114423346Y-99208319D01*
X114463369Y-99213690D01*
X114488585Y-99232760D01*
X114503132Y-99273703D01*
X114475747Y-99333325D01*
X114427517Y-99384853D01*
X114347248Y-99437873D01*
X114228522Y-99493611D01*
X114062469Y-99556866D01*
X113928993Y-99594917D01*
X113779444Y-99617503D01*
X113604223Y-99624886D01*
X113393281Y-99617487D01*
X113136570Y-99595727D01*
X112870163Y-99559872D01*
X112636521Y-99507504D01*
X112456705Y-99440919D01*
X112331422Y-99360382D01*
X112261376Y-99266159D01*
X112241068Y-99173663D01*
X112259367Y-99075116D01*
X112314212Y-98997657D01*
X112396626Y-98953163D01*
X112497633Y-98953512D01*
G37*
G36*
X124627902Y-99777860D02*
G01*
X124669954Y-99804394D01*
X124685182Y-99823553D01*
X124701232Y-99897017D01*
X124675079Y-99983507D01*
X124613310Y-100072605D01*
X124522508Y-100153888D01*
X124409260Y-100216937D01*
X124386369Y-100225222D01*
X124285348Y-100250197D01*
X124154333Y-100271561D01*
X124014099Y-100285699D01*
X123997086Y-100286828D01*
X123824615Y-100295182D01*
X123664403Y-100295704D01*
X123499269Y-100287592D01*
X123312034Y-100270040D01*
X123085518Y-100242244D01*
X122956181Y-100223648D01*
X122800579Y-100193862D01*
X122684259Y-100159012D01*
X122596225Y-100115516D01*
X122525481Y-100059792D01*
X122473888Y-100001440D01*
X122466004Y-99957974D01*
X122501150Y-99915991D01*
X122506375Y-99912074D01*
X122546626Y-99900709D01*
X122612948Y-99910182D01*
X122718452Y-99942066D01*
X122833389Y-99969937D01*
X122998912Y-99991730D01*
X123188074Y-100003558D01*
X123383454Y-100004872D01*
X123567629Y-99995124D01*
X123723179Y-99973762D01*
X123776811Y-99964135D01*
X123897658Y-99948600D01*
X124000631Y-99942469D01*
X124071068Y-99935064D01*
X124193303Y-99904613D01*
X124325932Y-99856172D01*
X124361756Y-99841117D01*
X124484302Y-99794641D01*
X124569518Y-99774082D01*
X124627902Y-99777860D01*
G37*
G36*
X119251918Y-98086318D02*
G01*
X119242782Y-98152722D01*
X119211077Y-98368114D01*
X119189315Y-98470365D01*
X119126000Y-98631182D01*
X119036567Y-98761376D01*
X118928627Y-98848013D01*
X118862763Y-98877315D01*
X118711615Y-98903497D01*
X118558229Y-98873099D01*
X118401767Y-98785870D01*
X118241391Y-98641559D01*
X118207626Y-98604888D01*
X118105829Y-98476495D01*
X118042920Y-98353636D01*
X118010982Y-98216593D01*
X118006271Y-98125970D01*
X118412783Y-98125970D01*
X118427498Y-98270197D01*
X118465566Y-98378486D01*
X118528896Y-98458048D01*
X118619395Y-98516095D01*
X118672293Y-98540153D01*
X118734534Y-98557906D01*
X118784112Y-98546184D01*
X118844794Y-98503681D01*
X118852959Y-98496789D01*
X118909954Y-98408349D01*
X118940920Y-98270819D01*
X118945599Y-98086318D01*
X118923733Y-97856965D01*
X118916741Y-97809393D01*
X118883320Y-97638254D01*
X118841379Y-97516502D01*
X118786785Y-97437615D01*
X118715405Y-97395066D01*
X118623109Y-97382333D01*
X118566564Y-97393977D01*
X118520451Y-97435555D01*
X118484758Y-97513982D01*
X118456403Y-97636149D01*
X118432304Y-97808944D01*
X118419514Y-97938594D01*
X118412783Y-98125970D01*
X118006271Y-98125970D01*
X118002095Y-98045649D01*
X118004027Y-97959290D01*
X118031823Y-97743270D01*
X118097387Y-97548807D01*
X118206797Y-97355403D01*
X118223527Y-97330735D01*
X118333052Y-97191941D01*
X118440807Y-97101406D01*
X118557029Y-97052439D01*
X118691955Y-97038352D01*
X118752762Y-97041518D01*
X118919976Y-97084537D01*
X119059138Y-97177756D01*
X119170172Y-97321113D01*
X119253007Y-97514545D01*
X119266095Y-97558423D01*
X119279911Y-97618556D01*
X119287224Y-97682473D01*
X119287603Y-97759012D01*
X119280611Y-97857008D01*
X119265816Y-97985299D01*
X119251918Y-98086318D01*
G37*
G36*
X118505492Y-95900906D02*
G01*
X118398886Y-95955971D01*
X118342782Y-95988538D01*
X118283875Y-96043876D01*
X118276143Y-96099316D01*
X118320932Y-96157457D01*
X118419592Y-96220893D01*
X118573470Y-96292223D01*
X118739367Y-96354478D01*
X118960331Y-96423917D01*
X119198801Y-96487917D01*
X119433787Y-96540890D01*
X119644301Y-96577249D01*
X119767969Y-96590519D01*
X119891974Y-96589380D01*
X119972843Y-96564295D01*
X120016799Y-96512936D01*
X120030068Y-96432974D01*
X120026710Y-96382272D01*
X120007453Y-96337261D01*
X119960546Y-96294631D01*
X119874304Y-96239896D01*
X119783041Y-96189921D01*
X119649909Y-96125723D01*
X119521926Y-96071687D01*
X119508577Y-96066533D01*
X119415741Y-96027476D01*
X119350163Y-95994316D01*
X119325311Y-95973761D01*
X119345167Y-95965233D01*
X119409314Y-95969234D01*
X119506467Y-95985381D01*
X119624932Y-96011105D01*
X119753009Y-96043835D01*
X119879003Y-96081002D01*
X119991216Y-96120038D01*
X120043605Y-96141168D01*
X120219315Y-96227762D01*
X120361737Y-96323150D01*
X120467428Y-96422539D01*
X120532944Y-96521134D01*
X120554840Y-96614140D01*
X120529672Y-96696763D01*
X120453994Y-96764209D01*
X120427623Y-96776714D01*
X120379572Y-96789639D01*
X120310523Y-96797551D01*
X120211360Y-96800967D01*
X120072971Y-96800403D01*
X119886240Y-96796376D01*
X119807202Y-96794213D01*
X119636895Y-96787999D01*
X119500223Y-96778963D01*
X119379986Y-96764744D01*
X119258981Y-96742985D01*
X119120007Y-96711325D01*
X118945861Y-96667406D01*
X118662609Y-96589932D01*
X118420975Y-96512763D01*
X118230447Y-96437474D01*
X118087868Y-96362390D01*
X117990079Y-96285838D01*
X117933922Y-96206144D01*
X117916239Y-96121632D01*
X117916537Y-96105873D01*
X117929322Y-96034272D01*
X117970583Y-95982530D01*
X118053602Y-95932343D01*
X118071819Y-95923742D01*
X118180366Y-95895775D01*
X118326875Y-95892373D01*
X118505492Y-95900906D01*
G37*
G36*
X112653175Y-97381806D02*
G01*
X112751113Y-97489705D01*
X112854175Y-97654260D01*
X112875020Y-97691414D01*
X113005837Y-97888582D01*
X113140275Y-98030853D01*
X113277135Y-98116916D01*
X113298816Y-98124851D01*
X113390765Y-98149336D01*
X113512381Y-98173659D01*
X113643309Y-98193559D01*
X113797165Y-98206093D01*
X114115276Y-98193740D01*
X114446445Y-98133714D01*
X114780402Y-98027515D01*
X114871039Y-97993305D01*
X114988534Y-97954891D01*
X115096504Y-97930727D01*
X115217301Y-97916269D01*
X115373275Y-97906972D01*
X115546573Y-97904070D01*
X115859763Y-97924613D01*
X116188483Y-97979807D01*
X116546356Y-98071563D01*
X116782068Y-98157997D01*
X117022495Y-98290542D01*
X117241700Y-98464572D01*
X117443858Y-98684053D01*
X117633147Y-98952953D01*
X117813744Y-99275240D01*
X117937700Y-99523243D01*
X118067275Y-99790552D01*
X118185583Y-100043099D01*
X118289406Y-100273714D01*
X118375523Y-100475230D01*
X118440713Y-100640477D01*
X118481757Y-100762288D01*
X118499421Y-100823411D01*
X118531407Y-100930230D01*
X118556542Y-101009164D01*
X118570524Y-101046447D01*
X118585853Y-101036379D01*
X118622201Y-100984433D01*
X118673293Y-100898434D01*
X118733361Y-100787557D01*
X118775566Y-100707895D01*
X118854712Y-100563950D01*
X118932000Y-100429136D01*
X118995461Y-100324598D01*
X119038410Y-100255950D01*
X119114531Y-100130865D01*
X119199061Y-99989071D01*
X119280356Y-99849966D01*
X119337379Y-99755100D01*
X119429949Y-99610931D01*
X119535638Y-99454452D01*
X119648113Y-99294324D01*
X119761039Y-99139210D01*
X119868082Y-98997770D01*
X119962906Y-98878668D01*
X120039177Y-98790564D01*
X120090560Y-98742120D01*
X120131545Y-98711879D01*
X120211774Y-98649002D01*
X120298144Y-98578300D01*
X120333303Y-98550255D01*
X120493392Y-98446718D01*
X120680419Y-98355114D01*
X120880031Y-98280265D01*
X121077871Y-98226996D01*
X121259584Y-98200128D01*
X121410815Y-98204484D01*
X121422882Y-98206546D01*
X121648356Y-98270299D01*
X121885221Y-98381119D01*
X122123169Y-98533344D01*
X122351893Y-98721314D01*
X122427413Y-98785082D01*
X122647694Y-98919138D01*
X122907271Y-99012318D01*
X123204933Y-99064262D01*
X123539468Y-99074608D01*
X123614125Y-99071656D01*
X123793006Y-99054577D01*
X123938425Y-99018942D01*
X124066971Y-98957589D01*
X124195230Y-98863357D01*
X124339792Y-98729084D01*
X124340869Y-98728018D01*
X124492439Y-98595035D01*
X124624684Y-98515525D01*
X124738788Y-98489210D01*
X124835936Y-98515818D01*
X124917312Y-98595072D01*
X124946364Y-98648436D01*
X124958775Y-98754739D01*
X124914822Y-98865726D01*
X124815075Y-98980634D01*
X124660107Y-99098699D01*
X124450487Y-99219157D01*
X124279271Y-99303926D01*
X124116223Y-99374114D01*
X123969228Y-99421066D01*
X123821148Y-99449002D01*
X123654842Y-99462142D01*
X123453171Y-99464707D01*
X123368897Y-99463804D01*
X123157533Y-99455931D01*
X122981978Y-99438004D01*
X122826336Y-99407165D01*
X122674716Y-99360556D01*
X122511223Y-99295319D01*
X122359100Y-99220844D01*
X122208054Y-99122807D01*
X122049544Y-98992104D01*
X121921841Y-98882914D01*
X121766192Y-98769434D01*
X121622705Y-98692851D01*
X121479456Y-98647147D01*
X121324518Y-98626307D01*
X121205755Y-98626260D01*
X120987622Y-98667026D01*
X120789599Y-98758101D01*
X120619389Y-98895372D01*
X120484699Y-99074726D01*
X120456612Y-99122385D01*
X120400577Y-99211941D01*
X120355437Y-99277573D01*
X120335076Y-99308711D01*
X120289413Y-99389853D01*
X120232806Y-99498896D01*
X120173065Y-99621133D01*
X120159937Y-99649084D01*
X120098592Y-99790749D01*
X120053882Y-99921757D01*
X120019022Y-100064798D01*
X119987226Y-100242560D01*
X119986472Y-100247275D01*
X119967099Y-100382122D01*
X119954757Y-100495871D01*
X119950470Y-100576675D01*
X119955259Y-100612688D01*
X119962234Y-100613654D01*
X119999138Y-100587090D01*
X120056298Y-100526258D01*
X120124611Y-100440415D01*
X120164634Y-100389290D01*
X120251370Y-100287765D01*
X120357488Y-100171228D01*
X120475727Y-100046878D01*
X120598828Y-99921912D01*
X120719530Y-99803527D01*
X120830572Y-99698921D01*
X120924695Y-99615292D01*
X120994637Y-99559836D01*
X121033139Y-99539751D01*
X121043400Y-99540279D01*
X121089459Y-99567898D01*
X121098321Y-99631932D01*
X121068517Y-99724703D01*
X121066509Y-99728973D01*
X121045265Y-99779237D01*
X121020986Y-99847035D01*
X120991330Y-99939982D01*
X120953956Y-100065693D01*
X120906520Y-100231783D01*
X120846681Y-100445867D01*
X120839488Y-100476153D01*
X120822358Y-100594765D01*
X120811241Y-100748396D01*
X120807502Y-100920499D01*
X120808715Y-101037158D01*
X120815217Y-101170211D01*
X120830334Y-101284253D01*
X120857402Y-101401892D01*
X120899755Y-101545733D01*
X120928938Y-101637578D01*
X120968609Y-101756187D01*
X121001969Y-101848935D01*
X121023910Y-101901199D01*
X121025900Y-101905049D01*
X121037594Y-101967125D01*
X121011017Y-102005772D01*
X120956295Y-102005386D01*
X120930369Y-101983727D01*
X120881064Y-101917516D01*
X120821392Y-101819999D01*
X120758337Y-101703537D01*
X120698882Y-101580493D01*
X120650010Y-101463228D01*
X120614140Y-101348129D01*
X120572108Y-101143085D01*
X120544707Y-100909590D01*
X120534353Y-100664341D01*
X120533903Y-100597900D01*
X120531170Y-100517987D01*
X120523377Y-100481123D01*
X120507484Y-100478001D01*
X120480450Y-100499311D01*
X120450184Y-100534935D01*
X120399125Y-100612335D01*
X120347264Y-100705742D01*
X120308335Y-100779341D01*
X120268677Y-100846723D01*
X120244746Y-100878007D01*
X120241167Y-100882395D01*
X120220509Y-100928746D01*
X120188557Y-101015765D01*
X120148876Y-101132330D01*
X120105028Y-101267320D01*
X120060578Y-101409612D01*
X120019088Y-101548085D01*
X119984122Y-101671616D01*
X119959244Y-101769083D01*
X119944721Y-101827891D01*
X119916493Y-101909906D01*
X119888312Y-101937121D01*
X119856511Y-101911210D01*
X119817426Y-101833846D01*
X119739040Y-101622612D01*
X119658648Y-101326926D01*
X119600632Y-101011882D01*
X119569378Y-100697565D01*
X119567472Y-100663584D01*
X119557885Y-100527551D01*
X119547011Y-100417302D01*
X119536049Y-100343403D01*
X119526195Y-100316422D01*
X119525657Y-100316441D01*
X119494697Y-100343650D01*
X119443228Y-100419922D01*
X119373377Y-100541558D01*
X119287274Y-100704856D01*
X119187046Y-100906116D01*
X119137904Y-101007693D01*
X119044173Y-101206745D01*
X118970504Y-101373203D01*
X118911770Y-101519527D01*
X118862845Y-101658175D01*
X118818604Y-101801608D01*
X118780299Y-101956279D01*
X118738989Y-102174058D01*
X118700415Y-102428222D01*
X118665697Y-102707603D01*
X118635954Y-103001034D01*
X118612304Y-103297347D01*
X118595867Y-103585374D01*
X118587761Y-103853948D01*
X118589106Y-104091903D01*
X118590483Y-104140519D01*
X118592940Y-104269897D01*
X118591209Y-104354074D01*
X118584196Y-104402499D01*
X118570806Y-104424624D01*
X118549943Y-104429898D01*
X118520139Y-104423577D01*
X118488004Y-104393463D01*
X118460850Y-104332463D01*
X118436673Y-104233935D01*
X118413467Y-104091240D01*
X118389225Y-103897735D01*
X118384620Y-103857773D01*
X118366998Y-103706380D01*
X118351121Y-103572195D01*
X118338575Y-103468536D01*
X118330947Y-103408720D01*
X118329764Y-103398873D01*
X118324059Y-103326834D01*
X118317526Y-103214001D01*
X118310882Y-103073812D01*
X118304844Y-102919706D01*
X118299838Y-102787323D01*
X118284525Y-102476150D01*
X118266197Y-102220340D01*
X118244907Y-102020243D01*
X118220709Y-101876212D01*
X118193656Y-101788595D01*
X118163803Y-101757745D01*
X118131202Y-101784013D01*
X118093427Y-101820721D01*
X118009382Y-101868874D01*
X117902214Y-101912295D01*
X117790751Y-101943606D01*
X117693821Y-101955427D01*
X117623722Y-101951729D01*
X117540210Y-101935285D01*
X117453651Y-101901493D01*
X117356367Y-101845840D01*
X117240679Y-101763814D01*
X117098912Y-101650902D01*
X116923386Y-101502591D01*
X116743474Y-101343873D01*
X116553376Y-101161676D01*
X116402898Y-100995606D01*
X116286598Y-100838094D01*
X116199035Y-100681571D01*
X116134766Y-100518469D01*
X116088349Y-100341218D01*
X116072567Y-100255607D01*
X116060961Y-100096593D01*
X116082317Y-99971442D01*
X116137669Y-99870305D01*
X116196601Y-99822131D01*
X116300944Y-99798501D01*
X116432948Y-99816351D01*
X116587863Y-99873813D01*
X116760941Y-99969022D01*
X116947432Y-100100111D01*
X117142586Y-100265213D01*
X117242837Y-100359581D01*
X117337247Y-100457350D01*
X117387671Y-100524485D01*
X117395483Y-100562925D01*
X117362061Y-100574608D01*
X117325397Y-100572006D01*
X117193893Y-100543118D01*
X117051432Y-100489545D01*
X116923226Y-100420161D01*
X116803349Y-100343081D01*
X116701892Y-100284682D01*
X116628953Y-100253986D01*
X116575306Y-100247235D01*
X116531726Y-100260670D01*
X116515152Y-100271441D01*
X116483547Y-100327045D01*
X116496329Y-100409790D01*
X116554136Y-100520717D01*
X116657603Y-100660869D01*
X116807370Y-100831289D01*
X117004072Y-101033017D01*
X117078927Y-101106108D01*
X117252306Y-101266108D01*
X117397651Y-101383111D01*
X117519862Y-101459148D01*
X117623837Y-101496251D01*
X117714474Y-101496450D01*
X117796673Y-101461776D01*
X117875333Y-101394262D01*
X117919232Y-101340844D01*
X117996655Y-101186155D01*
X118030212Y-101004931D01*
X118018961Y-100805838D01*
X117961959Y-100597543D01*
X117887521Y-100416039D01*
X117787708Y-100194616D01*
X117673710Y-99958065D01*
X117553843Y-99723619D01*
X117436421Y-99508509D01*
X117372543Y-99395145D01*
X117307211Y-99277269D01*
X117255487Y-99181868D01*
X117224889Y-99122650D01*
X117219052Y-99111315D01*
X117157869Y-99024215D01*
X117062625Y-98917297D01*
X116944911Y-98801463D01*
X116816319Y-98687615D01*
X116688440Y-98586652D01*
X116572866Y-98509476D01*
X116515734Y-98477217D01*
X116312058Y-98382399D01*
X116102241Y-98319654D01*
X115870423Y-98285157D01*
X115600748Y-98275086D01*
X115483714Y-98276327D01*
X115343366Y-98282774D01*
X115223033Y-98297452D01*
X115100348Y-98323422D01*
X114952944Y-98363745D01*
X114879036Y-98384981D01*
X114575454Y-98466666D01*
X114310977Y-98527187D01*
X114074670Y-98568529D01*
X113855597Y-98592679D01*
X113642824Y-98601621D01*
X113499006Y-98602461D01*
X113392996Y-98599904D01*
X113313630Y-98591021D01*
X113245266Y-98572924D01*
X113172260Y-98542725D01*
X113078970Y-98497536D01*
X113071487Y-98493806D01*
X112874183Y-98371625D01*
X112685279Y-98212726D01*
X112520890Y-98032502D01*
X112397134Y-97846344D01*
X112346864Y-97739513D01*
X112309399Y-97600094D01*
X112319538Y-97486600D01*
X112377118Y-97395408D01*
X112379998Y-97392558D01*
X112468628Y-97333780D01*
X112559350Y-97330014D01*
X112653175Y-97381806D01*
G37*
%TO.C,R1*%
X134398000Y-96420000D02*
X140938000Y-96420000D01*
X134398000Y-96750000D02*
X134398000Y-96420000D01*
X134398000Y-98830000D02*
X134398000Y-99160000D01*
X134398000Y-99160000D02*
X140938000Y-99160000D01*
X140938000Y-96420000D02*
X140938000Y-96750000D01*
X140938000Y-99160000D02*
X140938000Y-98830000D01*
%TO.C,D1*%
X126180000Y-92250000D02*
X127200000Y-92250000D01*
X127200000Y-90780000D02*
X132640000Y-90780000D01*
X127200000Y-93720000D02*
X127200000Y-90780000D01*
X127980000Y-93720000D02*
X127980000Y-90780000D01*
X128100000Y-93720000D02*
X128100000Y-90780000D01*
X128220000Y-93720000D02*
X128220000Y-90780000D01*
X132640000Y-90780000D02*
X132640000Y-93720000D01*
X132640000Y-93720000D02*
X127200000Y-93720000D01*
X133660000Y-92250000D02*
X132640000Y-92250000D01*
%TD*%
M02*
