M48
; DRILL file {KiCad (7.0.0)} date Wed Feb  7 11:39:04 2024
; FORMAT={-:-/ absolute / inch / decimal}
; #@! TF.CreationDate,2024-02-07T11:39:04-06:00
; #@! TF.GenerationSoftware,Kicad,Pcbnew,(7.0.0)
; #@! TF.FileFunction,Plated,1,2,PTH
FMAT,2
INCH
; #@! TA.AperFunction,Plated,PTH,ViaDrill
T1C0.0157
; #@! TA.AperFunction,Plated,PTH,ComponentDrill
T2C0.0315
; #@! TA.AperFunction,Plated,PTH,ComponentDrill
T3C0.0354
; #@! TA.AperFunction,Plated,PTH,ComponentDrill
T4C0.0362
; #@! TA.AperFunction,Plated,PTH,ComponentDrill
T5C0.0394
; #@! TA.AperFunction,Plated,PTH,ComponentDrill
T6C0.0433
; #@! TA.AperFunction,Plated,PTH,ComponentDrill
T7C0.0512
; #@! TA.AperFunction,Plated,PTH,ComponentDrill
T8C0.0917
%
G90
G05
T1
X4.69Y-3.92
X4.75Y-3.88
X4.87Y-3.8
X4.92Y-4.17
X5.05Y-4.1145
X5.0891Y-3.8676
X5.12Y-4.46
X5.2141Y-3.8362
X5.25Y-4.1
X5.31Y-3.92
X5.3998Y-4.1
T2
X4.51Y-3.75
X4.51Y-4.05
X4.61Y-3.75
X4.61Y-4.05
X4.71Y-3.75
X4.71Y-4.05
X4.81Y-3.75
X4.81Y-4.05
X4.9559Y-3.5
X5.015Y-4.2
X5.015Y-4.3
X5.015Y-4.4
X5.015Y-4.5
X5.2559Y-3.5
X5.27Y-3.85
X5.27Y-3.97
X5.315Y-4.2
X5.315Y-4.3
X5.315Y-4.4
X5.315Y-4.5
X5.57Y-3.85
X5.57Y-3.97
X5.7386Y-3.758
X5.7386Y-3.958
X5.8386Y-3.858
T3
X5.0Y-3.92
X5.0Y-4.02
X5.18Y-3.92
X5.18Y-4.02
T4
X5.5799Y-3.5502
X5.5799Y-3.629
X5.6783Y-3.5502
X5.6783Y-3.629
T5
X4.5Y-4.2
X4.5Y-4.3
X4.5Y-4.4
X4.5Y-4.5
X4.6Y-4.2
X4.6Y-4.3
X4.6Y-4.4
X4.6Y-4.5
X4.9173Y-4.66
X5.0173Y-4.66
X5.0673Y-3.6319
X5.0673Y-3.7319
X5.1173Y-4.66
X5.1673Y-3.6319
X5.1673Y-3.7319
X5.2173Y-4.66
X5.3173Y-4.66
X5.4173Y-4.66
X5.7366Y-4.2
X5.7366Y-4.3
X5.7366Y-4.4
X5.7366Y-4.5
X5.8366Y-4.2
X5.8366Y-4.3
X5.8366Y-4.4
X5.8366Y-4.5
T6
X4.915Y-3.6319
X5.315Y-3.6319
X5.3414Y-3.782
X5.3414Y-4.038
X5.5186Y-3.782
X5.5186Y-4.038
T7
X5.0067Y-3.3563
X5.2067Y-3.3563
T8
X5.3921Y-3.4435
X5.8661Y-3.4435
T5
G00X4.48Y-3.4228
M15
G01X4.48Y-3.5015
M16
G05
G00X4.7044Y-3.344
M15
G01X4.6257Y-3.344
M16
G05
G00X4.7143Y-3.5881
M15
G01X4.6158Y-3.5881
M16
G05
T0
M30
