%TF.GenerationSoftware,KiCad,Pcbnew,(7.0.0)*%
%TF.CreationDate,2024-02-07T11:39:00-06:00*%
%TF.ProjectId,16f15313,31366631-3533-4313-932e-6b696361645f,rev?*%
%TF.SameCoordinates,Original*%
%TF.FileFunction,Soldermask,Bot*%
%TF.FilePolarity,Negative*%
%FSLAX46Y46*%
G04 Gerber Fmt 4.6, Leading zero omitted, Abs format (unit mm)*
G04 Created by KiCad (PCBNEW (7.0.0)) date 2024-02-07 11:39:00*
%MOMM*%
%LPD*%
G01*
G04 APERTURE LIST*
%ADD10R,1.700000X1.700000*%
%ADD11O,1.700000X1.700000*%
%ADD12R,2.400000X1.600000*%
%ADD13O,2.400000X1.600000*%
%ADD14C,2.000000*%
%ADD15R,2.600000X2.600000*%
%ADD16C,2.600000*%
%ADD17R,1.800000X1.800000*%
%ADD18C,1.800000*%
%ADD19R,1.600000X1.600000*%
%ADD20O,1.600000X1.600000*%
%ADD21R,4.500000X2.000000*%
%ADD22O,4.000000X2.000000*%
%ADD23O,2.000000X4.000000*%
%ADD24C,1.700000*%
%ADD25C,3.500000*%
%ADD26C,1.440000*%
%ADD27C,1.600000*%
%ADD28R,2.200000X2.200000*%
%ADD29O,2.200000X2.200000*%
G04 APERTURE END LIST*
D10*
%TO.C,J5*%
X116839999Y-106679999D03*
D11*
X114299999Y-106679999D03*
X116839999Y-109219999D03*
X114299999Y-109219999D03*
X116839999Y-111759999D03*
X114299999Y-111759999D03*
X116839999Y-114299999D03*
X114299999Y-114299999D03*
%TD*%
D10*
%TO.C,J6*%
X148249999Y-106679999D03*
D11*
X145709999Y-106679999D03*
X148249999Y-109219999D03*
X145709999Y-109219999D03*
X148249999Y-111759999D03*
X145709999Y-111759999D03*
X148249999Y-114299999D03*
X145709999Y-114299999D03*
%TD*%
D12*
%TO.C,U1*%
X127379999Y-106679999D03*
D13*
X127379999Y-109219999D03*
X127379999Y-111759999D03*
X127379999Y-114299999D03*
X134999999Y-114299999D03*
X134999999Y-111759999D03*
X134999999Y-109219999D03*
X134999999Y-106679999D03*
%TD*%
D10*
%TO.C,J4*%
X131249999Y-94789999D03*
D11*
X131249999Y-92249999D03*
X128709999Y-94789999D03*
X128709999Y-92249999D03*
%TD*%
D14*
%TO.C,SW1*%
X135672000Y-102564000D03*
X135672000Y-96064000D03*
X140172000Y-102564000D03*
X140172000Y-96064000D03*
%TD*%
D15*
%TO.C,J3*%
X132249999Y-85249999D03*
D16*
X127170000Y-85250000D03*
%TD*%
D17*
%TO.C,D3*%
X131571999Y-102107999D03*
D18*
X131572000Y-99568000D03*
%TD*%
D19*
%TO.C,SW2*%
X114553999Y-102869999D03*
D20*
X117093999Y-102869999D03*
X119633999Y-102869999D03*
X122173999Y-102869999D03*
X122173999Y-95249999D03*
X119633999Y-95249999D03*
X117093999Y-95249999D03*
X114553999Y-95249999D03*
%TD*%
D10*
%TO.C,J7*%
X137599999Y-118363999D03*
D11*
X135059999Y-118363999D03*
X132519999Y-118363999D03*
X129979999Y-118363999D03*
X127439999Y-118363999D03*
X124899999Y-118363999D03*
%TD*%
D21*
%TO.C,J1*%
X118491999Y-91137999D03*
D22*
X118491999Y-84937999D03*
D23*
X113791999Y-87937999D03*
%TD*%
D10*
%TO.C,J2*%
X141729999Y-92175499D03*
D24*
X144230000Y-92175500D03*
X144230000Y-90175500D03*
X141730000Y-90175500D03*
D25*
X136960000Y-87465500D03*
X149000000Y-87465500D03*
%TD*%
D17*
%TO.C,D2*%
X126999999Y-102107999D03*
D18*
X127000000Y-99568000D03*
%TD*%
D26*
%TO.C,RV1*%
X145760000Y-100532000D03*
X148300000Y-97992000D03*
X145760000Y-95452000D03*
%TD*%
D27*
%TO.C,R2*%
X125880000Y-88900000D03*
D20*
X133499999Y-88899999D03*
%TD*%
D27*
%TO.C,R3*%
X133858000Y-100838000D03*
D20*
X141477999Y-100837999D03*
%TD*%
D27*
%TO.C,R1*%
X133858000Y-97790000D03*
D20*
X141477999Y-97789999D03*
%TD*%
D28*
%TO.C,D1*%
X124839999Y-92249999D03*
D29*
X134999999Y-92249999D03*
%TD*%
M02*
