%TF.GenerationSoftware,KiCad,Pcbnew,8.0.5*%
%TF.CreationDate,2025-02-27T19:04:08-06:00*%
%TF.ProjectId,PIC16F15313tht,50494331-3646-4313-9533-31337468742e,rev?*%
%TF.SameCoordinates,Original*%
%TF.FileFunction,Legend,Bot*%
%TF.FilePolarity,Positive*%
%FSLAX46Y46*%
G04 Gerber Fmt 4.6, Leading zero omitted, Abs format (unit mm)*
G04 Created by KiCad (PCBNEW 8.0.5) date 2025-02-27 19:04:08*
%MOMM*%
%LPD*%
G01*
G04 APERTURE LIST*
%ADD10C,0.100000*%
%ADD11C,0.200000*%
%ADD12C,0.160000*%
%ADD13C,0.000000*%
%ADD14C,0.120000*%
G04 APERTURE END LIST*
D10*
X114500000Y-106500000D02*
X114500000Y-109500000D01*
X103250000Y-103250000D01*
X114500000Y-106500000D01*
G36*
X114500000Y-106500000D02*
G01*
X114500000Y-109500000D01*
X103250000Y-103250000D01*
X114500000Y-106500000D01*
G37*
X97750000Y-101500000D02*
X85500000Y-103000000D01*
X85500000Y-99750000D01*
X97750000Y-101500000D01*
G36*
X97750000Y-101500000D02*
G01*
X85500000Y-103000000D01*
X85500000Y-99750000D01*
X97750000Y-101500000D01*
G37*
X103250000Y-103250000D02*
X106500000Y-96750000D01*
X108500000Y-96750000D01*
X103250000Y-103250000D01*
G36*
X103250000Y-103250000D02*
G01*
X106500000Y-96750000D01*
X108500000Y-96750000D01*
X103250000Y-103250000D01*
G37*
X114500000Y-103750000D02*
X103250000Y-103250000D01*
X114500000Y-101000000D01*
X114500000Y-103750000D01*
G36*
X114500000Y-103750000D02*
G01*
X103250000Y-103250000D01*
X114500000Y-101000000D01*
X114500000Y-103750000D01*
G37*
X114500000Y-97750000D02*
X103250000Y-103250000D01*
X114500000Y-95250000D01*
X114500000Y-97750000D01*
G36*
X114500000Y-97750000D02*
G01*
X103250000Y-103250000D01*
X114500000Y-95250000D01*
X114500000Y-97750000D01*
G37*
X97750000Y-101500000D02*
X91500000Y-95500000D01*
X94250000Y-95500000D01*
X97750000Y-101500000D01*
G36*
X97750000Y-101500000D02*
G01*
X91500000Y-95500000D01*
X94250000Y-95500000D01*
X97750000Y-101500000D01*
G37*
X85500000Y-109000000D02*
X85500000Y-105750000D01*
X97750000Y-101500000D01*
X85500000Y-109000000D01*
G36*
X85500000Y-109000000D02*
G01*
X85500000Y-105750000D01*
X97750000Y-101500000D01*
X85500000Y-109000000D01*
G37*
X97750000Y-101500000D02*
X85500000Y-97750000D01*
X85500000Y-95250000D01*
X97750000Y-101500000D01*
G36*
X97750000Y-101500000D02*
G01*
X85500000Y-97750000D01*
X85500000Y-95250000D01*
X97750000Y-101500000D01*
G37*
X114500000Y-87500000D02*
X112018460Y-79000000D01*
X112000000Y-79000000D01*
X111962796Y-78873505D01*
X112110182Y-78873505D01*
X113831807Y-78909489D01*
X113853500Y-72121369D01*
X112123154Y-72118922D01*
X112110182Y-78873505D01*
X111962796Y-78873505D01*
X109500000Y-70500000D01*
X114500000Y-70500000D01*
X114500000Y-87500000D01*
G36*
X114500000Y-87500000D02*
G01*
X112018460Y-79000000D01*
X112000000Y-79000000D01*
X111962796Y-78873505D01*
X112110182Y-78873505D01*
X113831807Y-78909489D01*
X113853500Y-72121369D01*
X112123154Y-72118922D01*
X112110182Y-78873505D01*
X111962796Y-78873505D01*
X109500000Y-70500000D01*
X114500000Y-70500000D01*
X114500000Y-87500000D01*
G37*
X114500000Y-87500000D02*
X85500000Y-75000000D01*
X85500000Y-70500000D01*
X88000000Y-70500000D01*
X114500000Y-87500000D01*
G36*
X114500000Y-87500000D02*
G01*
X85500000Y-75000000D01*
X85500000Y-70500000D01*
X88000000Y-70500000D01*
X114500000Y-87500000D01*
G37*
X114500000Y-87500000D02*
X101500000Y-70500000D01*
X106000000Y-70500000D01*
X114500000Y-87500000D01*
G36*
X114500000Y-87500000D02*
G01*
X101500000Y-70500000D01*
X106000000Y-70500000D01*
X114500000Y-87500000D01*
G37*
X114500000Y-87500000D02*
X92500000Y-70500000D01*
X98000000Y-70500000D01*
X114500000Y-87500000D01*
G36*
X114500000Y-87500000D02*
G01*
X92500000Y-70500000D01*
X98000000Y-70500000D01*
X114500000Y-87500000D01*
G37*
X87654929Y-77489265D02*
X86854929Y-77489265D01*
X86854929Y-77489265D02*
X86854929Y-77608313D01*
X86854929Y-77608313D02*
X86893024Y-77679741D01*
X86893024Y-77679741D02*
X86969214Y-77727360D01*
X86969214Y-77727360D02*
X87045405Y-77751170D01*
X87045405Y-77751170D02*
X87197786Y-77774979D01*
X87197786Y-77774979D02*
X87312072Y-77774979D01*
X87312072Y-77774979D02*
X87464453Y-77751170D01*
X87464453Y-77751170D02*
X87540643Y-77727360D01*
X87540643Y-77727360D02*
X87616834Y-77679741D01*
X87616834Y-77679741D02*
X87654929Y-77608313D01*
X87654929Y-77608313D02*
X87654929Y-77489265D01*
X87654929Y-77989265D02*
X87121595Y-77989265D01*
X86854929Y-77989265D02*
X86893024Y-77965456D01*
X86893024Y-77965456D02*
X86931119Y-77989265D01*
X86931119Y-77989265D02*
X86893024Y-78013075D01*
X86893024Y-78013075D02*
X86854929Y-77989265D01*
X86854929Y-77989265D02*
X86931119Y-77989265D01*
X87616834Y-78203551D02*
X87654929Y-78251170D01*
X87654929Y-78251170D02*
X87654929Y-78346408D01*
X87654929Y-78346408D02*
X87616834Y-78394027D01*
X87616834Y-78394027D02*
X87540643Y-78417836D01*
X87540643Y-78417836D02*
X87502548Y-78417836D01*
X87502548Y-78417836D02*
X87426357Y-78394027D01*
X87426357Y-78394027D02*
X87388262Y-78346408D01*
X87388262Y-78346408D02*
X87388262Y-78274979D01*
X87388262Y-78274979D02*
X87350167Y-78227360D01*
X87350167Y-78227360D02*
X87273976Y-78203551D01*
X87273976Y-78203551D02*
X87235881Y-78203551D01*
X87235881Y-78203551D02*
X87159691Y-78227360D01*
X87159691Y-78227360D02*
X87121595Y-78274979D01*
X87121595Y-78274979D02*
X87121595Y-78346408D01*
X87121595Y-78346408D02*
X87159691Y-78394027D01*
X87616834Y-78822598D02*
X87654929Y-78774979D01*
X87654929Y-78774979D02*
X87654929Y-78679741D01*
X87654929Y-78679741D02*
X87616834Y-78632122D01*
X87616834Y-78632122D02*
X87540643Y-78608313D01*
X87540643Y-78608313D02*
X87235881Y-78608313D01*
X87235881Y-78608313D02*
X87159691Y-78632122D01*
X87159691Y-78632122D02*
X87121595Y-78679741D01*
X87121595Y-78679741D02*
X87121595Y-78774979D01*
X87121595Y-78774979D02*
X87159691Y-78822598D01*
X87159691Y-78822598D02*
X87235881Y-78846408D01*
X87235881Y-78846408D02*
X87312072Y-78846408D01*
X87312072Y-78846408D02*
X87388262Y-78608313D01*
X87121595Y-79060693D02*
X87654929Y-79060693D01*
X87197786Y-79060693D02*
X87159691Y-79084503D01*
X87159691Y-79084503D02*
X87121595Y-79132122D01*
X87121595Y-79132122D02*
X87121595Y-79203550D01*
X87121595Y-79203550D02*
X87159691Y-79251169D01*
X87159691Y-79251169D02*
X87235881Y-79274979D01*
X87235881Y-79274979D02*
X87654929Y-79274979D01*
X86931119Y-79036884D02*
X86893024Y-79060693D01*
X86893024Y-79060693D02*
X86854929Y-79108312D01*
X86854929Y-79108312D02*
X86931119Y-79203550D01*
X86931119Y-79203550D02*
X86893024Y-79251169D01*
X86893024Y-79251169D02*
X86854929Y-79274979D01*
X87654929Y-79584503D02*
X87616834Y-79536884D01*
X87616834Y-79536884D02*
X87578738Y-79513074D01*
X87578738Y-79513074D02*
X87502548Y-79489265D01*
X87502548Y-79489265D02*
X87273976Y-79489265D01*
X87273976Y-79489265D02*
X87197786Y-79513074D01*
X87197786Y-79513074D02*
X87159691Y-79536884D01*
X87159691Y-79536884D02*
X87121595Y-79584503D01*
X87121595Y-79584503D02*
X87121595Y-79655931D01*
X87121595Y-79655931D02*
X87159691Y-79703550D01*
X87159691Y-79703550D02*
X87197786Y-79727360D01*
X87197786Y-79727360D02*
X87273976Y-79751169D01*
X87273976Y-79751169D02*
X87502548Y-79751169D01*
X87502548Y-79751169D02*
X87578738Y-79727360D01*
X87578738Y-79727360D02*
X87616834Y-79703550D01*
X87616834Y-79703550D02*
X87654929Y-79655931D01*
X87654929Y-79655931D02*
X87654929Y-79584503D01*
X87578738Y-79965455D02*
X87616834Y-79989265D01*
X87616834Y-79989265D02*
X87654929Y-79965455D01*
X87654929Y-79965455D02*
X87616834Y-79941646D01*
X87616834Y-79941646D02*
X87578738Y-79965455D01*
X87578738Y-79965455D02*
X87654929Y-79965455D01*
X87159691Y-79965455D02*
X87197786Y-79989265D01*
X87197786Y-79989265D02*
X87235881Y-79965455D01*
X87235881Y-79965455D02*
X87197786Y-79941646D01*
X87197786Y-79941646D02*
X87159691Y-79965455D01*
X87159691Y-79965455D02*
X87235881Y-79965455D01*
X88942884Y-77489265D02*
X88142884Y-77489265D01*
X88409550Y-77727360D02*
X88942884Y-77727360D01*
X88485741Y-77727360D02*
X88447646Y-77751170D01*
X88447646Y-77751170D02*
X88409550Y-77798789D01*
X88409550Y-77798789D02*
X88409550Y-77870217D01*
X88409550Y-77870217D02*
X88447646Y-77917836D01*
X88447646Y-77917836D02*
X88523836Y-77941646D01*
X88523836Y-77941646D02*
X88942884Y-77941646D01*
X88409550Y-78394027D02*
X89057169Y-78394027D01*
X89057169Y-78394027D02*
X89133360Y-78370217D01*
X89133360Y-78370217D02*
X89171455Y-78346408D01*
X89171455Y-78346408D02*
X89209550Y-78298789D01*
X89209550Y-78298789D02*
X89209550Y-78227360D01*
X89209550Y-78227360D02*
X89171455Y-78179741D01*
X88904789Y-78394027D02*
X88942884Y-78346408D01*
X88942884Y-78346408D02*
X88942884Y-78251170D01*
X88942884Y-78251170D02*
X88904789Y-78203551D01*
X88904789Y-78203551D02*
X88866693Y-78179741D01*
X88866693Y-78179741D02*
X88790503Y-78155932D01*
X88790503Y-78155932D02*
X88561931Y-78155932D01*
X88561931Y-78155932D02*
X88485741Y-78179741D01*
X88485741Y-78179741D02*
X88447646Y-78203551D01*
X88447646Y-78203551D02*
X88409550Y-78251170D01*
X88409550Y-78251170D02*
X88409550Y-78346408D01*
X88409550Y-78346408D02*
X88447646Y-78394027D01*
X88866693Y-78632122D02*
X88904789Y-78655932D01*
X88904789Y-78655932D02*
X88942884Y-78632122D01*
X88942884Y-78632122D02*
X88904789Y-78608313D01*
X88904789Y-78608313D02*
X88866693Y-78632122D01*
X88866693Y-78632122D02*
X88942884Y-78632122D01*
X88447646Y-78632122D02*
X88485741Y-78655932D01*
X88485741Y-78655932D02*
X88523836Y-78632122D01*
X88523836Y-78632122D02*
X88485741Y-78608313D01*
X88485741Y-78608313D02*
X88447646Y-78632122D01*
X88447646Y-78632122D02*
X88523836Y-78632122D01*
X88942884Y-79251169D02*
X88142884Y-79251169D01*
X88142884Y-79251169D02*
X88714312Y-79417836D01*
X88714312Y-79417836D02*
X88142884Y-79584502D01*
X88142884Y-79584502D02*
X88942884Y-79584502D01*
X88409550Y-80036884D02*
X88942884Y-80036884D01*
X88409550Y-79822598D02*
X88828598Y-79822598D01*
X88828598Y-79822598D02*
X88904789Y-79846408D01*
X88904789Y-79846408D02*
X88942884Y-79894027D01*
X88942884Y-79894027D02*
X88942884Y-79965455D01*
X88942884Y-79965455D02*
X88904789Y-80013074D01*
X88904789Y-80013074D02*
X88866693Y-80036884D01*
X88904789Y-80489265D02*
X88942884Y-80441646D01*
X88942884Y-80441646D02*
X88942884Y-80346408D01*
X88942884Y-80346408D02*
X88904789Y-80298789D01*
X88904789Y-80298789D02*
X88866693Y-80274979D01*
X88866693Y-80274979D02*
X88790503Y-80251170D01*
X88790503Y-80251170D02*
X88561931Y-80251170D01*
X88561931Y-80251170D02*
X88485741Y-80274979D01*
X88485741Y-80274979D02*
X88447646Y-80298789D01*
X88447646Y-80298789D02*
X88409550Y-80346408D01*
X88409550Y-80346408D02*
X88409550Y-80441646D01*
X88409550Y-80441646D02*
X88447646Y-80489265D01*
X88942884Y-80703550D02*
X88409550Y-80703550D01*
X88142884Y-80703550D02*
X88180979Y-80679741D01*
X88180979Y-80679741D02*
X88219074Y-80703550D01*
X88219074Y-80703550D02*
X88180979Y-80727360D01*
X88180979Y-80727360D02*
X88142884Y-80703550D01*
X88142884Y-80703550D02*
X88219074Y-80703550D01*
X88942884Y-81013074D02*
X88904789Y-80965455D01*
X88904789Y-80965455D02*
X88866693Y-80941645D01*
X88866693Y-80941645D02*
X88790503Y-80917836D01*
X88790503Y-80917836D02*
X88561931Y-80917836D01*
X88561931Y-80917836D02*
X88485741Y-80941645D01*
X88485741Y-80941645D02*
X88447646Y-80965455D01*
X88447646Y-80965455D02*
X88409550Y-81013074D01*
X88409550Y-81013074D02*
X88409550Y-81084502D01*
X88409550Y-81084502D02*
X88447646Y-81132121D01*
X88447646Y-81132121D02*
X88485741Y-81155931D01*
X88485741Y-81155931D02*
X88561931Y-81179740D01*
X88561931Y-81179740D02*
X88790503Y-81179740D01*
X88790503Y-81179740D02*
X88866693Y-81155931D01*
X88866693Y-81155931D02*
X88904789Y-81132121D01*
X88904789Y-81132121D02*
X88942884Y-81084502D01*
X88942884Y-81084502D02*
X88942884Y-81013074D01*
X88180979Y-82036883D02*
X88142884Y-81989264D01*
X88142884Y-81989264D02*
X88142884Y-81917835D01*
X88142884Y-81917835D02*
X88180979Y-81846407D01*
X88180979Y-81846407D02*
X88257169Y-81798788D01*
X88257169Y-81798788D02*
X88333360Y-81774978D01*
X88333360Y-81774978D02*
X88485741Y-81751169D01*
X88485741Y-81751169D02*
X88600027Y-81751169D01*
X88600027Y-81751169D02*
X88752408Y-81774978D01*
X88752408Y-81774978D02*
X88828598Y-81798788D01*
X88828598Y-81798788D02*
X88904789Y-81846407D01*
X88904789Y-81846407D02*
X88942884Y-81917835D01*
X88942884Y-81917835D02*
X88942884Y-81965454D01*
X88942884Y-81965454D02*
X88904789Y-82036883D01*
X88904789Y-82036883D02*
X88866693Y-82060692D01*
X88866693Y-82060692D02*
X88600027Y-82060692D01*
X88600027Y-82060692D02*
X88600027Y-81965454D01*
X88942884Y-82346407D02*
X88904789Y-82298788D01*
X88904789Y-82298788D02*
X88866693Y-82274978D01*
X88866693Y-82274978D02*
X88790503Y-82251169D01*
X88790503Y-82251169D02*
X88561931Y-82251169D01*
X88561931Y-82251169D02*
X88485741Y-82274978D01*
X88485741Y-82274978D02*
X88447646Y-82298788D01*
X88447646Y-82298788D02*
X88409550Y-82346407D01*
X88409550Y-82346407D02*
X88409550Y-82417835D01*
X88409550Y-82417835D02*
X88447646Y-82465454D01*
X88447646Y-82465454D02*
X88485741Y-82489264D01*
X88485741Y-82489264D02*
X88561931Y-82513073D01*
X88561931Y-82513073D02*
X88790503Y-82513073D01*
X88790503Y-82513073D02*
X88866693Y-82489264D01*
X88866693Y-82489264D02*
X88904789Y-82465454D01*
X88904789Y-82465454D02*
X88942884Y-82417835D01*
X88942884Y-82417835D02*
X88942884Y-82346407D01*
X88104789Y-82441645D02*
X88219074Y-82370216D01*
X88942884Y-82727359D02*
X88409550Y-82727359D01*
X88485741Y-82727359D02*
X88447646Y-82751169D01*
X88447646Y-82751169D02*
X88409550Y-82798788D01*
X88409550Y-82798788D02*
X88409550Y-82870216D01*
X88409550Y-82870216D02*
X88447646Y-82917835D01*
X88447646Y-82917835D02*
X88523836Y-82941645D01*
X88523836Y-82941645D02*
X88942884Y-82941645D01*
X88523836Y-82941645D02*
X88447646Y-82965454D01*
X88447646Y-82965454D02*
X88409550Y-83013073D01*
X88409550Y-83013073D02*
X88409550Y-83084502D01*
X88409550Y-83084502D02*
X88447646Y-83132121D01*
X88447646Y-83132121D02*
X88523836Y-83155931D01*
X88523836Y-83155931D02*
X88942884Y-83155931D01*
X88904789Y-83584502D02*
X88942884Y-83536883D01*
X88942884Y-83536883D02*
X88942884Y-83441645D01*
X88942884Y-83441645D02*
X88904789Y-83394026D01*
X88904789Y-83394026D02*
X88828598Y-83370217D01*
X88828598Y-83370217D02*
X88523836Y-83370217D01*
X88523836Y-83370217D02*
X88447646Y-83394026D01*
X88447646Y-83394026D02*
X88409550Y-83441645D01*
X88409550Y-83441645D02*
X88409550Y-83536883D01*
X88409550Y-83536883D02*
X88447646Y-83584502D01*
X88447646Y-83584502D02*
X88523836Y-83608312D01*
X88523836Y-83608312D02*
X88600027Y-83608312D01*
X88600027Y-83608312D02*
X88676217Y-83370217D01*
X88409550Y-83774978D02*
X88409550Y-84036883D01*
X88409550Y-84036883D02*
X88942884Y-83774978D01*
X88942884Y-83774978D02*
X88942884Y-84036883D01*
X88142884Y-84536883D02*
X88942884Y-84703549D01*
X88942884Y-84703549D02*
X88142884Y-84870216D01*
X88942884Y-85036882D02*
X88409550Y-85036882D01*
X88142884Y-85036882D02*
X88180979Y-85013073D01*
X88180979Y-85013073D02*
X88219074Y-85036882D01*
X88219074Y-85036882D02*
X88180979Y-85060692D01*
X88180979Y-85060692D02*
X88142884Y-85036882D01*
X88142884Y-85036882D02*
X88219074Y-85036882D01*
X88904789Y-85465453D02*
X88942884Y-85417834D01*
X88942884Y-85417834D02*
X88942884Y-85322596D01*
X88942884Y-85322596D02*
X88904789Y-85274977D01*
X88904789Y-85274977D02*
X88828598Y-85251168D01*
X88828598Y-85251168D02*
X88523836Y-85251168D01*
X88523836Y-85251168D02*
X88447646Y-85274977D01*
X88447646Y-85274977D02*
X88409550Y-85322596D01*
X88409550Y-85322596D02*
X88409550Y-85417834D01*
X88409550Y-85417834D02*
X88447646Y-85465453D01*
X88447646Y-85465453D02*
X88523836Y-85489263D01*
X88523836Y-85489263D02*
X88600027Y-85489263D01*
X88600027Y-85489263D02*
X88676217Y-85251168D01*
X88409550Y-85655929D02*
X88942884Y-85774977D01*
X88409550Y-85894024D02*
X88942884Y-85774977D01*
X88942884Y-85774977D02*
X89133360Y-85727358D01*
X89133360Y-85727358D02*
X89171455Y-85703548D01*
X89171455Y-85703548D02*
X89209550Y-85655929D01*
X88942884Y-86084500D02*
X88409550Y-86084500D01*
X88561931Y-86084500D02*
X88485741Y-86108310D01*
X88485741Y-86108310D02*
X88447646Y-86132119D01*
X88447646Y-86132119D02*
X88409550Y-86179738D01*
X88409550Y-86179738D02*
X88409550Y-86227357D01*
X88942884Y-86608310D02*
X88523836Y-86608310D01*
X88523836Y-86608310D02*
X88447646Y-86584500D01*
X88447646Y-86584500D02*
X88409550Y-86536881D01*
X88409550Y-86536881D02*
X88409550Y-86441643D01*
X88409550Y-86441643D02*
X88447646Y-86394024D01*
X88904789Y-86608310D02*
X88942884Y-86560691D01*
X88942884Y-86560691D02*
X88942884Y-86441643D01*
X88942884Y-86441643D02*
X88904789Y-86394024D01*
X88904789Y-86394024D02*
X88828598Y-86370215D01*
X88828598Y-86370215D02*
X88752408Y-86370215D01*
X88752408Y-86370215D02*
X88676217Y-86394024D01*
X88676217Y-86394024D02*
X88638122Y-86441643D01*
X88638122Y-86441643D02*
X88638122Y-86560691D01*
X88638122Y-86560691D02*
X88600027Y-86608310D01*
D11*
G36*
X112815850Y-75884016D02*
G01*
X112780950Y-75866566D01*
X112758795Y-75822256D01*
X112758795Y-75678995D01*
X112780950Y-75634685D01*
X112825259Y-75612531D01*
X112870148Y-75612531D01*
X112815850Y-75884016D01*
G37*
G36*
X112815850Y-73598301D02*
G01*
X112780950Y-73580851D01*
X112758795Y-73536541D01*
X112758795Y-73393280D01*
X112780950Y-73348970D01*
X112825259Y-73326816D01*
X112870148Y-73326816D01*
X112815850Y-73598301D01*
G37*
G36*
X113225462Y-72488518D02*
G01*
X113225462Y-72631780D01*
X113195657Y-72691389D01*
X113170989Y-72716056D01*
X113111378Y-72745863D01*
X112872878Y-72745863D01*
X112813268Y-72716058D01*
X112788600Y-72691389D01*
X112758795Y-72631779D01*
X112758795Y-72488518D01*
X112768218Y-72469673D01*
X113216039Y-72469673D01*
X113225462Y-72488518D01*
G37*
G36*
X113867985Y-78913332D02*
G01*
X112116272Y-78913332D01*
X112116272Y-78064451D01*
X112560716Y-78064451D01*
X112560716Y-78103469D01*
X112575648Y-78139517D01*
X112603238Y-78167107D01*
X112639286Y-78182039D01*
X112658795Y-78183960D01*
X113158997Y-78183960D01*
X113203307Y-78206114D01*
X113225462Y-78250424D01*
X113225462Y-78393686D01*
X113203307Y-78437995D01*
X113158997Y-78460150D01*
X112658795Y-78460150D01*
X112639286Y-78462071D01*
X112603238Y-78477003D01*
X112575648Y-78504593D01*
X112560716Y-78540641D01*
X112560716Y-78579659D01*
X112575648Y-78615707D01*
X112603238Y-78643297D01*
X112639286Y-78658229D01*
X112658795Y-78660150D01*
X113158997Y-78660150D01*
X113203307Y-78682304D01*
X113236019Y-78747728D01*
X113246462Y-78764318D01*
X113275939Y-78789883D01*
X113312955Y-78802221D01*
X113351875Y-78799456D01*
X113386773Y-78782007D01*
X113412338Y-78752530D01*
X113424677Y-78715514D01*
X113421911Y-78676594D01*
X113414905Y-78658285D01*
X113367286Y-78563048D01*
X113365461Y-78560150D01*
X113367286Y-78557252D01*
X113414905Y-78462015D01*
X113421911Y-78443706D01*
X113422165Y-78440122D01*
X113423541Y-78436802D01*
X113425462Y-78417293D01*
X113425462Y-78226817D01*
X113423541Y-78207308D01*
X113422165Y-78203987D01*
X113421911Y-78200404D01*
X113415619Y-78183960D01*
X113658795Y-78183960D01*
X113678304Y-78182039D01*
X113714352Y-78167107D01*
X113741942Y-78139517D01*
X113756874Y-78103469D01*
X113756874Y-78064451D01*
X113741942Y-78028403D01*
X113714352Y-78000813D01*
X113678304Y-77985881D01*
X113658795Y-77983960D01*
X112658795Y-77983960D01*
X112639286Y-77985881D01*
X112603238Y-78000813D01*
X112575648Y-78028403D01*
X112560716Y-78064451D01*
X112116272Y-78064451D01*
X112116272Y-76560150D01*
X112558795Y-76560150D01*
X112558795Y-76703007D01*
X112560716Y-76722516D01*
X112562091Y-76725836D01*
X112562346Y-76729420D01*
X112569352Y-76747728D01*
X112616971Y-76842966D01*
X112619024Y-76846229D01*
X112619538Y-76847768D01*
X112621200Y-76849684D01*
X112627414Y-76859556D01*
X112636884Y-76867769D01*
X112645102Y-76877245D01*
X112654975Y-76883459D01*
X112656891Y-76885121D01*
X112658429Y-76885633D01*
X112661693Y-76887688D01*
X112756930Y-76935307D01*
X112775239Y-76942313D01*
X112778822Y-76942567D01*
X112782143Y-76943943D01*
X112801652Y-76945864D01*
X113325462Y-76945864D01*
X113344971Y-76943943D01*
X113381019Y-76929011D01*
X113408609Y-76901421D01*
X113423541Y-76865373D01*
X113423541Y-76826355D01*
X113408609Y-76790307D01*
X113381019Y-76762717D01*
X113344971Y-76747785D01*
X113325462Y-76745864D01*
X112825259Y-76745864D01*
X112780950Y-76723709D01*
X112758795Y-76679399D01*
X112758795Y-76583757D01*
X112788600Y-76524147D01*
X112795455Y-76517293D01*
X113325462Y-76517293D01*
X113344971Y-76515372D01*
X113381019Y-76500440D01*
X113408609Y-76472850D01*
X113423541Y-76436802D01*
X113423541Y-76397784D01*
X113408609Y-76361736D01*
X113381019Y-76334146D01*
X113344971Y-76319214D01*
X113325462Y-76317293D01*
X112658795Y-76317293D01*
X112639286Y-76319214D01*
X112603238Y-76334146D01*
X112575648Y-76361736D01*
X112560716Y-76397784D01*
X112560716Y-76436802D01*
X112575648Y-76472850D01*
X112585643Y-76482845D01*
X112569352Y-76515429D01*
X112562346Y-76533737D01*
X112562091Y-76537320D01*
X112560716Y-76540641D01*
X112558795Y-76560150D01*
X112116272Y-76560150D01*
X112116272Y-75655388D01*
X112558795Y-75655388D01*
X112558795Y-75845864D01*
X112560716Y-75865373D01*
X112562091Y-75868693D01*
X112562346Y-75872277D01*
X112569352Y-75890585D01*
X112616971Y-75985823D01*
X112619024Y-75989086D01*
X112619538Y-75990625D01*
X112621200Y-75992541D01*
X112627414Y-76002413D01*
X112636884Y-76010626D01*
X112645102Y-76020102D01*
X112654975Y-76026316D01*
X112656891Y-76027978D01*
X112658429Y-76028490D01*
X112661693Y-76030545D01*
X112756930Y-76078164D01*
X112775239Y-76085170D01*
X112778822Y-76085424D01*
X112782143Y-76086800D01*
X112801652Y-76088721D01*
X112896785Y-76088721D01*
X112896890Y-76088721D01*
X112916399Y-76086800D01*
X112925451Y-76083050D01*
X112935062Y-76081149D01*
X112943300Y-76075656D01*
X112952447Y-76071868D01*
X112959373Y-76064941D01*
X112967527Y-76059506D01*
X112973037Y-76051277D01*
X112980037Y-76044278D01*
X112983786Y-76035226D01*
X112989238Y-76027086D01*
X112994948Y-76008333D01*
X113074108Y-75612531D01*
X113158997Y-75612531D01*
X113203307Y-75634685D01*
X113225462Y-75678995D01*
X113225462Y-75822257D01*
X113188400Y-75896381D01*
X113181394Y-75914689D01*
X113178628Y-75953609D01*
X113190967Y-75990625D01*
X113216531Y-76020102D01*
X113251430Y-76037551D01*
X113290350Y-76040317D01*
X113327366Y-76027978D01*
X113356843Y-76002414D01*
X113367286Y-75985823D01*
X113414905Y-75890586D01*
X113421911Y-75872277D01*
X113422165Y-75868693D01*
X113423541Y-75865373D01*
X113425462Y-75845864D01*
X113425462Y-75655388D01*
X113423541Y-75635879D01*
X113422165Y-75632558D01*
X113421911Y-75628975D01*
X113414905Y-75610666D01*
X113367286Y-75515429D01*
X113365232Y-75512166D01*
X113364719Y-75510626D01*
X113363055Y-75508708D01*
X113356843Y-75498838D01*
X113347368Y-75490621D01*
X113339154Y-75481150D01*
X113329282Y-75474936D01*
X113327366Y-75473274D01*
X113325827Y-75472760D01*
X113322564Y-75470707D01*
X113227325Y-75423088D01*
X113209016Y-75416082D01*
X113205433Y-75415827D01*
X113202113Y-75414452D01*
X113182604Y-75412531D01*
X112801652Y-75412531D01*
X112782143Y-75414452D01*
X112778822Y-75415827D01*
X112775239Y-75416082D01*
X112756930Y-75423088D01*
X112661693Y-75470707D01*
X112658429Y-75472761D01*
X112656891Y-75473274D01*
X112654975Y-75474935D01*
X112645102Y-75481150D01*
X112636884Y-75490625D01*
X112627414Y-75498839D01*
X112621200Y-75508710D01*
X112619538Y-75510627D01*
X112619024Y-75512165D01*
X112616971Y-75515429D01*
X112569352Y-75610667D01*
X112562346Y-75628975D01*
X112562091Y-75632558D01*
X112560716Y-75635879D01*
X112558795Y-75655388D01*
X112116272Y-75655388D01*
X112116272Y-74969212D01*
X112227383Y-74969212D01*
X112227383Y-75008230D01*
X112242315Y-75044278D01*
X112269905Y-75071868D01*
X112305953Y-75086800D01*
X112325462Y-75088721D01*
X112558795Y-75088721D01*
X112558795Y-75226816D01*
X112560716Y-75246325D01*
X112575648Y-75282373D01*
X112603238Y-75309963D01*
X112639286Y-75324895D01*
X112678304Y-75324895D01*
X112714352Y-75309963D01*
X112741942Y-75282373D01*
X112756874Y-75246325D01*
X112758795Y-75226816D01*
X112758795Y-75088721D01*
X113158997Y-75088721D01*
X113203307Y-75110875D01*
X113225462Y-75155185D01*
X113225462Y-75226816D01*
X113227383Y-75246325D01*
X113242315Y-75282373D01*
X113269905Y-75309963D01*
X113305953Y-75324895D01*
X113344971Y-75324895D01*
X113381019Y-75309963D01*
X113408609Y-75282373D01*
X113423541Y-75246325D01*
X113425462Y-75226816D01*
X113425462Y-75131578D01*
X113423541Y-75112069D01*
X113422165Y-75108748D01*
X113421911Y-75105165D01*
X113414905Y-75086856D01*
X113367286Y-74991619D01*
X113365232Y-74988356D01*
X113364719Y-74986816D01*
X113363055Y-74984898D01*
X113356843Y-74975028D01*
X113347368Y-74966811D01*
X113339154Y-74957340D01*
X113329282Y-74951126D01*
X113327366Y-74949464D01*
X113325827Y-74948950D01*
X113322564Y-74946897D01*
X113227325Y-74899278D01*
X113209016Y-74892272D01*
X113205433Y-74892017D01*
X113202113Y-74890642D01*
X113182604Y-74888721D01*
X112758795Y-74888721D01*
X112758795Y-74845864D01*
X112756874Y-74826355D01*
X112741942Y-74790307D01*
X112714352Y-74762717D01*
X112678304Y-74747785D01*
X112639286Y-74747785D01*
X112603238Y-74762717D01*
X112575648Y-74790307D01*
X112560716Y-74826355D01*
X112558795Y-74845864D01*
X112558795Y-74888721D01*
X112325462Y-74888721D01*
X112305953Y-74890642D01*
X112269905Y-74905574D01*
X112242315Y-74933164D01*
X112227383Y-74969212D01*
X112116272Y-74969212D01*
X112116272Y-74274435D01*
X112558795Y-74274435D01*
X112558795Y-74464911D01*
X112560716Y-74484420D01*
X112562091Y-74487740D01*
X112562346Y-74491324D01*
X112569352Y-74509632D01*
X112616971Y-74604870D01*
X112627414Y-74621460D01*
X112656891Y-74647025D01*
X112693907Y-74659363D01*
X112732827Y-74656598D01*
X112767725Y-74639149D01*
X112793290Y-74609672D01*
X112805629Y-74572656D01*
X112802863Y-74533736D01*
X112795857Y-74515427D01*
X112758795Y-74441303D01*
X112758795Y-74298042D01*
X112788600Y-74238432D01*
X112813268Y-74213763D01*
X112872878Y-74183959D01*
X113111378Y-74183959D01*
X113170989Y-74213765D01*
X113195657Y-74238432D01*
X113225462Y-74298042D01*
X113225462Y-74441304D01*
X113188400Y-74515428D01*
X113181394Y-74533736D01*
X113178628Y-74572656D01*
X113190967Y-74609672D01*
X113216531Y-74639149D01*
X113251430Y-74656598D01*
X113290350Y-74659364D01*
X113327366Y-74647025D01*
X113356843Y-74621461D01*
X113367286Y-74604870D01*
X113414905Y-74509633D01*
X113421911Y-74491324D01*
X113422165Y-74487740D01*
X113423541Y-74484420D01*
X113425462Y-74464911D01*
X113425462Y-74274435D01*
X113423541Y-74254926D01*
X113422165Y-74251605D01*
X113421911Y-74248022D01*
X113414905Y-74229713D01*
X113367286Y-74134476D01*
X113362000Y-74126079D01*
X113360990Y-74123639D01*
X113358736Y-74120893D01*
X113356843Y-74117885D01*
X113354846Y-74116153D01*
X113348553Y-74108485D01*
X113300933Y-74060867D01*
X113293263Y-74054572D01*
X113291534Y-74052578D01*
X113288529Y-74050686D01*
X113285780Y-74048430D01*
X113283336Y-74047418D01*
X113274944Y-74042135D01*
X113179706Y-73994516D01*
X113161398Y-73987510D01*
X113157814Y-73987255D01*
X113154494Y-73985880D01*
X113134985Y-73983959D01*
X112849271Y-73983959D01*
X112829762Y-73985880D01*
X112826441Y-73987255D01*
X112822858Y-73987510D01*
X112804549Y-73994516D01*
X112709312Y-74042135D01*
X112700915Y-74047420D01*
X112698475Y-74048431D01*
X112695729Y-74050684D01*
X112692721Y-74052578D01*
X112690988Y-74054575D01*
X112683322Y-74060868D01*
X112635703Y-74108486D01*
X112629408Y-74116156D01*
X112627414Y-74117886D01*
X112625520Y-74120893D01*
X112623267Y-74123640D01*
X112622256Y-74126079D01*
X112616971Y-74134476D01*
X112569352Y-74229714D01*
X112562346Y-74248022D01*
X112562091Y-74251605D01*
X112560716Y-74254926D01*
X112558795Y-74274435D01*
X112116272Y-74274435D01*
X112116272Y-73369673D01*
X112558795Y-73369673D01*
X112558795Y-73560149D01*
X112560716Y-73579658D01*
X112562091Y-73582978D01*
X112562346Y-73586562D01*
X112569352Y-73604870D01*
X112616971Y-73700108D01*
X112619024Y-73703371D01*
X112619538Y-73704910D01*
X112621200Y-73706826D01*
X112627414Y-73716698D01*
X112636884Y-73724911D01*
X112645102Y-73734387D01*
X112654975Y-73740601D01*
X112656891Y-73742263D01*
X112658429Y-73742775D01*
X112661693Y-73744830D01*
X112756930Y-73792449D01*
X112775239Y-73799455D01*
X112778822Y-73799709D01*
X112782143Y-73801085D01*
X112801652Y-73803006D01*
X112896785Y-73803006D01*
X112896890Y-73803006D01*
X112916399Y-73801085D01*
X112925451Y-73797335D01*
X112935062Y-73795434D01*
X112943300Y-73789941D01*
X112952447Y-73786153D01*
X112959373Y-73779226D01*
X112967527Y-73773791D01*
X112973037Y-73765562D01*
X112980037Y-73758563D01*
X112983786Y-73749511D01*
X112989238Y-73741371D01*
X112994948Y-73722618D01*
X113074108Y-73326816D01*
X113158997Y-73326816D01*
X113203307Y-73348970D01*
X113225462Y-73393280D01*
X113225462Y-73536542D01*
X113188400Y-73610666D01*
X113181394Y-73628974D01*
X113178628Y-73667894D01*
X113190967Y-73704910D01*
X113216531Y-73734387D01*
X113251430Y-73751836D01*
X113290350Y-73754602D01*
X113327366Y-73742263D01*
X113356843Y-73716699D01*
X113367286Y-73700108D01*
X113414905Y-73604871D01*
X113421911Y-73586562D01*
X113422165Y-73582978D01*
X113423541Y-73579658D01*
X113425462Y-73560149D01*
X113425462Y-73369673D01*
X113423541Y-73350164D01*
X113422165Y-73346843D01*
X113421911Y-73343260D01*
X113414905Y-73324951D01*
X113367286Y-73229714D01*
X113365232Y-73226451D01*
X113364719Y-73224911D01*
X113363055Y-73222993D01*
X113356843Y-73213123D01*
X113347368Y-73204906D01*
X113339154Y-73195435D01*
X113329282Y-73189221D01*
X113327366Y-73187559D01*
X113325827Y-73187045D01*
X113322564Y-73184992D01*
X113227325Y-73137373D01*
X113209016Y-73130367D01*
X113205433Y-73130112D01*
X113202113Y-73128737D01*
X113182604Y-73126816D01*
X112801652Y-73126816D01*
X112782143Y-73128737D01*
X112778822Y-73130112D01*
X112775239Y-73130367D01*
X112756930Y-73137373D01*
X112661693Y-73184992D01*
X112658429Y-73187046D01*
X112656891Y-73187559D01*
X112654975Y-73189220D01*
X112645102Y-73195435D01*
X112636884Y-73204910D01*
X112627414Y-73213124D01*
X112621200Y-73222995D01*
X112619538Y-73224912D01*
X112619024Y-73226450D01*
X112616971Y-73229714D01*
X112569352Y-73324952D01*
X112562346Y-73343260D01*
X112562091Y-73346843D01*
X112560716Y-73350164D01*
X112558795Y-73369673D01*
X112116272Y-73369673D01*
X112116272Y-72464911D01*
X112558795Y-72464911D01*
X112558795Y-72655387D01*
X112560716Y-72674896D01*
X112562091Y-72678216D01*
X112562346Y-72681800D01*
X112569352Y-72700108D01*
X112616971Y-72795346D01*
X112622256Y-72803742D01*
X112623267Y-72806182D01*
X112625520Y-72808928D01*
X112627414Y-72811936D01*
X112629408Y-72813665D01*
X112635703Y-72821336D01*
X112683322Y-72868954D01*
X112690988Y-72875246D01*
X112692721Y-72877244D01*
X112695729Y-72879137D01*
X112698475Y-72881391D01*
X112700915Y-72882401D01*
X112709312Y-72887687D01*
X112804549Y-72935306D01*
X112822858Y-72942312D01*
X112826441Y-72942566D01*
X112829762Y-72943942D01*
X112849271Y-72945863D01*
X113134985Y-72945863D01*
X113154494Y-72943942D01*
X113157814Y-72942566D01*
X113161398Y-72942312D01*
X113179706Y-72935306D01*
X113274944Y-72887687D01*
X113283336Y-72882403D01*
X113285780Y-72881392D01*
X113288529Y-72879135D01*
X113291534Y-72877244D01*
X113293263Y-72875249D01*
X113300933Y-72868955D01*
X113348553Y-72821337D01*
X113354846Y-72813668D01*
X113356843Y-72811937D01*
X113358736Y-72808928D01*
X113360990Y-72806183D01*
X113362000Y-72803742D01*
X113367286Y-72795346D01*
X113414905Y-72700109D01*
X113421911Y-72681800D01*
X113422165Y-72678216D01*
X113423541Y-72674896D01*
X113425462Y-72655387D01*
X113425462Y-72469673D01*
X113658795Y-72469673D01*
X113678304Y-72467752D01*
X113714352Y-72452820D01*
X113741942Y-72425230D01*
X113756874Y-72389182D01*
X113756874Y-72350164D01*
X113741942Y-72314116D01*
X113714352Y-72286526D01*
X113678304Y-72271594D01*
X113658795Y-72269673D01*
X112658795Y-72269673D01*
X112639286Y-72271594D01*
X112603238Y-72286526D01*
X112575648Y-72314116D01*
X112560716Y-72350164D01*
X112560716Y-72389182D01*
X112571653Y-72415586D01*
X112569352Y-72420190D01*
X112562346Y-72438498D01*
X112562091Y-72442081D01*
X112560716Y-72445402D01*
X112558795Y-72464911D01*
X112116272Y-72464911D01*
X112116272Y-72158562D01*
X113867985Y-72158562D01*
X113867985Y-78913332D01*
G37*
D10*
X105491466Y-100303884D02*
X105491466Y-101065789D01*
D12*
X87649411Y-88752882D02*
X87173220Y-88486215D01*
X87649411Y-88295739D02*
X86649411Y-88295739D01*
X86649411Y-88295739D02*
X86649411Y-88600501D01*
X86649411Y-88600501D02*
X86697030Y-88676691D01*
X86697030Y-88676691D02*
X86744649Y-88714786D01*
X86744649Y-88714786D02*
X86839887Y-88752882D01*
X86839887Y-88752882D02*
X86982744Y-88752882D01*
X86982744Y-88752882D02*
X87077982Y-88714786D01*
X87077982Y-88714786D02*
X87125601Y-88676691D01*
X87125601Y-88676691D02*
X87173220Y-88600501D01*
X87173220Y-88600501D02*
X87173220Y-88295739D01*
X87363696Y-89057643D02*
X87363696Y-89438596D01*
X87649411Y-88981453D02*
X86649411Y-89248120D01*
X86649411Y-89248120D02*
X87649411Y-89514786D01*
X86649411Y-89933834D02*
X86649411Y-90010024D01*
X86649411Y-90010024D02*
X86697030Y-90086215D01*
X86697030Y-90086215D02*
X86744649Y-90124310D01*
X86744649Y-90124310D02*
X86839887Y-90162405D01*
X86839887Y-90162405D02*
X87030363Y-90200500D01*
X87030363Y-90200500D02*
X87268458Y-90200500D01*
X87268458Y-90200500D02*
X87458934Y-90162405D01*
X87458934Y-90162405D02*
X87554172Y-90124310D01*
X87554172Y-90124310D02*
X87601792Y-90086215D01*
X87601792Y-90086215D02*
X87649411Y-90010024D01*
X87649411Y-90010024D02*
X87649411Y-89933834D01*
X87649411Y-89933834D02*
X87601792Y-89857643D01*
X87601792Y-89857643D02*
X87554172Y-89819548D01*
X87554172Y-89819548D02*
X87458934Y-89781453D01*
X87458934Y-89781453D02*
X87268458Y-89743357D01*
X87268458Y-89743357D02*
X87030363Y-89743357D01*
X87030363Y-89743357D02*
X86839887Y-89781453D01*
X86839887Y-89781453D02*
X86744649Y-89819548D01*
X86744649Y-89819548D02*
X86697030Y-89857643D01*
X86697030Y-89857643D02*
X86649411Y-89933834D01*
X86982744Y-91038596D02*
X86982744Y-91343358D01*
X86649411Y-91152882D02*
X87506553Y-91152882D01*
X87506553Y-91152882D02*
X87601792Y-91190977D01*
X87601792Y-91190977D02*
X87649411Y-91267167D01*
X87649411Y-91267167D02*
X87649411Y-91343358D01*
X87649411Y-91610025D02*
X86982744Y-91610025D01*
X87173220Y-91610025D02*
X87077982Y-91648120D01*
X87077982Y-91648120D02*
X87030363Y-91686215D01*
X87030363Y-91686215D02*
X86982744Y-91762406D01*
X86982744Y-91762406D02*
X86982744Y-91838596D01*
X87649411Y-92105263D02*
X86982744Y-92105263D01*
X86649411Y-92105263D02*
X86697030Y-92067167D01*
X86697030Y-92067167D02*
X86744649Y-92105263D01*
X86744649Y-92105263D02*
X86697030Y-92143358D01*
X86697030Y-92143358D02*
X86649411Y-92105263D01*
X86649411Y-92105263D02*
X86744649Y-92105263D01*
X87649411Y-92486215D02*
X86982744Y-92486215D01*
X87077982Y-92486215D02*
X87030363Y-92524310D01*
X87030363Y-92524310D02*
X86982744Y-92600500D01*
X86982744Y-92600500D02*
X86982744Y-92714786D01*
X86982744Y-92714786D02*
X87030363Y-92790977D01*
X87030363Y-92790977D02*
X87125601Y-92829072D01*
X87125601Y-92829072D02*
X87649411Y-92829072D01*
X87125601Y-92829072D02*
X87030363Y-92867167D01*
X87030363Y-92867167D02*
X86982744Y-92943358D01*
X86982744Y-92943358D02*
X86982744Y-93057643D01*
X86982744Y-93057643D02*
X87030363Y-93133834D01*
X87030363Y-93133834D02*
X87125601Y-93171929D01*
X87125601Y-93171929D02*
X87649411Y-93171929D01*
X86982744Y-93552882D02*
X87982744Y-93552882D01*
X87030363Y-93552882D02*
X86982744Y-93629072D01*
X86982744Y-93629072D02*
X86982744Y-93781453D01*
X86982744Y-93781453D02*
X87030363Y-93857644D01*
X87030363Y-93857644D02*
X87077982Y-93895739D01*
X87077982Y-93895739D02*
X87173220Y-93933834D01*
X87173220Y-93933834D02*
X87458934Y-93933834D01*
X87458934Y-93933834D02*
X87554172Y-93895739D01*
X87554172Y-93895739D02*
X87601792Y-93857644D01*
X87601792Y-93857644D02*
X87649411Y-93781453D01*
X87649411Y-93781453D02*
X87649411Y-93629072D01*
X87649411Y-93629072D02*
X87601792Y-93552882D01*
X87649411Y-94390977D02*
X87601792Y-94314787D01*
X87601792Y-94314787D02*
X87554172Y-94276692D01*
X87554172Y-94276692D02*
X87458934Y-94238596D01*
X87458934Y-94238596D02*
X87173220Y-94238596D01*
X87173220Y-94238596D02*
X87077982Y-94276692D01*
X87077982Y-94276692D02*
X87030363Y-94314787D01*
X87030363Y-94314787D02*
X86982744Y-94390977D01*
X86982744Y-94390977D02*
X86982744Y-94505263D01*
X86982744Y-94505263D02*
X87030363Y-94581454D01*
X87030363Y-94581454D02*
X87077982Y-94619549D01*
X87077982Y-94619549D02*
X87173220Y-94657644D01*
X87173220Y-94657644D02*
X87458934Y-94657644D01*
X87458934Y-94657644D02*
X87554172Y-94619549D01*
X87554172Y-94619549D02*
X87601792Y-94581454D01*
X87601792Y-94581454D02*
X87649411Y-94505263D01*
X87649411Y-94505263D02*
X87649411Y-94390977D01*
X86982744Y-94886216D02*
X86982744Y-95190978D01*
X86649411Y-95000502D02*
X87506553Y-95000502D01*
X87506553Y-95000502D02*
X87601792Y-95038597D01*
X87601792Y-95038597D02*
X87649411Y-95114787D01*
X87649411Y-95114787D02*
X87649411Y-95190978D01*
X89259355Y-88752882D02*
X88783164Y-88486215D01*
X89259355Y-88295739D02*
X88259355Y-88295739D01*
X88259355Y-88295739D02*
X88259355Y-88600501D01*
X88259355Y-88600501D02*
X88306974Y-88676691D01*
X88306974Y-88676691D02*
X88354593Y-88714786D01*
X88354593Y-88714786D02*
X88449831Y-88752882D01*
X88449831Y-88752882D02*
X88592688Y-88752882D01*
X88592688Y-88752882D02*
X88687926Y-88714786D01*
X88687926Y-88714786D02*
X88735545Y-88676691D01*
X88735545Y-88676691D02*
X88783164Y-88600501D01*
X88783164Y-88600501D02*
X88783164Y-88295739D01*
X88973640Y-89057643D02*
X88973640Y-89438596D01*
X89259355Y-88981453D02*
X88259355Y-89248120D01*
X88259355Y-89248120D02*
X89259355Y-89514786D01*
X88259355Y-89705262D02*
X88259355Y-90200500D01*
X88259355Y-90200500D02*
X88640307Y-89933834D01*
X88640307Y-89933834D02*
X88640307Y-90048119D01*
X88640307Y-90048119D02*
X88687926Y-90124310D01*
X88687926Y-90124310D02*
X88735545Y-90162405D01*
X88735545Y-90162405D02*
X88830783Y-90200500D01*
X88830783Y-90200500D02*
X89068878Y-90200500D01*
X89068878Y-90200500D02*
X89164116Y-90162405D01*
X89164116Y-90162405D02*
X89211736Y-90124310D01*
X89211736Y-90124310D02*
X89259355Y-90048119D01*
X89259355Y-90048119D02*
X89259355Y-89819548D01*
X89259355Y-89819548D02*
X89211736Y-89743357D01*
X89211736Y-89743357D02*
X89164116Y-89705262D01*
X89259355Y-91152882D02*
X88592688Y-91152882D01*
X88783164Y-91152882D02*
X88687926Y-91190977D01*
X88687926Y-91190977D02*
X88640307Y-91229072D01*
X88640307Y-91229072D02*
X88592688Y-91305263D01*
X88592688Y-91305263D02*
X88592688Y-91381453D01*
X89211736Y-91952882D02*
X89259355Y-91876691D01*
X89259355Y-91876691D02*
X89259355Y-91724310D01*
X89259355Y-91724310D02*
X89211736Y-91648120D01*
X89211736Y-91648120D02*
X89116497Y-91610024D01*
X89116497Y-91610024D02*
X88735545Y-91610024D01*
X88735545Y-91610024D02*
X88640307Y-91648120D01*
X88640307Y-91648120D02*
X88592688Y-91724310D01*
X88592688Y-91724310D02*
X88592688Y-91876691D01*
X88592688Y-91876691D02*
X88640307Y-91952882D01*
X88640307Y-91952882D02*
X88735545Y-91990977D01*
X88735545Y-91990977D02*
X88830783Y-91990977D01*
X88830783Y-91990977D02*
X88926021Y-91610024D01*
X89211736Y-92295738D02*
X89259355Y-92371929D01*
X89259355Y-92371929D02*
X89259355Y-92524310D01*
X89259355Y-92524310D02*
X89211736Y-92600500D01*
X89211736Y-92600500D02*
X89116497Y-92638596D01*
X89116497Y-92638596D02*
X89068878Y-92638596D01*
X89068878Y-92638596D02*
X88973640Y-92600500D01*
X88973640Y-92600500D02*
X88926021Y-92524310D01*
X88926021Y-92524310D02*
X88926021Y-92410024D01*
X88926021Y-92410024D02*
X88878402Y-92333834D01*
X88878402Y-92333834D02*
X88783164Y-92295738D01*
X88783164Y-92295738D02*
X88735545Y-92295738D01*
X88735545Y-92295738D02*
X88640307Y-92333834D01*
X88640307Y-92333834D02*
X88592688Y-92410024D01*
X88592688Y-92410024D02*
X88592688Y-92524310D01*
X88592688Y-92524310D02*
X88640307Y-92600500D01*
X89211736Y-93286215D02*
X89259355Y-93210024D01*
X89259355Y-93210024D02*
X89259355Y-93057643D01*
X89259355Y-93057643D02*
X89211736Y-92981453D01*
X89211736Y-92981453D02*
X89116497Y-92943357D01*
X89116497Y-92943357D02*
X88735545Y-92943357D01*
X88735545Y-92943357D02*
X88640307Y-92981453D01*
X88640307Y-92981453D02*
X88592688Y-93057643D01*
X88592688Y-93057643D02*
X88592688Y-93210024D01*
X88592688Y-93210024D02*
X88640307Y-93286215D01*
X88640307Y-93286215D02*
X88735545Y-93324310D01*
X88735545Y-93324310D02*
X88830783Y-93324310D01*
X88830783Y-93324310D02*
X88926021Y-92943357D01*
X88592688Y-93552881D02*
X88592688Y-93857643D01*
X88259355Y-93667167D02*
X89116497Y-93667167D01*
X89116497Y-93667167D02*
X89211736Y-93705262D01*
X89211736Y-93705262D02*
X89259355Y-93781452D01*
X89259355Y-93781452D02*
X89259355Y-93857643D01*
X90869299Y-88752882D02*
X90393108Y-88486215D01*
X90869299Y-88295739D02*
X89869299Y-88295739D01*
X89869299Y-88295739D02*
X89869299Y-88600501D01*
X89869299Y-88600501D02*
X89916918Y-88676691D01*
X89916918Y-88676691D02*
X89964537Y-88714786D01*
X89964537Y-88714786D02*
X90059775Y-88752882D01*
X90059775Y-88752882D02*
X90202632Y-88752882D01*
X90202632Y-88752882D02*
X90297870Y-88714786D01*
X90297870Y-88714786D02*
X90345489Y-88676691D01*
X90345489Y-88676691D02*
X90393108Y-88600501D01*
X90393108Y-88600501D02*
X90393108Y-88295739D01*
X90583584Y-89057643D02*
X90583584Y-89438596D01*
X90869299Y-88981453D02*
X89869299Y-89248120D01*
X89869299Y-89248120D02*
X90869299Y-89514786D01*
X89869299Y-90162405D02*
X89869299Y-89781453D01*
X89869299Y-89781453D02*
X90345489Y-89743357D01*
X90345489Y-89743357D02*
X90297870Y-89781453D01*
X90297870Y-89781453D02*
X90250251Y-89857643D01*
X90250251Y-89857643D02*
X90250251Y-90048119D01*
X90250251Y-90048119D02*
X90297870Y-90124310D01*
X90297870Y-90124310D02*
X90345489Y-90162405D01*
X90345489Y-90162405D02*
X90440727Y-90200500D01*
X90440727Y-90200500D02*
X90678822Y-90200500D01*
X90678822Y-90200500D02*
X90774060Y-90162405D01*
X90774060Y-90162405D02*
X90821680Y-90124310D01*
X90821680Y-90124310D02*
X90869299Y-90048119D01*
X90869299Y-90048119D02*
X90869299Y-89857643D01*
X90869299Y-89857643D02*
X90821680Y-89781453D01*
X90821680Y-89781453D02*
X90774060Y-89743357D01*
X90869299Y-91267167D02*
X90821680Y-91190977D01*
X90821680Y-91190977D02*
X90726441Y-91152882D01*
X90726441Y-91152882D02*
X89869299Y-91152882D01*
X90821680Y-91876692D02*
X90869299Y-91800501D01*
X90869299Y-91800501D02*
X90869299Y-91648120D01*
X90869299Y-91648120D02*
X90821680Y-91571930D01*
X90821680Y-91571930D02*
X90726441Y-91533834D01*
X90726441Y-91533834D02*
X90345489Y-91533834D01*
X90345489Y-91533834D02*
X90250251Y-91571930D01*
X90250251Y-91571930D02*
X90202632Y-91648120D01*
X90202632Y-91648120D02*
X90202632Y-91800501D01*
X90202632Y-91800501D02*
X90250251Y-91876692D01*
X90250251Y-91876692D02*
X90345489Y-91914787D01*
X90345489Y-91914787D02*
X90440727Y-91914787D01*
X90440727Y-91914787D02*
X90535965Y-91533834D01*
X90869299Y-92600501D02*
X89869299Y-92600501D01*
X90821680Y-92600501D02*
X90869299Y-92524310D01*
X90869299Y-92524310D02*
X90869299Y-92371929D01*
X90869299Y-92371929D02*
X90821680Y-92295739D01*
X90821680Y-92295739D02*
X90774060Y-92257644D01*
X90774060Y-92257644D02*
X90678822Y-92219548D01*
X90678822Y-92219548D02*
X90393108Y-92219548D01*
X90393108Y-92219548D02*
X90297870Y-92257644D01*
X90297870Y-92257644D02*
X90250251Y-92295739D01*
X90250251Y-92295739D02*
X90202632Y-92371929D01*
X90202632Y-92371929D02*
X90202632Y-92524310D01*
X90202632Y-92524310D02*
X90250251Y-92600501D01*
X90869299Y-93705263D02*
X90821680Y-93629073D01*
X90821680Y-93629073D02*
X90774060Y-93590978D01*
X90774060Y-93590978D02*
X90678822Y-93552882D01*
X90678822Y-93552882D02*
X90393108Y-93552882D01*
X90393108Y-93552882D02*
X90297870Y-93590978D01*
X90297870Y-93590978D02*
X90250251Y-93629073D01*
X90250251Y-93629073D02*
X90202632Y-93705263D01*
X90202632Y-93705263D02*
X90202632Y-93819549D01*
X90202632Y-93819549D02*
X90250251Y-93895740D01*
X90250251Y-93895740D02*
X90297870Y-93933835D01*
X90297870Y-93933835D02*
X90393108Y-93971930D01*
X90393108Y-93971930D02*
X90678822Y-93971930D01*
X90678822Y-93971930D02*
X90774060Y-93933835D01*
X90774060Y-93933835D02*
X90821680Y-93895740D01*
X90821680Y-93895740D02*
X90869299Y-93819549D01*
X90869299Y-93819549D02*
X90869299Y-93705263D01*
X90202632Y-94314788D02*
X91202632Y-94314788D01*
X90250251Y-94314788D02*
X90202632Y-94390978D01*
X90202632Y-94390978D02*
X90202632Y-94543359D01*
X90202632Y-94543359D02*
X90250251Y-94619550D01*
X90250251Y-94619550D02*
X90297870Y-94657645D01*
X90297870Y-94657645D02*
X90393108Y-94695740D01*
X90393108Y-94695740D02*
X90678822Y-94695740D01*
X90678822Y-94695740D02*
X90774060Y-94657645D01*
X90774060Y-94657645D02*
X90821680Y-94619550D01*
X90821680Y-94619550D02*
X90869299Y-94543359D01*
X90869299Y-94543359D02*
X90869299Y-94390978D01*
X90869299Y-94390978D02*
X90821680Y-94314788D01*
X113365583Y-87545197D02*
X112365583Y-87545197D01*
X112365583Y-87545197D02*
X112365583Y-87849959D01*
X112365583Y-87849959D02*
X112413202Y-87926149D01*
X112413202Y-87926149D02*
X112460821Y-87964244D01*
X112460821Y-87964244D02*
X112556059Y-88002340D01*
X112556059Y-88002340D02*
X112698916Y-88002340D01*
X112698916Y-88002340D02*
X112794154Y-87964244D01*
X112794154Y-87964244D02*
X112841773Y-87926149D01*
X112841773Y-87926149D02*
X112889392Y-87849959D01*
X112889392Y-87849959D02*
X112889392Y-87545197D01*
X113365583Y-88345197D02*
X112365583Y-88345197D01*
X113270344Y-89183292D02*
X113317964Y-89145196D01*
X113317964Y-89145196D02*
X113365583Y-89030911D01*
X113365583Y-89030911D02*
X113365583Y-88954720D01*
X113365583Y-88954720D02*
X113317964Y-88840434D01*
X113317964Y-88840434D02*
X113222725Y-88764244D01*
X113222725Y-88764244D02*
X113127487Y-88726149D01*
X113127487Y-88726149D02*
X112937011Y-88688053D01*
X112937011Y-88688053D02*
X112794154Y-88688053D01*
X112794154Y-88688053D02*
X112603678Y-88726149D01*
X112603678Y-88726149D02*
X112508440Y-88764244D01*
X112508440Y-88764244D02*
X112413202Y-88840434D01*
X112413202Y-88840434D02*
X112365583Y-88954720D01*
X112365583Y-88954720D02*
X112365583Y-89030911D01*
X112365583Y-89030911D02*
X112413202Y-89145196D01*
X112413202Y-89145196D02*
X112460821Y-89183292D01*
X113365583Y-89945196D02*
X113365583Y-89488053D01*
X113365583Y-89716625D02*
X112365583Y-89716625D01*
X112365583Y-89716625D02*
X112508440Y-89640434D01*
X112508440Y-89640434D02*
X112603678Y-89564244D01*
X112603678Y-89564244D02*
X112651297Y-89488053D01*
X112365583Y-90630911D02*
X112365583Y-90478530D01*
X112365583Y-90478530D02*
X112413202Y-90402339D01*
X112413202Y-90402339D02*
X112460821Y-90364244D01*
X112460821Y-90364244D02*
X112603678Y-90288054D01*
X112603678Y-90288054D02*
X112794154Y-90249958D01*
X112794154Y-90249958D02*
X113175106Y-90249958D01*
X113175106Y-90249958D02*
X113270344Y-90288054D01*
X113270344Y-90288054D02*
X113317964Y-90326149D01*
X113317964Y-90326149D02*
X113365583Y-90402339D01*
X113365583Y-90402339D02*
X113365583Y-90554720D01*
X113365583Y-90554720D02*
X113317964Y-90630911D01*
X113317964Y-90630911D02*
X113270344Y-90669006D01*
X113270344Y-90669006D02*
X113175106Y-90707101D01*
X113175106Y-90707101D02*
X112937011Y-90707101D01*
X112937011Y-90707101D02*
X112841773Y-90669006D01*
X112841773Y-90669006D02*
X112794154Y-90630911D01*
X112794154Y-90630911D02*
X112746535Y-90554720D01*
X112746535Y-90554720D02*
X112746535Y-90402339D01*
X112746535Y-90402339D02*
X112794154Y-90326149D01*
X112794154Y-90326149D02*
X112841773Y-90288054D01*
X112841773Y-90288054D02*
X112937011Y-90249958D01*
X112841773Y-91316625D02*
X112841773Y-91049959D01*
X113365583Y-91049959D02*
X112365583Y-91049959D01*
X112365583Y-91049959D02*
X112365583Y-91430911D01*
X113365583Y-92154720D02*
X113365583Y-91697577D01*
X113365583Y-91926149D02*
X112365583Y-91926149D01*
X112365583Y-91926149D02*
X112508440Y-91849958D01*
X112508440Y-91849958D02*
X112603678Y-91773768D01*
X112603678Y-91773768D02*
X112651297Y-91697577D01*
X112365583Y-92878530D02*
X112365583Y-92497578D01*
X112365583Y-92497578D02*
X112841773Y-92459482D01*
X112841773Y-92459482D02*
X112794154Y-92497578D01*
X112794154Y-92497578D02*
X112746535Y-92573768D01*
X112746535Y-92573768D02*
X112746535Y-92764244D01*
X112746535Y-92764244D02*
X112794154Y-92840435D01*
X112794154Y-92840435D02*
X112841773Y-92878530D01*
X112841773Y-92878530D02*
X112937011Y-92916625D01*
X112937011Y-92916625D02*
X113175106Y-92916625D01*
X113175106Y-92916625D02*
X113270344Y-92878530D01*
X113270344Y-92878530D02*
X113317964Y-92840435D01*
X113317964Y-92840435D02*
X113365583Y-92764244D01*
X113365583Y-92764244D02*
X113365583Y-92573768D01*
X113365583Y-92573768D02*
X113317964Y-92497578D01*
X113317964Y-92497578D02*
X113270344Y-92459482D01*
X112365583Y-93183292D02*
X112365583Y-93678530D01*
X112365583Y-93678530D02*
X112746535Y-93411864D01*
X112746535Y-93411864D02*
X112746535Y-93526149D01*
X112746535Y-93526149D02*
X112794154Y-93602340D01*
X112794154Y-93602340D02*
X112841773Y-93640435D01*
X112841773Y-93640435D02*
X112937011Y-93678530D01*
X112937011Y-93678530D02*
X113175106Y-93678530D01*
X113175106Y-93678530D02*
X113270344Y-93640435D01*
X113270344Y-93640435D02*
X113317964Y-93602340D01*
X113317964Y-93602340D02*
X113365583Y-93526149D01*
X113365583Y-93526149D02*
X113365583Y-93297578D01*
X113365583Y-93297578D02*
X113317964Y-93221387D01*
X113317964Y-93221387D02*
X113270344Y-93183292D01*
X113365583Y-94440435D02*
X113365583Y-93983292D01*
X113365583Y-94211864D02*
X112365583Y-94211864D01*
X112365583Y-94211864D02*
X112508440Y-94135673D01*
X112508440Y-94135673D02*
X112603678Y-94059483D01*
X112603678Y-94059483D02*
X112651297Y-93983292D01*
X112365583Y-94707102D02*
X112365583Y-95202340D01*
X112365583Y-95202340D02*
X112746535Y-94935674D01*
X112746535Y-94935674D02*
X112746535Y-95049959D01*
X112746535Y-95049959D02*
X112794154Y-95126150D01*
X112794154Y-95126150D02*
X112841773Y-95164245D01*
X112841773Y-95164245D02*
X112937011Y-95202340D01*
X112937011Y-95202340D02*
X113175106Y-95202340D01*
X113175106Y-95202340D02*
X113270344Y-95164245D01*
X113270344Y-95164245D02*
X113317964Y-95126150D01*
X113317964Y-95126150D02*
X113365583Y-95049959D01*
X113365583Y-95049959D02*
X113365583Y-94821388D01*
X113365583Y-94821388D02*
X113317964Y-94745197D01*
X113317964Y-94745197D02*
X113270344Y-94707102D01*
D10*
X94196115Y-102991466D02*
X93434211Y-102991466D01*
X93815163Y-103372419D02*
X93815163Y-102610514D01*
X102309521Y-110173728D02*
X102285712Y-110149919D01*
X102285712Y-110149919D02*
X102238093Y-110126109D01*
X102238093Y-110126109D02*
X102119045Y-110126109D01*
X102119045Y-110126109D02*
X102071426Y-110149919D01*
X102071426Y-110149919D02*
X102047617Y-110173728D01*
X102047617Y-110173728D02*
X102023807Y-110221347D01*
X102023807Y-110221347D02*
X102023807Y-110268966D01*
X102023807Y-110268966D02*
X102047617Y-110340395D01*
X102047617Y-110340395D02*
X102333331Y-110626109D01*
X102333331Y-110626109D02*
X102023807Y-110626109D01*
X101857141Y-110126109D02*
X101547617Y-110126109D01*
X101547617Y-110126109D02*
X101714284Y-110316585D01*
X101714284Y-110316585D02*
X101642855Y-110316585D01*
X101642855Y-110316585D02*
X101595236Y-110340395D01*
X101595236Y-110340395D02*
X101571427Y-110364204D01*
X101571427Y-110364204D02*
X101547617Y-110411823D01*
X101547617Y-110411823D02*
X101547617Y-110530871D01*
X101547617Y-110530871D02*
X101571427Y-110578490D01*
X101571427Y-110578490D02*
X101595236Y-110602300D01*
X101595236Y-110602300D02*
X101642855Y-110626109D01*
X101642855Y-110626109D02*
X101785712Y-110626109D01*
X101785712Y-110626109D02*
X101833331Y-110602300D01*
X101833331Y-110602300D02*
X101857141Y-110578490D01*
X101333332Y-110578490D02*
X101309522Y-110602300D01*
X101309522Y-110602300D02*
X101333332Y-110626109D01*
X101333332Y-110626109D02*
X101357141Y-110602300D01*
X101357141Y-110602300D02*
X101333332Y-110578490D01*
X101333332Y-110578490D02*
X101333332Y-110626109D01*
X100999999Y-110126109D02*
X100952380Y-110126109D01*
X100952380Y-110126109D02*
X100904761Y-110149919D01*
X100904761Y-110149919D02*
X100880951Y-110173728D01*
X100880951Y-110173728D02*
X100857142Y-110221347D01*
X100857142Y-110221347D02*
X100833332Y-110316585D01*
X100833332Y-110316585D02*
X100833332Y-110435633D01*
X100833332Y-110435633D02*
X100857142Y-110530871D01*
X100857142Y-110530871D02*
X100880951Y-110578490D01*
X100880951Y-110578490D02*
X100904761Y-110602300D01*
X100904761Y-110602300D02*
X100952380Y-110626109D01*
X100952380Y-110626109D02*
X100999999Y-110626109D01*
X100999999Y-110626109D02*
X101047618Y-110602300D01*
X101047618Y-110602300D02*
X101071427Y-110578490D01*
X101071427Y-110578490D02*
X101095237Y-110530871D01*
X101095237Y-110530871D02*
X101119046Y-110435633D01*
X101119046Y-110435633D02*
X101119046Y-110316585D01*
X101119046Y-110316585D02*
X101095237Y-110221347D01*
X101095237Y-110221347D02*
X101071427Y-110173728D01*
X101071427Y-110173728D02*
X101047618Y-110149919D01*
X101047618Y-110149919D02*
X100999999Y-110126109D01*
X100523809Y-110126109D02*
X100476190Y-110126109D01*
X100476190Y-110126109D02*
X100428571Y-110149919D01*
X100428571Y-110149919D02*
X100404761Y-110173728D01*
X100404761Y-110173728D02*
X100380952Y-110221347D01*
X100380952Y-110221347D02*
X100357142Y-110316585D01*
X100357142Y-110316585D02*
X100357142Y-110435633D01*
X100357142Y-110435633D02*
X100380952Y-110530871D01*
X100380952Y-110530871D02*
X100404761Y-110578490D01*
X100404761Y-110578490D02*
X100428571Y-110602300D01*
X100428571Y-110602300D02*
X100476190Y-110626109D01*
X100476190Y-110626109D02*
X100523809Y-110626109D01*
X100523809Y-110626109D02*
X100571428Y-110602300D01*
X100571428Y-110602300D02*
X100595237Y-110578490D01*
X100595237Y-110578490D02*
X100619047Y-110530871D01*
X100619047Y-110530871D02*
X100642856Y-110435633D01*
X100642856Y-110435633D02*
X100642856Y-110316585D01*
X100642856Y-110316585D02*
X100619047Y-110221347D01*
X100619047Y-110221347D02*
X100595237Y-110173728D01*
X100595237Y-110173728D02*
X100571428Y-110149919D01*
X100571428Y-110149919D02*
X100523809Y-110126109D01*
X100047619Y-110126109D02*
X100000000Y-110126109D01*
X100000000Y-110126109D02*
X99952381Y-110149919D01*
X99952381Y-110149919D02*
X99928571Y-110173728D01*
X99928571Y-110173728D02*
X99904762Y-110221347D01*
X99904762Y-110221347D02*
X99880952Y-110316585D01*
X99880952Y-110316585D02*
X99880952Y-110435633D01*
X99880952Y-110435633D02*
X99904762Y-110530871D01*
X99904762Y-110530871D02*
X99928571Y-110578490D01*
X99928571Y-110578490D02*
X99952381Y-110602300D01*
X99952381Y-110602300D02*
X100000000Y-110626109D01*
X100000000Y-110626109D02*
X100047619Y-110626109D01*
X100047619Y-110626109D02*
X100095238Y-110602300D01*
X100095238Y-110602300D02*
X100119047Y-110578490D01*
X100119047Y-110578490D02*
X100142857Y-110530871D01*
X100142857Y-110530871D02*
X100166666Y-110435633D01*
X100166666Y-110435633D02*
X100166666Y-110316585D01*
X100166666Y-110316585D02*
X100142857Y-110221347D01*
X100142857Y-110221347D02*
X100119047Y-110173728D01*
X100119047Y-110173728D02*
X100095238Y-110149919D01*
X100095238Y-110149919D02*
X100047619Y-110126109D01*
X99571429Y-110126109D02*
X99523810Y-110126109D01*
X99523810Y-110126109D02*
X99476191Y-110149919D01*
X99476191Y-110149919D02*
X99452381Y-110173728D01*
X99452381Y-110173728D02*
X99428572Y-110221347D01*
X99428572Y-110221347D02*
X99404762Y-110316585D01*
X99404762Y-110316585D02*
X99404762Y-110435633D01*
X99404762Y-110435633D02*
X99428572Y-110530871D01*
X99428572Y-110530871D02*
X99452381Y-110578490D01*
X99452381Y-110578490D02*
X99476191Y-110602300D01*
X99476191Y-110602300D02*
X99523810Y-110626109D01*
X99523810Y-110626109D02*
X99571429Y-110626109D01*
X99571429Y-110626109D02*
X99619048Y-110602300D01*
X99619048Y-110602300D02*
X99642857Y-110578490D01*
X99642857Y-110578490D02*
X99666667Y-110530871D01*
X99666667Y-110530871D02*
X99690476Y-110435633D01*
X99690476Y-110435633D02*
X99690476Y-110316585D01*
X99690476Y-110316585D02*
X99666667Y-110221347D01*
X99666667Y-110221347D02*
X99642857Y-110173728D01*
X99642857Y-110173728D02*
X99619048Y-110149919D01*
X99619048Y-110149919D02*
X99571429Y-110126109D01*
X98809525Y-110626109D02*
X98809525Y-110292776D01*
X98809525Y-110340395D02*
X98785715Y-110316585D01*
X98785715Y-110316585D02*
X98738096Y-110292776D01*
X98738096Y-110292776D02*
X98666668Y-110292776D01*
X98666668Y-110292776D02*
X98619049Y-110316585D01*
X98619049Y-110316585D02*
X98595239Y-110364204D01*
X98595239Y-110364204D02*
X98595239Y-110626109D01*
X98595239Y-110364204D02*
X98571430Y-110316585D01*
X98571430Y-110316585D02*
X98523811Y-110292776D01*
X98523811Y-110292776D02*
X98452382Y-110292776D01*
X98452382Y-110292776D02*
X98404763Y-110316585D01*
X98404763Y-110316585D02*
X98380953Y-110364204D01*
X98380953Y-110364204D02*
X98380953Y-110626109D01*
X98142858Y-110626109D02*
X98142858Y-110292776D01*
X98142858Y-110340395D02*
X98119048Y-110316585D01*
X98119048Y-110316585D02*
X98071429Y-110292776D01*
X98071429Y-110292776D02*
X98000001Y-110292776D01*
X98000001Y-110292776D02*
X97952382Y-110316585D01*
X97952382Y-110316585D02*
X97928572Y-110364204D01*
X97928572Y-110364204D02*
X97928572Y-110626109D01*
X97928572Y-110364204D02*
X97904763Y-110316585D01*
X97904763Y-110316585D02*
X97857144Y-110292776D01*
X97857144Y-110292776D02*
X97785715Y-110292776D01*
X97785715Y-110292776D02*
X97738096Y-110316585D01*
X97738096Y-110316585D02*
X97714286Y-110364204D01*
X97714286Y-110364204D02*
X97714286Y-110626109D01*
X88500000Y-109500000D02*
X88500000Y-111586420D01*
X111500000Y-109500000D02*
X111500000Y-111586420D01*
X88500000Y-111000000D02*
X111500000Y-111000000D01*
X88500000Y-111000000D02*
X111500000Y-111000000D01*
X88500000Y-111000000D02*
X89626504Y-110413579D01*
X88500000Y-111000000D02*
X89626504Y-111586421D01*
X111500000Y-111000000D02*
X110373496Y-111586421D01*
X111500000Y-111000000D02*
X110373496Y-110413579D01*
X102309521Y-108923728D02*
X102285712Y-108899919D01*
X102285712Y-108899919D02*
X102238093Y-108876109D01*
X102238093Y-108876109D02*
X102119045Y-108876109D01*
X102119045Y-108876109D02*
X102071426Y-108899919D01*
X102071426Y-108899919D02*
X102047617Y-108923728D01*
X102047617Y-108923728D02*
X102023807Y-108971347D01*
X102023807Y-108971347D02*
X102023807Y-109018966D01*
X102023807Y-109018966D02*
X102047617Y-109090395D01*
X102047617Y-109090395D02*
X102333331Y-109376109D01*
X102333331Y-109376109D02*
X102023807Y-109376109D01*
X101714284Y-108876109D02*
X101666665Y-108876109D01*
X101666665Y-108876109D02*
X101619046Y-108899919D01*
X101619046Y-108899919D02*
X101595236Y-108923728D01*
X101595236Y-108923728D02*
X101571427Y-108971347D01*
X101571427Y-108971347D02*
X101547617Y-109066585D01*
X101547617Y-109066585D02*
X101547617Y-109185633D01*
X101547617Y-109185633D02*
X101571427Y-109280871D01*
X101571427Y-109280871D02*
X101595236Y-109328490D01*
X101595236Y-109328490D02*
X101619046Y-109352300D01*
X101619046Y-109352300D02*
X101666665Y-109376109D01*
X101666665Y-109376109D02*
X101714284Y-109376109D01*
X101714284Y-109376109D02*
X101761903Y-109352300D01*
X101761903Y-109352300D02*
X101785712Y-109328490D01*
X101785712Y-109328490D02*
X101809522Y-109280871D01*
X101809522Y-109280871D02*
X101833331Y-109185633D01*
X101833331Y-109185633D02*
X101833331Y-109066585D01*
X101833331Y-109066585D02*
X101809522Y-108971347D01*
X101809522Y-108971347D02*
X101785712Y-108923728D01*
X101785712Y-108923728D02*
X101761903Y-108899919D01*
X101761903Y-108899919D02*
X101714284Y-108876109D01*
X101333332Y-109328490D02*
X101309522Y-109352300D01*
X101309522Y-109352300D02*
X101333332Y-109376109D01*
X101333332Y-109376109D02*
X101357141Y-109352300D01*
X101357141Y-109352300D02*
X101333332Y-109328490D01*
X101333332Y-109328490D02*
X101333332Y-109376109D01*
X100999999Y-108876109D02*
X100952380Y-108876109D01*
X100952380Y-108876109D02*
X100904761Y-108899919D01*
X100904761Y-108899919D02*
X100880951Y-108923728D01*
X100880951Y-108923728D02*
X100857142Y-108971347D01*
X100857142Y-108971347D02*
X100833332Y-109066585D01*
X100833332Y-109066585D02*
X100833332Y-109185633D01*
X100833332Y-109185633D02*
X100857142Y-109280871D01*
X100857142Y-109280871D02*
X100880951Y-109328490D01*
X100880951Y-109328490D02*
X100904761Y-109352300D01*
X100904761Y-109352300D02*
X100952380Y-109376109D01*
X100952380Y-109376109D02*
X100999999Y-109376109D01*
X100999999Y-109376109D02*
X101047618Y-109352300D01*
X101047618Y-109352300D02*
X101071427Y-109328490D01*
X101071427Y-109328490D02*
X101095237Y-109280871D01*
X101095237Y-109280871D02*
X101119046Y-109185633D01*
X101119046Y-109185633D02*
X101119046Y-109066585D01*
X101119046Y-109066585D02*
X101095237Y-108971347D01*
X101095237Y-108971347D02*
X101071427Y-108923728D01*
X101071427Y-108923728D02*
X101047618Y-108899919D01*
X101047618Y-108899919D02*
X100999999Y-108876109D01*
X100523809Y-108876109D02*
X100476190Y-108876109D01*
X100476190Y-108876109D02*
X100428571Y-108899919D01*
X100428571Y-108899919D02*
X100404761Y-108923728D01*
X100404761Y-108923728D02*
X100380952Y-108971347D01*
X100380952Y-108971347D02*
X100357142Y-109066585D01*
X100357142Y-109066585D02*
X100357142Y-109185633D01*
X100357142Y-109185633D02*
X100380952Y-109280871D01*
X100380952Y-109280871D02*
X100404761Y-109328490D01*
X100404761Y-109328490D02*
X100428571Y-109352300D01*
X100428571Y-109352300D02*
X100476190Y-109376109D01*
X100476190Y-109376109D02*
X100523809Y-109376109D01*
X100523809Y-109376109D02*
X100571428Y-109352300D01*
X100571428Y-109352300D02*
X100595237Y-109328490D01*
X100595237Y-109328490D02*
X100619047Y-109280871D01*
X100619047Y-109280871D02*
X100642856Y-109185633D01*
X100642856Y-109185633D02*
X100642856Y-109066585D01*
X100642856Y-109066585D02*
X100619047Y-108971347D01*
X100619047Y-108971347D02*
X100595237Y-108923728D01*
X100595237Y-108923728D02*
X100571428Y-108899919D01*
X100571428Y-108899919D02*
X100523809Y-108876109D01*
X100047619Y-108876109D02*
X100000000Y-108876109D01*
X100000000Y-108876109D02*
X99952381Y-108899919D01*
X99952381Y-108899919D02*
X99928571Y-108923728D01*
X99928571Y-108923728D02*
X99904762Y-108971347D01*
X99904762Y-108971347D02*
X99880952Y-109066585D01*
X99880952Y-109066585D02*
X99880952Y-109185633D01*
X99880952Y-109185633D02*
X99904762Y-109280871D01*
X99904762Y-109280871D02*
X99928571Y-109328490D01*
X99928571Y-109328490D02*
X99952381Y-109352300D01*
X99952381Y-109352300D02*
X100000000Y-109376109D01*
X100000000Y-109376109D02*
X100047619Y-109376109D01*
X100047619Y-109376109D02*
X100095238Y-109352300D01*
X100095238Y-109352300D02*
X100119047Y-109328490D01*
X100119047Y-109328490D02*
X100142857Y-109280871D01*
X100142857Y-109280871D02*
X100166666Y-109185633D01*
X100166666Y-109185633D02*
X100166666Y-109066585D01*
X100166666Y-109066585D02*
X100142857Y-108971347D01*
X100142857Y-108971347D02*
X100119047Y-108923728D01*
X100119047Y-108923728D02*
X100095238Y-108899919D01*
X100095238Y-108899919D02*
X100047619Y-108876109D01*
X99571429Y-108876109D02*
X99523810Y-108876109D01*
X99523810Y-108876109D02*
X99476191Y-108899919D01*
X99476191Y-108899919D02*
X99452381Y-108923728D01*
X99452381Y-108923728D02*
X99428572Y-108971347D01*
X99428572Y-108971347D02*
X99404762Y-109066585D01*
X99404762Y-109066585D02*
X99404762Y-109185633D01*
X99404762Y-109185633D02*
X99428572Y-109280871D01*
X99428572Y-109280871D02*
X99452381Y-109328490D01*
X99452381Y-109328490D02*
X99476191Y-109352300D01*
X99476191Y-109352300D02*
X99523810Y-109376109D01*
X99523810Y-109376109D02*
X99571429Y-109376109D01*
X99571429Y-109376109D02*
X99619048Y-109352300D01*
X99619048Y-109352300D02*
X99642857Y-109328490D01*
X99642857Y-109328490D02*
X99666667Y-109280871D01*
X99666667Y-109280871D02*
X99690476Y-109185633D01*
X99690476Y-109185633D02*
X99690476Y-109066585D01*
X99690476Y-109066585D02*
X99666667Y-108971347D01*
X99666667Y-108971347D02*
X99642857Y-108923728D01*
X99642857Y-108923728D02*
X99619048Y-108899919D01*
X99619048Y-108899919D02*
X99571429Y-108876109D01*
X98809525Y-109376109D02*
X98809525Y-109042776D01*
X98809525Y-109090395D02*
X98785715Y-109066585D01*
X98785715Y-109066585D02*
X98738096Y-109042776D01*
X98738096Y-109042776D02*
X98666668Y-109042776D01*
X98666668Y-109042776D02*
X98619049Y-109066585D01*
X98619049Y-109066585D02*
X98595239Y-109114204D01*
X98595239Y-109114204D02*
X98595239Y-109376109D01*
X98595239Y-109114204D02*
X98571430Y-109066585D01*
X98571430Y-109066585D02*
X98523811Y-109042776D01*
X98523811Y-109042776D02*
X98452382Y-109042776D01*
X98452382Y-109042776D02*
X98404763Y-109066585D01*
X98404763Y-109066585D02*
X98380953Y-109114204D01*
X98380953Y-109114204D02*
X98380953Y-109376109D01*
X98142858Y-109376109D02*
X98142858Y-109042776D01*
X98142858Y-109090395D02*
X98119048Y-109066585D01*
X98119048Y-109066585D02*
X98071429Y-109042776D01*
X98071429Y-109042776D02*
X98000001Y-109042776D01*
X98000001Y-109042776D02*
X97952382Y-109066585D01*
X97952382Y-109066585D02*
X97928572Y-109114204D01*
X97928572Y-109114204D02*
X97928572Y-109376109D01*
X97928572Y-109114204D02*
X97904763Y-109066585D01*
X97904763Y-109066585D02*
X97857144Y-109042776D01*
X97857144Y-109042776D02*
X97785715Y-109042776D01*
X97785715Y-109042776D02*
X97738096Y-109066585D01*
X97738096Y-109066585D02*
X97714286Y-109114204D01*
X97714286Y-109114204D02*
X97714286Y-109376109D01*
X90000000Y-105500000D02*
X90000000Y-110336420D01*
X110000000Y-105500000D02*
X110000000Y-110336420D01*
X90000000Y-109750000D02*
X110000000Y-109750000D01*
X90000000Y-109750000D02*
X110000000Y-109750000D01*
X90000000Y-109750000D02*
X91126504Y-109163579D01*
X90000000Y-109750000D02*
X91126504Y-110336421D01*
X110000000Y-109750000D02*
X108873496Y-110336421D01*
X110000000Y-109750000D02*
X108873496Y-109163579D01*
X101577419Y-83485714D02*
X100577419Y-83485714D01*
X100577419Y-83485714D02*
X101291704Y-83819047D01*
X101291704Y-83819047D02*
X100577419Y-84152380D01*
X100577419Y-84152380D02*
X101577419Y-84152380D01*
X101577419Y-84771428D02*
X101529800Y-84676190D01*
X101529800Y-84676190D02*
X101482180Y-84628571D01*
X101482180Y-84628571D02*
X101386942Y-84580952D01*
X101386942Y-84580952D02*
X101101228Y-84580952D01*
X101101228Y-84580952D02*
X101005990Y-84628571D01*
X101005990Y-84628571D02*
X100958371Y-84676190D01*
X100958371Y-84676190D02*
X100910752Y-84771428D01*
X100910752Y-84771428D02*
X100910752Y-84914285D01*
X100910752Y-84914285D02*
X100958371Y-85009523D01*
X100958371Y-85009523D02*
X101005990Y-85057142D01*
X101005990Y-85057142D02*
X101101228Y-85104761D01*
X101101228Y-85104761D02*
X101386942Y-85104761D01*
X101386942Y-85104761D02*
X101482180Y-85057142D01*
X101482180Y-85057142D02*
X101529800Y-85009523D01*
X101529800Y-85009523D02*
X101577419Y-84914285D01*
X101577419Y-84914285D02*
X101577419Y-84771428D01*
X101577419Y-85961904D02*
X100577419Y-85961904D01*
X101529800Y-85961904D02*
X101577419Y-85866666D01*
X101577419Y-85866666D02*
X101577419Y-85676190D01*
X101577419Y-85676190D02*
X101529800Y-85580952D01*
X101529800Y-85580952D02*
X101482180Y-85533333D01*
X101482180Y-85533333D02*
X101386942Y-85485714D01*
X101386942Y-85485714D02*
X101101228Y-85485714D01*
X101101228Y-85485714D02*
X101005990Y-85533333D01*
X101005990Y-85533333D02*
X100958371Y-85580952D01*
X100958371Y-85580952D02*
X100910752Y-85676190D01*
X100910752Y-85676190D02*
X100910752Y-85866666D01*
X100910752Y-85866666D02*
X100958371Y-85961904D01*
X101577419Y-86961904D02*
X101577419Y-86390476D01*
X101577419Y-86676190D02*
X100577419Y-86676190D01*
X100577419Y-86676190D02*
X100720276Y-86580952D01*
X100720276Y-86580952D02*
X100815514Y-86485714D01*
X100815514Y-86485714D02*
X100863133Y-86390476D01*
X103348609Y-91637217D02*
X103396228Y-91780074D01*
X103396228Y-91780074D02*
X103443847Y-91827693D01*
X103443847Y-91827693D02*
X103539085Y-91875312D01*
X103539085Y-91875312D02*
X103681942Y-91875312D01*
X103681942Y-91875312D02*
X103777180Y-91827693D01*
X103777180Y-91827693D02*
X103824800Y-91780074D01*
X103824800Y-91780074D02*
X103872419Y-91684836D01*
X103872419Y-91684836D02*
X103872419Y-91303884D01*
X103872419Y-91303884D02*
X102872419Y-91303884D01*
X102872419Y-91303884D02*
X102872419Y-91637217D01*
X102872419Y-91637217D02*
X102920038Y-91732455D01*
X102920038Y-91732455D02*
X102967657Y-91780074D01*
X102967657Y-91780074D02*
X103062895Y-91827693D01*
X103062895Y-91827693D02*
X103158133Y-91827693D01*
X103158133Y-91827693D02*
X103253371Y-91780074D01*
X103253371Y-91780074D02*
X103300990Y-91732455D01*
X103300990Y-91732455D02*
X103348609Y-91637217D01*
X103348609Y-91637217D02*
X103348609Y-91303884D01*
X103491466Y-92303884D02*
X103491466Y-93065789D01*
X105923681Y-88450333D02*
X106923681Y-88783666D01*
X106923681Y-88783666D02*
X105923681Y-89116999D01*
X105923681Y-89640809D02*
X105923681Y-89831285D01*
X105923681Y-89831285D02*
X105971300Y-89926523D01*
X105971300Y-89926523D02*
X106066538Y-90021761D01*
X106066538Y-90021761D02*
X106257014Y-90069380D01*
X106257014Y-90069380D02*
X106590347Y-90069380D01*
X106590347Y-90069380D02*
X106780823Y-90021761D01*
X106780823Y-90021761D02*
X106876062Y-89926523D01*
X106876062Y-89926523D02*
X106923681Y-89831285D01*
X106923681Y-89831285D02*
X106923681Y-89640809D01*
X106923681Y-89640809D02*
X106876062Y-89545571D01*
X106876062Y-89545571D02*
X106780823Y-89450333D01*
X106780823Y-89450333D02*
X106590347Y-89402714D01*
X106590347Y-89402714D02*
X106257014Y-89402714D01*
X106257014Y-89402714D02*
X106066538Y-89450333D01*
X106066538Y-89450333D02*
X105971300Y-89545571D01*
X105971300Y-89545571D02*
X105923681Y-89640809D01*
X105923681Y-90497952D02*
X106733204Y-90497952D01*
X106733204Y-90497952D02*
X106828442Y-90545571D01*
X106828442Y-90545571D02*
X106876062Y-90593190D01*
X106876062Y-90593190D02*
X106923681Y-90688428D01*
X106923681Y-90688428D02*
X106923681Y-90878904D01*
X106923681Y-90878904D02*
X106876062Y-90974142D01*
X106876062Y-90974142D02*
X106828442Y-91021761D01*
X106828442Y-91021761D02*
X106733204Y-91069380D01*
X106733204Y-91069380D02*
X105923681Y-91069380D01*
X105923681Y-91402714D02*
X105923681Y-91974142D01*
X106923681Y-91688428D02*
X105923681Y-91688428D01*
X106542728Y-92307476D02*
X106542728Y-93069381D01*
X96348609Y-91637217D02*
X96396228Y-91780074D01*
X96396228Y-91780074D02*
X96443847Y-91827693D01*
X96443847Y-91827693D02*
X96539085Y-91875312D01*
X96539085Y-91875312D02*
X96681942Y-91875312D01*
X96681942Y-91875312D02*
X96777180Y-91827693D01*
X96777180Y-91827693D02*
X96824800Y-91780074D01*
X96824800Y-91780074D02*
X96872419Y-91684836D01*
X96872419Y-91684836D02*
X96872419Y-91303884D01*
X96872419Y-91303884D02*
X95872419Y-91303884D01*
X95872419Y-91303884D02*
X95872419Y-91637217D01*
X95872419Y-91637217D02*
X95920038Y-91732455D01*
X95920038Y-91732455D02*
X95967657Y-91780074D01*
X95967657Y-91780074D02*
X96062895Y-91827693D01*
X96062895Y-91827693D02*
X96158133Y-91827693D01*
X96158133Y-91827693D02*
X96253371Y-91780074D01*
X96253371Y-91780074D02*
X96300990Y-91732455D01*
X96300990Y-91732455D02*
X96348609Y-91637217D01*
X96348609Y-91637217D02*
X96348609Y-91303884D01*
X96491466Y-92303884D02*
X96491466Y-93065789D01*
X96872419Y-92684836D02*
X96110514Y-92684836D01*
X105872419Y-74661027D02*
X106872419Y-74994360D01*
X106872419Y-74994360D02*
X105872419Y-75327693D01*
X106872419Y-75661027D02*
X105872419Y-75661027D01*
X106872419Y-76137217D02*
X105872419Y-76137217D01*
X105872419Y-76137217D02*
X106872419Y-76708645D01*
X106872419Y-76708645D02*
X105872419Y-76708645D01*
X106491466Y-77184836D02*
X106491466Y-77946741D01*
X102124687Y-77277180D02*
X102172306Y-77324800D01*
X102172306Y-77324800D02*
X102315163Y-77372419D01*
X102315163Y-77372419D02*
X102410401Y-77372419D01*
X102410401Y-77372419D02*
X102553258Y-77324800D01*
X102553258Y-77324800D02*
X102648496Y-77229561D01*
X102648496Y-77229561D02*
X102696115Y-77134323D01*
X102696115Y-77134323D02*
X102743734Y-76943847D01*
X102743734Y-76943847D02*
X102743734Y-76800990D01*
X102743734Y-76800990D02*
X102696115Y-76610514D01*
X102696115Y-76610514D02*
X102648496Y-76515276D01*
X102648496Y-76515276D02*
X102553258Y-76420038D01*
X102553258Y-76420038D02*
X102410401Y-76372419D01*
X102410401Y-76372419D02*
X102315163Y-76372419D01*
X102315163Y-76372419D02*
X102172306Y-76420038D01*
X102172306Y-76420038D02*
X102124687Y-76467657D01*
X101696115Y-77372419D02*
X101696115Y-76372419D01*
X101696115Y-76848609D02*
X101124687Y-76848609D01*
X101124687Y-77372419D02*
X101124687Y-76372419D01*
X100696115Y-77086704D02*
X100219925Y-77086704D01*
X100791353Y-77372419D02*
X100458020Y-76372419D01*
X100458020Y-76372419D02*
X100124687Y-77372419D01*
X99219925Y-77372419D02*
X99553258Y-76896228D01*
X99791353Y-77372419D02*
X99791353Y-76372419D01*
X99791353Y-76372419D02*
X99410401Y-76372419D01*
X99410401Y-76372419D02*
X99315163Y-76420038D01*
X99315163Y-76420038D02*
X99267544Y-76467657D01*
X99267544Y-76467657D02*
X99219925Y-76562895D01*
X99219925Y-76562895D02*
X99219925Y-76705752D01*
X99219925Y-76705752D02*
X99267544Y-76800990D01*
X99267544Y-76800990D02*
X99315163Y-76848609D01*
X99315163Y-76848609D02*
X99410401Y-76896228D01*
X99410401Y-76896228D02*
X99791353Y-76896228D01*
X98267544Y-76420038D02*
X98362782Y-76372419D01*
X98362782Y-76372419D02*
X98505639Y-76372419D01*
X98505639Y-76372419D02*
X98648496Y-76420038D01*
X98648496Y-76420038D02*
X98743734Y-76515276D01*
X98743734Y-76515276D02*
X98791353Y-76610514D01*
X98791353Y-76610514D02*
X98838972Y-76800990D01*
X98838972Y-76800990D02*
X98838972Y-76943847D01*
X98838972Y-76943847D02*
X98791353Y-77134323D01*
X98791353Y-77134323D02*
X98743734Y-77229561D01*
X98743734Y-77229561D02*
X98648496Y-77324800D01*
X98648496Y-77324800D02*
X98505639Y-77372419D01*
X98505639Y-77372419D02*
X98410401Y-77372419D01*
X98410401Y-77372419D02*
X98267544Y-77324800D01*
X98267544Y-77324800D02*
X98219925Y-77277180D01*
X98219925Y-77277180D02*
X98219925Y-76943847D01*
X98219925Y-76943847D02*
X98410401Y-76943847D01*
X97791353Y-76848609D02*
X97458020Y-76848609D01*
X97315163Y-77372419D02*
X97791353Y-77372419D01*
X97791353Y-77372419D02*
X97791353Y-76372419D01*
X97791353Y-76372419D02*
X97315163Y-76372419D01*
X96719925Y-84872419D02*
X97196115Y-84872419D01*
X97196115Y-84872419D02*
X97196115Y-83872419D01*
X96386591Y-84348609D02*
X96053258Y-84348609D01*
X95910401Y-84872419D02*
X96386591Y-84872419D01*
X96386591Y-84872419D02*
X96386591Y-83872419D01*
X96386591Y-83872419D02*
X95910401Y-83872419D01*
X95481829Y-84872419D02*
X95481829Y-83872419D01*
X95481829Y-83872419D02*
X95243734Y-83872419D01*
X95243734Y-83872419D02*
X95100877Y-83920038D01*
X95100877Y-83920038D02*
X95005639Y-84015276D01*
X95005639Y-84015276D02*
X94958020Y-84110514D01*
X94958020Y-84110514D02*
X94910401Y-84300990D01*
X94910401Y-84300990D02*
X94910401Y-84443847D01*
X94910401Y-84443847D02*
X94958020Y-84634323D01*
X94958020Y-84634323D02*
X95005639Y-84729561D01*
X95005639Y-84729561D02*
X95100877Y-84824800D01*
X95100877Y-84824800D02*
X95243734Y-84872419D01*
X95243734Y-84872419D02*
X95481829Y-84872419D01*
X94529448Y-84824800D02*
X94386591Y-84872419D01*
X94386591Y-84872419D02*
X94148496Y-84872419D01*
X94148496Y-84872419D02*
X94053258Y-84824800D01*
X94053258Y-84824800D02*
X94005639Y-84777180D01*
X94005639Y-84777180D02*
X93958020Y-84681942D01*
X93958020Y-84681942D02*
X93958020Y-84586704D01*
X93958020Y-84586704D02*
X94005639Y-84491466D01*
X94005639Y-84491466D02*
X94053258Y-84443847D01*
X94053258Y-84443847D02*
X94148496Y-84396228D01*
X94148496Y-84396228D02*
X94338972Y-84348609D01*
X94338972Y-84348609D02*
X94434210Y-84300990D01*
X94434210Y-84300990D02*
X94481829Y-84253371D01*
X94481829Y-84253371D02*
X94529448Y-84158133D01*
X94529448Y-84158133D02*
X94529448Y-84062895D01*
X94529448Y-84062895D02*
X94481829Y-83967657D01*
X94481829Y-83967657D02*
X94434210Y-83920038D01*
X94434210Y-83920038D02*
X94338972Y-83872419D01*
X94338972Y-83872419D02*
X94100877Y-83872419D01*
X94100877Y-83872419D02*
X93958020Y-83920038D01*
X93372419Y-74661027D02*
X94372419Y-74994360D01*
X94372419Y-74994360D02*
X93372419Y-75327693D01*
X94372419Y-75661027D02*
X93372419Y-75661027D01*
X94372419Y-76137217D02*
X93372419Y-76137217D01*
X93372419Y-76137217D02*
X94372419Y-76708645D01*
X94372419Y-76708645D02*
X93372419Y-76708645D01*
X93991466Y-77184836D02*
X93991466Y-77946741D01*
X94372419Y-77565788D02*
X93610514Y-77565788D01*
X92872419Y-88161027D02*
X93872419Y-88494360D01*
X93872419Y-88494360D02*
X92872419Y-88827693D01*
X92872419Y-89351503D02*
X92872419Y-89541979D01*
X92872419Y-89541979D02*
X92920038Y-89637217D01*
X92920038Y-89637217D02*
X93015276Y-89732455D01*
X93015276Y-89732455D02*
X93205752Y-89780074D01*
X93205752Y-89780074D02*
X93539085Y-89780074D01*
X93539085Y-89780074D02*
X93729561Y-89732455D01*
X93729561Y-89732455D02*
X93824800Y-89637217D01*
X93824800Y-89637217D02*
X93872419Y-89541979D01*
X93872419Y-89541979D02*
X93872419Y-89351503D01*
X93872419Y-89351503D02*
X93824800Y-89256265D01*
X93824800Y-89256265D02*
X93729561Y-89161027D01*
X93729561Y-89161027D02*
X93539085Y-89113408D01*
X93539085Y-89113408D02*
X93205752Y-89113408D01*
X93205752Y-89113408D02*
X93015276Y-89161027D01*
X93015276Y-89161027D02*
X92920038Y-89256265D01*
X92920038Y-89256265D02*
X92872419Y-89351503D01*
X92872419Y-90208646D02*
X93681942Y-90208646D01*
X93681942Y-90208646D02*
X93777180Y-90256265D01*
X93777180Y-90256265D02*
X93824800Y-90303884D01*
X93824800Y-90303884D02*
X93872419Y-90399122D01*
X93872419Y-90399122D02*
X93872419Y-90589598D01*
X93872419Y-90589598D02*
X93824800Y-90684836D01*
X93824800Y-90684836D02*
X93777180Y-90732455D01*
X93777180Y-90732455D02*
X93681942Y-90780074D01*
X93681942Y-90780074D02*
X92872419Y-90780074D01*
X92872419Y-91113408D02*
X92872419Y-91684836D01*
X93872419Y-91399122D02*
X92872419Y-91399122D01*
X93491466Y-92018170D02*
X93491466Y-92780075D01*
X93872419Y-92399122D02*
X93110514Y-92399122D01*
D13*
%TO.C,G1*%
G36*
X103113682Y-97916326D02*
G01*
X103182066Y-97958547D01*
X103191034Y-97968986D01*
X103218840Y-98037428D01*
X103227354Y-98136204D01*
X103217812Y-98258400D01*
X103191451Y-98397100D01*
X103149508Y-98545389D01*
X103093221Y-98696353D01*
X103023827Y-98843076D01*
X103000339Y-98881878D01*
X102934371Y-98969987D01*
X102846503Y-99071579D01*
X102745176Y-99177969D01*
X102638832Y-99280465D01*
X102535910Y-99370380D01*
X102444853Y-99439028D01*
X102405806Y-99464090D01*
X102199819Y-99567030D01*
X101974112Y-99636704D01*
X101739903Y-99669447D01*
X101611731Y-99679463D01*
X101466118Y-99702278D01*
X101347050Y-99738477D01*
X101244815Y-99791254D01*
X101149711Y-99863808D01*
X101117332Y-99893783D01*
X101026316Y-100001338D01*
X100963791Y-100121168D01*
X100929505Y-100257028D01*
X100923198Y-100412673D01*
X100944615Y-100591858D01*
X100993498Y-100798337D01*
X101069592Y-101035866D01*
X101072812Y-101044952D01*
X101114321Y-101151470D01*
X101160562Y-101246037D01*
X101219679Y-101343630D01*
X101299816Y-101459222D01*
X101303369Y-101464145D01*
X101365877Y-101547913D01*
X101420650Y-101616332D01*
X101461892Y-101662469D01*
X101483810Y-101679388D01*
X101488068Y-101676137D01*
X101493578Y-101641799D01*
X101491532Y-101577958D01*
X101482026Y-101494550D01*
X101476019Y-101445234D01*
X101468016Y-101343375D01*
X101462380Y-101222907D01*
X101459074Y-101091653D01*
X101458065Y-100957436D01*
X101459318Y-100828077D01*
X101462800Y-100711400D01*
X101468478Y-100615227D01*
X101476316Y-100547380D01*
X101486281Y-100515681D01*
X101490541Y-100511735D01*
X101530484Y-100500168D01*
X101570374Y-100528172D01*
X101604623Y-100592137D01*
X101617106Y-100622469D01*
X101656025Y-100703762D01*
X101713788Y-100814935D01*
X101787784Y-100951027D01*
X101875404Y-101107071D01*
X101885848Y-101124129D01*
X101941445Y-101198570D01*
X102021788Y-101290546D01*
X102119813Y-101391827D01*
X102173261Y-101444202D01*
X102243717Y-101509933D01*
X102305186Y-101559848D01*
X102369883Y-101602565D01*
X102450023Y-101646702D01*
X102557821Y-101700878D01*
X102605388Y-101724672D01*
X102710412Y-101780888D01*
X102777051Y-101823975D01*
X102807333Y-101855798D01*
X102803284Y-101878219D01*
X102766930Y-101893102D01*
X102765474Y-101893395D01*
X102718574Y-101890285D01*
X102642496Y-101873085D01*
X102547764Y-101845337D01*
X102444900Y-101810587D01*
X102344429Y-101772378D01*
X102256872Y-101734252D01*
X102192751Y-101699754D01*
X102148362Y-101668240D01*
X102073362Y-101609355D01*
X101986423Y-101536872D01*
X101898700Y-101459890D01*
X101703761Y-101283888D01*
X101712841Y-101364431D01*
X101713363Y-101368847D01*
X101727916Y-101448538D01*
X101749206Y-101527807D01*
X101753063Y-101539777D01*
X101771406Y-101604332D01*
X101781444Y-101652378D01*
X101782885Y-101660159D01*
X101801032Y-101712668D01*
X101835275Y-101791374D01*
X101880806Y-101886731D01*
X101932811Y-101989196D01*
X101986481Y-102089224D01*
X102037004Y-102177272D01*
X102079570Y-102243796D01*
X102116745Y-102300774D01*
X102151580Y-102364197D01*
X102167928Y-102407752D01*
X102169784Y-102426474D01*
X102161913Y-102441860D01*
X102132299Y-102437915D01*
X102071696Y-102415370D01*
X101915767Y-102344069D01*
X101711507Y-102227501D01*
X101509109Y-102088345D01*
X101321940Y-101935160D01*
X101316800Y-101930545D01*
X101220776Y-101846378D01*
X101153287Y-101791965D01*
X101112166Y-101765690D01*
X101095245Y-101765933D01*
X101093359Y-101772948D01*
X101096346Y-101823751D01*
X101114180Y-101906613D01*
X101144533Y-102014986D01*
X101185076Y-102142319D01*
X101233480Y-102282061D01*
X101287414Y-102427662D01*
X101344552Y-102572572D01*
X101402562Y-102710239D01*
X101459115Y-102834114D01*
X101511885Y-102937647D01*
X101563019Y-103023612D01*
X101655913Y-103162020D01*
X101771050Y-103319641D01*
X101903043Y-103489898D01*
X102046510Y-103666212D01*
X102196064Y-103842004D01*
X102346322Y-104010696D01*
X102491898Y-104165709D01*
X102627408Y-104300465D01*
X102652002Y-104323914D01*
X102723840Y-104393665D01*
X102768908Y-104440956D01*
X102791698Y-104471501D01*
X102796702Y-104491013D01*
X102788413Y-104505206D01*
X102769986Y-104517516D01*
X102736022Y-104519399D01*
X102687991Y-104501499D01*
X102621279Y-104461349D01*
X102531272Y-104396475D01*
X102413353Y-104304410D01*
X102389364Y-104285274D01*
X102298086Y-104212693D01*
X102216993Y-104148546D01*
X102154145Y-104099194D01*
X102117601Y-104070996D01*
X102115738Y-104069581D01*
X102077213Y-104037416D01*
X102015405Y-103982946D01*
X101938443Y-103913424D01*
X101854455Y-103836105D01*
X101779971Y-103767378D01*
X101640623Y-103641490D01*
X101511421Y-103528203D01*
X101395988Y-103430481D01*
X101297937Y-103351286D01*
X101220889Y-103293582D01*
X101168462Y-103260332D01*
X101144273Y-103254498D01*
X101138289Y-103262123D01*
X101130443Y-103300048D01*
X101130210Y-103339447D01*
X101110891Y-103411457D01*
X101075702Y-103493878D01*
X101030807Y-103572793D01*
X100982372Y-103634291D01*
X100971548Y-103644903D01*
X100926342Y-103683385D01*
X100876235Y-103713716D01*
X100814713Y-103737545D01*
X100735261Y-103756517D01*
X100631368Y-103772283D01*
X100496515Y-103786488D01*
X100324192Y-103800782D01*
X100132983Y-103812910D01*
X99934027Y-103817142D01*
X99764970Y-103808786D01*
X99618768Y-103786702D01*
X99488375Y-103749751D01*
X99366745Y-103696795D01*
X99246831Y-103626698D01*
X99159532Y-103565191D01*
X99082864Y-103494368D01*
X99037288Y-103423849D01*
X99016784Y-103346300D01*
X99020960Y-103291418D01*
X99061910Y-103220162D01*
X99140804Y-103156896D01*
X99254287Y-103103105D01*
X99399013Y-103060271D01*
X99571628Y-103029877D01*
X99768783Y-103013408D01*
X99772705Y-103013240D01*
X99878005Y-103010611D01*
X99967383Y-103011757D01*
X100031503Y-103016337D01*
X100061027Y-103024015D01*
X100065966Y-103033355D01*
X100052714Y-103064522D01*
X100009855Y-103102597D01*
X99945863Y-103142026D01*
X99869214Y-103177251D01*
X99788384Y-103202720D01*
X99775490Y-103205740D01*
X99652441Y-103235254D01*
X99565194Y-103258404D01*
X99507099Y-103277818D01*
X99471507Y-103296125D01*
X99451767Y-103315950D01*
X99441230Y-103339926D01*
X99437777Y-103357245D01*
X99451856Y-103404194D01*
X99504020Y-103441781D01*
X99595309Y-103470259D01*
X99726758Y-103489880D01*
X99899401Y-103500896D01*
X100114277Y-103503557D01*
X100202004Y-103502482D01*
X100378819Y-103495306D01*
X100517591Y-103480300D01*
X100622273Y-103455845D01*
X100696815Y-103420322D01*
X100745167Y-103372112D01*
X100771282Y-103309596D01*
X100779109Y-103231158D01*
X100773669Y-103167930D01*
X100731874Y-103045028D01*
X100652350Y-102930850D01*
X100539281Y-102830668D01*
X100396852Y-102749752D01*
X100357288Y-102732446D01*
X100180756Y-102661493D01*
X99977644Y-102588002D01*
X99761184Y-102516599D01*
X99544610Y-102451906D01*
X99537346Y-102449858D01*
X99427098Y-102418435D01*
X99326941Y-102389310D01*
X99247647Y-102365653D01*
X99199988Y-102350626D01*
X99195561Y-102349177D01*
X99116039Y-102334317D01*
X99006595Y-102327356D01*
X98879607Y-102327924D01*
X98747452Y-102335647D01*
X98622508Y-102350159D01*
X98517153Y-102371085D01*
X98466151Y-102385310D01*
X98304772Y-102444341D01*
X98157581Y-102523869D01*
X98013841Y-102630452D01*
X97862818Y-102770642D01*
X97800167Y-102834636D01*
X97727720Y-102914060D01*
X97670555Y-102987108D01*
X97618227Y-103067537D01*
X97560291Y-103169108D01*
X97500857Y-103275769D01*
X97387903Y-103468962D01*
X97283729Y-103632084D01*
X97183270Y-103772427D01*
X97081463Y-103897275D01*
X96973241Y-104013919D01*
X96780275Y-104210046D01*
X96604493Y-104263417D01*
X96440682Y-104299677D01*
X96252306Y-104315342D01*
X96067237Y-104306652D01*
X95901997Y-104273372D01*
X95807677Y-104239063D01*
X95714379Y-104184216D01*
X95660215Y-104118223D01*
X95642710Y-104038846D01*
X95642711Y-104038207D01*
X95659047Y-103957260D01*
X95707818Y-103905113D01*
X95789307Y-103881686D01*
X95903799Y-103886897D01*
X96051579Y-103920663D01*
X96120991Y-103939127D01*
X96276188Y-103966021D01*
X96409561Y-103967996D01*
X96514131Y-103944689D01*
X96526328Y-103939093D01*
X96584097Y-103906187D01*
X96659523Y-103857210D01*
X96739525Y-103800528D01*
X96806674Y-103747858D01*
X96950277Y-103610820D01*
X97078670Y-103449295D01*
X97196644Y-103256776D01*
X97308988Y-103026752D01*
X97347779Y-102949480D01*
X97460685Y-102783293D01*
X97612184Y-102616980D01*
X97798771Y-102453767D01*
X98016939Y-102296874D01*
X98263182Y-102149527D01*
X98320392Y-102119694D01*
X98502643Y-102044319D01*
X98689317Y-101998742D01*
X98886160Y-101982799D01*
X99098916Y-101996323D01*
X99333328Y-102039149D01*
X99595141Y-102111111D01*
X99732540Y-102155276D01*
X99907633Y-102214712D01*
X100086294Y-102278314D01*
X100260928Y-102343189D01*
X100423940Y-102406446D01*
X100567737Y-102465190D01*
X100684722Y-102516529D01*
X100767305Y-102557572D01*
X100809760Y-102580977D01*
X100885276Y-102621596D01*
X100942218Y-102650880D01*
X100970710Y-102663675D01*
X100974467Y-102658450D01*
X100969965Y-102621717D01*
X100953464Y-102557351D01*
X100926953Y-102473976D01*
X100921335Y-102457359D01*
X100882685Y-102333529D01*
X100844350Y-102197281D01*
X100813873Y-102075219D01*
X100799863Y-102014675D01*
X100769436Y-101888072D01*
X100735529Y-101751502D01*
X100703219Y-101625581D01*
X100695792Y-101596574D01*
X100664964Y-101462355D01*
X100635243Y-101312856D01*
X100607844Y-101156396D01*
X100583976Y-101001297D01*
X100564853Y-100855879D01*
X100551687Y-100728461D01*
X100545693Y-100627366D01*
X100548078Y-100560913D01*
X100550504Y-100544261D01*
X100562392Y-100450011D01*
X100571445Y-100360065D01*
X100578490Y-100306821D01*
X100611736Y-100177289D01*
X100665034Y-100037376D01*
X100732856Y-99897832D01*
X100809673Y-99769403D01*
X100889955Y-99662840D01*
X100968173Y-99588888D01*
X100975817Y-99583475D01*
X101132305Y-99495975D01*
X101320420Y-99427778D01*
X101531525Y-99381398D01*
X101756978Y-99359348D01*
X101832341Y-99352989D01*
X102024056Y-99306338D01*
X102214916Y-99216307D01*
X102404071Y-99083361D01*
X102590670Y-98907958D01*
X102628445Y-98867137D01*
X102715348Y-98762641D01*
X102774193Y-98666996D01*
X102810256Y-98567125D01*
X102828817Y-98449957D01*
X102835155Y-98302417D01*
X102835190Y-98299542D01*
X102843028Y-98153350D01*
X102863094Y-98045056D01*
X102896752Y-97969974D01*
X102945364Y-97923418D01*
X102955429Y-97917992D01*
X103031693Y-97901852D01*
X103113682Y-97916326D01*
G37*
G36*
X103438158Y-100580321D02*
G01*
X103453723Y-100606945D01*
X103465138Y-100658817D01*
X103462816Y-100687065D01*
X103428859Y-100751238D01*
X103359957Y-100806927D01*
X103262470Y-100849854D01*
X103142754Y-100875739D01*
X103141829Y-100875848D01*
X103092583Y-100876001D01*
X103011253Y-100870541D01*
X102908924Y-100860405D01*
X102796684Y-100846528D01*
X102698851Y-100832491D01*
X102609540Y-100816824D01*
X102552123Y-100801714D01*
X102519928Y-100785307D01*
X102506288Y-100765744D01*
X102501816Y-100737254D01*
X102519612Y-100700288D01*
X102573079Y-100677764D01*
X102665815Y-100667464D01*
X102677300Y-100666824D01*
X102752743Y-100659580D01*
X102856659Y-100646454D01*
X102976865Y-100629081D01*
X103101184Y-100609093D01*
X103145431Y-100601870D01*
X103254010Y-100586663D01*
X103344605Y-100577522D01*
X103408793Y-100575169D01*
X103438158Y-100580321D01*
G37*
G36*
X103678468Y-99841156D02*
G01*
X103719261Y-99878417D01*
X103726160Y-99940513D01*
X103724961Y-99946797D01*
X103689058Y-100015309D01*
X103610928Y-100090329D01*
X103491627Y-100171010D01*
X103332215Y-100256503D01*
X103219507Y-100310189D01*
X103105375Y-100359234D01*
X103006261Y-100393624D01*
X102909551Y-100417621D01*
X102802628Y-100435489D01*
X102736625Y-100443377D01*
X102649429Y-100445878D01*
X102589035Y-100433122D01*
X102545835Y-100403928D01*
X102537033Y-100395254D01*
X102531512Y-100385945D01*
X102536390Y-100375363D01*
X102556585Y-100360618D01*
X102597008Y-100338816D01*
X102662575Y-100307068D01*
X102758202Y-100262482D01*
X102888803Y-100202167D01*
X102909560Y-100192507D01*
X103034514Y-100131712D01*
X103159561Y-100067004D01*
X103271213Y-100005537D01*
X103355980Y-99954461D01*
X103388792Y-99933716D01*
X103471884Y-99886073D01*
X103544477Y-99850788D01*
X103593799Y-99834314D01*
X103608586Y-99832588D01*
X103678468Y-99841156D01*
G37*
G36*
X98911309Y-104239979D02*
G01*
X98932297Y-104266892D01*
X98959984Y-104349362D01*
X98959771Y-104455569D01*
X98931217Y-104578004D01*
X98922792Y-104602910D01*
X98895931Y-104672977D01*
X98868739Y-104716259D01*
X98831251Y-104744967D01*
X98773509Y-104771311D01*
X98712801Y-104786448D01*
X98647855Y-104772524D01*
X98624837Y-104757836D01*
X98589369Y-104723751D01*
X98585368Y-104686509D01*
X98613948Y-104638179D01*
X98676224Y-104570834D01*
X98725040Y-104520080D01*
X98764952Y-104468457D01*
X98787327Y-104417824D01*
X98801086Y-104352589D01*
X98818699Y-104269517D01*
X98841813Y-104221442D01*
X98871858Y-104212437D01*
X98911309Y-104239979D01*
G37*
G36*
X98415545Y-104094598D02*
G01*
X98442219Y-104146584D01*
X98453408Y-104236317D01*
X98452512Y-104262492D01*
X98433714Y-104367591D01*
X98394525Y-104489079D01*
X98340084Y-104612846D01*
X98275529Y-104724786D01*
X98267516Y-104736169D01*
X98207534Y-104802572D01*
X98136465Y-104860000D01*
X98071443Y-104894229D01*
X98048951Y-104900196D01*
X97968967Y-104905163D01*
X97898698Y-104887799D01*
X97853762Y-104851189D01*
X97833639Y-104801277D01*
X97841737Y-104747642D01*
X97887216Y-104695196D01*
X97972930Y-104638852D01*
X98039694Y-104597149D01*
X98158724Y-104493865D01*
X98241536Y-104375657D01*
X98284404Y-104247209D01*
X98307141Y-104160969D01*
X98341552Y-104102207D01*
X98379837Y-104079944D01*
X98415545Y-104094598D01*
G37*
G36*
X103617787Y-98694816D02*
G01*
X103665241Y-98726324D01*
X103697299Y-98786975D01*
X103711775Y-98867921D01*
X103706483Y-98960319D01*
X103679240Y-99055319D01*
X103672126Y-99070647D01*
X103632358Y-99137870D01*
X103575461Y-99218871D01*
X103511257Y-99299379D01*
X103484406Y-99330379D01*
X103377717Y-99445230D01*
X103262558Y-99554738D01*
X103128995Y-99667931D01*
X102967090Y-99793837D01*
X102893689Y-99847959D01*
X102793931Y-99914936D01*
X102713007Y-99958158D01*
X102642775Y-99981696D01*
X102575087Y-99989615D01*
X102515601Y-99985958D01*
X102487817Y-99966706D01*
X102484118Y-99924975D01*
X102484758Y-99920374D01*
X102500146Y-99892377D01*
X102540863Y-99861668D01*
X102614887Y-99821963D01*
X102694738Y-99772935D01*
X102795740Y-99694937D01*
X102904059Y-99599071D01*
X103010039Y-99494396D01*
X103104030Y-99389976D01*
X103176377Y-99294870D01*
X103200429Y-99260354D01*
X103256408Y-99187562D01*
X103307112Y-99129895D01*
X103339646Y-99089196D01*
X103385140Y-99014202D01*
X103423939Y-98931913D01*
X103464973Y-98835903D01*
X103508579Y-98755687D01*
X103549015Y-98709573D01*
X103589656Y-98692690D01*
X103617787Y-98694816D01*
G37*
G36*
X97786186Y-103892545D02*
G01*
X97812790Y-103906669D01*
X97826529Y-103950944D01*
X97828343Y-104006444D01*
X97813546Y-104078559D01*
X97779522Y-104172716D01*
X97724037Y-104296444D01*
X97682329Y-104375100D01*
X97616611Y-104468531D01*
X97526482Y-104567160D01*
X97412386Y-104676637D01*
X97255467Y-104811847D01*
X97101155Y-104928389D01*
X96955434Y-105022154D01*
X96824296Y-105089031D01*
X96713727Y-105124910D01*
X96670020Y-105129667D01*
X96583835Y-105113995D01*
X96519418Y-105067280D01*
X96483687Y-104996074D01*
X96483561Y-104906929D01*
X96487243Y-104890206D01*
X96498683Y-104858388D01*
X96521127Y-104833698D01*
X96564251Y-104807656D01*
X96637730Y-104771779D01*
X96656921Y-104762845D01*
X96752609Y-104721228D01*
X96864432Y-104675906D01*
X96971989Y-104635215D01*
X96976109Y-104633725D01*
X97105501Y-104580774D01*
X97216087Y-104519745D01*
X97331329Y-104437744D01*
X97355604Y-104418698D01*
X97434831Y-104351912D01*
X97496828Y-104292547D01*
X97532143Y-104249466D01*
X97533736Y-104246755D01*
X97563690Y-104195021D01*
X97605976Y-104121187D01*
X97651973Y-104040294D01*
X97688686Y-103977380D01*
X97723997Y-103925041D01*
X97751038Y-103899096D01*
X97776040Y-103892101D01*
X97786186Y-103892545D01*
G37*
G36*
X99279077Y-100323604D02*
G01*
X99429317Y-100384088D01*
X99469864Y-100406097D01*
X99507413Y-100430145D01*
X99543818Y-100459835D01*
X99583591Y-100500156D01*
X99631244Y-100556095D01*
X99691291Y-100632643D01*
X99768242Y-100734787D01*
X99821513Y-100806664D01*
X99866611Y-100867514D01*
X99910091Y-100934602D01*
X99962836Y-101055952D01*
X99984883Y-101174807D01*
X99973360Y-101280067D01*
X99937854Y-101363084D01*
X99867486Y-101447185D01*
X99767942Y-101503546D01*
X99636572Y-101533529D01*
X99470725Y-101538497D01*
X99463520Y-101538208D01*
X99347293Y-101528583D01*
X99255361Y-101506680D01*
X99175498Y-101466440D01*
X99095489Y-101401805D01*
X99003106Y-101306719D01*
X98961490Y-101260092D01*
X98897693Y-101179947D01*
X98853141Y-101106579D01*
X98818274Y-101025441D01*
X98786034Y-100928213D01*
X98754282Y-100771689D01*
X98754934Y-100741471D01*
X98989253Y-100741471D01*
X99012747Y-100802068D01*
X99063166Y-100881708D01*
X99142631Y-100986413D01*
X99205860Y-101063480D01*
X99303599Y-101168503D01*
X99389594Y-101238575D01*
X99468781Y-101276569D01*
X99546093Y-101285351D01*
X99626464Y-101267792D01*
X99670745Y-101251005D01*
X99713962Y-101225384D01*
X99733755Y-101188704D01*
X99741742Y-101126749D01*
X99742557Y-101115155D01*
X99742412Y-101079280D01*
X99733040Y-101047990D01*
X99708848Y-101012479D01*
X99664239Y-100963938D01*
X99593619Y-100893560D01*
X99523168Y-100826399D01*
X99387920Y-100712969D01*
X99271041Y-100638455D01*
X99171720Y-100602507D01*
X99089148Y-100604769D01*
X99022515Y-100644892D01*
X99014573Y-100653306D01*
X98990569Y-100693892D01*
X98989253Y-100741471D01*
X98754934Y-100741471D01*
X98757166Y-100637924D01*
X98794948Y-100523748D01*
X98867891Y-100425987D01*
X98903681Y-100393550D01*
X99015801Y-100328369D01*
X99141086Y-100305043D01*
X99279077Y-100323604D01*
G37*
G36*
X99582101Y-99152296D02*
G01*
X99644657Y-99190849D01*
X99675769Y-99249452D01*
X99671148Y-99327245D01*
X99663947Y-99347486D01*
X99644998Y-99380584D01*
X99611927Y-99422394D01*
X99560102Y-99478119D01*
X99484887Y-99552959D01*
X99381648Y-99652115D01*
X99332633Y-99698629D01*
X99238770Y-99786005D01*
X99161160Y-99853970D01*
X99089299Y-99910497D01*
X99012679Y-99963562D01*
X98920795Y-100021138D01*
X98803141Y-100091198D01*
X98724473Y-100137026D01*
X98538940Y-100239680D01*
X98383335Y-100316266D01*
X98254363Y-100367738D01*
X98148726Y-100395053D01*
X98063132Y-100399163D01*
X97994286Y-100381023D01*
X97938893Y-100341589D01*
X97934257Y-100336891D01*
X97905393Y-100298452D01*
X97900490Y-100256737D01*
X97916815Y-100193409D01*
X97936459Y-100143582D01*
X97979347Y-100077218D01*
X98048790Y-100006329D01*
X98149881Y-99914464D01*
X98121994Y-100001937D01*
X98109259Y-100049913D01*
X98107328Y-100111724D01*
X98133141Y-100145905D01*
X98188832Y-100153128D01*
X98276535Y-100134070D01*
X98398384Y-100089407D01*
X98437828Y-100072720D01*
X98571786Y-100009506D01*
X98710764Y-99935361D01*
X98848356Y-99854525D01*
X98978154Y-99771238D01*
X99093753Y-99689741D01*
X99188745Y-99614273D01*
X99256722Y-99549077D01*
X99291281Y-99498393D01*
X99297981Y-99437499D01*
X99270238Y-99377239D01*
X99211446Y-99339586D01*
X99175092Y-99339277D01*
X99098950Y-99354981D01*
X98991096Y-99386840D01*
X98855963Y-99433520D01*
X98697988Y-99493694D01*
X98675031Y-99502309D01*
X98629645Y-99515640D01*
X98611604Y-99514796D01*
X98613585Y-99509907D01*
X98642483Y-99483113D01*
X98699288Y-99442671D01*
X98775596Y-99393673D01*
X98863010Y-99341212D01*
X98953125Y-99290382D01*
X99037541Y-99246273D01*
X99107855Y-99213981D01*
X99248678Y-99165584D01*
X99379821Y-99138801D01*
X99492392Y-99134660D01*
X99582101Y-99152296D01*
G37*
D14*
%TO.C,J4*%
X108950000Y-101000000D02*
G75*
G02*
X106050000Y-101000000I-1450000J0D01*
G01*
X106050000Y-101000000D02*
G75*
G02*
X108950000Y-101000000I1450000J0D01*
G01*
%TO.C,J3*%
X93950000Y-101000000D02*
G75*
G02*
X91050000Y-101000000I-1450000J0D01*
G01*
X91050000Y-101000000D02*
G75*
G02*
X93950000Y-101000000I1450000J0D01*
G01*
D10*
%TO.C,Mod1*%
X91500000Y-99000000D02*
X91500000Y-70500000D01*
X94000000Y-97000000D02*
X94000000Y-99000000D01*
X94000000Y-99000000D02*
X91500000Y-99000000D01*
X96500000Y-70500000D02*
X91500000Y-70500000D01*
X96500000Y-83000000D02*
X97000000Y-83500000D01*
X97000000Y-83500000D02*
X96500000Y-83000000D01*
X97000000Y-83500000D02*
X97500000Y-83000000D01*
X103500000Y-70500000D02*
X108500000Y-70500000D01*
X106000000Y-97000000D02*
X94000000Y-97000000D01*
X106000000Y-99000000D02*
X106000000Y-97000000D01*
X108500000Y-70500000D02*
X108500000Y-99000000D01*
X108500000Y-99000000D02*
X106000000Y-99000000D01*
X91500000Y-76000000D02*
X93000000Y-76000000D01*
X93000000Y-84000000D01*
X91500000Y-84000000D01*
X91500000Y-76000000D01*
X96500000Y-69000000D02*
X103500000Y-69000000D01*
X103500000Y-75500000D01*
X96500000Y-75500000D01*
X96500000Y-69000000D01*
X93000000Y-79500000D02*
G75*
G02*
X97000000Y-83500000I0J-4000000D01*
G01*
%TD*%
M02*
