M48
; DRILL file {KiCad 8.0.5} date 2025-02-27T19:04:12-0600
; FORMAT={-:-/ absolute / inch / decimal}
; #@! TF.CreationDate,2025-02-27T19:04:12-06:00
; #@! TF.GenerationSoftware,Kicad,Pcbnew,8.0.5
; #@! TF.FileFunction,Plated,1,2,PTH
FMAT,2
INCH
; #@! TA.AperFunction,Plated,PTH,ViaDrill
T1C0.0118
; #@! TA.AperFunction,Plated,PTH,ViaDrill
T2C0.0197
; #@! TA.AperFunction,Plated,PTH,ComponentDrill
T3C0.0315
; #@! TA.AperFunction,Plated,PTH,ComponentDrill
T4C0.0354
; #@! TA.AperFunction,Plated,PTH,ComponentDrill
T5C0.0394
%
G90
G05
T1
X3.787Y-4.1189
X3.878Y-3.8583
X3.8878Y-3.8189
X3.9173Y-4.0748
X3.9567Y-3.5433
X3.9764Y-3.189
X4.1535Y-3.2087
T2
X3.7402Y-3.5827
T3
X3.413Y-3.2874
X3.435Y-3.4055
X3.6319Y-3.4055
X3.713Y-3.2874
X3.787Y-3.2579
X4.087Y-3.2579
X4.161Y-3.2874
X4.3701Y-3.4417
X4.3701Y-3.5417
X4.3701Y-3.6417
X4.461Y-3.2874
T4
X3.563Y-3.0709
X3.563Y-3.1709
X4.311Y-3.0709
X4.311Y-3.1709
T5
X3.4433Y-3.8189
X3.4433Y-3.9189
X3.4433Y-4.0189
X3.4433Y-4.1189
X3.5236Y-2.8543
X3.5236Y-2.9543
X3.5433Y-3.8189
X3.5433Y-3.9189
X3.5433Y-4.0189
X3.5433Y-4.1189
X3.687Y-4.2372
X3.787Y-4.2372
X3.887Y-4.2372
X3.987Y-4.2372
X4.087Y-4.2372
X4.187Y-4.2372
X4.3307Y-3.8189
X4.3307Y-3.9189
X4.3307Y-4.0189
X4.3307Y-4.1189
X4.3504Y-2.8543
X4.3504Y-2.9543
X4.4307Y-3.8189
X4.4307Y-3.9189
X4.4307Y-4.0189
X4.4307Y-4.1189
M30
