%TF.GenerationSoftware,KiCad,Pcbnew,8.0.5*%
%TF.CreationDate,2025-02-27T19:04:08-06:00*%
%TF.ProjectId,PIC16F15313tht,50494331-3646-4313-9533-31337468742e,rev?*%
%TF.SameCoordinates,Original*%
%TF.FileFunction,Soldermask,Top*%
%TF.FilePolarity,Negative*%
%FSLAX46Y46*%
G04 Gerber Fmt 4.6, Leading zero omitted, Abs format (unit mm)*
G04 Created by KiCad (PCBNEW 8.0.5) date 2025-02-27 19:04:08*
%MOMM*%
%LPD*%
G01*
G04 APERTURE LIST*
%ADD10R,1.700000X1.700000*%
%ADD11O,1.700000X1.700000*%
%ADD12C,1.440000*%
%ADD13C,2.500000*%
%ADD14R,1.800000X1.800000*%
%ADD15C,1.800000*%
%ADD16O,1.250000X2.000000*%
%ADD17R,2.200000X2.200000*%
%ADD18O,2.200000X2.200000*%
%ADD19R,1.500000X3.000000*%
%ADD20C,1.600000*%
%ADD21O,3.000000X2.000000*%
G04 APERTURE END LIST*
D10*
%TO.C,J7*%
X87460000Y-97000000D03*
D11*
X90000000Y-97000000D03*
X87460000Y-99540000D03*
X90000000Y-99540000D03*
X87460000Y-102080000D03*
X90000000Y-102080000D03*
X87460000Y-104620000D03*
X90000000Y-104620000D03*
%TD*%
D12*
%TO.C,RV1*%
X111000000Y-87420000D03*
X111000000Y-89960000D03*
X111000000Y-92500000D03*
%TD*%
D10*
%TO.C,J6*%
X110000000Y-97000000D03*
D11*
X112540000Y-97000000D03*
X110000000Y-99540000D03*
X112540000Y-99540000D03*
X110000000Y-102080000D03*
X112540000Y-102080000D03*
X110000000Y-104620000D03*
X112540000Y-104620000D03*
%TD*%
D10*
%TO.C,J2*%
X110500000Y-75040000D03*
D11*
X110500000Y-72500000D03*
%TD*%
D10*
%TO.C,J5*%
X106350000Y-107625000D03*
D11*
X103810000Y-107625000D03*
X101270000Y-107625000D03*
X98730000Y-107625000D03*
X96190000Y-107625000D03*
X93650000Y-107625000D03*
%TD*%
D13*
%TO.C,SW1*%
X96750000Y-72250000D03*
X103250000Y-72250000D03*
X96750000Y-76750000D03*
X103250000Y-76750000D03*
%TD*%
D14*
%TO.C,D2*%
X109500000Y-80540000D03*
D15*
X109500000Y-78000000D03*
%TD*%
D14*
%TO.C,D3*%
X90500000Y-80540000D03*
D15*
X90500000Y-78000000D03*
%TD*%
D16*
%TO.C,R2*%
X96190000Y-82750000D03*
X103810000Y-82750000D03*
%TD*%
%TO.C,R3*%
X94310000Y-83500000D03*
X86690000Y-83500000D03*
%TD*%
D17*
%TO.C,D1*%
X94840000Y-79500000D03*
D18*
X105000000Y-79500000D03*
%TD*%
D19*
%TO.C,SW2*%
X96000000Y-93810000D03*
X98540000Y-93810000D03*
X101080000Y-93810000D03*
X103620000Y-93810000D03*
X103620000Y-86190000D03*
X101080000Y-86190000D03*
X98540000Y-86190000D03*
X96000000Y-86190000D03*
%TD*%
D20*
%TO.C,C1*%
X92250000Y-86500000D03*
X87250000Y-86500000D03*
%TD*%
D10*
%TO.C,J1*%
X89500000Y-75040000D03*
D11*
X89500000Y-72500000D03*
%TD*%
D16*
%TO.C,R1*%
X105690000Y-83500000D03*
X113310000Y-83500000D03*
%TD*%
D21*
%TO.C,U1*%
X96190000Y-97000000D03*
X96190000Y-99540000D03*
X96190000Y-102080000D03*
X96190000Y-104620000D03*
X103810000Y-104620000D03*
X103810000Y-102080000D03*
X103810000Y-99540000D03*
X103810000Y-97000000D03*
%TD*%
M02*
