%TF.GenerationSoftware,KiCad,Pcbnew,8.0.5*%
%TF.CreationDate,2025-02-27T19:04:08-06:00*%
%TF.ProjectId,PIC16F15313tht,50494331-3646-4313-9533-31337468742e,rev?*%
%TF.SameCoordinates,Original*%
%TF.FileFunction,Soldermask,Bot*%
%TF.FilePolarity,Negative*%
%FSLAX46Y46*%
G04 Gerber Fmt 4.6, Leading zero omitted, Abs format (unit mm)*
G04 Created by KiCad (PCBNEW 8.0.5) date 2025-02-27 19:04:08*
%MOMM*%
%LPD*%
G01*
G04 APERTURE LIST*
G04 Aperture macros list*
%AMRoundRect*
0 Rectangle with rounded corners*
0 $1 Rounding radius*
0 $2 $3 $4 $5 $6 $7 $8 $9 X,Y pos of 4 corners*
0 Add a 4 corners polygon primitive as box body*
4,1,4,$2,$3,$4,$5,$6,$7,$8,$9,$2,$3,0*
0 Add four circle primitives for the rounded corners*
1,1,$1+$1,$2,$3*
1,1,$1+$1,$4,$5*
1,1,$1+$1,$6,$7*
1,1,$1+$1,$8,$9*
0 Add four rect primitives between the rounded corners*
20,1,$1+$1,$2,$3,$4,$5,0*
20,1,$1+$1,$4,$5,$6,$7,0*
20,1,$1+$1,$6,$7,$8,$9,0*
20,1,$1+$1,$8,$9,$2,$3,0*%
G04 Aperture macros list end*
%ADD10R,1.700000X1.700000*%
%ADD11O,1.700000X1.700000*%
%ADD12C,1.440000*%
%ADD13R,1.800000X1.800000*%
%ADD14C,1.800000*%
%ADD15O,1.250000X2.000000*%
%ADD16C,1.600000*%
%ADD17C,2.500000*%
%ADD18RoundRect,0.625000X-0.625000X0.875000X-0.625000X-0.875000X0.625000X-0.875000X0.625000X0.875000X0*%
G04 APERTURE END LIST*
D10*
%TO.C,J7*%
X87460000Y-97000000D03*
D11*
X90000000Y-97000000D03*
X87460000Y-99540000D03*
X90000000Y-99540000D03*
X87460000Y-102080000D03*
X90000000Y-102080000D03*
X87460000Y-104620000D03*
X90000000Y-104620000D03*
%TD*%
D12*
%TO.C,RV1*%
X111000000Y-87420000D03*
X111000000Y-89960000D03*
X111000000Y-92500000D03*
%TD*%
D10*
%TO.C,J6*%
X110000000Y-97000000D03*
D11*
X112540000Y-97000000D03*
X110000000Y-99540000D03*
X112540000Y-99540000D03*
X110000000Y-102080000D03*
X112540000Y-102080000D03*
X110000000Y-104620000D03*
X112540000Y-104620000D03*
%TD*%
D10*
%TO.C,J2*%
X110500000Y-75040000D03*
D11*
X110500000Y-72500000D03*
%TD*%
D10*
%TO.C,J5*%
X106350000Y-107625000D03*
D11*
X103810000Y-107625000D03*
X101270000Y-107625000D03*
X98730000Y-107625000D03*
X96190000Y-107625000D03*
X93650000Y-107625000D03*
%TD*%
D13*
%TO.C,D2*%
X109500000Y-80540000D03*
D14*
X109500000Y-78000000D03*
%TD*%
D13*
%TO.C,D3*%
X90500000Y-80540000D03*
D14*
X90500000Y-78000000D03*
%TD*%
D15*
%TO.C,R2*%
X96190000Y-82750000D03*
X103810000Y-82750000D03*
%TD*%
%TO.C,R3*%
X94310000Y-83500000D03*
X86690000Y-83500000D03*
%TD*%
D16*
%TO.C,C1*%
X92250000Y-86500000D03*
X87250000Y-86500000D03*
%TD*%
D10*
%TO.C,J1*%
X89500000Y-75040000D03*
D11*
X89500000Y-72500000D03*
%TD*%
D15*
%TO.C,R1*%
X105690000Y-83500000D03*
X113310000Y-83500000D03*
%TD*%
D17*
%TO.C,J4*%
X107500000Y-101000000D03*
%TD*%
%TO.C,J3*%
X92500000Y-101000000D03*
%TD*%
D18*
%TO.C,Mod1*%
X93500000Y-72500000D03*
X106500000Y-72500000D03*
X93500000Y-95000000D03*
X106500000Y-95000000D03*
X96500000Y-95000000D03*
X103500000Y-95000000D03*
%TD*%
M02*
