%TF.GenerationSoftware,KiCad,Pcbnew,8.0.5*%
%TF.CreationDate,2025-02-27T19:04:08-06:00*%
%TF.ProjectId,PIC16F15313tht,50494331-3646-4313-9533-31337468742e,rev?*%
%TF.SameCoordinates,Original*%
%TF.FileFunction,Copper,L1,Top*%
%TF.FilePolarity,Positive*%
%FSLAX46Y46*%
G04 Gerber Fmt 4.6, Leading zero omitted, Abs format (unit mm)*
G04 Created by KiCad (PCBNEW 8.0.5) date 2025-02-27 19:04:08*
%MOMM*%
%LPD*%
G01*
G04 APERTURE LIST*
%TA.AperFunction,ComponentPad*%
%ADD10R,1.700000X1.700000*%
%TD*%
%TA.AperFunction,ComponentPad*%
%ADD11O,1.700000X1.700000*%
%TD*%
%TA.AperFunction,ComponentPad*%
%ADD12C,1.440000*%
%TD*%
%TA.AperFunction,SMDPad,CuDef*%
%ADD13C,2.500000*%
%TD*%
%TA.AperFunction,ComponentPad*%
%ADD14R,1.800000X1.800000*%
%TD*%
%TA.AperFunction,ComponentPad*%
%ADD15C,1.800000*%
%TD*%
%TA.AperFunction,ComponentPad*%
%ADD16O,1.250000X2.000000*%
%TD*%
%TA.AperFunction,SMDPad,CuDef*%
%ADD17R,2.200000X2.200000*%
%TD*%
%TA.AperFunction,SMDPad,CuDef*%
%ADD18O,2.200000X2.200000*%
%TD*%
%TA.AperFunction,SMDPad,CuDef*%
%ADD19R,1.500000X3.000000*%
%TD*%
%TA.AperFunction,ComponentPad*%
%ADD20C,1.600000*%
%TD*%
%TA.AperFunction,SMDPad,CuDef*%
%ADD21O,3.000000X2.000000*%
%TD*%
%TA.AperFunction,ViaPad*%
%ADD22C,0.600000*%
%TD*%
%TA.AperFunction,ViaPad*%
%ADD23C,1.250000*%
%TD*%
%TA.AperFunction,Conductor*%
%ADD24C,1.000000*%
%TD*%
%TA.AperFunction,Conductor*%
%ADD25C,0.200000*%
%TD*%
G04 APERTURE END LIST*
D10*
%TO.P,J7,1,Pin_1*%
%TO.N,VCC*%
X87460000Y-97000000D03*
D11*
%TO.P,J7,2,Pin_2*%
X90000000Y-97000000D03*
%TO.P,J7,3,Pin_3*%
%TO.N,/ra5*%
X87460000Y-99540000D03*
%TO.P,J7,4,Pin_4*%
X90000000Y-99540000D03*
%TO.P,J7,5,Pin_5*%
%TO.N,/ra4*%
X87460000Y-102080000D03*
%TO.P,J7,6,Pin_6*%
X90000000Y-102080000D03*
%TO.P,J7,7,Pin_7*%
%TO.N,/ra3*%
X87460000Y-104620000D03*
%TO.P,J7,8,Pin_8*%
X90000000Y-104620000D03*
%TD*%
D12*
%TO.P,RV1,1,1*%
%TO.N,VCC*%
X111000000Y-87420000D03*
%TO.P,RV1,2,2*%
%TO.N,/pot*%
X111000000Y-89960000D03*
%TO.P,RV1,3,3*%
%TO.N,GND*%
X111000000Y-92500000D03*
%TD*%
D10*
%TO.P,J6,1,Pin_1*%
%TO.N,GND*%
X110000000Y-97000000D03*
D11*
%TO.P,J6,2,Pin_2*%
X112540000Y-97000000D03*
%TO.P,J6,3,Pin_3*%
%TO.N,/pgd*%
X110000000Y-99540000D03*
%TO.P,J6,4,Pin_4*%
X112540000Y-99540000D03*
%TO.P,J6,5,Pin_5*%
%TO.N,/pgc*%
X110000000Y-102080000D03*
%TO.P,J6,6,Pin_6*%
X112540000Y-102080000D03*
%TO.P,J6,7,Pin_7*%
%TO.N,/ra2*%
X110000000Y-104620000D03*
%TO.P,J6,8,Pin_8*%
X112540000Y-104620000D03*
%TD*%
D10*
%TO.P,J2,1,Pin_1*%
%TO.N,Net-(D1-A)*%
X110500000Y-75040000D03*
D11*
%TO.P,J2,2,Pin_2*%
%TO.N,GND*%
X110500000Y-72500000D03*
%TD*%
D10*
%TO.P,J5,1,Pin_1*%
%TO.N,/aux*%
X106350000Y-107625000D03*
D11*
%TO.P,J5,2,Pin_2*%
%TO.N,/pgc*%
X103810000Y-107625000D03*
%TO.P,J5,3,Pin_3*%
%TO.N,/pgd*%
X101270000Y-107625000D03*
%TO.P,J5,4,Pin_4*%
%TO.N,GND*%
X98730000Y-107625000D03*
%TO.P,J5,5,Pin_5*%
%TO.N,VCC*%
X96190000Y-107625000D03*
%TO.P,J5,6,Pin_6*%
%TO.N,/ra3*%
X93650000Y-107625000D03*
%TD*%
D13*
%TO.P,SW1,1,1*%
%TO.N,GND*%
X96750000Y-72250000D03*
X103250000Y-72250000D03*
%TO.P,SW1,2,2*%
%TO.N,/reset*%
X96750000Y-76750000D03*
X103250000Y-76750000D03*
%TD*%
D14*
%TO.P,D2,1,K*%
%TO.N,GND*%
X109500000Y-80540000D03*
D15*
%TO.P,D2,2,A*%
%TO.N,Net-(D2-A)*%
X109500000Y-78000000D03*
%TD*%
D14*
%TO.P,D3,1,K*%
%TO.N,/led_op*%
X90500000Y-80540000D03*
D15*
%TO.P,D3,2,A*%
%TO.N,Net-(D3-A)*%
X90500000Y-78000000D03*
%TD*%
D16*
%TO.P,R2,1*%
%TO.N,VCC*%
X96190000Y-82750000D03*
%TO.P,R2,2*%
%TO.N,/reset*%
X103810000Y-82750000D03*
%TD*%
%TO.P,R3,1*%
%TO.N,VCC*%
X94310000Y-83500000D03*
%TO.P,R3,2*%
%TO.N,Net-(D3-A)*%
X86690000Y-83500000D03*
%TD*%
D17*
%TO.P,D1,1,K*%
%TO.N,VCC*%
X94840000Y-79500000D03*
D18*
%TO.P,D1,2,A*%
%TO.N,Net-(D1-A)*%
X105000000Y-79500000D03*
%TD*%
D19*
%TO.P,SW2,1*%
%TO.N,/bat_vcc*%
X96000000Y-93810000D03*
%TO.P,SW2,2*%
%TO.N,/reset*%
X98540000Y-93810000D03*
%TO.P,SW2,3*%
%TO.N,/led_op*%
X101080000Y-93810000D03*
%TO.P,SW2,4*%
%TO.N,/pot*%
X103620000Y-93810000D03*
%TO.P,SW2,5*%
%TO.N,/pgd*%
X103620000Y-86190000D03*
%TO.P,SW2,6*%
%TO.N,/ra5*%
X101080000Y-86190000D03*
%TO.P,SW2,7*%
%TO.N,/ra3*%
X98540000Y-86190000D03*
%TO.P,SW2,8*%
%TO.N,VCC*%
X96000000Y-86190000D03*
%TD*%
D20*
%TO.P,C1,1*%
%TO.N,VCC*%
X92250000Y-86500000D03*
%TO.P,C1,2*%
%TO.N,GND*%
X87250000Y-86500000D03*
%TD*%
D10*
%TO.P,J1,1,Pin_1*%
%TO.N,Net-(D1-A)*%
X89500000Y-75040000D03*
D11*
%TO.P,J1,2,Pin_2*%
%TO.N,GND*%
X89500000Y-72500000D03*
%TD*%
D16*
%TO.P,R1,1*%
%TO.N,VCC*%
X105690000Y-83500000D03*
%TO.P,R1,2*%
%TO.N,Net-(D2-A)*%
X113310000Y-83500000D03*
%TD*%
D21*
%TO.P,U1,1,VDD*%
%TO.N,VCC*%
X96190000Y-97000000D03*
%TO.P,U1,2,RA5*%
%TO.N,/ra5*%
X96190000Y-99540000D03*
%TO.P,U1,3,RA4*%
%TO.N,/ra4*%
X96190000Y-102080000D03*
%TO.P,U1,4,VPP/MCLR/RA3*%
%TO.N,/ra3*%
X96190000Y-104620000D03*
%TO.P,U1,5,RA2*%
%TO.N,/ra2*%
X103810000Y-104620000D03*
%TO.P,U1,6,RA1/ICSPCLK*%
%TO.N,/pgc*%
X103810000Y-102080000D03*
%TO.P,U1,7,RA0/ICSPDAT*%
%TO.N,/pgd*%
X103810000Y-99540000D03*
%TO.P,U1,8,VSS*%
%TO.N,GND*%
X103810000Y-97000000D03*
%TD*%
D22*
%TO.N,VCC*%
X105500000Y-81500000D03*
X99500000Y-103500000D03*
X98500000Y-98000000D03*
X101000000Y-81000000D03*
%TO.N,/led_op*%
X100500000Y-90000000D03*
%TO.N,/ra3*%
X98750000Y-97000000D03*
X96190000Y-104620000D03*
D23*
%TO.N,/bat_vcc*%
X95000000Y-91000000D03*
%TD*%
D24*
%TO.N,/ra3*%
X94380000Y-104620000D02*
X96190000Y-104620000D01*
X93650000Y-107625000D02*
X93650000Y-105350000D01*
X93650000Y-105350000D02*
X94380000Y-104620000D01*
%TO.N,GND*%
X96750000Y-72250000D02*
X89750000Y-72250000D01*
D25*
X103810000Y-97000000D02*
X112540000Y-97000000D01*
D24*
X89750000Y-72250000D02*
X89500000Y-72500000D01*
X110250000Y-72250000D02*
X110500000Y-72500000D01*
X96750000Y-72250000D02*
X103250000Y-72250000D01*
X103250000Y-72250000D02*
X110250000Y-72250000D01*
D25*
%TO.N,VCC*%
X105690000Y-83500000D02*
X105690000Y-81690000D01*
X97190000Y-98000000D02*
X96190000Y-97000000D01*
D24*
X94310000Y-83500000D02*
X95440000Y-83500000D01*
D25*
X100500000Y-81000000D02*
X98750000Y-82750000D01*
X96190000Y-97000000D02*
X87460000Y-97000000D01*
X98500000Y-98000000D02*
X97190000Y-98000000D01*
X99500000Y-104315000D02*
X96190000Y-107625000D01*
D24*
X96000000Y-82940000D02*
X96190000Y-82750000D01*
D25*
X101000000Y-81000000D02*
X100500000Y-81000000D01*
X98750000Y-82750000D02*
X96190000Y-82750000D01*
X105690000Y-81690000D02*
X105500000Y-81500000D01*
D24*
X96000000Y-86190000D02*
X96000000Y-82940000D01*
X95440000Y-83500000D02*
X96190000Y-82750000D01*
D25*
X99500000Y-103500000D02*
X99500000Y-104315000D01*
D24*
%TO.N,Net-(D1-A)*%
X109460000Y-75040000D02*
X108920000Y-74500000D01*
X105000000Y-79500000D02*
X109460000Y-75040000D01*
X91000000Y-75040000D02*
X89500000Y-75040000D01*
X91540000Y-74500000D02*
X91000000Y-75040000D01*
X108920000Y-74500000D02*
X91540000Y-74500000D01*
X109460000Y-75040000D02*
X110500000Y-75040000D01*
D25*
%TO.N,/led_op*%
X100500000Y-90000000D02*
X101080000Y-90580000D01*
X101080000Y-90580000D02*
X101080000Y-93810000D01*
%TO.N,/ra3*%
X98540000Y-87710000D02*
X98540000Y-86190000D01*
X97250000Y-89000000D02*
X98540000Y-87710000D01*
X97250000Y-95500000D02*
X97250000Y-89000000D01*
X96190000Y-104620000D02*
X87460000Y-104620000D01*
X98750000Y-97000000D02*
X97250000Y-95500000D01*
%TO.N,/pgd*%
X101270000Y-102080000D02*
X103810000Y-99540000D01*
X102010000Y-96170000D02*
X102010000Y-97740000D01*
X101270000Y-107625000D02*
X101270000Y-102080000D01*
X103810000Y-99540000D02*
X112540000Y-99540000D01*
X102250000Y-95930000D02*
X102010000Y-96170000D01*
X103620000Y-88130000D02*
X102250000Y-89500000D01*
X103620000Y-86190000D02*
X103620000Y-88130000D01*
X102010000Y-97740000D02*
X103810000Y-99540000D01*
X102250000Y-89500000D02*
X102250000Y-95930000D01*
%TO.N,/pgc*%
X103810000Y-107625000D02*
X101750000Y-105565000D01*
X101750000Y-103000000D02*
X102670000Y-102080000D01*
X101750000Y-105565000D02*
X101750000Y-103000000D01*
X103810000Y-102080000D02*
X112540000Y-102080000D01*
X102670000Y-102080000D02*
X103810000Y-102080000D01*
%TO.N,/ra2*%
X103810000Y-104620000D02*
X112540000Y-104620000D01*
%TO.N,/ra5*%
X101080000Y-86190000D02*
X101080000Y-87920000D01*
X99750000Y-98000000D02*
X98210000Y-99540000D01*
X96190000Y-99540000D02*
X87460000Y-99540000D01*
X99750000Y-89250000D02*
X99750000Y-98000000D01*
X101080000Y-87920000D02*
X99750000Y-89250000D01*
X98210000Y-99540000D02*
X96190000Y-99540000D01*
%TO.N,/ra4*%
X96190000Y-102080000D02*
X87460000Y-102080000D01*
D24*
%TO.N,/bat_vcc*%
X96000000Y-91500000D02*
X96000000Y-93810000D01*
X95000000Y-91000000D02*
X95500000Y-91000000D01*
X95500000Y-91000000D02*
X96000000Y-91500000D01*
D25*
%TO.N,/reset*%
X98540000Y-93810000D02*
X98540000Y-89210000D01*
X103810000Y-82750000D02*
X103810000Y-83500000D01*
X103250000Y-82190000D02*
X103810000Y-82750000D01*
X98540000Y-89210000D02*
X99750000Y-88000000D01*
X99750000Y-84670000D02*
X101670000Y-82750000D01*
X99750000Y-88000000D02*
X99750000Y-84670000D01*
X101670000Y-82750000D02*
X103810000Y-82750000D01*
X103250000Y-76750000D02*
X103250000Y-82190000D01*
X96750000Y-76750000D02*
X103250000Y-76750000D01*
%TO.N,/pot*%
X107470000Y-89960000D02*
X103620000Y-93810000D01*
X111000000Y-89960000D02*
X107470000Y-89960000D01*
%TD*%
%TA.AperFunction,Conductor*%
%TO.N,VCC*%
G36*
X113943365Y-105141195D02*
G01*
X113988699Y-105194360D01*
X113999500Y-105244975D01*
X113999500Y-108996249D01*
X113999274Y-109003736D01*
X113981728Y-109293794D01*
X113979923Y-109308659D01*
X113928219Y-109590798D01*
X113924635Y-109605336D01*
X113839306Y-109879167D01*
X113833997Y-109893168D01*
X113716275Y-110154736D01*
X113709316Y-110167995D01*
X113560928Y-110413459D01*
X113552422Y-110425782D01*
X113375526Y-110651573D01*
X113365596Y-110662781D01*
X113162781Y-110865596D01*
X113151573Y-110875526D01*
X112925782Y-111052422D01*
X112913459Y-111060928D01*
X112667995Y-111209316D01*
X112654736Y-111216275D01*
X112393168Y-111333997D01*
X112379167Y-111339306D01*
X112105336Y-111424635D01*
X112090798Y-111428219D01*
X111808659Y-111479923D01*
X111793794Y-111481728D01*
X111503736Y-111499274D01*
X111496249Y-111499500D01*
X88503751Y-111499500D01*
X88496264Y-111499274D01*
X88206205Y-111481728D01*
X88191340Y-111479923D01*
X87909201Y-111428219D01*
X87894663Y-111424635D01*
X87620832Y-111339306D01*
X87606831Y-111333997D01*
X87345263Y-111216275D01*
X87332004Y-111209316D01*
X87086540Y-111060928D01*
X87074217Y-111052422D01*
X86988409Y-110985196D01*
X86848426Y-110875526D01*
X86837218Y-110865596D01*
X86634403Y-110662781D01*
X86624473Y-110651573D01*
X86447573Y-110425776D01*
X86439075Y-110413465D01*
X86290680Y-110167989D01*
X86283727Y-110154743D01*
X86166000Y-109893163D01*
X86160693Y-109879167D01*
X86145700Y-109831054D01*
X86075363Y-109605335D01*
X86071780Y-109590798D01*
X86051043Y-109477639D01*
X86020075Y-109308657D01*
X86018271Y-109293794D01*
X86015222Y-109243395D01*
X86002114Y-109026675D01*
X86000726Y-109003736D01*
X86000613Y-108999998D01*
X86494390Y-108999998D01*
X86494390Y-109000001D01*
X86514804Y-109285433D01*
X86575628Y-109565037D01*
X86575630Y-109565043D01*
X86575631Y-109565046D01*
X86623827Y-109694263D01*
X86675635Y-109833166D01*
X86812770Y-110084309D01*
X86812775Y-110084317D01*
X86984254Y-110313387D01*
X86984270Y-110313405D01*
X87186594Y-110515729D01*
X87186612Y-110515745D01*
X87415682Y-110687224D01*
X87415690Y-110687229D01*
X87666833Y-110824364D01*
X87666832Y-110824364D01*
X87666836Y-110824365D01*
X87666839Y-110824367D01*
X87934954Y-110924369D01*
X87934960Y-110924370D01*
X87934962Y-110924371D01*
X88214566Y-110985195D01*
X88214568Y-110985195D01*
X88214572Y-110985196D01*
X88468220Y-111003337D01*
X88499999Y-111005610D01*
X88500000Y-111005610D01*
X88500001Y-111005610D01*
X88528595Y-111003564D01*
X88785428Y-110985196D01*
X88792940Y-110983562D01*
X89036233Y-110930637D01*
X92230691Y-110930637D01*
X92253716Y-111001500D01*
X93096991Y-111001500D01*
X92993440Y-110682806D01*
X92230691Y-110930637D01*
X89036233Y-110930637D01*
X89065037Y-110924371D01*
X89065037Y-110924370D01*
X89065046Y-110924369D01*
X89333161Y-110824367D01*
X89584315Y-110687226D01*
X89813395Y-110515739D01*
X90015739Y-110313395D01*
X90044699Y-110274709D01*
X90650667Y-110274709D01*
X90840428Y-110858733D01*
X91603175Y-110610902D01*
X91576536Y-110528914D01*
X93467066Y-110528914D01*
X93620618Y-111001500D01*
X94463891Y-111001500D01*
X94451006Y-110961844D01*
X96341535Y-110961844D01*
X96354420Y-111001500D01*
X97197693Y-111001500D01*
X97104282Y-110714013D01*
X96341535Y-110961844D01*
X94451006Y-110961844D01*
X94229813Y-110281083D01*
X93467066Y-110528914D01*
X91576536Y-110528914D01*
X91355344Y-109848154D01*
X90779554Y-110035239D01*
X90773676Y-110048113D01*
X90771767Y-110052105D01*
X90767769Y-110060093D01*
X90765714Y-110064021D01*
X90650667Y-110274709D01*
X90044699Y-110274709D01*
X90187226Y-110084315D01*
X90324367Y-109833161D01*
X90376173Y-109694263D01*
X91828970Y-109694263D01*
X92076801Y-110457011D01*
X92839549Y-110209180D01*
X92812910Y-110127192D01*
X94703439Y-110127192D01*
X94951270Y-110889940D01*
X95714018Y-110642109D01*
X95687379Y-110560122D01*
X97577908Y-110560122D01*
X97721320Y-111001500D01*
X98564594Y-111001500D01*
X98561849Y-110993051D01*
X100452377Y-110993051D01*
X100455122Y-111001500D01*
X101298396Y-111001500D01*
X101215125Y-110745220D01*
X100452377Y-110993051D01*
X98561849Y-110993051D01*
X98340656Y-110312291D01*
X97577908Y-110560122D01*
X95687379Y-110560122D01*
X95466187Y-109879361D01*
X94703439Y-110127192D01*
X92812910Y-110127192D01*
X92591718Y-109446432D01*
X91828970Y-109694263D01*
X90376173Y-109694263D01*
X90424369Y-109565046D01*
X90446660Y-109462575D01*
X90448625Y-109453542D01*
X90958271Y-109453542D01*
X91152029Y-109390586D01*
X93097200Y-109390586D01*
X93313175Y-110055288D01*
X94075922Y-109807457D01*
X94049283Y-109725470D01*
X95939813Y-109725470D01*
X96187644Y-110488218D01*
X96950391Y-110240387D01*
X96923752Y-110158400D01*
X98814282Y-110158400D01*
X99062113Y-110921147D01*
X99824860Y-110673316D01*
X99798221Y-110591329D01*
X101688751Y-110591329D01*
X101822023Y-111001500D01*
X102665296Y-111001500D01*
X104633265Y-111001500D01*
X105399098Y-111001500D01*
X105325967Y-110776427D01*
X104633265Y-111001500D01*
X102665296Y-111001500D01*
X102451498Y-110343498D01*
X101688751Y-110591329D01*
X99798221Y-110591329D01*
X99577029Y-109910569D01*
X98814282Y-110158400D01*
X96923752Y-110158400D01*
X96702560Y-109477639D01*
X95939813Y-109725470D01*
X94049283Y-109725470D01*
X93960582Y-109452476D01*
X93955824Y-109453209D01*
X93945010Y-109454632D01*
X93939640Y-109455220D01*
X93682577Y-109477711D01*
X93677179Y-109478065D01*
X93666279Y-109478541D01*
X93660869Y-109478659D01*
X93639131Y-109478659D01*
X93633721Y-109478541D01*
X93622821Y-109478065D01*
X93617423Y-109477711D01*
X93360360Y-109455220D01*
X93354990Y-109454632D01*
X93344176Y-109453209D01*
X93338820Y-109452385D01*
X93317413Y-109448610D01*
X93312116Y-109447556D01*
X93301463Y-109445195D01*
X93296201Y-109443908D01*
X93097200Y-109390586D01*
X91152029Y-109390586D01*
X91201453Y-109374527D01*
X91176870Y-109298868D01*
X94434299Y-109298868D01*
X94549548Y-109653566D01*
X95312295Y-109405735D01*
X95285656Y-109323748D01*
X97176186Y-109323748D01*
X97424017Y-110086496D01*
X98186765Y-109838665D01*
X98160126Y-109756677D01*
X100050655Y-109756677D01*
X100298486Y-110519425D01*
X101061234Y-110271594D01*
X101034595Y-110189607D01*
X102925124Y-110189607D01*
X103172955Y-110952354D01*
X103935703Y-110704523D01*
X103909064Y-110622536D01*
X105799593Y-110622536D01*
X105922726Y-111001500D01*
X106765999Y-111001500D01*
X108840152Y-111001500D01*
X109499801Y-111001500D01*
X109436810Y-110807634D01*
X108840152Y-111001500D01*
X106765999Y-111001500D01*
X106562341Y-110374705D01*
X105799593Y-110622536D01*
X103909064Y-110622536D01*
X103687872Y-109941776D01*
X102925124Y-110189607D01*
X101034595Y-110189607D01*
X100813403Y-109508846D01*
X100050655Y-109756677D01*
X98160126Y-109756677D01*
X98066432Y-109468317D01*
X98590060Y-109468317D01*
X98660391Y-109684774D01*
X99304041Y-109475640D01*
X101326241Y-109475640D01*
X101534860Y-110117703D01*
X102297607Y-109869872D01*
X102270968Y-109787885D01*
X104161498Y-109787885D01*
X104409329Y-110550632D01*
X105172076Y-110302801D01*
X105145437Y-110220814D01*
X107035967Y-110220814D01*
X107283798Y-110983562D01*
X108046545Y-110735730D01*
X107798714Y-109972983D01*
X107035967Y-110220814D01*
X105145437Y-110220814D01*
X104924245Y-109540054D01*
X104161498Y-109787885D01*
X102270968Y-109787885D01*
X102104475Y-109275471D01*
X101934280Y-109354836D01*
X101929330Y-109357014D01*
X101919256Y-109361187D01*
X101914217Y-109363147D01*
X101893790Y-109370583D01*
X101888663Y-109372324D01*
X101878251Y-109375607D01*
X101873055Y-109377121D01*
X101623799Y-109443908D01*
X101618537Y-109445195D01*
X101607884Y-109447556D01*
X101602587Y-109448610D01*
X101581180Y-109452385D01*
X101575824Y-109453209D01*
X101565010Y-109454632D01*
X101559640Y-109455220D01*
X101326241Y-109475640D01*
X99304041Y-109475640D01*
X99423138Y-109436943D01*
X99396173Y-109353953D01*
X99394281Y-109354836D01*
X99389330Y-109357014D01*
X99379256Y-109361187D01*
X99374217Y-109363147D01*
X99353790Y-109370583D01*
X99348663Y-109372324D01*
X99338251Y-109375607D01*
X99333055Y-109377121D01*
X99083799Y-109443908D01*
X99078537Y-109445195D01*
X99067884Y-109447556D01*
X99062587Y-109448610D01*
X99041180Y-109452385D01*
X99035824Y-109453209D01*
X99025010Y-109454632D01*
X99019640Y-109455220D01*
X98762577Y-109477711D01*
X98757179Y-109478065D01*
X98746279Y-109478541D01*
X98740869Y-109478659D01*
X98719131Y-109478659D01*
X98713721Y-109478541D01*
X98702821Y-109478065D01*
X98697423Y-109477711D01*
X98590060Y-109468317D01*
X98066432Y-109468317D01*
X98023103Y-109334963D01*
X97831857Y-109245783D01*
X97827014Y-109243395D01*
X97817340Y-109238360D01*
X97812589Y-109235754D01*
X97793763Y-109224885D01*
X97789139Y-109222079D01*
X97779934Y-109216215D01*
X97775433Y-109213208D01*
X97693329Y-109155717D01*
X97176186Y-109323748D01*
X95285656Y-109323748D01*
X95253240Y-109223980D01*
X95249395Y-109221647D01*
X95240189Y-109215783D01*
X95235683Y-109212772D01*
X95024378Y-109064812D01*
X95020020Y-109061618D01*
X95011367Y-109054979D01*
X95007146Y-109051590D01*
X94990494Y-109037618D01*
X94986423Y-109034048D01*
X94978377Y-109026675D01*
X94974470Y-109022935D01*
X94920354Y-108968819D01*
X94865858Y-109023317D01*
X94861947Y-109027060D01*
X94853907Y-109034427D01*
X94849846Y-109037989D01*
X94833194Y-109051963D01*
X94828970Y-109055353D01*
X94820310Y-109061998D01*
X94815948Y-109065197D01*
X94604567Y-109213208D01*
X94600066Y-109216215D01*
X94590861Y-109222079D01*
X94586237Y-109224885D01*
X94567411Y-109235754D01*
X94562660Y-109238360D01*
X94552986Y-109243395D01*
X94548142Y-109245783D01*
X94434299Y-109298868D01*
X91176870Y-109298868D01*
X90983747Y-108704496D01*
X91002975Y-108973342D01*
X91003212Y-108977756D01*
X91003531Y-108986676D01*
X91003610Y-108991108D01*
X91003610Y-109008892D01*
X91003531Y-109013324D01*
X91003212Y-109022244D01*
X91002975Y-109026658D01*
X90981293Y-109329819D01*
X90980899Y-109334225D01*
X90979946Y-109343091D01*
X90979395Y-109347480D01*
X90976865Y-109365083D01*
X90976157Y-109369453D01*
X90974571Y-109378246D01*
X90973706Y-109382593D01*
X90958271Y-109453542D01*
X90448625Y-109453542D01*
X90485195Y-109285433D01*
X90485195Y-109285432D01*
X90485196Y-109285428D01*
X90505610Y-109000000D01*
X90504124Y-108979229D01*
X90498346Y-108898433D01*
X90485196Y-108714572D01*
X90474084Y-108663493D01*
X90429359Y-108457890D01*
X91427248Y-108457890D01*
X91675079Y-109220637D01*
X92396922Y-108986096D01*
X92251683Y-108840857D01*
X92247940Y-108836947D01*
X92240573Y-108828907D01*
X92237011Y-108824846D01*
X92223037Y-108808194D01*
X92219647Y-108803970D01*
X92213002Y-108795310D01*
X92209803Y-108790948D01*
X92061792Y-108579567D01*
X92058785Y-108575066D01*
X92052921Y-108565861D01*
X92050115Y-108561237D01*
X92039246Y-108542411D01*
X92036640Y-108537660D01*
X92031605Y-108527986D01*
X92029217Y-108523143D01*
X91923586Y-108296620D01*
X91427248Y-108457890D01*
X90429359Y-108457890D01*
X90424371Y-108434962D01*
X90424370Y-108434960D01*
X90424369Y-108434954D01*
X90324367Y-108166839D01*
X90286249Y-108097032D01*
X90187229Y-107915690D01*
X90187224Y-107915682D01*
X90015745Y-107686612D01*
X90015729Y-107686594D01*
X89813405Y-107484270D01*
X89813387Y-107484254D01*
X89584317Y-107312775D01*
X89584309Y-107312770D01*
X89417190Y-107221516D01*
X91025526Y-107221516D01*
X91273357Y-107984263D01*
X91810598Y-107809703D01*
X91797289Y-107657576D01*
X91796935Y-107652179D01*
X91796459Y-107641279D01*
X91796341Y-107635869D01*
X91796341Y-107614131D01*
X91796459Y-107608721D01*
X91796935Y-107597821D01*
X91797289Y-107592423D01*
X91819780Y-107335360D01*
X91820368Y-107329990D01*
X91821791Y-107319176D01*
X91822615Y-107313820D01*
X91826390Y-107292413D01*
X91827444Y-107287116D01*
X91829805Y-107276463D01*
X91831092Y-107271201D01*
X91855429Y-107180369D01*
X91788274Y-106973685D01*
X91025526Y-107221516D01*
X89417190Y-107221516D01*
X89333166Y-107175635D01*
X89333167Y-107175635D01*
X89191414Y-107122764D01*
X89065046Y-107075631D01*
X89065043Y-107075630D01*
X89065037Y-107075628D01*
X88785433Y-107014804D01*
X88500001Y-106994390D01*
X88499999Y-106994390D01*
X88214566Y-107014804D01*
X87934962Y-107075628D01*
X87666833Y-107175635D01*
X87415690Y-107312770D01*
X87415682Y-107312775D01*
X87186612Y-107484254D01*
X87186594Y-107484270D01*
X86984270Y-107686594D01*
X86984254Y-107686612D01*
X86812775Y-107915682D01*
X86812770Y-107915690D01*
X86675635Y-108166833D01*
X86575628Y-108434962D01*
X86514804Y-108714566D01*
X86494390Y-108999998D01*
X86000613Y-108999998D01*
X86000500Y-108996249D01*
X86000500Y-106265133D01*
X86614075Y-106265133D01*
X86760792Y-106716683D01*
X87518698Y-106470425D01*
X87492577Y-106472711D01*
X87487179Y-106473065D01*
X87476279Y-106473541D01*
X87470869Y-106473659D01*
X87449131Y-106473659D01*
X87443721Y-106473541D01*
X87432821Y-106473065D01*
X87427423Y-106472711D01*
X87170360Y-106450220D01*
X87164990Y-106449632D01*
X87154176Y-106448209D01*
X87148820Y-106447385D01*
X87127413Y-106443610D01*
X87122116Y-106442556D01*
X87111463Y-106440195D01*
X87106201Y-106438908D01*
X86911971Y-106386865D01*
X89387430Y-106386865D01*
X89490027Y-106702628D01*
X89515523Y-106712138D01*
X89519640Y-106713758D01*
X89527880Y-106717171D01*
X89531936Y-106718937D01*
X89548113Y-106726324D01*
X89552105Y-106728233D01*
X89560093Y-106732231D01*
X89564021Y-106734286D01*
X89830788Y-106879953D01*
X89834635Y-106882144D01*
X89842317Y-106886702D01*
X89846090Y-106889032D01*
X89861049Y-106898647D01*
X89864720Y-106901100D01*
X89872047Y-106906187D01*
X89875639Y-106908778D01*
X90027226Y-107022255D01*
X90398009Y-106901781D01*
X90252348Y-106453482D01*
X90032577Y-106472711D01*
X90027179Y-106473065D01*
X90016279Y-106473541D01*
X90010869Y-106473659D01*
X89989131Y-106473659D01*
X89983721Y-106473541D01*
X89972821Y-106473065D01*
X89967423Y-106472711D01*
X89710360Y-106450220D01*
X89704990Y-106449632D01*
X89694176Y-106448209D01*
X89688820Y-106447385D01*
X89667413Y-106443610D01*
X89662116Y-106442556D01*
X89651463Y-106440195D01*
X89646201Y-106438908D01*
X89416600Y-106377387D01*
X89387430Y-106386865D01*
X86911971Y-106386865D01*
X86856945Y-106372121D01*
X86851749Y-106370607D01*
X86841337Y-106367324D01*
X86836210Y-106365583D01*
X86815783Y-106358147D01*
X86810744Y-106356187D01*
X86800670Y-106352014D01*
X86795720Y-106349836D01*
X86727965Y-106318241D01*
X90732033Y-106318241D01*
X90871635Y-106747890D01*
X91634382Y-106500059D01*
X91413262Y-105819520D01*
X91412989Y-105819846D01*
X91409427Y-105823907D01*
X91402060Y-105831947D01*
X91398317Y-105835857D01*
X91215857Y-106018317D01*
X91211947Y-106022060D01*
X91203907Y-106029427D01*
X91199846Y-106032989D01*
X91183194Y-106046963D01*
X91178970Y-106050353D01*
X91170310Y-106056998D01*
X91165948Y-106060197D01*
X90954567Y-106208208D01*
X90950066Y-106211215D01*
X90940861Y-106217079D01*
X90936237Y-106219885D01*
X90917411Y-106230754D01*
X90912660Y-106233360D01*
X90902986Y-106238395D01*
X90898143Y-106240783D01*
X90732033Y-106318241D01*
X86727965Y-106318241D01*
X86614075Y-106265133D01*
X86000500Y-106265133D01*
X86000500Y-105244975D01*
X86020185Y-105177936D01*
X86072989Y-105132181D01*
X86142147Y-105122237D01*
X86205703Y-105151262D01*
X86236882Y-105192571D01*
X86285963Y-105297826D01*
X86285967Y-105297834D01*
X86394281Y-105452521D01*
X86421505Y-105491401D01*
X86588599Y-105658495D01*
X86674295Y-105718500D01*
X86782165Y-105794032D01*
X86782167Y-105794033D01*
X86782170Y-105794035D01*
X86996337Y-105893903D01*
X87224592Y-105955063D01*
X87412918Y-105971539D01*
X87459999Y-105975659D01*
X87460000Y-105975659D01*
X87460001Y-105975659D01*
X87499234Y-105972226D01*
X87695408Y-105955063D01*
X87923663Y-105893903D01*
X88137830Y-105794035D01*
X88331401Y-105658495D01*
X88498495Y-105491401D01*
X88628425Y-105305842D01*
X88683002Y-105262217D01*
X88752500Y-105255023D01*
X88814855Y-105286546D01*
X88831575Y-105305842D01*
X88961500Y-105491395D01*
X88961505Y-105491401D01*
X89128599Y-105658495D01*
X89214295Y-105718500D01*
X89322165Y-105794032D01*
X89322167Y-105794033D01*
X89322170Y-105794035D01*
X89536337Y-105893903D01*
X89764592Y-105955063D01*
X89952918Y-105971539D01*
X89999999Y-105975659D01*
X90000000Y-105975659D01*
X90000001Y-105975659D01*
X90039234Y-105972226D01*
X90235408Y-105955063D01*
X90463663Y-105893903D01*
X90677830Y-105794035D01*
X90785705Y-105718500D01*
X91904067Y-105718500D01*
X92108008Y-106346168D01*
X92151500Y-106332037D01*
X92151500Y-105718500D01*
X91904067Y-105718500D01*
X90785705Y-105718500D01*
X90871401Y-105658495D01*
X91038495Y-105491401D01*
X91174035Y-105297830D01*
X91176707Y-105292097D01*
X91222878Y-105239658D01*
X91289091Y-105220500D01*
X92525500Y-105220500D01*
X92592539Y-105240185D01*
X92638294Y-105292989D01*
X92649500Y-105344500D01*
X92649500Y-106664241D01*
X92629815Y-106731280D01*
X92613181Y-106751922D01*
X92611505Y-106753597D01*
X92475965Y-106947169D01*
X92475964Y-106947171D01*
X92376098Y-107161335D01*
X92376094Y-107161344D01*
X92314938Y-107389586D01*
X92314936Y-107389596D01*
X92294341Y-107624999D01*
X92294341Y-107625000D01*
X92314936Y-107860403D01*
X92314938Y-107860413D01*
X92376094Y-108088655D01*
X92376096Y-108088659D01*
X92376097Y-108088663D01*
X92455801Y-108259588D01*
X92475965Y-108302830D01*
X92475967Y-108302834D01*
X92568479Y-108434954D01*
X92611505Y-108496401D01*
X92778599Y-108663495D01*
X92858765Y-108719628D01*
X92972165Y-108799032D01*
X92972167Y-108799033D01*
X92972170Y-108799035D01*
X93186337Y-108898903D01*
X93414592Y-108960063D01*
X93591034Y-108975500D01*
X93649999Y-108980659D01*
X93650000Y-108980659D01*
X93650001Y-108980659D01*
X93708966Y-108975500D01*
X93885408Y-108960063D01*
X94113663Y-108898903D01*
X94327830Y-108799035D01*
X94521401Y-108663495D01*
X94688495Y-108496401D01*
X94818730Y-108310405D01*
X94873307Y-108266781D01*
X94942805Y-108259587D01*
X95005160Y-108291110D01*
X95021879Y-108310405D01*
X95151890Y-108496078D01*
X95318917Y-108663105D01*
X95512421Y-108798600D01*
X95726507Y-108898429D01*
X95726516Y-108898433D01*
X95940000Y-108955634D01*
X95940000Y-108058012D01*
X95997007Y-108090925D01*
X96124174Y-108125000D01*
X96255826Y-108125000D01*
X96382993Y-108090925D01*
X96440000Y-108058012D01*
X96440000Y-108955633D01*
X96653483Y-108898433D01*
X96653492Y-108898429D01*
X96867578Y-108798600D01*
X97061082Y-108663105D01*
X97228105Y-108496082D01*
X97358119Y-108310405D01*
X97412696Y-108266781D01*
X97482195Y-108259588D01*
X97544549Y-108291110D01*
X97561269Y-108310405D01*
X97691505Y-108496401D01*
X97858599Y-108663495D01*
X97938765Y-108719628D01*
X98052165Y-108799032D01*
X98052167Y-108799033D01*
X98052170Y-108799035D01*
X98266337Y-108898903D01*
X98494592Y-108960063D01*
X98671034Y-108975500D01*
X98729999Y-108980659D01*
X98730000Y-108980659D01*
X98730001Y-108980659D01*
X98788966Y-108975500D01*
X98965408Y-108960063D01*
X99193663Y-108898903D01*
X99407830Y-108799035D01*
X99601401Y-108663495D01*
X99768495Y-108496401D01*
X99898425Y-108310842D01*
X99953002Y-108267217D01*
X100022500Y-108260023D01*
X100084855Y-108291546D01*
X100101575Y-108310842D01*
X100231500Y-108496395D01*
X100231505Y-108496401D01*
X100398599Y-108663495D01*
X100478765Y-108719628D01*
X100592165Y-108799032D01*
X100592167Y-108799033D01*
X100592170Y-108799035D01*
X100806337Y-108898903D01*
X101034592Y-108960063D01*
X101211034Y-108975500D01*
X101269999Y-108980659D01*
X101270000Y-108980659D01*
X101270001Y-108980659D01*
X101302758Y-108977793D01*
X102531381Y-108977793D01*
X102771233Y-109715981D01*
X103519623Y-109472815D01*
X105426025Y-109472815D01*
X105645702Y-110148910D01*
X106408450Y-109901079D01*
X106381811Y-109819092D01*
X108272340Y-109819092D01*
X108520171Y-110581839D01*
X109282919Y-110334008D01*
X109035088Y-109571261D01*
X108272340Y-109819092D01*
X106381811Y-109819092D01*
X106269520Y-109473499D01*
X106793149Y-109473499D01*
X106882076Y-109747188D01*
X107644823Y-109499357D01*
X107608721Y-109388247D01*
X107466927Y-109441134D01*
X107459587Y-109443613D01*
X107444636Y-109448148D01*
X107437160Y-109450163D01*
X107406856Y-109457324D01*
X107399265Y-109458870D01*
X107383863Y-109461507D01*
X107376190Y-109462575D01*
X107294466Y-109471360D01*
X107291151Y-109471671D01*
X107284472Y-109472208D01*
X107281165Y-109472430D01*
X107267851Y-109473143D01*
X107264540Y-109473276D01*
X107257856Y-109473455D01*
X107254536Y-109473499D01*
X106793149Y-109473499D01*
X106269520Y-109473499D01*
X105445455Y-109473500D01*
X105442125Y-109473455D01*
X105435424Y-109473275D01*
X105432115Y-109473142D01*
X105426025Y-109472815D01*
X103519623Y-109472815D01*
X103533980Y-109468150D01*
X103530055Y-109456068D01*
X103520361Y-109455220D01*
X103514990Y-109454632D01*
X103504176Y-109453209D01*
X103498820Y-109452385D01*
X103477413Y-109448610D01*
X103472116Y-109447556D01*
X103461463Y-109445195D01*
X103456201Y-109443908D01*
X103206945Y-109377121D01*
X103201749Y-109375607D01*
X103191337Y-109372324D01*
X103186210Y-109370583D01*
X103165783Y-109363147D01*
X103160744Y-109361187D01*
X103150670Y-109357014D01*
X103145720Y-109354836D01*
X102911857Y-109245783D01*
X102907014Y-109243395D01*
X102897340Y-109238360D01*
X102892589Y-109235754D01*
X102873763Y-109224885D01*
X102869139Y-109222079D01*
X102859934Y-109216215D01*
X102855433Y-109213208D01*
X102644052Y-109065197D01*
X102639690Y-109061998D01*
X102631030Y-109055353D01*
X102626806Y-109051963D01*
X102618245Y-109044779D01*
X108020750Y-109044779D01*
X108118449Y-109345466D01*
X108881197Y-109097635D01*
X108849473Y-108999998D01*
X109494390Y-108999998D01*
X109494390Y-109000001D01*
X109514804Y-109285433D01*
X109575628Y-109565037D01*
X109575630Y-109565043D01*
X109575631Y-109565046D01*
X109623827Y-109694263D01*
X109675635Y-109833166D01*
X109812770Y-110084309D01*
X109812775Y-110084317D01*
X109984254Y-110313387D01*
X109984270Y-110313405D01*
X110186594Y-110515729D01*
X110186612Y-110515745D01*
X110415682Y-110687224D01*
X110415690Y-110687229D01*
X110666833Y-110824364D01*
X110666832Y-110824364D01*
X110666836Y-110824365D01*
X110666839Y-110824367D01*
X110934954Y-110924369D01*
X110934960Y-110924370D01*
X110934962Y-110924371D01*
X111214566Y-110985195D01*
X111214568Y-110985195D01*
X111214572Y-110985196D01*
X111468220Y-111003337D01*
X111499999Y-111005610D01*
X111500000Y-111005610D01*
X111500001Y-111005610D01*
X111528595Y-111003564D01*
X111785428Y-110985196D01*
X111792940Y-110983562D01*
X112065037Y-110924371D01*
X112065037Y-110924370D01*
X112065046Y-110924369D01*
X112333161Y-110824367D01*
X112584315Y-110687226D01*
X112813395Y-110515739D01*
X113015739Y-110313395D01*
X113187226Y-110084315D01*
X113324367Y-109833161D01*
X113424369Y-109565046D01*
X113446660Y-109462575D01*
X113485195Y-109285433D01*
X113485195Y-109285432D01*
X113485196Y-109285428D01*
X113505610Y-109000000D01*
X113504124Y-108979229D01*
X113498346Y-108898433D01*
X113485196Y-108714572D01*
X113474084Y-108663493D01*
X113424371Y-108434962D01*
X113424370Y-108434960D01*
X113424369Y-108434954D01*
X113324367Y-108166839D01*
X113286249Y-108097032D01*
X113187229Y-107915690D01*
X113187224Y-107915682D01*
X113015745Y-107686612D01*
X113015729Y-107686594D01*
X112813405Y-107484270D01*
X112813387Y-107484254D01*
X112584317Y-107312775D01*
X112584309Y-107312770D01*
X112333166Y-107175635D01*
X112333167Y-107175635D01*
X112191414Y-107122764D01*
X112065046Y-107075631D01*
X112065043Y-107075630D01*
X112065037Y-107075628D01*
X111785433Y-107014804D01*
X111500001Y-106994390D01*
X111499999Y-106994390D01*
X111214566Y-107014804D01*
X110934962Y-107075628D01*
X110666833Y-107175635D01*
X110415690Y-107312770D01*
X110415682Y-107312775D01*
X110186612Y-107484254D01*
X110186594Y-107484270D01*
X109984270Y-107686594D01*
X109984254Y-107686612D01*
X109812775Y-107915682D01*
X109812770Y-107915690D01*
X109675635Y-108166833D01*
X109575628Y-108434962D01*
X109514804Y-108714566D01*
X109494390Y-108999998D01*
X108849473Y-108999998D01*
X108633365Y-108334887D01*
X108198499Y-108476183D01*
X108198500Y-108529544D01*
X108198455Y-108532875D01*
X108198275Y-108539576D01*
X108198142Y-108542885D01*
X108197428Y-108556202D01*
X108197205Y-108559521D01*
X108196668Y-108566186D01*
X108196359Y-108569483D01*
X108187574Y-108651195D01*
X108186506Y-108658866D01*
X108183870Y-108674262D01*
X108182325Y-108681851D01*
X108175165Y-108712152D01*
X108173150Y-108719628D01*
X108168614Y-108734583D01*
X108166134Y-108741925D01*
X108104178Y-108908039D01*
X108100790Y-108916218D01*
X108093371Y-108932463D01*
X108089408Y-108940379D01*
X108072348Y-108971621D01*
X108067835Y-108979229D01*
X108058181Y-108994252D01*
X108053129Y-109001528D01*
X108020750Y-109044779D01*
X102618245Y-109044779D01*
X102610154Y-109037989D01*
X102606093Y-109034427D01*
X102598053Y-109027060D01*
X102594143Y-109023317D01*
X102540000Y-108969174D01*
X102531381Y-108977793D01*
X101302758Y-108977793D01*
X101328966Y-108975500D01*
X101505408Y-108960063D01*
X101733663Y-108898903D01*
X101947830Y-108799035D01*
X102141401Y-108663495D01*
X102308495Y-108496401D01*
X102438425Y-108310842D01*
X102493002Y-108267217D01*
X102562500Y-108260023D01*
X102624855Y-108291546D01*
X102641575Y-108310842D01*
X102771500Y-108496395D01*
X102771505Y-108496401D01*
X102938599Y-108663495D01*
X103018765Y-108719628D01*
X103132165Y-108799032D01*
X103132167Y-108799033D01*
X103132170Y-108799035D01*
X103346337Y-108898903D01*
X103574592Y-108960063D01*
X103751034Y-108975500D01*
X103809999Y-108980659D01*
X103810000Y-108980659D01*
X103810001Y-108980659D01*
X103868966Y-108975500D01*
X104045408Y-108960063D01*
X104273663Y-108898903D01*
X104487830Y-108799035D01*
X104681401Y-108663495D01*
X104803329Y-108541566D01*
X104864648Y-108508084D01*
X104934340Y-108513068D01*
X104990274Y-108554939D01*
X105007189Y-108585917D01*
X105056202Y-108717328D01*
X105056206Y-108717335D01*
X105142452Y-108832544D01*
X105142455Y-108832547D01*
X105257664Y-108918793D01*
X105257671Y-108918797D01*
X105392517Y-108969091D01*
X105392516Y-108969091D01*
X105399444Y-108969835D01*
X105452127Y-108975500D01*
X107247872Y-108975499D01*
X107307483Y-108969091D01*
X107442331Y-108918796D01*
X107557546Y-108832546D01*
X107643796Y-108717331D01*
X107694091Y-108582483D01*
X107700500Y-108522873D01*
X107700499Y-107109283D01*
X108198499Y-107109283D01*
X108198499Y-107952554D01*
X108479474Y-107861260D01*
X108231643Y-107098513D01*
X108198499Y-107109283D01*
X107700499Y-107109283D01*
X107700499Y-106944623D01*
X108705270Y-106944623D01*
X108953101Y-107707370D01*
X109473122Y-107538405D01*
X109590919Y-107381048D01*
X109593627Y-107377562D01*
X109599225Y-107370614D01*
X109602068Y-107367212D01*
X109613713Y-107353772D01*
X109616679Y-107350470D01*
X109622764Y-107343935D01*
X109625832Y-107340755D01*
X109664642Y-107301943D01*
X109468017Y-106696792D01*
X108705270Y-106944623D01*
X107700499Y-106944623D01*
X107700499Y-106727128D01*
X107694091Y-106667517D01*
X107692869Y-106664241D01*
X107647613Y-106542901D01*
X109941643Y-106542901D01*
X110073013Y-106947216D01*
X110079917Y-106942048D01*
X112920083Y-106942048D01*
X113118951Y-107090919D01*
X113122438Y-107093627D01*
X113129386Y-107099225D01*
X113132788Y-107102068D01*
X113146228Y-107113713D01*
X113149530Y-107116679D01*
X113156065Y-107122764D01*
X113159245Y-107125833D01*
X113374167Y-107340755D01*
X113377236Y-107343935D01*
X113383321Y-107350470D01*
X113386287Y-107353772D01*
X113397932Y-107367212D01*
X113400775Y-107370614D01*
X113406373Y-107377562D01*
X113409081Y-107381049D01*
X113501500Y-107504506D01*
X113501500Y-106753134D01*
X112920083Y-106942048D01*
X110079917Y-106942048D01*
X110124361Y-106908778D01*
X110127953Y-106906187D01*
X110135280Y-106901100D01*
X110138951Y-106898647D01*
X110153910Y-106889032D01*
X110157683Y-106886702D01*
X110165365Y-106882144D01*
X110169212Y-106879953D01*
X110435979Y-106734286D01*
X110439907Y-106732231D01*
X110447895Y-106728233D01*
X110451887Y-106726324D01*
X110468064Y-106718937D01*
X110472120Y-106717171D01*
X110480360Y-106713758D01*
X110484478Y-106712138D01*
X110769248Y-106605925D01*
X110773415Y-106604455D01*
X110781874Y-106601639D01*
X110786091Y-106600318D01*
X110802047Y-106595630D01*
X110714565Y-106326387D01*
X110664281Y-106349836D01*
X110659330Y-106352014D01*
X110649256Y-106356187D01*
X110644217Y-106358147D01*
X110623790Y-106365583D01*
X110618663Y-106367324D01*
X110608251Y-106370607D01*
X110603055Y-106372121D01*
X110353799Y-106438908D01*
X110348537Y-106440195D01*
X110337884Y-106442556D01*
X110332587Y-106443610D01*
X110311180Y-106447385D01*
X110305824Y-106448209D01*
X110295010Y-106449632D01*
X110289639Y-106450220D01*
X110203763Y-106457732D01*
X109941643Y-106542901D01*
X107647613Y-106542901D01*
X107643797Y-106532671D01*
X107643793Y-106532664D01*
X107557547Y-106417455D01*
X107557544Y-106417452D01*
X107442335Y-106331206D01*
X107442328Y-106331202D01*
X107307482Y-106280908D01*
X107307483Y-106280908D01*
X107247883Y-106274501D01*
X107247881Y-106274500D01*
X107247873Y-106274500D01*
X107247864Y-106274500D01*
X105452129Y-106274500D01*
X105452123Y-106274501D01*
X105392516Y-106280908D01*
X105257671Y-106331202D01*
X105257664Y-106331206D01*
X105142455Y-106417452D01*
X105142452Y-106417455D01*
X105056206Y-106532664D01*
X105056203Y-106532669D01*
X105007189Y-106664083D01*
X104965317Y-106720016D01*
X104899853Y-106744433D01*
X104831580Y-106729581D01*
X104803326Y-106708430D01*
X104681402Y-106586506D01*
X104681395Y-106586501D01*
X104487834Y-106450967D01*
X104487830Y-106450965D01*
X104286069Y-106356882D01*
X104233630Y-106310710D01*
X104214478Y-106243516D01*
X104234694Y-106176635D01*
X104287859Y-106131300D01*
X104338474Y-106120500D01*
X104428097Y-106120500D01*
X104661368Y-106083553D01*
X104696912Y-106072004D01*
X104885992Y-106010568D01*
X105096433Y-105903343D01*
X105287510Y-105764517D01*
X105333527Y-105718500D01*
X108306878Y-105718500D01*
X108551378Y-106470997D01*
X109166760Y-106271048D01*
X109101857Y-106240783D01*
X109097014Y-106238395D01*
X109087340Y-106233360D01*
X109082589Y-106230754D01*
X109063763Y-106219885D01*
X109059139Y-106217079D01*
X109049934Y-106211215D01*
X109045433Y-106208208D01*
X108949706Y-106141179D01*
X111178016Y-106141179D01*
X111297718Y-106509584D01*
X111473343Y-106497025D01*
X111477756Y-106496788D01*
X111486676Y-106496469D01*
X111491108Y-106496390D01*
X111508892Y-106496390D01*
X111513324Y-106496469D01*
X111522244Y-106496788D01*
X111526658Y-106497025D01*
X111829819Y-106518707D01*
X111834225Y-106519101D01*
X111843091Y-106520054D01*
X111847480Y-106520605D01*
X111865083Y-106523135D01*
X111869453Y-106523843D01*
X111878246Y-106525429D01*
X111882593Y-106526294D01*
X112166487Y-106588051D01*
X112111526Y-106418898D01*
X111936945Y-106372121D01*
X111931749Y-106370607D01*
X111921337Y-106367324D01*
X111916210Y-106365583D01*
X111895783Y-106358147D01*
X111890744Y-106356187D01*
X111880670Y-106352014D01*
X111875720Y-106349836D01*
X111641857Y-106240783D01*
X111637014Y-106238395D01*
X111627340Y-106233360D01*
X111622589Y-106230754D01*
X111603763Y-106219885D01*
X111599139Y-106217079D01*
X111589934Y-106211215D01*
X111585433Y-106208208D01*
X111390915Y-106072004D01*
X111178016Y-106141179D01*
X108949706Y-106141179D01*
X108834052Y-106060197D01*
X108829690Y-106056998D01*
X108821030Y-106050353D01*
X108816806Y-106046963D01*
X108800154Y-106032989D01*
X108796093Y-106029427D01*
X108788053Y-106022060D01*
X108784143Y-106018317D01*
X108601683Y-105835857D01*
X108597940Y-105831947D01*
X108590573Y-105823907D01*
X108587011Y-105819846D01*
X108573037Y-105803194D01*
X108569647Y-105798970D01*
X108563002Y-105790310D01*
X108559803Y-105785948D01*
X108512575Y-105718500D01*
X108306878Y-105718500D01*
X105333527Y-105718500D01*
X105454517Y-105597510D01*
X105593343Y-105406433D01*
X105653583Y-105288204D01*
X105701558Y-105237409D01*
X105764068Y-105220500D01*
X108710909Y-105220500D01*
X108777948Y-105240185D01*
X108823292Y-105292097D01*
X108825965Y-105297830D01*
X108961505Y-105491401D01*
X109128599Y-105658495D01*
X109214295Y-105718500D01*
X109322165Y-105794032D01*
X109322167Y-105794033D01*
X109322170Y-105794035D01*
X109536337Y-105893903D01*
X109764592Y-105955063D01*
X109952918Y-105971539D01*
X109999999Y-105975659D01*
X110000000Y-105975659D01*
X110000001Y-105975659D01*
X110039234Y-105972226D01*
X110235408Y-105955063D01*
X110463663Y-105893903D01*
X110677830Y-105794035D01*
X110871401Y-105658495D01*
X111038495Y-105491401D01*
X111168425Y-105305842D01*
X111223002Y-105262217D01*
X111292500Y-105255023D01*
X111354855Y-105286546D01*
X111371575Y-105305842D01*
X111501500Y-105491395D01*
X111501505Y-105491401D01*
X111668599Y-105658495D01*
X111754295Y-105718500D01*
X111862165Y-105794032D01*
X111862167Y-105794033D01*
X111862170Y-105794035D01*
X112076337Y-105893903D01*
X112304592Y-105955063D01*
X112492918Y-105971539D01*
X112539999Y-105975659D01*
X112540000Y-105975659D01*
X112540001Y-105975659D01*
X112579234Y-105972226D01*
X112775408Y-105955063D01*
X113003663Y-105893903D01*
X113217830Y-105794035D01*
X113411401Y-105658495D01*
X113578495Y-105491401D01*
X113714035Y-105297830D01*
X113763118Y-105192570D01*
X113809290Y-105140131D01*
X113876483Y-105120979D01*
X113943365Y-105141195D01*
G37*
%TD.AperFunction*%
%TA.AperFunction,Conductor*%
G36*
X101390084Y-95830184D02*
G01*
X101435839Y-95882988D01*
X101445783Y-95952146D01*
X101442823Y-95966577D01*
X101409499Y-96090943D01*
X101409499Y-96090945D01*
X101409499Y-96259046D01*
X101409500Y-96259059D01*
X101409500Y-97653330D01*
X101409499Y-97653348D01*
X101409499Y-97819054D01*
X101409498Y-97819054D01*
X101447510Y-97960917D01*
X101450423Y-97971785D01*
X101467002Y-98000500D01*
X101520020Y-98092331D01*
X101529479Y-98108714D01*
X101529481Y-98108717D01*
X101648349Y-98227585D01*
X101648355Y-98227590D01*
X102013913Y-98593148D01*
X102047398Y-98654471D01*
X102042414Y-98724163D01*
X102028945Y-98749253D01*
X102029203Y-98749412D01*
X102026661Y-98753559D01*
X101919433Y-98964003D01*
X101846446Y-99188631D01*
X101809500Y-99421902D01*
X101809500Y-99658097D01*
X101846446Y-99891368D01*
X101919433Y-100115996D01*
X102026656Y-100326431D01*
X102029200Y-100330582D01*
X102028284Y-100331142D01*
X102050029Y-100392102D01*
X102034198Y-100460154D01*
X102013912Y-100486851D01*
X100901286Y-101599478D01*
X100789481Y-101711282D01*
X100789480Y-101711284D01*
X100745093Y-101788165D01*
X100710423Y-101848215D01*
X100669499Y-102000943D01*
X100669499Y-102000945D01*
X100669499Y-102169046D01*
X100669500Y-102169059D01*
X100669500Y-106335908D01*
X100649815Y-106402947D01*
X100597914Y-106448286D01*
X100592173Y-106450963D01*
X100592169Y-106450965D01*
X100398597Y-106586505D01*
X100231505Y-106753597D01*
X100101575Y-106939158D01*
X100046998Y-106982783D01*
X99977500Y-106989977D01*
X99915145Y-106958454D01*
X99898425Y-106939158D01*
X99768494Y-106753597D01*
X99601402Y-106586506D01*
X99601395Y-106586501D01*
X99407834Y-106450967D01*
X99407830Y-106450965D01*
X99339062Y-106418898D01*
X99193663Y-106351097D01*
X99193659Y-106351096D01*
X99193655Y-106351094D01*
X98965413Y-106289938D01*
X98965403Y-106289936D01*
X98730001Y-106269341D01*
X98729999Y-106269341D01*
X98494596Y-106289936D01*
X98494586Y-106289938D01*
X98266344Y-106351094D01*
X98266335Y-106351098D01*
X98052171Y-106450964D01*
X98052169Y-106450965D01*
X97858597Y-106586505D01*
X97691508Y-106753594D01*
X97561269Y-106939595D01*
X97506692Y-106983219D01*
X97437193Y-106990412D01*
X97374839Y-106958890D01*
X97358119Y-106939594D01*
X97228113Y-106753926D01*
X97228108Y-106753920D01*
X97061082Y-106586894D01*
X96867578Y-106451399D01*
X96664884Y-106356882D01*
X96612445Y-106310710D01*
X96593293Y-106243516D01*
X96613509Y-106176635D01*
X96666674Y-106131301D01*
X96717289Y-106120500D01*
X96808097Y-106120500D01*
X97041368Y-106083553D01*
X97076912Y-106072004D01*
X97265992Y-106010568D01*
X97476433Y-105903343D01*
X97667510Y-105764517D01*
X97834517Y-105597510D01*
X97973343Y-105406433D01*
X98052814Y-105250462D01*
X98586497Y-105250462D01*
X98691598Y-105573931D01*
X99454345Y-105326100D01*
X99206514Y-104563353D01*
X98688500Y-104731666D01*
X98688500Y-104747870D01*
X98688405Y-104752735D01*
X98688020Y-104762540D01*
X98687733Y-104767399D01*
X98686199Y-104786901D01*
X98685723Y-104791740D01*
X98684569Y-104801498D01*
X98683900Y-104806333D01*
X98643892Y-105058929D01*
X98643036Y-105063725D01*
X98641122Y-105073346D01*
X98640082Y-105078087D01*
X98635517Y-105097110D01*
X98634284Y-105101834D01*
X98631616Y-105111294D01*
X98630203Y-105115954D01*
X98586497Y-105250462D01*
X98052814Y-105250462D01*
X98080568Y-105195992D01*
X98153553Y-104971368D01*
X98190500Y-104738097D01*
X98190500Y-104501902D01*
X98175859Y-104409461D01*
X99680140Y-104409461D01*
X99927971Y-105172209D01*
X100171500Y-105093082D01*
X100171500Y-104249809D01*
X99680140Y-104409461D01*
X98175859Y-104409461D01*
X98153553Y-104268631D01*
X98086434Y-104062063D01*
X98080568Y-104044008D01*
X98080566Y-104044005D01*
X98080566Y-104044003D01*
X97995075Y-103876219D01*
X97973343Y-103833567D01*
X97834517Y-103642490D01*
X97672504Y-103480477D01*
X98332370Y-103480477D01*
X98381983Y-103548764D01*
X98384765Y-103552755D01*
X98390221Y-103560920D01*
X98392850Y-103565027D01*
X98403071Y-103581707D01*
X98405533Y-103585907D01*
X98410330Y-103594473D01*
X98412624Y-103598765D01*
X98528732Y-103826639D01*
X98530856Y-103831020D01*
X98534971Y-103839946D01*
X98536928Y-103844419D01*
X98544412Y-103862492D01*
X98546182Y-103867016D01*
X98549577Y-103876219D01*
X98551172Y-103880817D01*
X98630203Y-104124046D01*
X98631616Y-104128706D01*
X98634284Y-104138166D01*
X98635517Y-104142890D01*
X98640082Y-104161913D01*
X98641122Y-104166654D01*
X98643036Y-104176275D01*
X98643892Y-104181071D01*
X98650137Y-104220501D01*
X99012994Y-104102603D01*
X98927668Y-104027010D01*
X98907846Y-104004636D01*
X98818177Y-103874730D01*
X98804284Y-103848259D01*
X98748311Y-103700668D01*
X98741157Y-103671645D01*
X98722130Y-103514947D01*
X98722130Y-103485053D01*
X98738717Y-103348447D01*
X98332370Y-103480477D01*
X97672504Y-103480477D01*
X97667510Y-103475483D01*
X97632872Y-103450317D01*
X97590207Y-103394989D01*
X97584228Y-103325375D01*
X97616833Y-103263580D01*
X97632873Y-103249682D01*
X97667510Y-103224517D01*
X97834517Y-103057510D01*
X97973343Y-102866433D01*
X98080568Y-102655992D01*
X98153553Y-102431368D01*
X98190500Y-102198097D01*
X98190500Y-101961902D01*
X98186511Y-101936715D01*
X98876696Y-101936715D01*
X99124527Y-102699462D01*
X99887275Y-102451631D01*
X99639444Y-101688884D01*
X98876696Y-101936715D01*
X98186511Y-101936715D01*
X98153553Y-101728631D01*
X98086434Y-101522063D01*
X98080568Y-101504008D01*
X98080566Y-101504005D01*
X98080566Y-101504003D01*
X97973342Y-101293566D01*
X97834517Y-101102490D01*
X97667510Y-100935483D01*
X97632872Y-100910317D01*
X97590207Y-100854989D01*
X97584228Y-100785375D01*
X97616833Y-100723580D01*
X97632873Y-100709682D01*
X97645730Y-100700341D01*
X98474974Y-100700341D01*
X98722805Y-101463089D01*
X99485553Y-101215258D01*
X99237722Y-100452510D01*
X98474974Y-100700341D01*
X97645730Y-100700341D01*
X97667510Y-100684517D01*
X97834517Y-100517510D01*
X97973343Y-100326433D01*
X97987515Y-100298619D01*
X99711348Y-100298619D01*
X99959179Y-101061366D01*
X100721926Y-100813535D01*
X100474095Y-100050788D01*
X99711348Y-100298619D01*
X97987515Y-100298619D01*
X98033583Y-100208206D01*
X98081558Y-100157410D01*
X98144068Y-100140501D01*
X98289054Y-100140501D01*
X98289057Y-100140501D01*
X98441785Y-100099577D01*
X98491904Y-100070639D01*
X98578716Y-100020520D01*
X98690520Y-99908716D01*
X98690520Y-99908714D01*
X98700728Y-99898507D01*
X98700730Y-99898504D01*
X98702337Y-99896897D01*
X100947721Y-99896897D01*
X101181154Y-100615329D01*
X101468626Y-100327857D01*
X101465029Y-100320054D01*
X101463072Y-100315581D01*
X101455588Y-100297508D01*
X101453818Y-100292984D01*
X101450423Y-100283781D01*
X101448828Y-100279183D01*
X101369797Y-100035954D01*
X101368384Y-100031294D01*
X101365716Y-100021834D01*
X101364483Y-100017110D01*
X101359918Y-99998087D01*
X101358878Y-99993346D01*
X101356964Y-99983725D01*
X101356108Y-99978929D01*
X101323762Y-99774713D01*
X100947721Y-99896897D01*
X98702337Y-99896897D01*
X98833823Y-99765411D01*
X99538097Y-99765411D01*
X99557456Y-99824993D01*
X100320204Y-99577162D01*
X100174568Y-99128940D01*
X99538097Y-99765411D01*
X98833823Y-99765411D01*
X99865506Y-98733728D01*
X100569784Y-98733728D01*
X100793830Y-99423271D01*
X101332812Y-99248145D01*
X101356108Y-99101070D01*
X101356964Y-99096275D01*
X101358878Y-99086654D01*
X101359918Y-99081913D01*
X101364483Y-99062890D01*
X101365716Y-99058166D01*
X101368384Y-99048706D01*
X101369797Y-99044046D01*
X101441841Y-98822319D01*
X101395172Y-98678685D01*
X101304953Y-98588466D01*
X101304944Y-98588458D01*
X101173214Y-98456728D01*
X100658118Y-98624093D01*
X100653646Y-98631841D01*
X100649360Y-98638733D01*
X100640264Y-98652346D01*
X100635536Y-98658944D01*
X100615675Y-98684826D01*
X100610530Y-98691095D01*
X100599740Y-98703399D01*
X100594191Y-98709323D01*
X100569784Y-98733728D01*
X99865506Y-98733728D01*
X100108506Y-98490728D01*
X100108511Y-98490724D01*
X100118714Y-98480520D01*
X100118716Y-98480520D01*
X100230520Y-98368716D01*
X100295217Y-98256657D01*
X100309577Y-98231785D01*
X100350501Y-98079057D01*
X100350501Y-97920943D01*
X100350501Y-97913348D01*
X100350500Y-97913330D01*
X100350500Y-97195334D01*
X100848500Y-97195334D01*
X100848500Y-97906382D01*
X100848501Y-97906421D01*
X100848501Y-98038606D01*
X100944409Y-98007443D01*
X100924247Y-97932195D01*
X100922405Y-97924296D01*
X100919212Y-97908246D01*
X100917890Y-97900239D01*
X100913631Y-97867895D01*
X100912836Y-97859819D01*
X100911765Y-97843483D01*
X100911499Y-97835371D01*
X100911499Y-97646421D01*
X100911500Y-97646382D01*
X100911500Y-97190093D01*
X100907024Y-97176318D01*
X100848500Y-97195334D01*
X100350500Y-97195334D01*
X100350500Y-95934499D01*
X100370185Y-95867460D01*
X100422989Y-95821705D01*
X100474500Y-95810499D01*
X101323045Y-95810499D01*
X101390084Y-95830184D01*
G37*
%TD.AperFunction*%
%TA.AperFunction,Conductor*%
G36*
X89027843Y-71020185D02*
G01*
X89073598Y-71072989D01*
X89083542Y-71142147D01*
X89054517Y-71205703D01*
X89013209Y-71236881D01*
X89000213Y-71242942D01*
X88822171Y-71325964D01*
X88822169Y-71325965D01*
X88628597Y-71461505D01*
X88461505Y-71628597D01*
X88325965Y-71822169D01*
X88325964Y-71822171D01*
X88226098Y-72036335D01*
X88226094Y-72036344D01*
X88164938Y-72264586D01*
X88164936Y-72264596D01*
X88144341Y-72499999D01*
X88144341Y-72500000D01*
X88164936Y-72735403D01*
X88164938Y-72735413D01*
X88226094Y-72963655D01*
X88226096Y-72963659D01*
X88226097Y-72963663D01*
X88252933Y-73021213D01*
X88325965Y-73177830D01*
X88325967Y-73177834D01*
X88413873Y-73303376D01*
X88461501Y-73371396D01*
X88461506Y-73371402D01*
X88583430Y-73493326D01*
X88616915Y-73554649D01*
X88611931Y-73624341D01*
X88570059Y-73680274D01*
X88539083Y-73697189D01*
X88407669Y-73746203D01*
X88407664Y-73746206D01*
X88292455Y-73832452D01*
X88292452Y-73832455D01*
X88206206Y-73947664D01*
X88206202Y-73947671D01*
X88155908Y-74082517D01*
X88149501Y-74142116D01*
X88149501Y-74142123D01*
X88149500Y-74142135D01*
X88149500Y-75937870D01*
X88149501Y-75937876D01*
X88155908Y-75997483D01*
X88206202Y-76132328D01*
X88206206Y-76132335D01*
X88292452Y-76247544D01*
X88292455Y-76247547D01*
X88407664Y-76333793D01*
X88407671Y-76333797D01*
X88542517Y-76384091D01*
X88542516Y-76384091D01*
X88549444Y-76384835D01*
X88602127Y-76390500D01*
X90139965Y-76390499D01*
X90207004Y-76410184D01*
X90252759Y-76462987D01*
X90262703Y-76532146D01*
X90233678Y-76595702D01*
X90174900Y-76633476D01*
X90160377Y-76636807D01*
X90155022Y-76637700D01*
X90155017Y-76637701D01*
X89935504Y-76713061D01*
X89935495Y-76713064D01*
X89731371Y-76823531D01*
X89731365Y-76823535D01*
X89548222Y-76966081D01*
X89548219Y-76966084D01*
X89548216Y-76966086D01*
X89548216Y-76966087D01*
X89506291Y-77011630D01*
X89391016Y-77136852D01*
X89264075Y-77331151D01*
X89170842Y-77543699D01*
X89113866Y-77768691D01*
X89113864Y-77768702D01*
X89094700Y-77999993D01*
X89094700Y-78000006D01*
X89113864Y-78231297D01*
X89113866Y-78231308D01*
X89170842Y-78456300D01*
X89264075Y-78668848D01*
X89391016Y-78863147D01*
X89391019Y-78863151D01*
X89391021Y-78863153D01*
X89485803Y-78966114D01*
X89516724Y-79028767D01*
X89508864Y-79098193D01*
X89464716Y-79152348D01*
X89437906Y-79166277D01*
X89357669Y-79196203D01*
X89357664Y-79196206D01*
X89242455Y-79282452D01*
X89242452Y-79282455D01*
X89156206Y-79397664D01*
X89156202Y-79397671D01*
X89105908Y-79532517D01*
X89099501Y-79592116D01*
X89099501Y-79592123D01*
X89099500Y-79592135D01*
X89099500Y-81487870D01*
X89099501Y-81487876D01*
X89105908Y-81547483D01*
X89156202Y-81682328D01*
X89156206Y-81682335D01*
X89242452Y-81797544D01*
X89242455Y-81797547D01*
X89357664Y-81883793D01*
X89357671Y-81883797D01*
X89492517Y-81934091D01*
X89492516Y-81934091D01*
X89499444Y-81934835D01*
X89552127Y-81940500D01*
X91447872Y-81940499D01*
X91507483Y-81934091D01*
X91642331Y-81883796D01*
X91757546Y-81797546D01*
X91843796Y-81682331D01*
X91854617Y-81653319D01*
X92380796Y-81653319D01*
X93057999Y-81433282D01*
X93011215Y-81289296D01*
X93000361Y-81276769D01*
X92994810Y-81269880D01*
X92887314Y-81126286D01*
X92882262Y-81119010D01*
X92872608Y-81103987D01*
X92868095Y-81096379D01*
X92851035Y-81065137D01*
X92847072Y-81057221D01*
X92839653Y-81040976D01*
X92836265Y-81032797D01*
X92774358Y-80866817D01*
X92771878Y-80859473D01*
X92767342Y-80844517D01*
X92765326Y-80837039D01*
X92758167Y-80806737D01*
X92756624Y-80799156D01*
X92753988Y-80783763D01*
X92752920Y-80776089D01*
X92744140Y-80694430D01*
X92743916Y-80692060D01*
X92398499Y-80804294D01*
X92398500Y-81494545D01*
X92398455Y-81497875D01*
X92398275Y-81504576D01*
X92398142Y-81507885D01*
X92397428Y-81521202D01*
X92397205Y-81524521D01*
X92396668Y-81531186D01*
X92396359Y-81534483D01*
X92387574Y-81616195D01*
X92386506Y-81623866D01*
X92383870Y-81639262D01*
X92382325Y-81646851D01*
X92380796Y-81653319D01*
X91854617Y-81653319D01*
X91894091Y-81547483D01*
X91900500Y-81487873D01*
X91900500Y-80647844D01*
X93240000Y-80647844D01*
X93246401Y-80707372D01*
X93246403Y-80707379D01*
X93296645Y-80842086D01*
X93296649Y-80842093D01*
X93382809Y-80957187D01*
X93382812Y-80957190D01*
X93497906Y-81043350D01*
X93497913Y-81043354D01*
X93632620Y-81093596D01*
X93632627Y-81093598D01*
X93692155Y-81099999D01*
X93692172Y-81100000D01*
X94590000Y-81100000D01*
X94590000Y-79750000D01*
X93240000Y-79750000D01*
X93240000Y-80647844D01*
X91900500Y-80647844D01*
X91900499Y-79592128D01*
X91894091Y-79532517D01*
X91888785Y-79518292D01*
X91860357Y-79442071D01*
X92384098Y-79442071D01*
X92386507Y-79456137D01*
X92387575Y-79463810D01*
X92396360Y-79545534D01*
X92396670Y-79548832D01*
X92397208Y-79555512D01*
X92397431Y-79558846D01*
X92398143Y-79572162D01*
X92398276Y-79575462D01*
X92398455Y-79582144D01*
X92398499Y-79585465D01*
X92398499Y-80280665D01*
X92656277Y-80196908D01*
X92408445Y-79434160D01*
X92384098Y-79442071D01*
X91860357Y-79442071D01*
X91843797Y-79397671D01*
X91843793Y-79397664D01*
X91779273Y-79311477D01*
X96992914Y-79311477D01*
X97240745Y-80074225D01*
X98003493Y-79826394D01*
X97976854Y-79744406D01*
X99867383Y-79744406D01*
X100115214Y-80507154D01*
X100548755Y-80366287D01*
X100570420Y-80351335D01*
X100710188Y-80277979D01*
X100738139Y-80267379D01*
X100870018Y-80234873D01*
X100630131Y-79496575D01*
X99867383Y-79744406D01*
X97976854Y-79744406D01*
X97755662Y-79063646D01*
X96992914Y-79311477D01*
X91779273Y-79311477D01*
X91757547Y-79282455D01*
X91757544Y-79282452D01*
X91642335Y-79196206D01*
X91642328Y-79196202D01*
X91562094Y-79166277D01*
X91506160Y-79124406D01*
X91481743Y-79058941D01*
X91496595Y-78990668D01*
X91514190Y-78966121D01*
X91608979Y-78863153D01*
X91735924Y-78668849D01*
X91829157Y-78456300D01*
X91886134Y-78231305D01*
X91888734Y-78199932D01*
X91901663Y-78043896D01*
X92480350Y-78043896D01*
X92728181Y-78806644D01*
X92742000Y-78802154D01*
X92742000Y-78352155D01*
X93240000Y-78352155D01*
X93240000Y-79250000D01*
X94590000Y-79250000D01*
X94590000Y-77900000D01*
X93692155Y-77900000D01*
X93632627Y-77906401D01*
X93632620Y-77906403D01*
X93497913Y-77956645D01*
X93497906Y-77956649D01*
X93382812Y-78042809D01*
X93382809Y-78042812D01*
X93296649Y-78157906D01*
X93296645Y-78157913D01*
X93246403Y-78292620D01*
X93246401Y-78292627D01*
X93240000Y-78352155D01*
X92742000Y-78352155D01*
X92742000Y-78345508D01*
X92742044Y-78342187D01*
X92742223Y-78335505D01*
X92742356Y-78332196D01*
X92743069Y-78318879D01*
X92743290Y-78315577D01*
X92743827Y-78308894D01*
X92744140Y-78305570D01*
X92752920Y-78223911D01*
X92753988Y-78216237D01*
X92756624Y-78200844D01*
X92758167Y-78193263D01*
X92765326Y-78162961D01*
X92767342Y-78155483D01*
X92771878Y-78140527D01*
X92774358Y-78133183D01*
X92836265Y-77967203D01*
X92839653Y-77959024D01*
X92847072Y-77942779D01*
X92851035Y-77934863D01*
X92858608Y-77920993D01*
X92480350Y-78043896D01*
X91901663Y-78043896D01*
X91905300Y-78000006D01*
X91905300Y-77999993D01*
X91886135Y-77768702D01*
X91886133Y-77768691D01*
X91829157Y-77543699D01*
X91735924Y-77331151D01*
X91608983Y-77136852D01*
X91608980Y-77136849D01*
X91608979Y-77136847D01*
X91451784Y-76966087D01*
X91451779Y-76966083D01*
X91451777Y-76966081D01*
X91268634Y-76823535D01*
X91268628Y-76823531D01*
X91239048Y-76807523D01*
X92078628Y-76807523D01*
X92168553Y-77084285D01*
X92169001Y-77085073D01*
X92178802Y-77103184D01*
X92181146Y-77107737D01*
X92185686Y-77117023D01*
X92187843Y-77121677D01*
X92289347Y-77353083D01*
X92291307Y-77357815D01*
X92295063Y-77367440D01*
X92296826Y-77372249D01*
X92303514Y-77391727D01*
X92305080Y-77396615D01*
X92308030Y-77406524D01*
X92309391Y-77411465D01*
X92347846Y-77563321D01*
X93089206Y-77322439D01*
X92841375Y-76559692D01*
X92078628Y-76807523D01*
X91239048Y-76807523D01*
X91064504Y-76713064D01*
X91064495Y-76713061D01*
X90844984Y-76637702D01*
X90673282Y-76609050D01*
X90616049Y-76599500D01*
X90567237Y-76599500D01*
X90500198Y-76579815D01*
X90454443Y-76527011D01*
X90444499Y-76457853D01*
X90468270Y-76405801D01*
X93315001Y-76405801D01*
X93562832Y-77168548D01*
X94325580Y-76920717D01*
X94077749Y-76157970D01*
X93315001Y-76405801D01*
X90468270Y-76405801D01*
X90473524Y-76394297D01*
X90523904Y-76359318D01*
X90592328Y-76333797D01*
X90592327Y-76333797D01*
X90592331Y-76333796D01*
X90707546Y-76247546D01*
X90710288Y-76243883D01*
X91895490Y-76243883D01*
X91924737Y-76333897D01*
X92687484Y-76086066D01*
X92659033Y-75998500D01*
X92160695Y-75998500D01*
X92153752Y-76005442D01*
X92153737Y-76005461D01*
X91981274Y-76177925D01*
X91976866Y-76182123D01*
X91967770Y-76190367D01*
X91963163Y-76194341D01*
X91944257Y-76209857D01*
X91939456Y-76213603D01*
X91929598Y-76220914D01*
X91924623Y-76224418D01*
X91895490Y-76243883D01*
X90710288Y-76243883D01*
X90793796Y-76132331D01*
X90797960Y-76121165D01*
X90839829Y-76065234D01*
X90905293Y-76040816D01*
X90914141Y-76040500D01*
X91098542Y-76040500D01*
X91117870Y-76036655D01*
X91195188Y-76021275D01*
X91291836Y-76002051D01*
X91345165Y-75979961D01*
X91473914Y-75926632D01*
X91637782Y-75817139D01*
X91777139Y-75677782D01*
X91777140Y-75677779D01*
X91918102Y-75536817D01*
X91979425Y-75503334D01*
X92005782Y-75500500D01*
X95249981Y-75500500D01*
X95317020Y-75520185D01*
X95362775Y-75572989D01*
X95372719Y-75642147D01*
X95346928Y-75701812D01*
X95299616Y-75761139D01*
X95168432Y-75988356D01*
X95072582Y-76232578D01*
X95072576Y-76232597D01*
X95014197Y-76488374D01*
X95014196Y-76488379D01*
X94994592Y-76749995D01*
X94994592Y-76750004D01*
X95014196Y-77011620D01*
X95014197Y-77011625D01*
X95072576Y-77267402D01*
X95072582Y-77267421D01*
X95168432Y-77511643D01*
X95168431Y-77511643D01*
X95285263Y-77714000D01*
X95301736Y-77781900D01*
X95278884Y-77847927D01*
X95223962Y-77891118D01*
X95177876Y-77900000D01*
X95090000Y-77900000D01*
X95090000Y-79250000D01*
X96440000Y-79250000D01*
X96440000Y-78909755D01*
X98229288Y-78909755D01*
X98477119Y-79672503D01*
X99239866Y-79424672D01*
X99213227Y-79342684D01*
X101103757Y-79342684D01*
X101351588Y-80105432D01*
X102114335Y-79857601D01*
X101866504Y-79094853D01*
X101103757Y-79342684D01*
X99213227Y-79342684D01*
X98992035Y-78661924D01*
X98229288Y-78909755D01*
X96440000Y-78909755D01*
X96440000Y-78617637D01*
X96459685Y-78550598D01*
X96508808Y-78508033D01*
X99465661Y-78508033D01*
X99713492Y-79270780D01*
X100476240Y-79022949D01*
X100228409Y-78260202D01*
X99465661Y-78508033D01*
X96508808Y-78508033D01*
X96512489Y-78504843D01*
X96581647Y-78494899D01*
X96582129Y-78494969D01*
X96618818Y-78500500D01*
X96618824Y-78500500D01*
X96881182Y-78500500D01*
X97140615Y-78461396D01*
X97391323Y-78384063D01*
X97452618Y-78354545D01*
X98326489Y-78354545D01*
X98838144Y-78188298D01*
X98811505Y-78106311D01*
X100702035Y-78106311D01*
X100949866Y-78869058D01*
X101712613Y-78621227D01*
X101605028Y-78290115D01*
X101604448Y-78289513D01*
X101591778Y-78275855D01*
X101588691Y-78272399D01*
X101582600Y-78265320D01*
X101579648Y-78261757D01*
X101404453Y-78042071D01*
X101401622Y-78038382D01*
X101396068Y-78030855D01*
X101393393Y-78027084D01*
X101382898Y-78011691D01*
X101380355Y-78007807D01*
X101375382Y-77999892D01*
X101372991Y-77995923D01*
X101320671Y-77905304D01*
X100702035Y-78106311D01*
X98811505Y-78106311D01*
X98727738Y-77848500D01*
X99251365Y-77848500D01*
X99311770Y-78034407D01*
X99883937Y-77848500D01*
X99251365Y-77848500D01*
X98727738Y-77848500D01*
X98712124Y-77848500D01*
X98627009Y-77995923D01*
X98624618Y-77999892D01*
X98619645Y-78007807D01*
X98617102Y-78011691D01*
X98606607Y-78027084D01*
X98603932Y-78030855D01*
X98598378Y-78038382D01*
X98595547Y-78042071D01*
X98420352Y-78261757D01*
X98417400Y-78265320D01*
X98411309Y-78272399D01*
X98408222Y-78275855D01*
X98395552Y-78289513D01*
X98392332Y-78292856D01*
X98385711Y-78299478D01*
X98382364Y-78302702D01*
X98326489Y-78354545D01*
X97452618Y-78354545D01*
X97581192Y-78292627D01*
X97627696Y-78270232D01*
X97627696Y-78270231D01*
X97627704Y-78270228D01*
X97844479Y-78122433D01*
X98011778Y-77967203D01*
X98036801Y-77943985D01*
X98036801Y-77943983D01*
X98036805Y-77943981D01*
X98200386Y-77738857D01*
X98331568Y-77511643D01*
X98363926Y-77429194D01*
X98406740Y-77373984D01*
X98472610Y-77350683D01*
X98479353Y-77350500D01*
X101520647Y-77350500D01*
X101587686Y-77370185D01*
X101633441Y-77422989D01*
X101636058Y-77429157D01*
X101668432Y-77511643D01*
X101668434Y-77511646D01*
X101668435Y-77511649D01*
X101686940Y-77543700D01*
X101799614Y-77738857D01*
X101902625Y-77868029D01*
X101963198Y-77943985D01*
X102131972Y-78100583D01*
X102155521Y-78122433D01*
X102372296Y-78270228D01*
X102372301Y-78270230D01*
X102372302Y-78270231D01*
X102372303Y-78270232D01*
X102466464Y-78315577D01*
X102579301Y-78369916D01*
X102631161Y-78416738D01*
X102649500Y-78481636D01*
X102649500Y-82025500D01*
X102629815Y-82092539D01*
X102577011Y-82138294D01*
X102525500Y-82149500D01*
X101756669Y-82149500D01*
X101756653Y-82149499D01*
X101749057Y-82149499D01*
X101590943Y-82149499D01*
X101487750Y-82177150D01*
X101438210Y-82190424D01*
X101438209Y-82190425D01*
X101388096Y-82219359D01*
X101388095Y-82219360D01*
X101361428Y-82234756D01*
X101301285Y-82269479D01*
X101301282Y-82269481D01*
X101189478Y-82381286D01*
X99417582Y-84153181D01*
X99356259Y-84186666D01*
X99329901Y-84189500D01*
X97742129Y-84189500D01*
X97742123Y-84189501D01*
X97682516Y-84195908D01*
X97547671Y-84246202D01*
X97547664Y-84246206D01*
X97432455Y-84332452D01*
X97368953Y-84417279D01*
X97313019Y-84459149D01*
X97243327Y-84464133D01*
X97182004Y-84430647D01*
X97170420Y-84417278D01*
X97107186Y-84332808D01*
X96992093Y-84246649D01*
X96992088Y-84246646D01*
X96923102Y-84220916D01*
X96867169Y-84179044D01*
X96842752Y-84113580D01*
X96857604Y-84045307D01*
X96893552Y-84004415D01*
X96922887Y-83983102D01*
X97048100Y-83857889D01*
X97152186Y-83714629D01*
X97232578Y-83556850D01*
X97232580Y-83556847D01*
X97287298Y-83388439D01*
X97315000Y-83213544D01*
X97315000Y-83020598D01*
X98198081Y-83020598D01*
X98416070Y-83691500D01*
X98728584Y-83691500D01*
X99208659Y-83535514D01*
X98960828Y-82772767D01*
X98198081Y-83020598D01*
X97315000Y-83020598D01*
X97315000Y-83000000D01*
X96505686Y-83000000D01*
X96510080Y-82995606D01*
X96562741Y-82904394D01*
X96590000Y-82802661D01*
X96590000Y-82697339D01*
X96568976Y-82618875D01*
X99434454Y-82618875D01*
X99633869Y-83232614D01*
X100270340Y-82596143D01*
X100197202Y-82371044D01*
X99434454Y-82618875D01*
X96568976Y-82618875D01*
X96562741Y-82595606D01*
X96510080Y-82504394D01*
X96505686Y-82500000D01*
X97315000Y-82500000D01*
X97315000Y-82286455D01*
X97287298Y-82111560D01*
X97232580Y-81943152D01*
X97232578Y-81943149D01*
X97152186Y-81785370D01*
X97151353Y-81784224D01*
X97796359Y-81784224D01*
X98044190Y-82546972D01*
X98806937Y-82299141D01*
X98559106Y-81536393D01*
X97796359Y-81784224D01*
X97151353Y-81784224D01*
X97048100Y-81642110D01*
X96922889Y-81516899D01*
X96779629Y-81412813D01*
X96720140Y-81382502D01*
X99032732Y-81382502D01*
X99280563Y-82145250D01*
X100043311Y-81897419D01*
X99795480Y-81134671D01*
X99032732Y-81382502D01*
X96720140Y-81382502D01*
X96621850Y-81332421D01*
X96621847Y-81332419D01*
X96453441Y-81277702D01*
X96453433Y-81277700D01*
X96440000Y-81275571D01*
X96440000Y-82434314D01*
X96435606Y-82429920D01*
X96344394Y-82377259D01*
X96242661Y-82350000D01*
X96137339Y-82350000D01*
X96035606Y-82377259D01*
X95944394Y-82429920D01*
X95940000Y-82434314D01*
X95940000Y-81218405D01*
X95943076Y-81218405D01*
X95942815Y-81182671D01*
X95980158Y-81123618D01*
X96039929Y-81095791D01*
X96039832Y-81095380D01*
X96041823Y-81094909D01*
X96043500Y-81094129D01*
X96047091Y-81093664D01*
X96047379Y-81093596D01*
X96182086Y-81043354D01*
X96182093Y-81043350D01*
X96297187Y-80957190D01*
X96297190Y-80957187D01*
X96383350Y-80842093D01*
X96383354Y-80842086D01*
X96433596Y-80707379D01*
X96433598Y-80707372D01*
X96439999Y-80647844D01*
X96440000Y-80647827D01*
X96440000Y-80547851D01*
X97394637Y-80547851D01*
X97642468Y-81310598D01*
X98405215Y-81062767D01*
X98157384Y-80300020D01*
X97394637Y-80547851D01*
X96440000Y-80547851D01*
X96440000Y-80146129D01*
X98631010Y-80146129D01*
X98878841Y-80908876D01*
X99641588Y-80661045D01*
X99602493Y-80540722D01*
X101623463Y-80540722D01*
X101681823Y-80625270D01*
X101695716Y-80651741D01*
X101751689Y-80799332D01*
X101758843Y-80828355D01*
X101777870Y-80985053D01*
X101777870Y-81014947D01*
X101758843Y-81171645D01*
X101751689Y-81200669D01*
X101727864Y-81263490D01*
X101753310Y-81341805D01*
X102151500Y-81212425D01*
X102151500Y-80369153D01*
X101623463Y-80540722D01*
X99602493Y-80540722D01*
X99393757Y-79898298D01*
X98631010Y-80146129D01*
X96440000Y-80146129D01*
X96440000Y-79750000D01*
X95090000Y-79750000D01*
X95090000Y-81100000D01*
X95697804Y-81100000D01*
X95764843Y-81119685D01*
X95810598Y-81172489D01*
X95820542Y-81241647D01*
X95791517Y-81305203D01*
X95754099Y-81334485D01*
X95600370Y-81412813D01*
X95457110Y-81516899D01*
X95331899Y-81642110D01*
X95227813Y-81785370D01*
X95147421Y-81943149D01*
X95147419Y-81943152D01*
X95095095Y-82104191D01*
X95055657Y-82161867D01*
X94991299Y-82189065D01*
X94922452Y-82177150D01*
X94904277Y-82166190D01*
X94899630Y-82162813D01*
X94741850Y-82082421D01*
X94741847Y-82082419D01*
X94573441Y-82027702D01*
X94573433Y-82027700D01*
X94560000Y-82025571D01*
X94560000Y-83184314D01*
X94555606Y-83179920D01*
X94464394Y-83127259D01*
X94362661Y-83100000D01*
X94257339Y-83100000D01*
X94155606Y-83127259D01*
X94064394Y-83179920D01*
X94060000Y-83184314D01*
X94060000Y-82025571D01*
X94046566Y-82027700D01*
X94046558Y-82027702D01*
X93878152Y-82082419D01*
X93878149Y-82082421D01*
X93720370Y-82162813D01*
X93577110Y-82266899D01*
X93451899Y-82392110D01*
X93347813Y-82535370D01*
X93267421Y-82693149D01*
X93267419Y-82693152D01*
X93212701Y-82861560D01*
X93185000Y-83036455D01*
X93185000Y-83250000D01*
X93994314Y-83250000D01*
X93989920Y-83254394D01*
X93937259Y-83345606D01*
X93910000Y-83447339D01*
X93910000Y-83552661D01*
X93937259Y-83654394D01*
X93989920Y-83745606D01*
X93994314Y-83750000D01*
X93185000Y-83750000D01*
X93185000Y-83963544D01*
X93212701Y-84138439D01*
X93267419Y-84306847D01*
X93267421Y-84306850D01*
X93347813Y-84464629D01*
X93451899Y-84607889D01*
X93577110Y-84733100D01*
X93720370Y-84837186D01*
X93878149Y-84917578D01*
X93878152Y-84917580D01*
X94046553Y-84972296D01*
X94046566Y-84972299D01*
X94060000Y-84974427D01*
X94060000Y-83815686D01*
X94064394Y-83820080D01*
X94155606Y-83872741D01*
X94257339Y-83900000D01*
X94362661Y-83900000D01*
X94464394Y-83872741D01*
X94555606Y-83820080D01*
X94560000Y-83815686D01*
X94560000Y-84974426D01*
X94573433Y-84972299D01*
X94573441Y-84972297D01*
X94587681Y-84967671D01*
X94657522Y-84965676D01*
X94717355Y-85001756D01*
X94748184Y-85064456D01*
X94750000Y-85085602D01*
X94750000Y-85940000D01*
X95750000Y-85940000D01*
X95750000Y-84271000D01*
X95769685Y-84203961D01*
X95822489Y-84158206D01*
X95874000Y-84147000D01*
X95940000Y-84147000D01*
X95940000Y-83065686D01*
X95944394Y-83070080D01*
X96035606Y-83122741D01*
X96137339Y-83150000D01*
X96242661Y-83150000D01*
X96344394Y-83122741D01*
X96435606Y-83070080D01*
X96440000Y-83065686D01*
X96440000Y-84169000D01*
X96420315Y-84236039D01*
X96367511Y-84281794D01*
X96316000Y-84293000D01*
X96250000Y-84293000D01*
X96250000Y-88190000D01*
X96797828Y-88190000D01*
X96797844Y-88189999D01*
X96857372Y-88183598D01*
X96857376Y-88183597D01*
X96897106Y-88168779D01*
X96966797Y-88163795D01*
X97028121Y-88197279D01*
X97061606Y-88258602D01*
X97056622Y-88328294D01*
X97028122Y-88372642D01*
X96881286Y-88519478D01*
X96769481Y-88631282D01*
X96769480Y-88631284D01*
X96723887Y-88710255D01*
X96719361Y-88718094D01*
X96719359Y-88718096D01*
X96690425Y-88768209D01*
X96690424Y-88768210D01*
X96684250Y-88791253D01*
X96649499Y-88920943D01*
X96649499Y-88920945D01*
X96649499Y-89089046D01*
X96649500Y-89089059D01*
X96649500Y-90435218D01*
X96629815Y-90502257D01*
X96577011Y-90548012D01*
X96507853Y-90557956D01*
X96444297Y-90528931D01*
X96437819Y-90522899D01*
X96281479Y-90366559D01*
X96281459Y-90366537D01*
X96137785Y-90222863D01*
X96137781Y-90222860D01*
X95973920Y-90113371D01*
X95973907Y-90113364D01*
X95817770Y-90048691D01*
X95817769Y-90048691D01*
X95791834Y-90037948D01*
X95791829Y-90037946D01*
X95695188Y-90018724D01*
X95598544Y-89999500D01*
X95598541Y-89999500D01*
X95555733Y-89999500D01*
X95509777Y-89988689D01*
X95509174Y-89990248D01*
X95431095Y-89960000D01*
X95309327Y-89912827D01*
X95104293Y-89874500D01*
X94895707Y-89874500D01*
X94690673Y-89912827D01*
X94690670Y-89912827D01*
X94690670Y-89912828D01*
X94496172Y-89988176D01*
X94496171Y-89988177D01*
X94318827Y-90097985D01*
X94164683Y-90238505D01*
X94038981Y-90404961D01*
X93946007Y-90591677D01*
X93888923Y-90792308D01*
X93869678Y-90999999D01*
X93869678Y-91000000D01*
X93888923Y-91207691D01*
X93888923Y-91207693D01*
X93888924Y-91207696D01*
X93943840Y-91400705D01*
X93946007Y-91408322D01*
X94022103Y-91561142D01*
X94038981Y-91595038D01*
X94164682Y-91761493D01*
X94318829Y-91902016D01*
X94496172Y-92011823D01*
X94674679Y-92080977D01*
X94676546Y-92081700D01*
X94731947Y-92124273D01*
X94755538Y-92190040D01*
X94755042Y-92210580D01*
X94749500Y-92262127D01*
X94749500Y-92262131D01*
X94749500Y-92262132D01*
X94749500Y-95357870D01*
X94749501Y-95357876D01*
X94755908Y-95417483D01*
X94806202Y-95552328D01*
X94806204Y-95552331D01*
X94845101Y-95604291D01*
X94869518Y-95669756D01*
X94854666Y-95738029D01*
X94818720Y-95778920D01*
X94712814Y-95855866D01*
X94712813Y-95855866D01*
X94545866Y-96022813D01*
X94407085Y-96213828D01*
X94299897Y-96424197D01*
X94226934Y-96648752D01*
X94210898Y-96750000D01*
X96316000Y-96750000D01*
X96383039Y-96769685D01*
X96428794Y-96822489D01*
X96440000Y-96874000D01*
X96440000Y-97126000D01*
X96420315Y-97193039D01*
X96367511Y-97238794D01*
X96316000Y-97250000D01*
X94210898Y-97250000D01*
X94226934Y-97351247D01*
X94299897Y-97575802D01*
X94407085Y-97786171D01*
X94545866Y-97977186D01*
X94712815Y-98144135D01*
X94747551Y-98169372D01*
X94790217Y-98224702D01*
X94796196Y-98294315D01*
X94763591Y-98356111D01*
X94747552Y-98370008D01*
X94712496Y-98395478D01*
X94712487Y-98395485D01*
X94545485Y-98562487D01*
X94545485Y-98562488D01*
X94545483Y-98562490D01*
X94523209Y-98593148D01*
X94406657Y-98753566D01*
X94374060Y-98817540D01*
X94347975Y-98868738D01*
X94346417Y-98871795D01*
X94298442Y-98922591D01*
X94235932Y-98939500D01*
X91289091Y-98939500D01*
X91222052Y-98919815D01*
X91176711Y-98867909D01*
X91174037Y-98862175D01*
X91174034Y-98862170D01*
X91174033Y-98862169D01*
X91054247Y-98691095D01*
X91038494Y-98668597D01*
X90871402Y-98501506D01*
X90871401Y-98501505D01*
X90685405Y-98371269D01*
X90641781Y-98316692D01*
X90634588Y-98247193D01*
X90660272Y-98196387D01*
X93560687Y-98196387D01*
X93640329Y-98441500D01*
X94017825Y-98441500D01*
X94142736Y-98269574D01*
X93998445Y-98070974D01*
X93995663Y-98066983D01*
X93990207Y-98058818D01*
X93989152Y-98057170D01*
X93560687Y-98196387D01*
X90660272Y-98196387D01*
X90666110Y-98184839D01*
X90685405Y-98168119D01*
X90871082Y-98038105D01*
X91038105Y-97871082D01*
X91173600Y-97677578D01*
X91273429Y-97463492D01*
X91273432Y-97463486D01*
X91300696Y-97361736D01*
X91922592Y-97361736D01*
X92170423Y-98124483D01*
X92933170Y-97876652D01*
X92685339Y-97113905D01*
X91922592Y-97361736D01*
X91300696Y-97361736D01*
X91330636Y-97250000D01*
X90433012Y-97250000D01*
X90465925Y-97192993D01*
X90500000Y-97065826D01*
X90500000Y-96960013D01*
X93158965Y-96960013D01*
X93406796Y-97722761D01*
X93784177Y-97600143D01*
X93750287Y-97495842D01*
X93748872Y-97491178D01*
X93746208Y-97481731D01*
X93744980Y-97477025D01*
X93740413Y-97458003D01*
X93739372Y-97453256D01*
X93737455Y-97443623D01*
X93736597Y-97438819D01*
X93701506Y-97217268D01*
X93704635Y-97164211D01*
X93734413Y-97058626D01*
X93759466Y-97011754D01*
X93769504Y-97000000D01*
X93759466Y-96988246D01*
X93734413Y-96941374D01*
X93704635Y-96835789D01*
X93701563Y-96783713D01*
X93158965Y-96960013D01*
X90500000Y-96960013D01*
X90500000Y-96934174D01*
X90465925Y-96807007D01*
X90433012Y-96750000D01*
X91330636Y-96750000D01*
X91330635Y-96749999D01*
X91273432Y-96536513D01*
X91273429Y-96536507D01*
X91173600Y-96322422D01*
X91173599Y-96322420D01*
X91038113Y-96128926D01*
X91038108Y-96128920D01*
X91003503Y-96094315D01*
X91616424Y-96094315D01*
X91617957Y-96097259D01*
X91620347Y-96102106D01*
X91729364Y-96335892D01*
X91731542Y-96340842D01*
X91735715Y-96350916D01*
X91737675Y-96355955D01*
X91745111Y-96376382D01*
X91746851Y-96381506D01*
X91750134Y-96391917D01*
X91751649Y-96397115D01*
X91842582Y-96736480D01*
X91844424Y-96792766D01*
X91829380Y-96868394D01*
X92531448Y-96640279D01*
X92283617Y-95877531D01*
X91616424Y-96094315D01*
X91003503Y-96094315D01*
X90871082Y-95961894D01*
X90677578Y-95826399D01*
X90463492Y-95726570D01*
X90463486Y-95726567D01*
X90452562Y-95723640D01*
X92757243Y-95723640D01*
X93005074Y-96486387D01*
X93767822Y-96238556D01*
X93519991Y-95475809D01*
X92757243Y-95723640D01*
X90452562Y-95723640D01*
X90250000Y-95669364D01*
X90250000Y-96566988D01*
X90192993Y-96534075D01*
X90065826Y-96500000D01*
X89934174Y-96500000D01*
X89807007Y-96534075D01*
X89750000Y-96566988D01*
X89750000Y-95669364D01*
X89749999Y-95669364D01*
X89536513Y-95726567D01*
X89536507Y-95726570D01*
X89322422Y-95826399D01*
X89322420Y-95826400D01*
X89128926Y-95961886D01*
X89006477Y-96084335D01*
X88945154Y-96117819D01*
X88875462Y-96112835D01*
X88819529Y-96070963D01*
X88802614Y-96039986D01*
X88753354Y-95907913D01*
X88753350Y-95907906D01*
X88667190Y-95792812D01*
X88667187Y-95792809D01*
X88552093Y-95706649D01*
X88552086Y-95706645D01*
X88417379Y-95656403D01*
X88417372Y-95656401D01*
X88357844Y-95650000D01*
X87710000Y-95650000D01*
X87710000Y-96566988D01*
X87652993Y-96534075D01*
X87525826Y-96500000D01*
X87394174Y-96500000D01*
X87267007Y-96534075D01*
X87210000Y-96566988D01*
X87210000Y-95650000D01*
X86562155Y-95650000D01*
X86502627Y-95656401D01*
X86502620Y-95656403D01*
X86367913Y-95706645D01*
X86367906Y-95706649D01*
X86252812Y-95792809D01*
X86223766Y-95831610D01*
X86167832Y-95873480D01*
X86098140Y-95878464D01*
X86036818Y-95844978D01*
X86003333Y-95783655D01*
X86000500Y-95757298D01*
X86000500Y-94857781D01*
X87008305Y-94857781D01*
X87103902Y-95152000D01*
X87311090Y-95152000D01*
X87358542Y-95161439D01*
X87450428Y-95199499D01*
X87460000Y-95205894D01*
X87469572Y-95199499D01*
X87561458Y-95161439D01*
X87608910Y-95152000D01*
X87947175Y-95152000D01*
X87771052Y-94609950D01*
X87008305Y-94857781D01*
X86000500Y-94857781D01*
X86000500Y-94456059D01*
X88244679Y-94456059D01*
X88473926Y-95161612D01*
X88486089Y-95162920D01*
X88493763Y-95163988D01*
X88509156Y-95166624D01*
X88516737Y-95168167D01*
X88547039Y-95175326D01*
X88554517Y-95177342D01*
X88569473Y-95181878D01*
X88576816Y-95184358D01*
X88586927Y-95188129D01*
X88668120Y-95161748D01*
X90279682Y-95161748D01*
X90602885Y-95248351D01*
X90608083Y-95249866D01*
X90618494Y-95253149D01*
X90623618Y-95254889D01*
X90644045Y-95262325D01*
X90649084Y-95264285D01*
X90659158Y-95268458D01*
X90664108Y-95270636D01*
X90729419Y-95301091D01*
X90645521Y-95042880D01*
X90279682Y-95161748D01*
X88668120Y-95161748D01*
X89255257Y-94970976D01*
X89228618Y-94888989D01*
X91119148Y-94888989D01*
X91366979Y-95651736D01*
X92129726Y-95403905D01*
X91881895Y-94641158D01*
X91119148Y-94888989D01*
X89228618Y-94888989D01*
X89007426Y-94208228D01*
X88244679Y-94456059D01*
X86000500Y-94456059D01*
X86000500Y-93621408D01*
X86606583Y-93621408D01*
X86854414Y-94384155D01*
X87617161Y-94136324D01*
X87590522Y-94054337D01*
X89481052Y-94054337D01*
X89728883Y-94817085D01*
X90491631Y-94569254D01*
X90464992Y-94487267D01*
X92355521Y-94487267D01*
X92603352Y-95250014D01*
X93366100Y-95002183D01*
X93118269Y-94239436D01*
X92355521Y-94487267D01*
X90464992Y-94487267D01*
X90243800Y-93806506D01*
X89481052Y-94054337D01*
X87590522Y-94054337D01*
X87369330Y-93373577D01*
X86606583Y-93621408D01*
X86000500Y-93621408D01*
X86000500Y-93219686D01*
X87842956Y-93219686D01*
X88090787Y-93982433D01*
X88853535Y-93734602D01*
X88826896Y-93652615D01*
X90717426Y-93652615D01*
X90965257Y-94415363D01*
X91728004Y-94167532D01*
X91701365Y-94085544D01*
X93591895Y-94085544D01*
X93839726Y-94848292D01*
X94251500Y-94714498D01*
X94251500Y-93871226D01*
X93591895Y-94085544D01*
X91701365Y-94085544D01*
X91480173Y-93404784D01*
X90717426Y-93652615D01*
X88826896Y-93652615D01*
X88605704Y-92971855D01*
X87842956Y-93219686D01*
X86000500Y-93219686D01*
X86000500Y-92289625D01*
X86498500Y-92289625D01*
X86498500Y-93132898D01*
X87215439Y-92899951D01*
X87188800Y-92817964D01*
X89079330Y-92817964D01*
X89327161Y-93580711D01*
X90089908Y-93332880D01*
X90063269Y-93250893D01*
X91953799Y-93250893D01*
X92201630Y-94013641D01*
X92964377Y-93765810D01*
X92716546Y-93003062D01*
X91953799Y-93250893D01*
X90063269Y-93250893D01*
X89842077Y-92570133D01*
X89079330Y-92817964D01*
X87188800Y-92817964D01*
X86967608Y-92137203D01*
X86498500Y-92289625D01*
X86000500Y-92289625D01*
X86000500Y-91983312D01*
X87441234Y-91983312D01*
X87689065Y-92746060D01*
X88451813Y-92498229D01*
X88425174Y-92416242D01*
X90315703Y-92416242D01*
X90563534Y-93178989D01*
X91326282Y-92931158D01*
X91299643Y-92849171D01*
X93190172Y-92849171D01*
X93438003Y-93611918D01*
X94200751Y-93364087D01*
X93952920Y-92601340D01*
X93190172Y-92849171D01*
X91299643Y-92849171D01*
X91078451Y-92168411D01*
X90315703Y-92416242D01*
X88425174Y-92416242D01*
X88203982Y-91735481D01*
X87441234Y-91983312D01*
X86000500Y-91983312D01*
X86000500Y-90922724D01*
X86498500Y-90922724D01*
X86498500Y-91765997D01*
X86813717Y-91663577D01*
X86787078Y-91581590D01*
X88677608Y-91581590D01*
X88925439Y-92344338D01*
X89688186Y-92096507D01*
X89661547Y-92014520D01*
X91552077Y-92014520D01*
X91799908Y-92777267D01*
X92562655Y-92529436D01*
X92314824Y-91766689D01*
X91552077Y-92014520D01*
X89661547Y-92014520D01*
X89440355Y-91333759D01*
X88677608Y-91581590D01*
X86787078Y-91581590D01*
X86565886Y-90900829D01*
X86498500Y-90922724D01*
X86000500Y-90922724D01*
X86000500Y-90746939D01*
X87039512Y-90746939D01*
X87287343Y-91509686D01*
X88050091Y-91261855D01*
X88023452Y-91179868D01*
X89913981Y-91179868D01*
X90161812Y-91942616D01*
X90924560Y-91694785D01*
X90897921Y-91612797D01*
X92788450Y-91612797D01*
X93036281Y-92375545D01*
X93799029Y-92127714D01*
X93784712Y-92083650D01*
X93777762Y-92075281D01*
X93774205Y-92070790D01*
X93634632Y-91885965D01*
X93631285Y-91881313D01*
X93624755Y-91871780D01*
X93621627Y-91866979D01*
X93609510Y-91847408D01*
X93606612Y-91842477D01*
X93600992Y-91832388D01*
X93598319Y-91827317D01*
X93495085Y-91619995D01*
X93492652Y-91614812D01*
X93487985Y-91604243D01*
X93485791Y-91598947D01*
X93477476Y-91577483D01*
X93475531Y-91572095D01*
X93471860Y-91561142D01*
X93470166Y-91555671D01*
X93427355Y-91405205D01*
X92788450Y-91612797D01*
X90897921Y-91612797D01*
X90676729Y-90932037D01*
X89913981Y-91179868D01*
X88023452Y-91179868D01*
X87802260Y-90499108D01*
X87039512Y-90746939D01*
X86000500Y-90746939D01*
X86000500Y-90345217D01*
X88275886Y-90345217D01*
X88523717Y-91107964D01*
X89286464Y-90860133D01*
X89259825Y-90778146D01*
X91150355Y-90778146D01*
X91398186Y-91540894D01*
X92160933Y-91293063D01*
X91913102Y-90530315D01*
X91150355Y-90778146D01*
X89259825Y-90778146D01*
X89038633Y-90097386D01*
X88275886Y-90345217D01*
X86000500Y-90345217D01*
X86000500Y-89510565D01*
X86637790Y-89510565D01*
X86885621Y-90273313D01*
X87648369Y-90025482D01*
X87621730Y-89943495D01*
X89512259Y-89943495D01*
X89760090Y-90706242D01*
X90522838Y-90458411D01*
X90496199Y-90376424D01*
X92386728Y-90376424D01*
X92634559Y-91139171D01*
X93379064Y-90897267D01*
X93383539Y-90848968D01*
X93149476Y-90128593D01*
X92386728Y-90376424D01*
X90496199Y-90376424D01*
X90275007Y-89695664D01*
X89512259Y-89943495D01*
X87621730Y-89943495D01*
X87400538Y-89262734D01*
X86637790Y-89510565D01*
X86000500Y-89510565D01*
X86000500Y-89108843D01*
X87874164Y-89108843D01*
X88121995Y-89871591D01*
X88884742Y-89623760D01*
X88858103Y-89541773D01*
X90748633Y-89541773D01*
X90996464Y-90304520D01*
X91759211Y-90056689D01*
X91511380Y-89293942D01*
X90748633Y-89541773D01*
X88858103Y-89541773D01*
X88636911Y-88861012D01*
X87874164Y-89108843D01*
X86000500Y-89108843D01*
X86000500Y-88188923D01*
X86498500Y-88188923D01*
X86498500Y-89032196D01*
X87246647Y-88789108D01*
X87220008Y-88707121D01*
X89110537Y-88707121D01*
X89358368Y-89469869D01*
X90121116Y-89222038D01*
X90094477Y-89140051D01*
X91985006Y-89140051D01*
X92232837Y-89902798D01*
X92995585Y-89654967D01*
X92747754Y-88892220D01*
X91985006Y-89140051D01*
X90094477Y-89140051D01*
X89873285Y-88459290D01*
X89110537Y-88707121D01*
X87220008Y-88707121D01*
X87084774Y-88290913D01*
X86969078Y-88280792D01*
X86963709Y-88280204D01*
X86952894Y-88278781D01*
X86947536Y-88277957D01*
X86926129Y-88274182D01*
X86920832Y-88273128D01*
X86910179Y-88270767D01*
X86904917Y-88269480D01*
X86899069Y-88267913D01*
X87600928Y-88267913D01*
X87720273Y-88635217D01*
X88483020Y-88387386D01*
X88456381Y-88305399D01*
X90346911Y-88305399D01*
X90594742Y-89068147D01*
X91357489Y-88820316D01*
X91330850Y-88738328D01*
X93221380Y-88738328D01*
X93469211Y-89501076D01*
X94231958Y-89253245D01*
X93984127Y-88490497D01*
X93221380Y-88738328D01*
X91330850Y-88738328D01*
X91158990Y-88209398D01*
X91682618Y-88209398D01*
X91831115Y-88666425D01*
X92593863Y-88418593D01*
X92567224Y-88336606D01*
X94457752Y-88336606D01*
X94705584Y-89099354D01*
X95468332Y-88851523D01*
X95415201Y-88688000D01*
X95195508Y-88688000D01*
X95192187Y-88687956D01*
X95185505Y-88687777D01*
X95182196Y-88687644D01*
X95168879Y-88686931D01*
X95165577Y-88686710D01*
X95158894Y-88686173D01*
X95155570Y-88685860D01*
X95073911Y-88677080D01*
X95066237Y-88676012D01*
X95050844Y-88673376D01*
X95043263Y-88671833D01*
X95012961Y-88664674D01*
X95005483Y-88662658D01*
X94990527Y-88658122D01*
X94983183Y-88655642D01*
X94817203Y-88593735D01*
X94809024Y-88590347D01*
X94792779Y-88582928D01*
X94784863Y-88578965D01*
X94753621Y-88561905D01*
X94746013Y-88557392D01*
X94730990Y-88547738D01*
X94723714Y-88542686D01*
X94580120Y-88435190D01*
X94573231Y-88429639D01*
X94559736Y-88417946D01*
X94553256Y-88411912D01*
X94528088Y-88386744D01*
X94522054Y-88380264D01*
X94510361Y-88366769D01*
X94504810Y-88359880D01*
X94481589Y-88328861D01*
X94457752Y-88336606D01*
X92567224Y-88336606D01*
X92548215Y-88278103D01*
X92547019Y-88278287D01*
X92536204Y-88279710D01*
X92530835Y-88280298D01*
X92282576Y-88302018D01*
X92277179Y-88302372D01*
X92266279Y-88302848D01*
X92260869Y-88302966D01*
X92239131Y-88302966D01*
X92233721Y-88302848D01*
X92222821Y-88302372D01*
X92217424Y-88302018D01*
X91969165Y-88280298D01*
X91963796Y-88279710D01*
X91952981Y-88278287D01*
X91947623Y-88277463D01*
X91926216Y-88273688D01*
X91920919Y-88272634D01*
X91910266Y-88270273D01*
X91905004Y-88268986D01*
X91682618Y-88209398D01*
X91158990Y-88209398D01*
X91131240Y-88123991D01*
X93021769Y-88123991D01*
X93067489Y-88264702D01*
X93830236Y-88016871D01*
X93739575Y-87737844D01*
X94750000Y-87737844D01*
X94756401Y-87797372D01*
X94756403Y-87797379D01*
X94806645Y-87932086D01*
X94806649Y-87932093D01*
X94892809Y-88047187D01*
X94892812Y-88047190D01*
X95007906Y-88133350D01*
X95007913Y-88133354D01*
X95142620Y-88183596D01*
X95142627Y-88183598D01*
X95202155Y-88189999D01*
X95202172Y-88190000D01*
X95750000Y-88190000D01*
X95750000Y-86440000D01*
X94750000Y-86440000D01*
X94750000Y-87737844D01*
X93739575Y-87737844D01*
X93688427Y-87580427D01*
X93672003Y-87603883D01*
X93632427Y-87640146D01*
X93536430Y-87695568D01*
X93485238Y-87711708D01*
X93463600Y-87713600D01*
X93461708Y-87735238D01*
X93445568Y-87786430D01*
X93390146Y-87882427D01*
X93353883Y-87922003D01*
X93179228Y-88044301D01*
X93174735Y-88047303D01*
X93165538Y-88053163D01*
X93160911Y-88055971D01*
X93142084Y-88066842D01*
X93137330Y-88069450D01*
X93127647Y-88074490D01*
X93122800Y-88076881D01*
X93021769Y-88123991D01*
X91131240Y-88123991D01*
X91109658Y-88057568D01*
X90346911Y-88305399D01*
X88456381Y-88305399D01*
X88336062Y-87935094D01*
X88179470Y-88044740D01*
X88174977Y-88047742D01*
X88165778Y-88053603D01*
X88161145Y-88056415D01*
X88142320Y-88067283D01*
X88137588Y-88069879D01*
X88127910Y-88074918D01*
X88123050Y-88077315D01*
X87897113Y-88182672D01*
X87892163Y-88184850D01*
X87882089Y-88189023D01*
X87877050Y-88190983D01*
X87856623Y-88198419D01*
X87851496Y-88200160D01*
X87841084Y-88203443D01*
X87835888Y-88204957D01*
X87600928Y-88267913D01*
X86899069Y-88267913D01*
X86664112Y-88204957D01*
X86658916Y-88203443D01*
X86648504Y-88200160D01*
X86643377Y-88198419D01*
X86622950Y-88190983D01*
X86617911Y-88189023D01*
X86607837Y-88184850D01*
X86602887Y-88182672D01*
X86567920Y-88166366D01*
X86498500Y-88188923D01*
X86000500Y-88188923D01*
X86000500Y-87376160D01*
X86020185Y-87309121D01*
X86072989Y-87263366D01*
X86142147Y-87253422D01*
X86205703Y-87282447D01*
X86226073Y-87305035D01*
X86246319Y-87333950D01*
X86249955Y-87339142D01*
X86410858Y-87500045D01*
X86410861Y-87500047D01*
X86597266Y-87630568D01*
X86803504Y-87726739D01*
X87023308Y-87785635D01*
X87185230Y-87799801D01*
X87249998Y-87805468D01*
X87250000Y-87805468D01*
X87250002Y-87805468D01*
X87306673Y-87800509D01*
X87476692Y-87785635D01*
X87696496Y-87726739D01*
X87902734Y-87630568D01*
X88051541Y-87526373D01*
X88726888Y-87526373D01*
X88956646Y-88233495D01*
X89719394Y-87985664D01*
X89471563Y-87222917D01*
X88782630Y-87446764D01*
X88726888Y-87526373D01*
X88051541Y-87526373D01*
X88089139Y-87500047D01*
X88250047Y-87339139D01*
X88380568Y-87152734D01*
X88419602Y-87069026D01*
X89945189Y-87069026D01*
X90193020Y-87831773D01*
X90845377Y-87619810D01*
X90827992Y-87603880D01*
X90705695Y-87429223D01*
X90702689Y-87424724D01*
X90696828Y-87415524D01*
X90694024Y-87410902D01*
X90683154Y-87392076D01*
X90680547Y-87387325D01*
X90675509Y-87377646D01*
X90673119Y-87372799D01*
X90567800Y-87146941D01*
X90565623Y-87141995D01*
X90561450Y-87131922D01*
X90559489Y-87126879D01*
X90552053Y-87106452D01*
X90550313Y-87101328D01*
X90547030Y-87090917D01*
X90545515Y-87085718D01*
X90493321Y-86890927D01*
X89945189Y-87069026D01*
X88419602Y-87069026D01*
X88476739Y-86946496D01*
X88535635Y-86726692D01*
X88555468Y-86500000D01*
X88535635Y-86273308D01*
X88476739Y-86053504D01*
X88458821Y-86015079D01*
X88982011Y-86015079D01*
X89019480Y-86154917D01*
X89020767Y-86160179D01*
X89023128Y-86170832D01*
X89024182Y-86176129D01*
X89027957Y-86197536D01*
X89028781Y-86202894D01*
X89030204Y-86213709D01*
X89030792Y-86219077D01*
X89052520Y-86467423D01*
X89052874Y-86472821D01*
X89053350Y-86483721D01*
X89053468Y-86489131D01*
X89053468Y-86510869D01*
X89053350Y-86516279D01*
X89052874Y-86527179D01*
X89052520Y-86532577D01*
X89030792Y-86780923D01*
X89030204Y-86786291D01*
X89028781Y-86797106D01*
X89027957Y-86802464D01*
X89024182Y-86823871D01*
X89023128Y-86829168D01*
X89020767Y-86839821D01*
X89019480Y-86845084D01*
X89019158Y-86846283D01*
X89317671Y-86749291D01*
X89069839Y-85986542D01*
X88982011Y-86015079D01*
X88458821Y-86015079D01*
X88380568Y-85847266D01*
X88370335Y-85832652D01*
X89543466Y-85832652D01*
X89791297Y-86595400D01*
X90084918Y-86499997D01*
X90945034Y-86499997D01*
X90945034Y-86500002D01*
X90964858Y-86726599D01*
X90964860Y-86726610D01*
X91023730Y-86946317D01*
X91023735Y-86946331D01*
X91119863Y-87152478D01*
X91170974Y-87225472D01*
X91850000Y-86546446D01*
X91850000Y-86552661D01*
X91877259Y-86654394D01*
X91929920Y-86745606D01*
X92004394Y-86820080D01*
X92095606Y-86872741D01*
X92197339Y-86900000D01*
X92203553Y-86900000D01*
X91524526Y-87579025D01*
X91597513Y-87630132D01*
X91597521Y-87630136D01*
X91803668Y-87726264D01*
X91803682Y-87726269D01*
X92023389Y-87785139D01*
X92023400Y-87785141D01*
X92249998Y-87804966D01*
X92250002Y-87804966D01*
X92476599Y-87785141D01*
X92476610Y-87785139D01*
X92696317Y-87726269D01*
X92696331Y-87726264D01*
X92902478Y-87630136D01*
X92975471Y-87579024D01*
X92296447Y-86900000D01*
X92302661Y-86900000D01*
X92404394Y-86872741D01*
X92495606Y-86820080D01*
X92570080Y-86745606D01*
X92622741Y-86654394D01*
X92650000Y-86552661D01*
X92650000Y-86546447D01*
X93329024Y-87225471D01*
X93380136Y-87152478D01*
X93404498Y-87100233D01*
X94056031Y-87100233D01*
X94252000Y-87703363D01*
X94252000Y-87036559D01*
X94056031Y-87100233D01*
X93404498Y-87100233D01*
X93476264Y-86946331D01*
X93476269Y-86946317D01*
X93535139Y-86726610D01*
X93535141Y-86726599D01*
X93554966Y-86500002D01*
X93554966Y-86499997D01*
X93535141Y-86273400D01*
X93535139Y-86273389D01*
X93476269Y-86053682D01*
X93476264Y-86053668D01*
X93380136Y-85847521D01*
X93380132Y-85847513D01*
X93335677Y-85784026D01*
X93900009Y-85784026D01*
X93932200Y-85853059D01*
X93934377Y-85858005D01*
X93938550Y-85868078D01*
X93940511Y-85873121D01*
X93947947Y-85893548D01*
X93949687Y-85898672D01*
X93952970Y-85909083D01*
X93954485Y-85914282D01*
X94018986Y-86155004D01*
X94020273Y-86160266D01*
X94022634Y-86170919D01*
X94023688Y-86176216D01*
X94027463Y-86197623D01*
X94028287Y-86202981D01*
X94029710Y-86213796D01*
X94030298Y-86219165D01*
X94052018Y-86467424D01*
X94052372Y-86472821D01*
X94052848Y-86483721D01*
X94052966Y-86489131D01*
X94052966Y-86510869D01*
X94052848Y-86516279D01*
X94052372Y-86527179D01*
X94052018Y-86532577D01*
X94047935Y-86579235D01*
X94252000Y-86512930D01*
X94252000Y-86338910D01*
X94261439Y-86291458D01*
X94299499Y-86199572D01*
X94305894Y-86190000D01*
X94299499Y-86180428D01*
X94261439Y-86088542D01*
X94252000Y-86041090D01*
X94252000Y-85669658D01*
X93900009Y-85784026D01*
X93335677Y-85784026D01*
X93329025Y-85774526D01*
X92650000Y-86453551D01*
X92650000Y-86447339D01*
X92622741Y-86345606D01*
X92570080Y-86254394D01*
X92495606Y-86179920D01*
X92404394Y-86127259D01*
X92302661Y-86100000D01*
X92296448Y-86100000D01*
X92975472Y-85420974D01*
X92902478Y-85369863D01*
X92696331Y-85273735D01*
X92696317Y-85273730D01*
X92476610Y-85214860D01*
X92476599Y-85214858D01*
X92250002Y-85195034D01*
X92249998Y-85195034D01*
X92023400Y-85214858D01*
X92023389Y-85214860D01*
X91803682Y-85273730D01*
X91803673Y-85273734D01*
X91597516Y-85369866D01*
X91597512Y-85369868D01*
X91524526Y-85420973D01*
X91524526Y-85420974D01*
X92203553Y-86100000D01*
X92197339Y-86100000D01*
X92095606Y-86127259D01*
X92004394Y-86179920D01*
X91929920Y-86254394D01*
X91877259Y-86345606D01*
X91850000Y-86447339D01*
X91850000Y-86453552D01*
X91170974Y-85774526D01*
X91170973Y-85774526D01*
X91119868Y-85847512D01*
X91119866Y-85847516D01*
X91023734Y-86053673D01*
X91023730Y-86053682D01*
X90964860Y-86273389D01*
X90964858Y-86273400D01*
X90945034Y-86499997D01*
X90084918Y-86499997D01*
X90455671Y-86379532D01*
X90469702Y-86219164D01*
X90470290Y-86213796D01*
X90471713Y-86202981D01*
X90472537Y-86197623D01*
X90476312Y-86176216D01*
X90477366Y-86170919D01*
X90479727Y-86160266D01*
X90481014Y-86155005D01*
X90485743Y-86137355D01*
X90306214Y-85584821D01*
X89543466Y-85832652D01*
X88370335Y-85832652D01*
X88250047Y-85660861D01*
X88250045Y-85660858D01*
X88089141Y-85499954D01*
X87902734Y-85369432D01*
X87902732Y-85369431D01*
X87696497Y-85273261D01*
X87696488Y-85273258D01*
X87476697Y-85214366D01*
X87476693Y-85214365D01*
X87476692Y-85214365D01*
X87476691Y-85214364D01*
X87476686Y-85214364D01*
X87250002Y-85194532D01*
X87249998Y-85194532D01*
X87023313Y-85214364D01*
X87023302Y-85214366D01*
X86803511Y-85273258D01*
X86803502Y-85273261D01*
X86597267Y-85369431D01*
X86597265Y-85369432D01*
X86410858Y-85499954D01*
X86249954Y-85660858D01*
X86226075Y-85694962D01*
X86171498Y-85738587D01*
X86102000Y-85745781D01*
X86039645Y-85714258D01*
X86004231Y-85654029D01*
X86000500Y-85623839D01*
X86000500Y-84989210D01*
X86020185Y-84922171D01*
X86072989Y-84876416D01*
X86142147Y-84866472D01*
X86180796Y-84878726D01*
X86257952Y-84918040D01*
X86257960Y-84918043D01*
X86336572Y-84943585D01*
X86426445Y-84972786D01*
X86601421Y-85000500D01*
X86601422Y-85000500D01*
X86778578Y-85000500D01*
X86778579Y-85000500D01*
X86953555Y-84972786D01*
X87099215Y-84925459D01*
X88128634Y-84925459D01*
X88137588Y-84930121D01*
X88142320Y-84932717D01*
X88161145Y-84943585D01*
X88165778Y-84946397D01*
X88174977Y-84952258D01*
X88179470Y-84955260D01*
X88383680Y-85098247D01*
X88388040Y-85101444D01*
X88396694Y-85108084D01*
X88400915Y-85111471D01*
X88417568Y-85125444D01*
X88421638Y-85129014D01*
X88429684Y-85136387D01*
X88433591Y-85140127D01*
X88609873Y-85316409D01*
X88613613Y-85320316D01*
X88620986Y-85328362D01*
X88624556Y-85332432D01*
X88638529Y-85349085D01*
X88641916Y-85353306D01*
X88648556Y-85361960D01*
X88651753Y-85366320D01*
X88784341Y-85555679D01*
X88915949Y-85512917D01*
X88668118Y-84750170D01*
X88128634Y-84925459D01*
X87099215Y-84925459D01*
X87122042Y-84918042D01*
X87279890Y-84837614D01*
X87423214Y-84733483D01*
X87548483Y-84608214D01*
X87557154Y-84596279D01*
X89141744Y-84596279D01*
X89389575Y-85359026D01*
X90152323Y-85111195D01*
X89904492Y-84348448D01*
X89141744Y-84596279D01*
X87557154Y-84596279D01*
X87652614Y-84464890D01*
X87702743Y-84366507D01*
X88237348Y-84366507D01*
X88514227Y-84276543D01*
X88487588Y-84194557D01*
X90378118Y-84194557D01*
X90625949Y-84957304D01*
X91388696Y-84709473D01*
X91140865Y-83946726D01*
X90378118Y-84194557D01*
X88487588Y-84194557D01*
X88313500Y-83658767D01*
X88313500Y-83973364D01*
X88313404Y-83978236D01*
X88313018Y-83988053D01*
X88312731Y-83992917D01*
X88311195Y-84012419D01*
X88310719Y-84017253D01*
X88309566Y-84026998D01*
X88308898Y-84031826D01*
X88278125Y-84226118D01*
X88277270Y-84230910D01*
X88275356Y-84240533D01*
X88274313Y-84245286D01*
X88269747Y-84264308D01*
X88268515Y-84269028D01*
X88265848Y-84278483D01*
X88264436Y-84283137D01*
X88237348Y-84366507D01*
X87702743Y-84366507D01*
X87733042Y-84307042D01*
X87787786Y-84138555D01*
X87815500Y-83963579D01*
X87815500Y-83359905D01*
X88740022Y-83359905D01*
X88987853Y-84122653D01*
X89750601Y-83874822D01*
X89723962Y-83792835D01*
X91614491Y-83792835D01*
X91862322Y-84555582D01*
X92625070Y-84307751D01*
X92377239Y-83545004D01*
X91614491Y-83792835D01*
X89723962Y-83792835D01*
X89502770Y-83112074D01*
X88740022Y-83359905D01*
X87815500Y-83359905D01*
X87815500Y-83036421D01*
X87803108Y-82958183D01*
X89976396Y-82958183D01*
X90224227Y-83720931D01*
X90986974Y-83473100D01*
X90739143Y-82710352D01*
X89976396Y-82958183D01*
X87803108Y-82958183D01*
X87787786Y-82861445D01*
X87754686Y-82759572D01*
X87733043Y-82692960D01*
X87733042Y-82692957D01*
X87652613Y-82535109D01*
X87548483Y-82391786D01*
X87423214Y-82266517D01*
X87279890Y-82162386D01*
X87246259Y-82145250D01*
X87203636Y-82123532D01*
X88338300Y-82123532D01*
X88586131Y-82886279D01*
X89348878Y-82638448D01*
X89322239Y-82556461D01*
X91212769Y-82556461D01*
X91460600Y-83319209D01*
X92223348Y-83071378D01*
X91975517Y-82308630D01*
X91212769Y-82556461D01*
X89322239Y-82556461D01*
X89265165Y-82380805D01*
X89166961Y-82344178D01*
X89158782Y-82340790D01*
X89142537Y-82333371D01*
X89134621Y-82329408D01*
X89103379Y-82312348D01*
X89095771Y-82307835D01*
X89080748Y-82298181D01*
X89073472Y-82293129D01*
X88929763Y-82185547D01*
X88922874Y-82179996D01*
X88909379Y-82168303D01*
X88902899Y-82162269D01*
X88895369Y-82154739D01*
X92449143Y-82154739D01*
X92696974Y-82917486D01*
X92699779Y-82916574D01*
X92722362Y-82773999D01*
X92723220Y-82769195D01*
X92725135Y-82759572D01*
X92726174Y-82754837D01*
X92730739Y-82735815D01*
X92731971Y-82731092D01*
X92734638Y-82721636D01*
X92736051Y-82716978D01*
X92796817Y-82529959D01*
X92798409Y-82525367D01*
X92801806Y-82516157D01*
X92803584Y-82511614D01*
X92811071Y-82493539D01*
X92813021Y-82489081D01*
X92817132Y-82480163D01*
X92819258Y-82475779D01*
X92908532Y-82300569D01*
X92910826Y-82296277D01*
X92915623Y-82287711D01*
X92918085Y-82283511D01*
X92928306Y-82266831D01*
X92930931Y-82262730D01*
X92936387Y-82254564D01*
X92939174Y-82250566D01*
X93054760Y-82091479D01*
X93057699Y-82087596D01*
X93063778Y-82079885D01*
X93066867Y-82076121D01*
X93079571Y-82061247D01*
X93082799Y-82057615D01*
X93089463Y-82050405D01*
X93092843Y-82046889D01*
X93217023Y-81922708D01*
X93211890Y-81906908D01*
X92449143Y-82154739D01*
X88895369Y-82154739D01*
X88877731Y-82137101D01*
X88871697Y-82130621D01*
X88860004Y-82117126D01*
X88854453Y-82110237D01*
X88761473Y-81986034D01*
X88338300Y-82123532D01*
X87203636Y-82123532D01*
X87122042Y-82081957D01*
X87122039Y-82081956D01*
X86953556Y-82027214D01*
X86866067Y-82013357D01*
X86778579Y-81999500D01*
X86601421Y-81999500D01*
X86543095Y-82008738D01*
X86426443Y-82027214D01*
X86257960Y-82081956D01*
X86257952Y-82081960D01*
X86180794Y-82121274D01*
X86112125Y-82134170D01*
X86047385Y-82107893D01*
X86007128Y-82050787D01*
X86000500Y-82010789D01*
X86000500Y-81288880D01*
X86700205Y-81288880D01*
X86769289Y-81501500D01*
X86788364Y-81501500D01*
X86793236Y-81501596D01*
X86803053Y-81501982D01*
X86807917Y-81502269D01*
X86827419Y-81503805D01*
X86832253Y-81504281D01*
X86841998Y-81505434D01*
X86846826Y-81506102D01*
X87041118Y-81536875D01*
X87045910Y-81537730D01*
X87055533Y-81539644D01*
X87060286Y-81540687D01*
X87079308Y-81545253D01*
X87084028Y-81546485D01*
X87093483Y-81549152D01*
X87098137Y-81550564D01*
X87285232Y-81611353D01*
X87289836Y-81612949D01*
X87299046Y-81616347D01*
X87303578Y-81618121D01*
X87321653Y-81625608D01*
X87326106Y-81627556D01*
X87335025Y-81631667D01*
X87339414Y-81633795D01*
X87514693Y-81723105D01*
X87518991Y-81725402D01*
X87527556Y-81730199D01*
X87531750Y-81732658D01*
X87548430Y-81742879D01*
X87552537Y-81745508D01*
X87560702Y-81750964D01*
X87564693Y-81753746D01*
X87657438Y-81821129D01*
X87710783Y-81803796D01*
X87462952Y-81041049D01*
X86700205Y-81288880D01*
X86000500Y-81288880D01*
X86000500Y-80887158D01*
X87936578Y-80887158D01*
X88184409Y-81649906D01*
X88602195Y-81514159D01*
X88601857Y-81507838D01*
X88601724Y-81504538D01*
X88601545Y-81497856D01*
X88601501Y-81494535D01*
X88601500Y-80671112D01*
X87936578Y-80887158D01*
X86000500Y-80887158D01*
X86000500Y-79987518D01*
X86498500Y-79987518D01*
X86498500Y-80668097D01*
X86546314Y-80815254D01*
X87309061Y-80567423D01*
X87061230Y-79804676D01*
X86498500Y-79987518D01*
X86000500Y-79987518D01*
X86000500Y-79650785D01*
X87534856Y-79650785D01*
X87782687Y-80413532D01*
X88545434Y-80165701D01*
X88297603Y-79402954D01*
X87534856Y-79650785D01*
X86000500Y-79650785D01*
X86000500Y-78620617D01*
X86498500Y-78620617D01*
X86498500Y-79463889D01*
X86907339Y-79331050D01*
X86659508Y-78568302D01*
X86498500Y-78620617D01*
X86000500Y-78620617D01*
X86000500Y-78414411D01*
X87133134Y-78414411D01*
X87380965Y-79177159D01*
X88143712Y-78929328D01*
X87895881Y-78166580D01*
X87133134Y-78414411D01*
X86000500Y-78414411D01*
X86000500Y-78012689D01*
X88369506Y-78012689D01*
X88617338Y-78775437D01*
X88748354Y-78732867D01*
X88710653Y-78646917D01*
X88708693Y-78642185D01*
X88704937Y-78632560D01*
X88703174Y-78627751D01*
X88696486Y-78608273D01*
X88694920Y-78603385D01*
X88691970Y-78593476D01*
X88690609Y-78588535D01*
X88628576Y-78343574D01*
X88627421Y-78338579D01*
X88625299Y-78328458D01*
X88624351Y-78323419D01*
X88620962Y-78303106D01*
X88620223Y-78298039D01*
X88618945Y-78287787D01*
X88618416Y-78282687D01*
X88597550Y-78030862D01*
X88597233Y-78025746D01*
X88596806Y-78015420D01*
X88596700Y-78010297D01*
X88596700Y-77989703D01*
X88596806Y-77984580D01*
X88597233Y-77974254D01*
X88597550Y-77969138D01*
X88600150Y-77937748D01*
X88369506Y-78012689D01*
X86000500Y-78012689D01*
X86000500Y-77178038D01*
X86731412Y-77178038D01*
X86979243Y-77940785D01*
X87741990Y-77692954D01*
X87494159Y-76930207D01*
X86731412Y-77178038D01*
X86000500Y-77178038D01*
X86000500Y-76776316D01*
X87967785Y-76776316D01*
X88215616Y-77539063D01*
X88699928Y-77381700D01*
X88703174Y-77372249D01*
X88704937Y-77367440D01*
X88708693Y-77357815D01*
X88710653Y-77353083D01*
X88812157Y-77121677D01*
X88814314Y-77117023D01*
X88818854Y-77107737D01*
X88821198Y-77103184D01*
X88830999Y-77085073D01*
X88833531Y-77080617D01*
X88838821Y-77071739D01*
X88841535Y-77067391D01*
X88884343Y-77001866D01*
X88847508Y-76888499D01*
X88595455Y-76888500D01*
X88592125Y-76888455D01*
X88585424Y-76888275D01*
X88582115Y-76888142D01*
X88568798Y-76887428D01*
X88565479Y-76887205D01*
X88558814Y-76886668D01*
X88555517Y-76886359D01*
X88473805Y-76877574D01*
X88466134Y-76876506D01*
X88450738Y-76873870D01*
X88443149Y-76872325D01*
X88412848Y-76865165D01*
X88405372Y-76863150D01*
X88390417Y-76858614D01*
X88383075Y-76856134D01*
X88216961Y-76794178D01*
X88208782Y-76790790D01*
X88192537Y-76783371D01*
X88184621Y-76779408D01*
X88153379Y-76762348D01*
X88145771Y-76757835D01*
X88130748Y-76748181D01*
X88123472Y-76743129D01*
X88107265Y-76730996D01*
X87967785Y-76776316D01*
X86000500Y-76776316D01*
X86000500Y-75886815D01*
X86498500Y-75886815D01*
X86498500Y-76461208D01*
X86577521Y-76704412D01*
X87340268Y-76456581D01*
X87092437Y-75693833D01*
X86498500Y-75886815D01*
X86000500Y-75886815D01*
X86000500Y-74519914D01*
X86498500Y-74519914D01*
X86498500Y-75363186D01*
X86938546Y-75220207D01*
X86690715Y-74457459D01*
X86498500Y-74519914D01*
X86000500Y-74519914D01*
X86000500Y-74303569D01*
X87164341Y-74303569D01*
X87412172Y-75066316D01*
X87651500Y-74988553D01*
X87651500Y-74145281D01*
X87164341Y-74303569D01*
X86000500Y-74303569D01*
X86000500Y-73503750D01*
X86000726Y-73496263D01*
X86000904Y-73493325D01*
X86018271Y-73206201D01*
X86020076Y-73191340D01*
X86042827Y-73067195D01*
X86762619Y-73067195D01*
X87010450Y-73829943D01*
X87773197Y-73582112D01*
X87525366Y-72819364D01*
X86762619Y-73067195D01*
X86042827Y-73067195D01*
X86071780Y-72909197D01*
X86075364Y-72894663D01*
X86160696Y-72620822D01*
X86165998Y-72606841D01*
X86191216Y-72550808D01*
X86740334Y-72550808D01*
X87371475Y-72345738D01*
X87242390Y-71948456D01*
X87173357Y-72002540D01*
X87002540Y-72173357D01*
X86853542Y-72363538D01*
X86740334Y-72550808D01*
X86191216Y-72550808D01*
X86283731Y-72345249D01*
X86290676Y-72332016D01*
X86439080Y-72086526D01*
X86447567Y-72074230D01*
X86624480Y-71848417D01*
X86634395Y-71837226D01*
X86837226Y-71634395D01*
X86848417Y-71624480D01*
X87074230Y-71447567D01*
X87086526Y-71439080D01*
X87332016Y-71290676D01*
X87345249Y-71283731D01*
X87606841Y-71165998D01*
X87620822Y-71160696D01*
X87894668Y-71075362D01*
X87909197Y-71071780D01*
X88191344Y-71020075D01*
X88206201Y-71018271D01*
X88496264Y-71000726D01*
X88503751Y-71000500D01*
X88565892Y-71000500D01*
X88960804Y-71000500D01*
X89027843Y-71020185D01*
G37*
%TD.AperFunction*%
%TA.AperFunction,Conductor*%
G36*
X98222901Y-97607547D02*
G01*
X98239137Y-97621215D01*
X98247738Y-97629816D01*
X98323751Y-97677578D01*
X98398426Y-97724500D01*
X98400478Y-97725789D01*
X98570745Y-97785368D01*
X98570750Y-97785369D01*
X98749996Y-97805565D01*
X98749999Y-97805565D01*
X98749999Y-97805564D01*
X98750000Y-97805565D01*
X98786890Y-97801408D01*
X98855709Y-97813461D01*
X98907089Y-97860809D01*
X98924715Y-97928419D01*
X98902990Y-97994826D01*
X98888454Y-98012309D01*
X98149163Y-98751600D01*
X98087840Y-98785085D01*
X98018148Y-98780101D01*
X97962215Y-98738229D01*
X97961206Y-98736861D01*
X97834517Y-98562490D01*
X97667510Y-98395483D01*
X97632447Y-98370008D01*
X97589782Y-98314679D01*
X97583803Y-98245066D01*
X97616409Y-98183271D01*
X97632450Y-98169371D01*
X97667182Y-98144137D01*
X97834133Y-97977186D01*
X97972916Y-97786169D01*
X98040971Y-97652602D01*
X98088945Y-97601806D01*
X98156766Y-97585010D01*
X98222901Y-97607547D01*
G37*
%TD.AperFunction*%
%TA.AperFunction,Conductor*%
G36*
X89534075Y-96807007D02*
G01*
X89500000Y-96934174D01*
X89500000Y-97065826D01*
X89534075Y-97192993D01*
X89566988Y-97250000D01*
X87893012Y-97250000D01*
X87925925Y-97192993D01*
X87960000Y-97065826D01*
X87960000Y-96934174D01*
X87925925Y-96807007D01*
X87893012Y-96750000D01*
X89566988Y-96750000D01*
X89534075Y-96807007D01*
G37*
%TD.AperFunction*%
%TA.AperFunction,Conductor*%
G36*
X111503736Y-71000726D02*
G01*
X111793796Y-71018271D01*
X111808657Y-71020075D01*
X112090798Y-71071780D01*
X112105335Y-71075363D01*
X112379172Y-71160695D01*
X112393163Y-71166000D01*
X112654743Y-71283727D01*
X112667989Y-71290680D01*
X112913465Y-71439075D01*
X112925776Y-71447573D01*
X113151573Y-71624473D01*
X113162781Y-71634403D01*
X113365596Y-71837218D01*
X113375526Y-71848426D01*
X113495481Y-72001538D01*
X113552422Y-72074217D01*
X113560928Y-72086540D01*
X113709316Y-72332004D01*
X113716275Y-72345263D01*
X113833997Y-72606831D01*
X113839306Y-72620832D01*
X113924635Y-72894663D01*
X113928219Y-72909201D01*
X113979923Y-73191340D01*
X113981728Y-73206205D01*
X113996644Y-73452778D01*
X113999070Y-73492899D01*
X113999274Y-73496263D01*
X113999500Y-73503750D01*
X113999500Y-82010789D01*
X113979815Y-82077828D01*
X113927011Y-82123583D01*
X113857853Y-82133527D01*
X113819206Y-82121274D01*
X113742047Y-82081960D01*
X113742039Y-82081956D01*
X113573556Y-82027214D01*
X113486067Y-82013357D01*
X113398579Y-81999500D01*
X113221421Y-81999500D01*
X113163095Y-82008738D01*
X113046443Y-82027214D01*
X112877960Y-82081956D01*
X112877957Y-82081957D01*
X112720109Y-82162386D01*
X112657790Y-82207664D01*
X112576786Y-82266517D01*
X112576784Y-82266519D01*
X112576783Y-82266519D01*
X112451519Y-82391783D01*
X112451519Y-82391784D01*
X112451517Y-82391786D01*
X112435997Y-82413148D01*
X112347386Y-82535109D01*
X112266957Y-82692957D01*
X112266956Y-82692960D01*
X112212214Y-82861443D01*
X112205411Y-82904394D01*
X112184500Y-83036421D01*
X112184500Y-83963579D01*
X112196468Y-84039142D01*
X112212214Y-84138556D01*
X112266956Y-84307039D01*
X112266957Y-84307042D01*
X112322914Y-84416861D01*
X112347386Y-84464890D01*
X112451517Y-84608214D01*
X112576786Y-84733483D01*
X112720110Y-84837614D01*
X112737548Y-84846499D01*
X112877957Y-84918042D01*
X112877960Y-84918043D01*
X112956572Y-84943585D01*
X113046445Y-84972786D01*
X113221421Y-85000500D01*
X113221422Y-85000500D01*
X113398578Y-85000500D01*
X113398579Y-85000500D01*
X113573555Y-84972786D01*
X113742042Y-84918042D01*
X113742042Y-84918041D01*
X113742047Y-84918040D01*
X113819204Y-84878726D01*
X113887874Y-84865829D01*
X113952614Y-84892105D01*
X113992872Y-84949211D01*
X113999500Y-84989210D01*
X113999500Y-96375024D01*
X113979815Y-96442063D01*
X113927011Y-96487818D01*
X113857853Y-96497762D01*
X113794297Y-96468737D01*
X113763118Y-96427429D01*
X113714035Y-96322171D01*
X113714034Y-96322169D01*
X113578494Y-96128597D01*
X113411402Y-95961506D01*
X113411395Y-95961501D01*
X113410475Y-95960857D01*
X113334518Y-95907671D01*
X113217834Y-95825967D01*
X113217830Y-95825965D01*
X113146727Y-95792809D01*
X113003663Y-95726097D01*
X113003659Y-95726096D01*
X113003655Y-95726094D01*
X112775413Y-95664938D01*
X112775403Y-95664936D01*
X112540001Y-95644341D01*
X112539999Y-95644341D01*
X112304596Y-95664936D01*
X112304586Y-95664938D01*
X112076344Y-95726094D01*
X112076335Y-95726098D01*
X111862171Y-95825964D01*
X111862169Y-95825965D01*
X111668600Y-95961503D01*
X111546673Y-96083430D01*
X111485350Y-96116914D01*
X111415658Y-96111930D01*
X111359725Y-96070058D01*
X111342810Y-96039081D01*
X111293797Y-95907671D01*
X111293793Y-95907664D01*
X111207547Y-95792455D01*
X111207544Y-95792452D01*
X111092335Y-95706206D01*
X111092328Y-95706202D01*
X110957482Y-95655908D01*
X110957483Y-95655908D01*
X110897883Y-95649501D01*
X110897881Y-95649500D01*
X110897873Y-95649500D01*
X110897864Y-95649500D01*
X109102129Y-95649500D01*
X109102123Y-95649501D01*
X109042516Y-95655908D01*
X108907671Y-95706202D01*
X108907664Y-95706206D01*
X108792455Y-95792452D01*
X108792452Y-95792455D01*
X108706206Y-95907664D01*
X108706202Y-95907671D01*
X108655908Y-96042517D01*
X108650702Y-96090943D01*
X108649500Y-96102127D01*
X108649500Y-96102128D01*
X108649500Y-96102135D01*
X108649500Y-96275500D01*
X108629815Y-96342539D01*
X108577011Y-96388294D01*
X108525500Y-96399500D01*
X105764068Y-96399500D01*
X105697029Y-96379815D01*
X105653583Y-96331795D01*
X105593343Y-96213567D01*
X105454517Y-96022490D01*
X105287510Y-95855483D01*
X105096433Y-95716657D01*
X105004385Y-95669756D01*
X104905961Y-95619606D01*
X104855165Y-95571631D01*
X104838370Y-95503810D01*
X104846073Y-95465791D01*
X104864091Y-95417483D01*
X104864300Y-95415539D01*
X106326144Y-95415539D01*
X106484042Y-95901500D01*
X107327315Y-95901500D01*
X107088892Y-95167708D01*
X106326144Y-95415539D01*
X104864300Y-95415539D01*
X104870500Y-95357873D01*
X104870499Y-94359796D01*
X105368499Y-94359796D01*
X105368499Y-95203069D01*
X105698627Y-95095804D01*
X105671988Y-95013817D01*
X107562518Y-95013817D01*
X107810349Y-95776565D01*
X108301804Y-95616881D01*
X108404453Y-95479763D01*
X108410004Y-95472874D01*
X108421697Y-95459379D01*
X108427731Y-95452899D01*
X108452899Y-95427731D01*
X108459379Y-95421697D01*
X108472874Y-95410004D01*
X108479763Y-95404453D01*
X108522354Y-95372567D01*
X108325265Y-94765987D01*
X107562518Y-95013817D01*
X105671988Y-95013817D01*
X105450796Y-94333056D01*
X105368499Y-94359796D01*
X104870499Y-94359796D01*
X104870499Y-94179166D01*
X105924422Y-94179166D01*
X106172253Y-94941913D01*
X106935001Y-94694082D01*
X106908362Y-94612095D01*
X108798891Y-94612095D01*
X108977572Y-95162020D01*
X109055534Y-95153640D01*
X109058849Y-95153329D01*
X109065528Y-95152792D01*
X109068835Y-95152570D01*
X109082149Y-95151857D01*
X109085460Y-95151724D01*
X109092144Y-95151545D01*
X109095464Y-95151501D01*
X109734101Y-95151500D01*
X109809469Y-95127011D01*
X109782830Y-95045025D01*
X111673359Y-95045025D01*
X111763512Y-95322487D01*
X111875720Y-95270164D01*
X111880670Y-95267986D01*
X111890744Y-95263813D01*
X111895783Y-95261853D01*
X111916210Y-95254417D01*
X111921337Y-95252676D01*
X111931749Y-95249393D01*
X111936945Y-95247879D01*
X112186201Y-95181092D01*
X112191463Y-95179805D01*
X112202116Y-95177444D01*
X112207413Y-95176390D01*
X112228820Y-95172615D01*
X112234176Y-95171791D01*
X112244990Y-95170368D01*
X112250360Y-95169780D01*
X112507423Y-95147289D01*
X112512821Y-95146935D01*
X112523721Y-95146459D01*
X112529131Y-95146341D01*
X112549552Y-95146341D01*
X112436108Y-94797194D01*
X111673359Y-95045025D01*
X109782830Y-95045025D01*
X109561639Y-94364264D01*
X108798891Y-94612095D01*
X106908362Y-94612095D01*
X106687170Y-93931335D01*
X105924422Y-94179166D01*
X104870499Y-94179166D01*
X104870499Y-93777444D01*
X107160796Y-93777444D01*
X107408627Y-94540191D01*
X108171374Y-94292360D01*
X108144735Y-94210373D01*
X110035264Y-94210373D01*
X110283096Y-94973121D01*
X111045843Y-94725290D01*
X111019204Y-94643302D01*
X112909733Y-94643302D01*
X113102654Y-95237053D01*
X113143056Y-95247879D01*
X113148251Y-95249393D01*
X113158663Y-95252676D01*
X113163790Y-95254417D01*
X113184217Y-95261853D01*
X113189256Y-95263813D01*
X113199330Y-95267986D01*
X113204280Y-95270164D01*
X113356837Y-95341303D01*
X113501500Y-95294299D01*
X113501500Y-94451026D01*
X112909733Y-94643302D01*
X111019204Y-94643302D01*
X110879896Y-94214555D01*
X110733023Y-94201706D01*
X110727654Y-94201118D01*
X110716839Y-94199695D01*
X110711481Y-94198871D01*
X110690074Y-94195096D01*
X110684777Y-94194042D01*
X110674124Y-94191681D01*
X110668862Y-94190394D01*
X110609492Y-94174486D01*
X111390504Y-94174486D01*
X111519469Y-94571399D01*
X112282216Y-94323568D01*
X112116250Y-93812773D01*
X112115948Y-93813038D01*
X112099295Y-93827011D01*
X112095074Y-93830398D01*
X112086420Y-93837038D01*
X112082060Y-93840235D01*
X111889320Y-93975191D01*
X111884828Y-93978193D01*
X111875634Y-93984051D01*
X111871007Y-93986859D01*
X111852183Y-93997728D01*
X111847443Y-94000328D01*
X111837759Y-94005370D01*
X111832900Y-94007767D01*
X111619647Y-94107209D01*
X111614697Y-94109387D01*
X111604623Y-94113560D01*
X111599584Y-94115520D01*
X111579157Y-94122956D01*
X111574030Y-94124697D01*
X111563618Y-94127980D01*
X111558422Y-94129494D01*
X111390504Y-94174486D01*
X110609492Y-94174486D01*
X110441578Y-94129494D01*
X110436382Y-94127980D01*
X110425970Y-94124697D01*
X110420843Y-94122956D01*
X110400416Y-94115520D01*
X110395377Y-94113560D01*
X110385303Y-94109387D01*
X110380352Y-94107209D01*
X110369025Y-94101927D01*
X110035264Y-94210373D01*
X108144735Y-94210373D01*
X107923543Y-93529613D01*
X107160796Y-93777444D01*
X104870499Y-93777444D01*
X104870499Y-93460095D01*
X104890184Y-93393057D01*
X104906813Y-93372420D01*
X104945461Y-93333772D01*
X105649736Y-93333772D01*
X105770531Y-93705540D01*
X106533278Y-93457709D01*
X106506639Y-93375722D01*
X108397169Y-93375722D01*
X108645000Y-94138469D01*
X109407747Y-93890638D01*
X109159916Y-93127891D01*
X108397169Y-93375722D01*
X106506639Y-93375722D01*
X106286207Y-92697302D01*
X105649736Y-93333772D01*
X104945461Y-93333772D01*
X105738164Y-92541070D01*
X106759073Y-92541070D01*
X107006904Y-93303818D01*
X107769652Y-93055987D01*
X107521821Y-92293239D01*
X106759073Y-92541070D01*
X105738164Y-92541070D01*
X106139886Y-92139348D01*
X107995447Y-92139348D01*
X108243278Y-92902096D01*
X109006025Y-92654265D01*
X108758194Y-91891517D01*
X107995447Y-92139348D01*
X106139886Y-92139348D01*
X107008833Y-91270402D01*
X107713109Y-91270402D01*
X107841556Y-91665722D01*
X108604303Y-91417891D01*
X108487531Y-91058500D01*
X107925013Y-91058500D01*
X107713109Y-91270402D01*
X107008833Y-91270402D01*
X107682416Y-90596819D01*
X107743739Y-90563334D01*
X107770097Y-90560500D01*
X109865969Y-90560500D01*
X109933008Y-90580185D01*
X109967544Y-90613377D01*
X110061472Y-90747521D01*
X110212478Y-90898527D01*
X110212481Y-90898529D01*
X110387419Y-91021021D01*
X110387421Y-91021022D01*
X110387420Y-91021022D01*
X110432537Y-91042060D01*
X110580970Y-91111276D01*
X110580983Y-91111279D01*
X110586064Y-91113130D01*
X110585292Y-91115250D01*
X110636710Y-91146594D01*
X110667237Y-91209442D01*
X110658939Y-91278817D01*
X110614452Y-91332693D01*
X110585685Y-91345830D01*
X110586064Y-91346870D01*
X110580972Y-91348723D01*
X110580970Y-91348724D01*
X110580968Y-91348725D01*
X110387421Y-91438977D01*
X110212478Y-91561472D01*
X110061472Y-91712478D01*
X109938977Y-91887421D01*
X109848725Y-92080968D01*
X109848721Y-92080977D01*
X109793452Y-92287247D01*
X109793450Y-92287258D01*
X109774838Y-92499998D01*
X109774838Y-92500001D01*
X109793450Y-92712741D01*
X109793452Y-92712752D01*
X109848721Y-92919022D01*
X109848723Y-92919026D01*
X109848724Y-92919030D01*
X109873357Y-92971855D01*
X109938977Y-93112578D01*
X110061472Y-93287521D01*
X110212478Y-93438527D01*
X110212481Y-93438529D01*
X110387419Y-93561021D01*
X110387421Y-93561022D01*
X110387420Y-93561022D01*
X110429644Y-93580711D01*
X110580970Y-93651276D01*
X110787253Y-93706549D01*
X110939215Y-93719844D01*
X110999998Y-93725162D01*
X111000000Y-93725162D01*
X111000002Y-93725162D01*
X111053186Y-93720508D01*
X111212747Y-93706549D01*
X111419030Y-93651276D01*
X111612581Y-93561021D01*
X111787519Y-93438529D01*
X111819119Y-93406929D01*
X112508011Y-93406929D01*
X112755843Y-94169676D01*
X113501500Y-93927398D01*
X113501500Y-93869245D01*
X113270759Y-93159098D01*
X112508011Y-93406929D01*
X111819119Y-93406929D01*
X111938529Y-93287519D01*
X112061021Y-93112581D01*
X112151276Y-92919030D01*
X112206549Y-92712747D01*
X112225162Y-92500000D01*
X112206549Y-92287253D01*
X112151276Y-92080970D01*
X112111576Y-91995833D01*
X112644031Y-91995833D01*
X112690394Y-92168862D01*
X112691681Y-92174124D01*
X112694042Y-92184777D01*
X112695096Y-92190074D01*
X112698871Y-92211481D01*
X112699695Y-92216839D01*
X112701118Y-92227654D01*
X112701706Y-92233022D01*
X112722214Y-92467423D01*
X112722568Y-92472821D01*
X112723044Y-92483721D01*
X112723162Y-92489131D01*
X112723162Y-92510869D01*
X112723044Y-92516279D01*
X112722568Y-92527179D01*
X112722214Y-92532577D01*
X112701706Y-92766978D01*
X112701118Y-92772346D01*
X112699695Y-92783161D01*
X112698871Y-92788519D01*
X112695096Y-92809926D01*
X112694042Y-92815223D01*
X112692218Y-92823448D01*
X113116868Y-92685472D01*
X112869037Y-91922725D01*
X112644031Y-91995833D01*
X112111576Y-91995833D01*
X112061021Y-91887419D01*
X111938529Y-91712481D01*
X111938527Y-91712478D01*
X111787521Y-91561472D01*
X111647707Y-91463574D01*
X111612581Y-91438979D01*
X111612580Y-91438978D01*
X111612578Y-91438977D01*
X111612579Y-91438977D01*
X111460429Y-91368029D01*
X111419030Y-91348724D01*
X111419023Y-91348722D01*
X111413936Y-91346870D01*
X111414709Y-91344746D01*
X111363305Y-91313424D01*
X111332766Y-91250581D01*
X111335223Y-91230000D01*
X112160326Y-91230000D01*
X112298355Y-91368029D01*
X112302095Y-91371936D01*
X112309468Y-91379982D01*
X112313038Y-91384052D01*
X112327011Y-91400705D01*
X112330398Y-91404926D01*
X112337038Y-91413580D01*
X112340235Y-91417940D01*
X112427494Y-91542561D01*
X112715146Y-91449098D01*
X112504227Y-90799954D01*
X112500328Y-90807443D01*
X112497728Y-90812183D01*
X112486859Y-90831007D01*
X112484051Y-90835634D01*
X112478193Y-90844828D01*
X112475191Y-90849320D01*
X112340235Y-91042060D01*
X112337038Y-91046420D01*
X112330398Y-91055074D01*
X112327011Y-91059295D01*
X112313038Y-91075948D01*
X112309468Y-91080018D01*
X112302095Y-91088064D01*
X112298355Y-91091971D01*
X112160326Y-91230000D01*
X111335223Y-91230000D01*
X111341050Y-91181204D01*
X111385528Y-91127320D01*
X111414315Y-91114172D01*
X111413936Y-91113130D01*
X111419013Y-91111280D01*
X111419030Y-91111276D01*
X111612581Y-91021021D01*
X111787519Y-90898529D01*
X111938529Y-90747519D01*
X112061021Y-90572581D01*
X112079730Y-90532460D01*
X112940941Y-90532460D01*
X113188772Y-91295207D01*
X113501500Y-91193595D01*
X113501500Y-90350323D01*
X112940941Y-90532460D01*
X112079730Y-90532460D01*
X112151276Y-90379030D01*
X112206549Y-90172747D01*
X112225162Y-89960000D01*
X112206549Y-89747253D01*
X112151276Y-89540970D01*
X112061021Y-89347419D01*
X112015724Y-89282727D01*
X112580337Y-89282727D01*
X112607209Y-89340353D01*
X112609387Y-89345303D01*
X112613560Y-89355377D01*
X112615520Y-89360416D01*
X112622956Y-89380843D01*
X112624697Y-89385970D01*
X112627980Y-89396382D01*
X112629494Y-89401578D01*
X112690394Y-89628862D01*
X112691681Y-89634124D01*
X112694042Y-89644777D01*
X112695096Y-89650074D01*
X112698871Y-89671481D01*
X112699695Y-89676839D01*
X112701118Y-89687654D01*
X112701706Y-89693023D01*
X112714055Y-89834179D01*
X112787050Y-90058834D01*
X113501500Y-89826695D01*
X113501500Y-89662357D01*
X113301966Y-89048256D01*
X112580337Y-89282727D01*
X112015724Y-89282727D01*
X111938529Y-89172481D01*
X111938527Y-89172478D01*
X111787521Y-89021472D01*
X111612578Y-88898977D01*
X111612579Y-88898977D01*
X111468838Y-88831950D01*
X111419030Y-88808724D01*
X111419023Y-88808722D01*
X111413936Y-88806870D01*
X111414606Y-88805028D01*
X111362293Y-88773114D01*
X111331789Y-88710255D01*
X111340111Y-88640883D01*
X111384617Y-88587022D01*
X111414097Y-88573574D01*
X111413764Y-88572658D01*
X111418864Y-88570801D01*
X111519495Y-88523876D01*
X112288312Y-88523876D01*
X112385328Y-88822461D01*
X113148075Y-88574630D01*
X112900244Y-87811881D01*
X112651986Y-87892545D01*
X112629022Y-87978251D01*
X112627507Y-87983450D01*
X112624224Y-87993861D01*
X112622484Y-87998985D01*
X112615048Y-88019412D01*
X112613087Y-88024455D01*
X112608914Y-88034528D01*
X112606738Y-88039473D01*
X112507335Y-88252647D01*
X112504940Y-88257503D01*
X112499899Y-88267186D01*
X112497295Y-88271931D01*
X112486424Y-88290758D01*
X112483616Y-88295385D01*
X112477756Y-88304582D01*
X112474754Y-88309075D01*
X112364562Y-88466441D01*
X112324986Y-88502704D01*
X112288312Y-88523876D01*
X111519495Y-88523876D01*
X111612325Y-88480589D01*
X111668030Y-88441583D01*
X111046448Y-87820000D01*
X111052661Y-87820000D01*
X111154394Y-87792741D01*
X111245606Y-87740080D01*
X111320080Y-87665606D01*
X111372741Y-87574394D01*
X111400000Y-87472661D01*
X111400000Y-87466446D01*
X112021583Y-88088029D01*
X112060589Y-88032325D01*
X112150801Y-87838864D01*
X112150805Y-87838853D01*
X112206054Y-87632662D01*
X112206055Y-87632654D01*
X112224660Y-87420002D01*
X112224660Y-87419997D01*
X112206055Y-87207345D01*
X112206054Y-87207337D01*
X112150805Y-87001146D01*
X112150802Y-87001140D01*
X112060586Y-86807669D01*
X112060582Y-86807663D01*
X112021584Y-86751968D01*
X111400000Y-87373552D01*
X111400000Y-87367339D01*
X111372741Y-87265606D01*
X111320080Y-87174394D01*
X111245606Y-87099920D01*
X111154394Y-87047259D01*
X111052661Y-87020000D01*
X111046447Y-87020000D01*
X111644828Y-86421617D01*
X112972148Y-86421617D01*
X113219979Y-87184365D01*
X113501500Y-87092893D01*
X113501500Y-86249621D01*
X112972148Y-86421617D01*
X111644828Y-86421617D01*
X111668030Y-86398415D01*
X111612329Y-86359413D01*
X111418859Y-86269197D01*
X111418853Y-86269194D01*
X111212662Y-86213945D01*
X111212654Y-86213944D01*
X111000002Y-86195340D01*
X110999998Y-86195340D01*
X110787345Y-86213944D01*
X110787337Y-86213945D01*
X110581146Y-86269194D01*
X110581140Y-86269197D01*
X110387671Y-86359412D01*
X110387669Y-86359413D01*
X110331969Y-86398415D01*
X110331968Y-86398415D01*
X110953554Y-87020000D01*
X110947339Y-87020000D01*
X110845606Y-87047259D01*
X110754394Y-87099920D01*
X110679920Y-87174394D01*
X110627259Y-87265606D01*
X110600000Y-87367339D01*
X110600000Y-87373553D01*
X109978415Y-86751968D01*
X109978415Y-86751969D01*
X109939413Y-86807669D01*
X109939412Y-86807671D01*
X109849197Y-87001140D01*
X109849194Y-87001146D01*
X109793945Y-87207337D01*
X109793944Y-87207345D01*
X109775340Y-87419997D01*
X109775340Y-87420002D01*
X109793944Y-87632654D01*
X109793945Y-87632662D01*
X109849194Y-87838853D01*
X109849197Y-87838859D01*
X109939413Y-88032329D01*
X109978415Y-88088030D01*
X110600000Y-87466445D01*
X110600000Y-87472661D01*
X110627259Y-87574394D01*
X110679920Y-87665606D01*
X110754394Y-87740080D01*
X110845606Y-87792741D01*
X110947339Y-87820000D01*
X110953553Y-87820000D01*
X110331968Y-88441584D01*
X110387663Y-88480582D01*
X110387669Y-88480586D01*
X110581140Y-88570802D01*
X110586236Y-88572658D01*
X110585542Y-88574563D01*
X110637647Y-88606302D01*
X110668196Y-88669139D01*
X110659922Y-88738518D01*
X110615454Y-88792409D01*
X110585744Y-88805991D01*
X110586064Y-88806870D01*
X110580972Y-88808723D01*
X110580970Y-88808724D01*
X110580968Y-88808725D01*
X110387421Y-88898977D01*
X110212478Y-89021472D01*
X110061472Y-89172478D01*
X109967544Y-89306623D01*
X109912967Y-89350248D01*
X109865969Y-89359500D01*
X107390942Y-89359500D01*
X107238214Y-89400423D01*
X107202674Y-89420943D01*
X107202673Y-89420943D01*
X107101287Y-89479477D01*
X107101282Y-89479481D01*
X106989478Y-89591286D01*
X104743138Y-91837625D01*
X104681815Y-91871110D01*
X104612124Y-91866126D01*
X104477482Y-91815908D01*
X104477483Y-91815908D01*
X104417883Y-91809501D01*
X104417881Y-91809500D01*
X104417873Y-91809500D01*
X104417865Y-91809500D01*
X102974500Y-91809500D01*
X102907461Y-91789815D01*
X102861706Y-91737011D01*
X102850500Y-91685500D01*
X102850500Y-90871768D01*
X103482882Y-90871768D01*
X103625759Y-91311500D01*
X104424545Y-91311500D01*
X104427875Y-91311545D01*
X104434576Y-91311725D01*
X104437885Y-91311858D01*
X104451202Y-91312572D01*
X104454521Y-91312795D01*
X104461186Y-91313332D01*
X104464483Y-91313641D01*
X104469918Y-91314225D01*
X104245630Y-90623937D01*
X103482882Y-90871768D01*
X102850500Y-90871768D01*
X102850500Y-90470046D01*
X104719256Y-90470046D01*
X104887778Y-90988705D01*
X105524248Y-90352235D01*
X105482002Y-90222215D01*
X104719256Y-90470046D01*
X102850500Y-90470046D01*
X102850500Y-89955012D01*
X103348500Y-89955012D01*
X103348500Y-90391804D01*
X104091739Y-90150311D01*
X103861575Y-89441936D01*
X103348500Y-89955012D01*
X102850500Y-89955012D01*
X102850500Y-89800097D01*
X102870185Y-89733058D01*
X102886819Y-89712416D01*
X103365563Y-89233672D01*
X104317534Y-89233672D01*
X104565365Y-89996420D01*
X105328112Y-89748589D01*
X105080281Y-88985841D01*
X104317534Y-89233672D01*
X103365563Y-89233672D01*
X103467953Y-89131282D01*
X103767285Y-88831950D01*
X105553907Y-88831950D01*
X105801738Y-89594697D01*
X106512836Y-89363648D01*
X106555934Y-89320550D01*
X106316654Y-88584119D01*
X105553907Y-88831950D01*
X103767285Y-88831950D01*
X104100520Y-88498716D01*
X104140061Y-88430228D01*
X106790281Y-88430228D01*
X106969149Y-88980727D01*
X107003340Y-88960987D01*
X107010499Y-88957160D01*
X107025185Y-88949918D01*
X107032580Y-88946568D01*
X107062721Y-88934085D01*
X107070308Y-88931229D01*
X107085803Y-88925969D01*
X107093570Y-88923613D01*
X107277806Y-88874248D01*
X107285706Y-88872406D01*
X107301757Y-88869213D01*
X107309762Y-88867891D01*
X107342106Y-88863632D01*
X107350182Y-88862837D01*
X107366518Y-88861766D01*
X107374630Y-88861500D01*
X107773683Y-88861500D01*
X107553028Y-88182397D01*
X106790281Y-88430228D01*
X104140061Y-88430228D01*
X104179577Y-88361784D01*
X104195338Y-88302966D01*
X104200848Y-88282404D01*
X104237213Y-88222744D01*
X104300060Y-88192216D01*
X104320622Y-88190499D01*
X104417871Y-88190499D01*
X104417872Y-88190499D01*
X104477483Y-88184091D01*
X104612331Y-88133796D01*
X104721238Y-88052268D01*
X105300573Y-88052268D01*
X105400016Y-88358324D01*
X106162764Y-88110493D01*
X106136125Y-88028506D01*
X108026654Y-88028506D01*
X108274485Y-88791253D01*
X109037233Y-88543422D01*
X108789402Y-87780675D01*
X108026654Y-88028506D01*
X106136125Y-88028506D01*
X105914932Y-87347745D01*
X105368499Y-87525292D01*
X105368500Y-87744545D01*
X105368455Y-87747875D01*
X105368275Y-87754576D01*
X105368142Y-87757885D01*
X105367428Y-87771202D01*
X105367205Y-87774521D01*
X105366668Y-87781186D01*
X105366359Y-87784483D01*
X105357574Y-87866195D01*
X105356506Y-87873866D01*
X105353870Y-87889262D01*
X105352325Y-87896851D01*
X105345165Y-87927152D01*
X105343150Y-87934628D01*
X105338614Y-87949583D01*
X105336134Y-87956925D01*
X105300573Y-88052268D01*
X104721238Y-88052268D01*
X104727546Y-88047546D01*
X104813796Y-87932331D01*
X104864091Y-87797483D01*
X104870500Y-87737873D01*
X104870500Y-87193854D01*
X106388559Y-87193854D01*
X106636390Y-87956602D01*
X107399137Y-87708771D01*
X107151306Y-86946023D01*
X106388559Y-87193854D01*
X104870500Y-87193854D01*
X104870499Y-86158391D01*
X105368499Y-86158391D01*
X105368499Y-87001664D01*
X105761041Y-86874119D01*
X105734402Y-86792132D01*
X107624932Y-86792132D01*
X107872763Y-87554880D01*
X108635511Y-87307049D01*
X108387680Y-86544301D01*
X107624932Y-86792132D01*
X105734402Y-86792132D01*
X105513210Y-86111371D01*
X105368499Y-86158391D01*
X104870499Y-86158391D01*
X104870499Y-85957481D01*
X105986836Y-85957481D01*
X106234667Y-86720228D01*
X106997415Y-86472397D01*
X106970776Y-86390410D01*
X108861305Y-86390410D01*
X109109136Y-87153158D01*
X109310418Y-87087757D01*
X109370978Y-86861748D01*
X109372493Y-86856550D01*
X109375776Y-86846139D01*
X109377516Y-86841015D01*
X109384952Y-86820588D01*
X109386913Y-86815545D01*
X109391086Y-86805472D01*
X109393263Y-86800526D01*
X109492666Y-86587355D01*
X109495056Y-86582508D01*
X109500094Y-86572829D01*
X109502700Y-86568079D01*
X109513569Y-86549254D01*
X109516378Y-86544626D01*
X109522239Y-86535427D01*
X109525241Y-86530934D01*
X109635430Y-86373565D01*
X109675004Y-86337301D01*
X109685376Y-86331312D01*
X109624053Y-86142579D01*
X108861305Y-86390410D01*
X106970776Y-86390410D01*
X106749584Y-85709650D01*
X105986836Y-85957481D01*
X104870499Y-85957481D01*
X104870499Y-85555759D01*
X107223210Y-85555759D01*
X107471041Y-86318506D01*
X108233788Y-86070675D01*
X107985957Y-85307928D01*
X107223210Y-85555759D01*
X104870499Y-85555759D01*
X104870499Y-85154037D01*
X108459583Y-85154037D01*
X108707414Y-85916784D01*
X109470162Y-85668953D01*
X109443523Y-85586966D01*
X111334052Y-85586966D01*
X111385280Y-85744630D01*
X111558252Y-85790978D01*
X111563450Y-85792493D01*
X111573861Y-85795776D01*
X111578985Y-85797516D01*
X111599412Y-85804952D01*
X111604455Y-85806913D01*
X111614528Y-85811086D01*
X111619473Y-85813263D01*
X111832641Y-85912664D01*
X111837489Y-85915054D01*
X111847164Y-85920090D01*
X111851911Y-85922694D01*
X111870737Y-85933563D01*
X111875356Y-85936366D01*
X111884562Y-85942230D01*
X111889068Y-85945241D01*
X112046438Y-86055434D01*
X112082702Y-86095009D01*
X112127417Y-86172459D01*
X112344631Y-86101882D01*
X112099373Y-85347054D01*
X112623001Y-85347054D01*
X112818257Y-85947991D01*
X113501500Y-85725992D01*
X113501500Y-85488406D01*
X113466827Y-85493898D01*
X113461998Y-85494566D01*
X113452253Y-85495719D01*
X113447419Y-85496195D01*
X113427917Y-85497731D01*
X113423053Y-85498018D01*
X113413236Y-85498404D01*
X113408364Y-85498500D01*
X113211636Y-85498500D01*
X113206764Y-85498404D01*
X113196947Y-85498018D01*
X113192083Y-85497731D01*
X113172581Y-85496195D01*
X113167747Y-85495719D01*
X113158002Y-85494566D01*
X113153174Y-85493898D01*
X112958882Y-85463125D01*
X112954090Y-85462270D01*
X112944467Y-85460356D01*
X112939714Y-85459313D01*
X112920692Y-85454747D01*
X112915972Y-85453515D01*
X112906517Y-85450848D01*
X112901863Y-85449436D01*
X112714768Y-85388647D01*
X112710164Y-85387051D01*
X112700954Y-85383653D01*
X112696422Y-85381879D01*
X112678347Y-85374392D01*
X112673894Y-85372444D01*
X112664975Y-85368333D01*
X112660586Y-85366205D01*
X112623001Y-85347054D01*
X112099373Y-85347054D01*
X112096800Y-85339135D01*
X111334052Y-85586966D01*
X109443523Y-85586966D01*
X109222331Y-84906206D01*
X108459583Y-85154037D01*
X104870499Y-85154037D01*
X104870499Y-84913537D01*
X104890184Y-84846499D01*
X104942987Y-84800744D01*
X105012146Y-84790800D01*
X105067387Y-84813221D01*
X105100373Y-84837187D01*
X105258149Y-84917578D01*
X105258152Y-84917580D01*
X105426553Y-84972296D01*
X105426566Y-84972299D01*
X105440000Y-84974427D01*
X105440000Y-83815686D01*
X105444394Y-83820080D01*
X105535606Y-83872741D01*
X105637339Y-83900000D01*
X105742661Y-83900000D01*
X105844394Y-83872741D01*
X105935606Y-83820080D01*
X105940000Y-83815686D01*
X105940000Y-84974426D01*
X105953433Y-84972299D01*
X105953446Y-84972296D01*
X106121847Y-84917580D01*
X106121850Y-84917578D01*
X106265934Y-84844164D01*
X106991998Y-84844164D01*
X107069319Y-85082133D01*
X107832066Y-84834302D01*
X107805427Y-84752315D01*
X109695957Y-84752315D01*
X109943788Y-85515062D01*
X110706535Y-85267231D01*
X110458704Y-84504484D01*
X109695957Y-84752315D01*
X107805427Y-84752315D01*
X107584235Y-84071554D01*
X107286792Y-84168198D01*
X107277638Y-84226001D01*
X107276780Y-84230805D01*
X107274865Y-84240428D01*
X107273826Y-84245163D01*
X107269261Y-84264185D01*
X107268029Y-84268908D01*
X107265362Y-84278364D01*
X107263949Y-84283022D01*
X107203183Y-84470041D01*
X107201591Y-84474633D01*
X107198194Y-84483843D01*
X107196416Y-84488386D01*
X107188929Y-84506461D01*
X107186979Y-84510919D01*
X107182868Y-84519837D01*
X107180742Y-84524221D01*
X107091468Y-84699431D01*
X107089174Y-84703723D01*
X107084377Y-84712289D01*
X107081915Y-84716489D01*
X107071694Y-84733169D01*
X107069069Y-84737270D01*
X107063613Y-84745436D01*
X107060826Y-84749435D01*
X106991998Y-84844164D01*
X106265934Y-84844164D01*
X106279629Y-84837186D01*
X106422889Y-84733100D01*
X106548100Y-84607889D01*
X106652186Y-84464629D01*
X106732578Y-84306850D01*
X106732580Y-84306847D01*
X106787298Y-84138439D01*
X106815000Y-83963544D01*
X106815000Y-83917663D01*
X108057861Y-83917663D01*
X108305692Y-84680411D01*
X109068440Y-84432580D01*
X109041801Y-84350593D01*
X110932330Y-84350593D01*
X111180161Y-85113340D01*
X111942909Y-84865509D01*
X111855464Y-84596379D01*
X111818796Y-84524415D01*
X111816667Y-84520025D01*
X111812556Y-84511106D01*
X111810608Y-84506653D01*
X111803121Y-84488578D01*
X111801347Y-84484046D01*
X111797949Y-84474836D01*
X111796353Y-84470232D01*
X111735564Y-84283137D01*
X111734152Y-84278483D01*
X111731485Y-84269028D01*
X111730253Y-84264308D01*
X111725687Y-84245286D01*
X111724644Y-84240533D01*
X111722730Y-84230910D01*
X111721875Y-84226118D01*
X111709240Y-84146350D01*
X111695078Y-84102762D01*
X110932330Y-84350593D01*
X109041801Y-84350593D01*
X108820609Y-83669832D01*
X108057861Y-83917663D01*
X106815000Y-83917663D01*
X106815000Y-83750000D01*
X106005686Y-83750000D01*
X106010080Y-83745606D01*
X106062741Y-83654394D01*
X106090000Y-83552661D01*
X106090000Y-83515941D01*
X109294235Y-83515941D01*
X109542066Y-84278689D01*
X110304813Y-84030858D01*
X110056982Y-83268110D01*
X109294235Y-83515941D01*
X106090000Y-83515941D01*
X106090000Y-83447339D01*
X106062741Y-83345606D01*
X106010080Y-83254394D01*
X106005686Y-83250000D01*
X106815000Y-83250000D01*
X106815000Y-83036455D01*
X106787298Y-82861560D01*
X106732580Y-82693152D01*
X106732578Y-82693149D01*
X106726536Y-82681290D01*
X107656139Y-82681290D01*
X107903970Y-83444037D01*
X108666718Y-83196206D01*
X108640079Y-83114219D01*
X110530608Y-83114219D01*
X110778439Y-83876967D01*
X111541187Y-83629136D01*
X111293356Y-82866388D01*
X110530608Y-83114219D01*
X108640079Y-83114219D01*
X108420525Y-82438499D01*
X108944152Y-82438499D01*
X109140344Y-83042315D01*
X109903091Y-82794484D01*
X109787425Y-82438499D01*
X110311053Y-82438499D01*
X110376717Y-82640593D01*
X111139464Y-82392762D01*
X111071742Y-82184334D01*
X111070237Y-82185547D01*
X110926528Y-82293129D01*
X110919252Y-82298181D01*
X110904229Y-82307835D01*
X110896621Y-82312348D01*
X110865379Y-82329408D01*
X110857463Y-82333371D01*
X110841218Y-82340790D01*
X110833039Y-82344178D01*
X110666927Y-82406134D01*
X110659587Y-82408613D01*
X110644636Y-82413148D01*
X110637160Y-82415163D01*
X110606856Y-82422324D01*
X110599265Y-82423870D01*
X110583863Y-82426507D01*
X110576190Y-82427575D01*
X110494466Y-82436360D01*
X110491168Y-82436670D01*
X110484488Y-82437208D01*
X110481154Y-82437431D01*
X110467838Y-82438143D01*
X110464538Y-82438276D01*
X110457856Y-82438455D01*
X110454535Y-82438499D01*
X110311053Y-82438499D01*
X109787425Y-82438499D01*
X108944152Y-82438499D01*
X108420525Y-82438499D01*
X108418887Y-82433458D01*
X107656139Y-82681290D01*
X106726536Y-82681290D01*
X106652186Y-82535370D01*
X106548100Y-82392110D01*
X106422889Y-82266899D01*
X106279629Y-82162813D01*
X106121850Y-82082421D01*
X106121847Y-82082419D01*
X105953441Y-82027702D01*
X105953433Y-82027700D01*
X105940000Y-82025571D01*
X105940000Y-83184314D01*
X105935606Y-83179920D01*
X105844394Y-83127259D01*
X105742661Y-83100000D01*
X105637339Y-83100000D01*
X105535606Y-83127259D01*
X105444394Y-83179920D01*
X105440000Y-83184314D01*
X105440000Y-82025571D01*
X105426566Y-82027700D01*
X105426558Y-82027702D01*
X105258152Y-82082419D01*
X105258149Y-82082421D01*
X105100367Y-82162815D01*
X105096140Y-82165886D01*
X105030332Y-82189362D01*
X104962279Y-82173533D01*
X104913587Y-82123425D01*
X104905329Y-82103882D01*
X104853043Y-81942960D01*
X104853042Y-81942957D01*
X104812061Y-81862529D01*
X104772614Y-81785110D01*
X104710936Y-81700218D01*
X106468676Y-81700218D01*
X106514431Y-81723532D01*
X106518723Y-81725826D01*
X106527289Y-81730623D01*
X106531489Y-81733085D01*
X106548169Y-81743306D01*
X106552270Y-81745931D01*
X106560436Y-81751387D01*
X106564434Y-81754174D01*
X106723521Y-81869760D01*
X106727404Y-81872699D01*
X106735115Y-81878778D01*
X106738879Y-81881867D01*
X106753753Y-81894571D01*
X106757385Y-81897799D01*
X106764595Y-81904463D01*
X106768111Y-81907843D01*
X106907157Y-82046889D01*
X106910537Y-82050405D01*
X106917201Y-82057615D01*
X106920429Y-82061247D01*
X106933133Y-82076121D01*
X106936222Y-82079885D01*
X106937720Y-82081785D01*
X106780791Y-81598807D01*
X106468676Y-81700218D01*
X104710936Y-81700218D01*
X104668483Y-81641786D01*
X104543214Y-81516517D01*
X104444664Y-81444916D01*
X107254417Y-81444916D01*
X107502248Y-82207664D01*
X107844209Y-82096554D01*
X107746871Y-81966528D01*
X107741819Y-81959252D01*
X107732165Y-81944229D01*
X107727652Y-81936621D01*
X107710592Y-81905379D01*
X107706629Y-81897463D01*
X107699210Y-81881218D01*
X107695822Y-81873039D01*
X107633866Y-81706927D01*
X107631387Y-81699587D01*
X107626852Y-81684636D01*
X107624837Y-81677160D01*
X107617676Y-81646856D01*
X107616130Y-81639265D01*
X107613493Y-81623863D01*
X107612425Y-81616190D01*
X107603640Y-81534466D01*
X107603330Y-81531168D01*
X107602792Y-81524488D01*
X107602569Y-81521154D01*
X107601857Y-81507838D01*
X107601724Y-81504538D01*
X107601545Y-81497856D01*
X107601501Y-81494535D01*
X107601500Y-81332142D01*
X107254417Y-81444916D01*
X104444664Y-81444916D01*
X104399890Y-81412386D01*
X104341240Y-81382502D01*
X104242042Y-81331957D01*
X104242039Y-81331956D01*
X104073556Y-81277214D01*
X103955101Y-81258452D01*
X103891967Y-81228522D01*
X103855036Y-81169211D01*
X103850500Y-81135979D01*
X103850500Y-80892007D01*
X103870185Y-80824968D01*
X103922989Y-80779213D01*
X103992147Y-80769269D01*
X104052101Y-80796393D01*
X104052405Y-80795976D01*
X104054430Y-80797447D01*
X104055036Y-80797721D01*
X104056341Y-80798836D01*
X104056346Y-80798840D01*
X104271140Y-80930466D01*
X104369699Y-80971290D01*
X104503889Y-81026873D01*
X104748852Y-81085683D01*
X105000000Y-81105449D01*
X105251148Y-81085683D01*
X105496111Y-81026873D01*
X105728859Y-80930466D01*
X105943659Y-80798836D01*
X106135224Y-80635224D01*
X106298836Y-80443659D01*
X106339100Y-80377954D01*
X106907740Y-80377954D01*
X107100526Y-80971290D01*
X107601500Y-80808513D01*
X107601500Y-79965242D01*
X106996618Y-80161779D01*
X106995884Y-80163898D01*
X106992486Y-80173110D01*
X106990709Y-80177650D01*
X106907740Y-80377954D01*
X106339100Y-80377954D01*
X106430466Y-80228859D01*
X106526873Y-79996111D01*
X106585683Y-79751148D01*
X106605449Y-79500000D01*
X106596032Y-79380358D01*
X106610396Y-79311982D01*
X106631966Y-79282952D01*
X107891780Y-78023139D01*
X107953099Y-77989657D01*
X108022791Y-77994641D01*
X108078724Y-78036513D01*
X108103033Y-78100583D01*
X108113864Y-78231296D01*
X108113866Y-78231308D01*
X108170842Y-78456300D01*
X108264075Y-78668848D01*
X108391016Y-78863147D01*
X108391019Y-78863151D01*
X108391021Y-78863153D01*
X108485803Y-78966114D01*
X108516724Y-79028767D01*
X108508864Y-79098193D01*
X108464716Y-79152348D01*
X108437906Y-79166277D01*
X108357669Y-79196203D01*
X108357664Y-79196206D01*
X108242455Y-79282452D01*
X108242452Y-79282455D01*
X108156206Y-79397664D01*
X108156202Y-79397671D01*
X108105908Y-79532517D01*
X108099501Y-79592116D01*
X108099501Y-79592123D01*
X108099500Y-79592135D01*
X108099500Y-81487870D01*
X108099501Y-81487876D01*
X108105908Y-81547483D01*
X108156202Y-81682328D01*
X108156206Y-81682335D01*
X108242452Y-81797544D01*
X108242455Y-81797547D01*
X108357664Y-81883793D01*
X108357671Y-81883797D01*
X108492517Y-81934091D01*
X108492516Y-81934091D01*
X108499444Y-81934835D01*
X108552127Y-81940500D01*
X110447872Y-81940499D01*
X110507483Y-81934091D01*
X110642331Y-81883796D01*
X110757546Y-81797546D01*
X110843796Y-81682331D01*
X110888472Y-81562548D01*
X111393340Y-81562548D01*
X111613091Y-82238871D01*
X112050254Y-82096828D01*
X112054378Y-82091153D01*
X112057317Y-82087271D01*
X112063396Y-82079560D01*
X112066485Y-82075795D01*
X112079190Y-82060920D01*
X112082418Y-82057289D01*
X112089082Y-82050079D01*
X112092462Y-82046563D01*
X112231563Y-81907462D01*
X112235079Y-81904082D01*
X112242289Y-81897418D01*
X112245920Y-81894190D01*
X112260795Y-81881485D01*
X112264560Y-81878396D01*
X112272271Y-81872317D01*
X112276154Y-81869377D01*
X112324819Y-81834019D01*
X112128007Y-81228293D01*
X111398499Y-81465324D01*
X111398500Y-81494544D01*
X111398455Y-81497875D01*
X111398275Y-81504576D01*
X111398142Y-81507885D01*
X111397428Y-81521202D01*
X111397205Y-81524521D01*
X111396668Y-81531186D01*
X111396358Y-81534485D01*
X111393340Y-81562548D01*
X110888472Y-81562548D01*
X110894091Y-81547483D01*
X110900500Y-81487873D01*
X110900500Y-81074402D01*
X112601633Y-81074402D01*
X112770242Y-81593328D01*
X112901863Y-81550564D01*
X112906517Y-81549152D01*
X112915972Y-81546485D01*
X112920692Y-81545253D01*
X112939714Y-81540687D01*
X112944467Y-81539644D01*
X112954090Y-81537730D01*
X112958882Y-81536875D01*
X113153174Y-81506102D01*
X113158002Y-81505434D01*
X113167747Y-81504281D01*
X113172581Y-81503805D01*
X113192083Y-81502269D01*
X113196947Y-81501982D01*
X113206764Y-81501596D01*
X113211636Y-81501500D01*
X113408364Y-81501500D01*
X113413236Y-81501596D01*
X113423053Y-81501982D01*
X113427917Y-81502269D01*
X113447419Y-81503805D01*
X113452253Y-81504281D01*
X113461998Y-81505434D01*
X113466825Y-81506102D01*
X113501500Y-81511593D01*
X113501500Y-81248580D01*
X113364381Y-80826570D01*
X112601633Y-81074402D01*
X110900500Y-81074402D01*
X110900499Y-80098423D01*
X111398499Y-80098423D01*
X111398499Y-80941695D01*
X111974116Y-80754666D01*
X111726285Y-79991919D01*
X111398499Y-80098423D01*
X110900499Y-80098423D01*
X110900499Y-79838028D01*
X112199911Y-79838028D01*
X112447742Y-80600776D01*
X113210489Y-80352945D01*
X112962658Y-79590197D01*
X112199911Y-79838028D01*
X110900499Y-79838028D01*
X110900499Y-79592128D01*
X110894091Y-79532517D01*
X110888785Y-79518292D01*
X110843797Y-79397671D01*
X110843793Y-79397664D01*
X110757547Y-79282455D01*
X110757544Y-79282452D01*
X110642335Y-79196206D01*
X110642328Y-79196202D01*
X110562094Y-79166277D01*
X110506160Y-79124406D01*
X110481743Y-79058941D01*
X110496595Y-78990668D01*
X110514190Y-78966121D01*
X110517970Y-78962015D01*
X111139252Y-78962015D01*
X111139996Y-78962874D01*
X111145547Y-78969763D01*
X111253129Y-79113472D01*
X111258181Y-79120748D01*
X111267835Y-79135771D01*
X111272348Y-79143379D01*
X111289408Y-79174621D01*
X111293371Y-79182537D01*
X111300790Y-79198782D01*
X111304178Y-79206961D01*
X111366134Y-79373073D01*
X111368613Y-79380413D01*
X111373148Y-79395364D01*
X111375163Y-79402840D01*
X111382324Y-79433144D01*
X111383870Y-79440735D01*
X111386507Y-79456137D01*
X111387575Y-79463810D01*
X111396360Y-79545534D01*
X111396670Y-79548832D01*
X111397208Y-79555512D01*
X111397431Y-79558846D01*
X111398143Y-79572162D01*
X111398252Y-79574875D01*
X111572394Y-79518292D01*
X111324563Y-78755545D01*
X111227924Y-78786945D01*
X111187843Y-78878323D01*
X111185686Y-78882977D01*
X111181146Y-78892263D01*
X111178802Y-78896816D01*
X111169001Y-78914927D01*
X111166469Y-78919383D01*
X111161179Y-78928261D01*
X111158464Y-78932610D01*
X111139252Y-78962015D01*
X110517970Y-78962015D01*
X110608979Y-78863153D01*
X110735924Y-78668849D01*
X110765398Y-78601655D01*
X111798189Y-78601655D01*
X112046020Y-79364402D01*
X112808767Y-79116571D01*
X112560936Y-78353824D01*
X111798189Y-78601655D01*
X110765398Y-78601655D01*
X110829157Y-78456300D01*
X110886134Y-78231305D01*
X110888734Y-78199932D01*
X113034562Y-78199932D01*
X113282393Y-78962680D01*
X113501500Y-78891488D01*
X113501500Y-78048216D01*
X113034562Y-78199932D01*
X110888734Y-78199932D01*
X110905300Y-78000006D01*
X110905300Y-77999993D01*
X110886135Y-77768702D01*
X110886133Y-77768691D01*
X110829157Y-77543699D01*
X110750895Y-77365281D01*
X111396467Y-77365281D01*
X111644298Y-78128029D01*
X112407045Y-77880198D01*
X112159214Y-77117450D01*
X111396467Y-77365281D01*
X110750895Y-77365281D01*
X110735924Y-77331151D01*
X110608983Y-77136852D01*
X110608980Y-77136849D01*
X110608979Y-77136847D01*
X110451784Y-76966087D01*
X110451779Y-76966083D01*
X110451777Y-76966081D01*
X110448537Y-76963559D01*
X112632840Y-76963559D01*
X112880671Y-77726306D01*
X113501500Y-77524586D01*
X113501500Y-77041690D01*
X113395588Y-76715728D01*
X112632840Y-76963559D01*
X110448537Y-76963559D01*
X110268634Y-76823535D01*
X110268628Y-76823531D01*
X110064504Y-76713064D01*
X110064495Y-76713061D01*
X109844982Y-76637701D01*
X109844974Y-76637699D01*
X109839620Y-76636806D01*
X109776737Y-76606352D01*
X109740301Y-76546735D01*
X109741881Y-76476883D01*
X109780975Y-76418974D01*
X109845171Y-76391393D01*
X109860023Y-76390499D01*
X111397872Y-76390499D01*
X111457483Y-76384091D01*
X111592331Y-76333796D01*
X111707546Y-76247546D01*
X111793796Y-76132331D01*
X111821650Y-76057651D01*
X112338492Y-76057651D01*
X112478949Y-76489933D01*
X113241697Y-76242102D01*
X112993866Y-75479355D01*
X112348499Y-75689047D01*
X112348500Y-75944545D01*
X112348455Y-75947875D01*
X112348275Y-75954576D01*
X112348142Y-75957885D01*
X112347428Y-75971202D01*
X112347205Y-75974521D01*
X112346668Y-75981186D01*
X112346359Y-75984483D01*
X112338492Y-76057651D01*
X111821650Y-76057651D01*
X111844091Y-75997483D01*
X111850500Y-75937873D01*
X111850499Y-74322145D01*
X112348499Y-74322145D01*
X112348499Y-75165418D01*
X112839974Y-75005728D01*
X112592143Y-74242980D01*
X112348499Y-74322145D01*
X111850499Y-74322145D01*
X111850499Y-74142128D01*
X111844798Y-74089090D01*
X113065770Y-74089090D01*
X113313601Y-74851837D01*
X113501500Y-74790785D01*
X113501500Y-73947513D01*
X113065770Y-74089090D01*
X111844798Y-74089090D01*
X111844091Y-74082517D01*
X111793796Y-73947669D01*
X111793795Y-73947668D01*
X111793793Y-73947664D01*
X111707547Y-73832455D01*
X111707544Y-73832452D01*
X111592335Y-73746206D01*
X111592328Y-73746202D01*
X111460917Y-73697189D01*
X111404983Y-73655318D01*
X111380566Y-73589853D01*
X111395418Y-73521580D01*
X111416563Y-73493332D01*
X111423408Y-73486487D01*
X112065857Y-73486487D01*
X112072269Y-73492899D01*
X112078303Y-73499379D01*
X112089996Y-73512874D01*
X112095547Y-73519763D01*
X112203129Y-73663472D01*
X112208181Y-73670748D01*
X112217835Y-73685771D01*
X112222348Y-73693379D01*
X112239408Y-73724621D01*
X112243371Y-73732537D01*
X112250790Y-73748782D01*
X112254178Y-73756961D01*
X112278197Y-73821359D01*
X112438252Y-73769354D01*
X112236504Y-73148438D01*
X112236187Y-73149256D01*
X112232014Y-73159330D01*
X112229836Y-73164280D01*
X112120783Y-73398143D01*
X112118395Y-73402986D01*
X112113360Y-73412660D01*
X112110754Y-73417411D01*
X112099885Y-73436237D01*
X112097079Y-73440861D01*
X112091215Y-73450066D01*
X112088208Y-73454567D01*
X112065857Y-73486487D01*
X111423408Y-73486487D01*
X111538495Y-73371401D01*
X111674035Y-73177830D01*
X111773903Y-72963663D01*
X111803631Y-72852716D01*
X112664047Y-72852716D01*
X112911878Y-73615464D01*
X113496091Y-73425642D01*
X113486001Y-73258854D01*
X113442451Y-73021213D01*
X113370587Y-72790592D01*
X113304841Y-72644510D01*
X112664047Y-72852716D01*
X111803631Y-72852716D01*
X111835063Y-72735408D01*
X111855659Y-72500000D01*
X111835063Y-72264592D01*
X111773903Y-72036337D01*
X111674035Y-71822171D01*
X111560164Y-71659545D01*
X112276363Y-71659545D01*
X112510156Y-72379090D01*
X113027057Y-72211139D01*
X112997457Y-72173357D01*
X112826640Y-72002540D01*
X112636459Y-71853542D01*
X112429725Y-71728568D01*
X112276363Y-71659545D01*
X111560164Y-71659545D01*
X111538495Y-71628599D01*
X111538494Y-71628597D01*
X111371402Y-71461506D01*
X111371395Y-71461501D01*
X111177834Y-71325967D01*
X111177830Y-71325965D01*
X111087244Y-71283724D01*
X110986790Y-71236881D01*
X110934352Y-71190710D01*
X110915200Y-71123516D01*
X110935416Y-71056635D01*
X110988581Y-71011300D01*
X111039196Y-71000500D01*
X111434108Y-71000500D01*
X111496249Y-71000500D01*
X111503736Y-71000726D01*
G37*
%TD.AperFunction*%
%TD*%
%TA.AperFunction,NonConductor*%
G36*
X110027843Y-71020185D02*
G01*
X110073598Y-71072989D01*
X110083542Y-71142147D01*
X110054517Y-71205703D01*
X110013201Y-71236885D01*
X110011052Y-71237887D01*
X109958659Y-71249500D01*
X104750816Y-71249500D01*
X104683777Y-71229815D01*
X104653847Y-71202785D01*
X104653050Y-71201785D01*
X104626660Y-71137090D01*
X104639436Y-71068399D01*
X104687321Y-71017519D01*
X104750019Y-71000500D01*
X109960804Y-71000500D01*
X110027843Y-71020185D01*
G37*
%TD.AperFunction*%
%TA.AperFunction,NonConductor*%
G36*
X101817020Y-71020185D02*
G01*
X101862775Y-71072989D01*
X101872719Y-71142147D01*
X101846950Y-71201785D01*
X101846153Y-71202785D01*
X101788977Y-71242942D01*
X101749184Y-71249500D01*
X98250816Y-71249500D01*
X98183777Y-71229815D01*
X98153847Y-71202785D01*
X98153050Y-71201785D01*
X98126660Y-71137090D01*
X98139436Y-71068399D01*
X98187321Y-71017519D01*
X98250019Y-71000500D01*
X101749981Y-71000500D01*
X101817020Y-71020185D01*
G37*
%TD.AperFunction*%
%TA.AperFunction,NonConductor*%
G36*
X95317020Y-71020185D02*
G01*
X95362775Y-71072989D01*
X95372719Y-71142147D01*
X95346950Y-71201785D01*
X95346153Y-71202785D01*
X95288977Y-71242942D01*
X95249184Y-71249500D01*
X90041341Y-71249500D01*
X89988947Y-71237887D01*
X89986799Y-71236885D01*
X89934358Y-71190719D01*
X89915200Y-71123527D01*
X89935410Y-71056644D01*
X89988571Y-71011305D01*
X90039196Y-71000500D01*
X95249981Y-71000500D01*
X95317020Y-71020185D01*
G37*
%TD.AperFunction*%
%TA.AperFunction,NonConductor*%
G36*
X101816223Y-73270185D02*
G01*
X101846153Y-73297215D01*
X101846950Y-73298215D01*
X101873340Y-73362910D01*
X101860564Y-73431601D01*
X101812679Y-73482481D01*
X101749981Y-73499500D01*
X98250019Y-73499500D01*
X98182980Y-73479815D01*
X98137225Y-73427011D01*
X98127281Y-73357853D01*
X98153050Y-73298215D01*
X98153847Y-73297215D01*
X98211023Y-73257058D01*
X98250816Y-73250500D01*
X101749184Y-73250500D01*
X101816223Y-73270185D01*
G37*
%TD.AperFunction*%
%TA.AperFunction,NonConductor*%
G36*
X109379338Y-73270185D02*
G01*
X109413873Y-73303376D01*
X109461505Y-73371401D01*
X109481559Y-73391455D01*
X109515044Y-73452778D01*
X109510060Y-73522470D01*
X109468188Y-73578403D01*
X109402724Y-73602820D01*
X109346426Y-73593697D01*
X109265166Y-73560038D01*
X109265165Y-73560038D01*
X109211836Y-73537949D01*
X109211832Y-73537948D01*
X109211828Y-73537946D01*
X109115188Y-73518724D01*
X109018544Y-73499500D01*
X109018541Y-73499500D01*
X104750019Y-73499500D01*
X104682980Y-73479815D01*
X104637225Y-73427011D01*
X104627281Y-73357853D01*
X104653050Y-73298215D01*
X104653847Y-73297215D01*
X104711023Y-73257058D01*
X104750816Y-73250500D01*
X109312299Y-73250500D01*
X109379338Y-73270185D01*
G37*
%TD.AperFunction*%
%TA.AperFunction,NonConductor*%
G36*
X95316223Y-73270185D02*
G01*
X95346153Y-73297215D01*
X95346950Y-73298215D01*
X95373340Y-73362910D01*
X95360564Y-73431601D01*
X95312679Y-73482481D01*
X95249981Y-73499500D01*
X91441456Y-73499500D01*
X91248171Y-73537947D01*
X91248163Y-73537949D01*
X91180704Y-73565892D01*
X91180703Y-73565892D01*
X91066088Y-73613366D01*
X90952146Y-73689500D01*
X90902218Y-73722860D01*
X90832177Y-73792901D01*
X90770853Y-73826385D01*
X90701162Y-73821400D01*
X90670185Y-73804485D01*
X90592335Y-73746206D01*
X90592328Y-73746202D01*
X90460917Y-73697189D01*
X90404983Y-73655318D01*
X90380566Y-73589853D01*
X90395418Y-73521580D01*
X90416563Y-73493332D01*
X90538495Y-73371401D01*
X90586127Y-73303376D01*
X90640704Y-73259751D01*
X90687701Y-73250500D01*
X95249184Y-73250500D01*
X95316223Y-73270185D01*
G37*
%TD.AperFunction*%
%TA.AperFunction,NonConductor*%
G36*
X101817020Y-75520185D02*
G01*
X101862775Y-75572989D01*
X101872719Y-75642147D01*
X101846928Y-75701812D01*
X101799616Y-75761139D01*
X101668435Y-75988350D01*
X101668432Y-75988355D01*
X101668432Y-75988357D01*
X101636073Y-76070805D01*
X101593260Y-76126016D01*
X101527390Y-76149317D01*
X101520647Y-76149500D01*
X98479353Y-76149500D01*
X98412314Y-76129815D01*
X98366559Y-76077011D01*
X98363941Y-76070842D01*
X98331568Y-75988357D01*
X98200386Y-75761143D01*
X98200383Y-75761139D01*
X98153072Y-75701812D01*
X98126663Y-75637126D01*
X98139420Y-75568430D01*
X98187291Y-75517537D01*
X98250019Y-75500500D01*
X101749981Y-75500500D01*
X101817020Y-75520185D01*
G37*
%TD.AperFunction*%
%TA.AperFunction,NonConductor*%
G36*
X107352256Y-75520185D02*
G01*
X107398011Y-75572989D01*
X107407955Y-75642147D01*
X107378930Y-75705703D01*
X107372898Y-75712181D01*
X105217049Y-77868029D01*
X105155726Y-77901514D01*
X105119640Y-77903966D01*
X105000000Y-77894551D01*
X104826913Y-77908173D01*
X104758535Y-77893809D01*
X104708779Y-77844757D01*
X104693440Y-77776592D01*
X104709795Y-77722558D01*
X104831568Y-77511643D01*
X104927420Y-77267416D01*
X104985802Y-77011630D01*
X104989215Y-76966084D01*
X105005408Y-76750004D01*
X105005408Y-76749995D01*
X104985803Y-76488379D01*
X104985802Y-76488374D01*
X104985802Y-76488370D01*
X104927420Y-76232584D01*
X104831568Y-75988357D01*
X104700386Y-75761143D01*
X104700383Y-75761139D01*
X104653072Y-75701812D01*
X104626663Y-75637126D01*
X104639420Y-75568430D01*
X104687291Y-75517537D01*
X104750019Y-75500500D01*
X107285217Y-75500500D01*
X107352256Y-75520185D01*
G37*
%TD.AperFunction*%
%TA.AperFunction,NonConductor*%
G36*
X102676796Y-83370185D02*
G01*
X102722551Y-83422989D01*
X102727688Y-83436182D01*
X102766956Y-83557039D01*
X102766957Y-83557042D01*
X102835468Y-83691500D01*
X102847386Y-83714890D01*
X102951517Y-83858214D01*
X102951519Y-83858216D01*
X103071122Y-83977819D01*
X103104607Y-84039142D01*
X103099623Y-84108834D01*
X103057751Y-84164767D01*
X102992287Y-84189184D01*
X102983442Y-84189500D01*
X102822130Y-84189500D01*
X102822123Y-84189501D01*
X102762516Y-84195908D01*
X102627671Y-84246202D01*
X102627664Y-84246206D01*
X102512455Y-84332452D01*
X102512452Y-84332455D01*
X102449266Y-84416861D01*
X102393332Y-84458732D01*
X102323641Y-84463716D01*
X102262318Y-84430230D01*
X102250734Y-84416861D01*
X102187547Y-84332455D01*
X102187544Y-84332452D01*
X102072335Y-84246206D01*
X102072328Y-84246202D01*
X101937482Y-84195908D01*
X101937483Y-84195908D01*
X101877883Y-84189501D01*
X101877881Y-84189500D01*
X101877873Y-84189500D01*
X101877865Y-84189500D01*
X101379096Y-84189500D01*
X101312057Y-84169815D01*
X101266302Y-84117011D01*
X101256358Y-84047853D01*
X101285383Y-83984297D01*
X101291415Y-83977819D01*
X101519235Y-83750000D01*
X101882416Y-83386819D01*
X101943739Y-83353334D01*
X101970097Y-83350500D01*
X102609757Y-83350500D01*
X102676796Y-83370185D01*
G37*
%TD.AperFunction*%
%TA.AperFunction,NonConductor*%
G36*
X102437682Y-87949768D02*
G01*
X102449260Y-87963130D01*
X102512454Y-88047546D01*
X102592774Y-88107673D01*
X102634644Y-88163606D01*
X102639628Y-88233298D01*
X102606143Y-88294620D01*
X101881286Y-89019478D01*
X101769481Y-89131282D01*
X101769480Y-89131284D01*
X101733020Y-89194435D01*
X101690423Y-89268215D01*
X101649499Y-89420943D01*
X101649499Y-89420945D01*
X101649499Y-89589046D01*
X101649500Y-89589059D01*
X101649500Y-90000903D01*
X101629815Y-90067942D01*
X101577011Y-90113697D01*
X101507853Y-90123641D01*
X101444297Y-90094616D01*
X101437819Y-90088584D01*
X101330700Y-89981465D01*
X101297215Y-89920142D01*
X101295163Y-89907686D01*
X101285368Y-89820745D01*
X101225789Y-89650478D01*
X101129816Y-89497738D01*
X101002262Y-89370184D01*
X100923270Y-89320550D01*
X100849521Y-89274210D01*
X100832447Y-89268236D01*
X100775671Y-89227514D01*
X100749923Y-89162562D01*
X100763379Y-89094000D01*
X100785717Y-89063516D01*
X101438506Y-88410728D01*
X101438511Y-88410724D01*
X101448714Y-88400520D01*
X101448716Y-88400520D01*
X101560520Y-88288716D01*
X101565380Y-88280298D01*
X101581430Y-88252500D01*
X101631996Y-88204284D01*
X101688817Y-88190499D01*
X101877871Y-88190499D01*
X101877872Y-88190499D01*
X101937483Y-88184091D01*
X102072331Y-88133796D01*
X102187546Y-88047546D01*
X102250734Y-87963136D01*
X102306667Y-87921267D01*
X102376359Y-87916283D01*
X102437682Y-87949768D01*
G37*
%TD.AperFunction*%
%TA.AperFunction,NonConductor*%
G36*
X99092539Y-95830184D02*
G01*
X99138294Y-95882988D01*
X99149500Y-95934499D01*
X99149500Y-96116937D01*
X99129815Y-96183976D01*
X99077011Y-96229731D01*
X99007853Y-96239675D01*
X98984547Y-96233979D01*
X98929249Y-96214630D01*
X98929252Y-96214630D01*
X98842330Y-96204837D01*
X98777916Y-96177770D01*
X98768533Y-96169298D01*
X98621415Y-96022180D01*
X98587930Y-95960857D01*
X98592914Y-95891165D01*
X98634786Y-95835232D01*
X98700250Y-95810815D01*
X98709096Y-95810499D01*
X99025500Y-95810499D01*
X99092539Y-95830184D01*
G37*
%TD.AperFunction*%
%TA.AperFunction,NonConductor*%
G36*
X111518418Y-97895417D02*
G01*
X111546673Y-97916569D01*
X111668597Y-98038493D01*
X111668603Y-98038498D01*
X111854158Y-98168425D01*
X111897783Y-98223002D01*
X111904977Y-98292500D01*
X111873454Y-98354855D01*
X111854158Y-98371575D01*
X111668597Y-98501505D01*
X111501506Y-98668596D01*
X111371575Y-98854159D01*
X111316998Y-98897784D01*
X111247500Y-98904978D01*
X111185145Y-98873455D01*
X111168425Y-98854159D01*
X111038496Y-98668600D01*
X110993989Y-98624093D01*
X110916567Y-98546671D01*
X110883084Y-98485351D01*
X110888068Y-98415659D01*
X110929939Y-98359725D01*
X110960915Y-98342810D01*
X111092331Y-98293796D01*
X111207546Y-98207546D01*
X111293796Y-98092331D01*
X111342810Y-97960916D01*
X111384681Y-97904984D01*
X111450145Y-97880566D01*
X111518418Y-97895417D01*
G37*
%TD.AperFunction*%
%TA.AperFunction,NonConductor*%
G36*
X88978222Y-97894513D02*
G01*
X89006477Y-97915665D01*
X89128917Y-98038105D01*
X89314595Y-98168119D01*
X89358219Y-98222696D01*
X89365412Y-98292195D01*
X89333890Y-98354549D01*
X89314595Y-98371269D01*
X89128594Y-98501508D01*
X88961506Y-98668596D01*
X88831575Y-98854159D01*
X88776998Y-98897784D01*
X88707500Y-98904978D01*
X88645145Y-98873455D01*
X88628425Y-98854159D01*
X88498496Y-98668600D01*
X88453989Y-98624093D01*
X88376179Y-98546283D01*
X88342696Y-98484963D01*
X88347680Y-98415271D01*
X88389551Y-98359337D01*
X88420529Y-98342422D01*
X88552086Y-98293354D01*
X88552093Y-98293350D01*
X88667187Y-98207190D01*
X88667190Y-98207187D01*
X88753350Y-98092093D01*
X88753354Y-98092086D01*
X88802614Y-97960013D01*
X88844485Y-97904079D01*
X88909949Y-97879662D01*
X88978222Y-97894513D01*
G37*
%TD.AperFunction*%
%TA.AperFunction,NonConductor*%
G36*
X108592540Y-97620185D02*
G01*
X108638295Y-97672989D01*
X108649501Y-97724500D01*
X108649501Y-97897876D01*
X108655908Y-97957483D01*
X108706202Y-98092328D01*
X108706206Y-98092335D01*
X108792452Y-98207544D01*
X108792455Y-98207547D01*
X108907664Y-98293793D01*
X108907671Y-98293797D01*
X109039081Y-98342810D01*
X109095015Y-98384681D01*
X109119432Y-98450145D01*
X109104580Y-98518418D01*
X109083430Y-98546673D01*
X108961503Y-98668600D01*
X108825965Y-98862170D01*
X108825962Y-98862175D01*
X108823289Y-98867909D01*
X108777115Y-98920346D01*
X108710909Y-98939500D01*
X105764068Y-98939500D01*
X105697029Y-98919815D01*
X105653583Y-98871795D01*
X105593343Y-98753567D01*
X105454517Y-98562490D01*
X105287510Y-98395483D01*
X105252872Y-98370317D01*
X105210207Y-98314989D01*
X105208062Y-98290009D01*
X105893214Y-98290009D01*
X105910288Y-98342557D01*
X105982175Y-98441500D01*
X106785710Y-98441500D01*
X106674262Y-98098500D01*
X107197890Y-98098500D01*
X107309338Y-98441500D01*
X108022302Y-98441500D01*
X108140167Y-98403203D01*
X108041164Y-98098500D01*
X107197890Y-98098500D01*
X106674262Y-98098500D01*
X106482622Y-98098500D01*
X105893214Y-98290009D01*
X105208062Y-98290009D01*
X105204228Y-98245375D01*
X105236833Y-98183580D01*
X105252873Y-98169682D01*
X105253300Y-98169372D01*
X105287510Y-98144517D01*
X105454517Y-97977510D01*
X105593343Y-97786433D01*
X105653583Y-97668204D01*
X105701558Y-97617409D01*
X105764068Y-97600500D01*
X108525501Y-97600500D01*
X108592540Y-97620185D01*
G37*
%TD.AperFunction*%
%TA.AperFunction,NonConductor*%
G36*
X113943365Y-97521195D02*
G01*
X113988699Y-97574360D01*
X113999500Y-97624975D01*
X113999500Y-98915024D01*
X113979815Y-98982063D01*
X113927011Y-99027818D01*
X113857853Y-99037762D01*
X113794297Y-99008737D01*
X113763118Y-98967429D01*
X113714035Y-98862171D01*
X113714034Y-98862169D01*
X113578494Y-98668597D01*
X113411402Y-98501506D01*
X113411396Y-98501501D01*
X113225842Y-98371575D01*
X113182217Y-98316998D01*
X113175023Y-98247500D01*
X113206546Y-98185145D01*
X113225842Y-98168425D01*
X113280851Y-98129907D01*
X113411401Y-98038495D01*
X113578495Y-97871401D01*
X113714035Y-97677830D01*
X113763118Y-97572570D01*
X113809290Y-97520131D01*
X113876483Y-97500979D01*
X113943365Y-97521195D01*
G37*
%TD.AperFunction*%
%TA.AperFunction,NonConductor*%
G36*
X86205703Y-98148988D02*
G01*
X86223767Y-98168390D01*
X86252813Y-98207191D01*
X86367906Y-98293350D01*
X86367913Y-98293354D01*
X86499470Y-98342421D01*
X86555403Y-98384292D01*
X86579821Y-98449756D01*
X86564970Y-98518029D01*
X86543819Y-98546284D01*
X86421503Y-98668600D01*
X86285965Y-98862169D01*
X86285964Y-98862171D01*
X86236882Y-98967429D01*
X86190710Y-99019868D01*
X86123516Y-99039020D01*
X86056635Y-99018804D01*
X86011300Y-98965639D01*
X86000500Y-98915024D01*
X86000500Y-98242701D01*
X86020185Y-98175662D01*
X86072989Y-98129907D01*
X86142147Y-98119963D01*
X86205703Y-98148988D01*
G37*
%TD.AperFunction*%
%TA.AperFunction,NonConductor*%
G36*
X111354855Y-100206546D02*
G01*
X111371575Y-100225842D01*
X111501501Y-100411396D01*
X111501506Y-100411402D01*
X111668597Y-100578493D01*
X111668603Y-100578498D01*
X111854158Y-100708425D01*
X111897783Y-100763002D01*
X111904977Y-100832500D01*
X111873454Y-100894855D01*
X111854158Y-100911575D01*
X111668597Y-101041505D01*
X111501506Y-101208596D01*
X111371575Y-101394159D01*
X111316998Y-101437784D01*
X111247500Y-101444978D01*
X111185145Y-101413455D01*
X111168425Y-101394159D01*
X111038494Y-101208597D01*
X110871402Y-101041506D01*
X110871396Y-101041501D01*
X110685842Y-100911575D01*
X110642217Y-100856998D01*
X110635023Y-100787500D01*
X110666546Y-100725145D01*
X110685842Y-100708425D01*
X110785705Y-100638500D01*
X110871401Y-100578495D01*
X111038495Y-100411401D01*
X111168425Y-100225842D01*
X111223002Y-100182217D01*
X111292500Y-100175023D01*
X111354855Y-100206546D01*
G37*
%TD.AperFunction*%
%TA.AperFunction,NonConductor*%
G36*
X88814855Y-100206546D02*
G01*
X88831575Y-100225842D01*
X88961501Y-100411396D01*
X88961506Y-100411402D01*
X89128597Y-100578493D01*
X89128603Y-100578498D01*
X89314158Y-100708425D01*
X89357783Y-100763002D01*
X89364977Y-100832500D01*
X89333454Y-100894855D01*
X89314158Y-100911575D01*
X89128597Y-101041505D01*
X88961506Y-101208596D01*
X88831575Y-101394159D01*
X88776998Y-101437784D01*
X88707500Y-101444978D01*
X88645145Y-101413455D01*
X88628425Y-101394159D01*
X88498494Y-101208597D01*
X88331402Y-101041506D01*
X88331396Y-101041501D01*
X88145842Y-100911575D01*
X88102217Y-100856998D01*
X88095023Y-100787500D01*
X88126546Y-100725145D01*
X88145842Y-100708425D01*
X88245705Y-100638500D01*
X88331401Y-100578495D01*
X88498495Y-100411401D01*
X88628425Y-100225842D01*
X88683002Y-100182217D01*
X88752500Y-100175023D01*
X88814855Y-100206546D01*
G37*
%TD.AperFunction*%
%TA.AperFunction,NonConductor*%
G36*
X108777948Y-100160185D02*
G01*
X108823292Y-100212097D01*
X108825965Y-100217830D01*
X108961501Y-100411396D01*
X108961506Y-100411402D01*
X109128597Y-100578493D01*
X109128603Y-100578498D01*
X109314158Y-100708425D01*
X109357783Y-100763002D01*
X109364977Y-100832500D01*
X109333454Y-100894855D01*
X109314158Y-100911575D01*
X109128597Y-101041505D01*
X108961506Y-101208596D01*
X108825965Y-101402170D01*
X108825962Y-101402175D01*
X108823289Y-101407909D01*
X108777115Y-101460346D01*
X108710909Y-101479500D01*
X105764068Y-101479500D01*
X105697029Y-101459815D01*
X105653583Y-101411795D01*
X105651603Y-101407909D01*
X105593343Y-101293567D01*
X105454517Y-101102490D01*
X105287510Y-100935483D01*
X105252872Y-100910317D01*
X105210207Y-100854989D01*
X105204228Y-100785375D01*
X105216163Y-100762755D01*
X106696659Y-100762755D01*
X106767733Y-100981500D01*
X107611006Y-100981500D01*
X107499559Y-100638500D01*
X108023187Y-100638500D01*
X108134634Y-100981500D01*
X108512575Y-100981500D01*
X108559799Y-100914057D01*
X108563005Y-100909684D01*
X108569646Y-100901031D01*
X108573021Y-100896826D01*
X108586993Y-100880173D01*
X108590566Y-100876100D01*
X108597939Y-100868054D01*
X108601679Y-100864147D01*
X108655826Y-100810000D01*
X108601683Y-100755857D01*
X108597940Y-100751947D01*
X108590573Y-100743907D01*
X108587011Y-100739846D01*
X108573037Y-100723194D01*
X108569647Y-100718970D01*
X108563002Y-100710310D01*
X108559803Y-100705948D01*
X108512575Y-100638500D01*
X108023187Y-100638500D01*
X107499559Y-100638500D01*
X107079080Y-100638500D01*
X106696659Y-100762755D01*
X105216163Y-100762755D01*
X105236833Y-100723580D01*
X105252873Y-100709682D01*
X105287510Y-100684517D01*
X105454517Y-100517510D01*
X105593343Y-100326433D01*
X105653583Y-100208204D01*
X105701558Y-100157409D01*
X105764068Y-100140500D01*
X108710909Y-100140500D01*
X108777948Y-100160185D01*
G37*
%TD.AperFunction*%
%TA.AperFunction,NonConductor*%
G36*
X94302971Y-100160185D02*
G01*
X94346416Y-100208203D01*
X94406657Y-100326433D01*
X94545483Y-100517510D01*
X94712490Y-100684517D01*
X94747127Y-100709683D01*
X94789792Y-100765013D01*
X94795771Y-100834626D01*
X94763165Y-100896421D01*
X94747130Y-100910315D01*
X94729365Y-100923222D01*
X94712488Y-100935484D01*
X94545485Y-101102487D01*
X94545485Y-101102488D01*
X94545483Y-101102490D01*
X94485862Y-101184550D01*
X94406657Y-101293566D01*
X94374060Y-101357540D01*
X94351319Y-101402175D01*
X94346417Y-101411795D01*
X94298442Y-101462591D01*
X94235932Y-101479500D01*
X91289091Y-101479500D01*
X91222052Y-101459815D01*
X91176711Y-101407909D01*
X91174037Y-101402175D01*
X91174034Y-101402170D01*
X91174033Y-101402169D01*
X91038495Y-101208599D01*
X91038494Y-101208597D01*
X90871402Y-101041506D01*
X90871396Y-101041501D01*
X90685842Y-100911575D01*
X90642217Y-100856998D01*
X90635023Y-100787500D01*
X90666546Y-100725145D01*
X90685842Y-100708425D01*
X90785705Y-100638500D01*
X91620376Y-100638500D01*
X91731823Y-100981500D01*
X91791208Y-100981500D01*
X92500241Y-100751121D01*
X92463649Y-100638500D01*
X91620376Y-100638500D01*
X90785705Y-100638500D01*
X90871401Y-100578495D01*
X91038495Y-100411401D01*
X91174035Y-100217830D01*
X91176707Y-100212097D01*
X91222878Y-100159658D01*
X91289091Y-100140500D01*
X94235932Y-100140500D01*
X94302971Y-100160185D01*
G37*
%TD.AperFunction*%
%TA.AperFunction,NonConductor*%
G36*
X113943365Y-100061195D02*
G01*
X113988699Y-100114360D01*
X113999500Y-100164975D01*
X113999500Y-101455024D01*
X113979815Y-101522063D01*
X113927011Y-101567818D01*
X113857853Y-101577762D01*
X113794297Y-101548737D01*
X113763118Y-101507429D01*
X113714035Y-101402171D01*
X113714034Y-101402169D01*
X113578494Y-101208597D01*
X113411402Y-101041506D01*
X113411396Y-101041501D01*
X113225842Y-100911575D01*
X113182217Y-100856998D01*
X113175023Y-100787500D01*
X113206546Y-100725145D01*
X113225842Y-100708425D01*
X113325705Y-100638500D01*
X113411401Y-100578495D01*
X113578495Y-100411401D01*
X113714035Y-100217830D01*
X113763118Y-100112570D01*
X113809290Y-100060131D01*
X113876483Y-100040979D01*
X113943365Y-100061195D01*
G37*
%TD.AperFunction*%
%TA.AperFunction,NonConductor*%
G36*
X86205703Y-100071262D02*
G01*
X86236882Y-100112571D01*
X86285963Y-100217826D01*
X86285967Y-100217834D01*
X86363007Y-100327857D01*
X86421501Y-100411396D01*
X86421506Y-100411402D01*
X86588597Y-100578493D01*
X86588603Y-100578498D01*
X86774158Y-100708425D01*
X86817783Y-100763002D01*
X86824977Y-100832500D01*
X86793454Y-100894855D01*
X86774158Y-100911575D01*
X86588597Y-101041505D01*
X86421505Y-101208597D01*
X86285965Y-101402169D01*
X86285964Y-101402171D01*
X86236882Y-101507429D01*
X86190710Y-101559868D01*
X86123516Y-101579020D01*
X86056635Y-101558804D01*
X86011300Y-101505639D01*
X86000500Y-101455024D01*
X86000500Y-100164975D01*
X86020185Y-100097936D01*
X86072989Y-100052181D01*
X86142147Y-100042237D01*
X86205703Y-100071262D01*
G37*
%TD.AperFunction*%
%TA.AperFunction,NonConductor*%
G36*
X111354855Y-102746546D02*
G01*
X111371575Y-102765842D01*
X111501501Y-102951396D01*
X111501506Y-102951402D01*
X111668597Y-103118493D01*
X111668603Y-103118498D01*
X111854158Y-103248425D01*
X111897783Y-103303002D01*
X111904977Y-103372500D01*
X111873454Y-103434855D01*
X111854158Y-103451575D01*
X111668597Y-103581505D01*
X111501506Y-103748596D01*
X111371575Y-103934159D01*
X111316998Y-103977784D01*
X111247500Y-103984978D01*
X111185145Y-103953455D01*
X111168425Y-103934159D01*
X111038494Y-103748597D01*
X110871402Y-103581506D01*
X110871396Y-103581501D01*
X110685842Y-103451575D01*
X110642217Y-103396998D01*
X110635023Y-103327500D01*
X110666546Y-103265145D01*
X110685842Y-103248425D01*
X110785705Y-103178500D01*
X110871401Y-103118495D01*
X111038495Y-102951401D01*
X111168425Y-102765842D01*
X111223002Y-102722217D01*
X111292500Y-102715023D01*
X111354855Y-102746546D01*
G37*
%TD.AperFunction*%
%TA.AperFunction,NonConductor*%
G36*
X88814855Y-102746546D02*
G01*
X88831575Y-102765842D01*
X88961501Y-102951396D01*
X88961506Y-102951402D01*
X89128597Y-103118493D01*
X89128603Y-103118498D01*
X89314158Y-103248425D01*
X89357783Y-103303002D01*
X89364977Y-103372500D01*
X89333454Y-103434855D01*
X89314158Y-103451575D01*
X89128597Y-103581505D01*
X88961506Y-103748596D01*
X88831575Y-103934159D01*
X88776998Y-103977784D01*
X88707500Y-103984978D01*
X88645145Y-103953455D01*
X88628425Y-103934159D01*
X88498494Y-103748597D01*
X88331402Y-103581506D01*
X88331396Y-103581501D01*
X88145842Y-103451575D01*
X88102217Y-103396998D01*
X88095023Y-103327500D01*
X88126546Y-103265145D01*
X88145842Y-103248425D01*
X88245705Y-103178500D01*
X88331401Y-103118495D01*
X88498495Y-102951401D01*
X88628425Y-102765842D01*
X88683002Y-102722217D01*
X88752500Y-102715023D01*
X88814855Y-102746546D01*
G37*
%TD.AperFunction*%
%TA.AperFunction,NonConductor*%
G36*
X108777948Y-102700185D02*
G01*
X108823292Y-102752097D01*
X108825965Y-102757830D01*
X108961501Y-102951396D01*
X108961506Y-102951402D01*
X109128597Y-103118493D01*
X109128603Y-103118498D01*
X109314158Y-103248425D01*
X109357783Y-103303002D01*
X109364977Y-103372500D01*
X109333454Y-103434855D01*
X109314158Y-103451575D01*
X109128597Y-103581505D01*
X108961506Y-103748596D01*
X108825965Y-103942170D01*
X108825962Y-103942175D01*
X108823289Y-103947909D01*
X108777115Y-104000346D01*
X108710909Y-104019500D01*
X105764068Y-104019500D01*
X105697029Y-103999815D01*
X105653583Y-103951795D01*
X105651603Y-103947909D01*
X105593343Y-103833567D01*
X105454517Y-103642490D01*
X105287510Y-103475483D01*
X105252872Y-103450317D01*
X105210207Y-103394989D01*
X105204228Y-103325375D01*
X105236833Y-103263580D01*
X105252873Y-103249682D01*
X105272390Y-103235502D01*
X107500103Y-103235502D01*
X107593029Y-103521500D01*
X108436302Y-103521500D01*
X108324855Y-103178500D01*
X107675540Y-103178500D01*
X107500103Y-103235502D01*
X105272390Y-103235502D01*
X105287510Y-103224517D01*
X105454517Y-103057510D01*
X105593343Y-102866433D01*
X105653583Y-102748204D01*
X105701558Y-102697409D01*
X105764068Y-102680500D01*
X108710909Y-102680500D01*
X108777948Y-102700185D01*
G37*
%TD.AperFunction*%
%TA.AperFunction,NonConductor*%
G36*
X94302971Y-102700185D02*
G01*
X94346416Y-102748203D01*
X94406657Y-102866433D01*
X94545483Y-103057510D01*
X94712490Y-103224517D01*
X94747127Y-103249683D01*
X94789792Y-103305013D01*
X94795771Y-103374626D01*
X94763165Y-103436421D01*
X94747130Y-103450315D01*
X94730501Y-103462397D01*
X94712488Y-103475484D01*
X94712487Y-103475485D01*
X94604792Y-103583181D01*
X94543469Y-103616666D01*
X94517111Y-103619500D01*
X94281455Y-103619500D01*
X94184812Y-103638724D01*
X94088167Y-103657947D01*
X94088161Y-103657949D01*
X94034834Y-103680037D01*
X94034834Y-103680038D01*
X93989315Y-103698892D01*
X93906089Y-103733366D01*
X93906079Y-103733371D01*
X93742219Y-103842859D01*
X93704262Y-103880817D01*
X93602861Y-103982218D01*
X93602858Y-103982221D01*
X93602846Y-103982231D01*
X93601897Y-103983181D01*
X93601504Y-103983395D01*
X93589580Y-103993737D01*
X93589576Y-103993740D01*
X93587537Y-103991021D01*
X93540574Y-104016666D01*
X93514216Y-104019500D01*
X91289091Y-104019500D01*
X91222052Y-103999815D01*
X91176711Y-103947909D01*
X91174037Y-103942175D01*
X91174034Y-103942170D01*
X91174033Y-103942169D01*
X91038495Y-103748599D01*
X91038494Y-103748597D01*
X90871402Y-103581506D01*
X90871396Y-103581501D01*
X90685842Y-103451575D01*
X90642217Y-103396998D01*
X90637352Y-103349999D01*
X91344174Y-103349999D01*
X91398321Y-103404145D01*
X91402061Y-103408053D01*
X91409434Y-103416099D01*
X91413009Y-103420175D01*
X91426981Y-103436829D01*
X91430354Y-103441031D01*
X91436995Y-103449684D01*
X91440201Y-103454057D01*
X91487425Y-103521500D01*
X92033492Y-103521500D01*
X91922045Y-103178500D01*
X92445672Y-103178500D01*
X92540938Y-103471699D01*
X93303685Y-103223868D01*
X93288945Y-103178500D01*
X92445672Y-103178500D01*
X91922045Y-103178500D01*
X91487425Y-103178500D01*
X91440197Y-103245948D01*
X91436998Y-103250310D01*
X91430353Y-103258970D01*
X91426963Y-103263194D01*
X91412989Y-103279846D01*
X91409427Y-103283907D01*
X91402060Y-103291947D01*
X91398317Y-103295858D01*
X91344174Y-103349999D01*
X90637352Y-103349999D01*
X90635023Y-103327500D01*
X90666546Y-103265145D01*
X90685842Y-103248425D01*
X90785705Y-103178500D01*
X90871401Y-103118495D01*
X91038495Y-102951401D01*
X91174035Y-102757830D01*
X91176707Y-102752097D01*
X91222878Y-102699658D01*
X91289091Y-102680500D01*
X94235932Y-102680500D01*
X94302971Y-102700185D01*
G37*
%TD.AperFunction*%
%TA.AperFunction,NonConductor*%
G36*
X113943365Y-102601195D02*
G01*
X113988699Y-102654360D01*
X113999500Y-102704975D01*
X113999500Y-103995024D01*
X113979815Y-104062063D01*
X113927011Y-104107818D01*
X113857853Y-104117762D01*
X113794297Y-104088737D01*
X113763118Y-104047429D01*
X113714035Y-103942171D01*
X113714034Y-103942169D01*
X113578494Y-103748597D01*
X113411402Y-103581506D01*
X113411396Y-103581501D01*
X113225842Y-103451575D01*
X113182217Y-103396998D01*
X113175023Y-103327500D01*
X113206546Y-103265145D01*
X113225842Y-103248425D01*
X113325705Y-103178500D01*
X113411401Y-103118495D01*
X113578495Y-102951401D01*
X113714035Y-102757830D01*
X113763118Y-102652570D01*
X113809290Y-102600131D01*
X113876483Y-102580979D01*
X113943365Y-102601195D01*
G37*
%TD.AperFunction*%
%TA.AperFunction,NonConductor*%
G36*
X86205703Y-102611262D02*
G01*
X86236881Y-102652570D01*
X86258839Y-102699658D01*
X86285963Y-102757826D01*
X86285967Y-102757834D01*
X86394281Y-102912521D01*
X86421501Y-102951396D01*
X86421506Y-102951402D01*
X86588597Y-103118493D01*
X86588603Y-103118498D01*
X86774158Y-103248425D01*
X86817783Y-103303002D01*
X86824977Y-103372500D01*
X86793454Y-103434855D01*
X86774158Y-103451575D01*
X86588597Y-103581505D01*
X86421505Y-103748597D01*
X86285965Y-103942169D01*
X86285964Y-103942171D01*
X86236882Y-104047429D01*
X86190710Y-104099868D01*
X86123516Y-104119020D01*
X86056635Y-104098804D01*
X86011300Y-104045639D01*
X86000500Y-103995024D01*
X86000500Y-102704975D01*
X86020185Y-102637936D01*
X86072989Y-102592181D01*
X86142147Y-102582237D01*
X86205703Y-102611262D01*
G37*
%TD.AperFunction*%
%TA.AperFunction,NonConductor*%
G36*
X94847384Y-105862524D02*
G01*
X94881743Y-105887487D01*
X94903565Y-105903342D01*
X95114003Y-106010566D01*
X95114005Y-106010566D01*
X95114008Y-106010568D01*
X95149377Y-106022060D01*
X95338631Y-106083553D01*
X95571903Y-106120500D01*
X95662711Y-106120500D01*
X95729750Y-106140185D01*
X95775505Y-106192989D01*
X95785449Y-106262147D01*
X95756424Y-106325703D01*
X95715116Y-106356882D01*
X95512422Y-106451399D01*
X95512420Y-106451400D01*
X95318926Y-106586886D01*
X95318920Y-106586891D01*
X95151891Y-106753920D01*
X95151890Y-106753922D01*
X95021880Y-106939595D01*
X94967303Y-106983219D01*
X94897804Y-106990412D01*
X94835450Y-106958890D01*
X94818730Y-106939594D01*
X94688494Y-106753597D01*
X94686819Y-106751922D01*
X94686315Y-106751000D01*
X94685014Y-106749449D01*
X94685325Y-106749187D01*
X94653334Y-106690599D01*
X94650500Y-106664241D01*
X94650500Y-105962842D01*
X94670185Y-105895803D01*
X94722989Y-105850048D01*
X94792147Y-105840104D01*
X94847384Y-105862524D01*
G37*
%TD.AperFunction*%
M02*
