%TF.GenerationSoftware,KiCad,Pcbnew,(7.0.0)*%
%TF.CreationDate,2024-02-06T19:59:14-06:00*%
%TF.ProjectId,Panel,50616e65-6c2e-46b6-9963-61645f706362,rev?*%
%TF.SameCoordinates,Original*%
%TF.FileFunction,Soldermask,Top*%
%TF.FilePolarity,Negative*%
%FSLAX46Y46*%
G04 Gerber Fmt 4.6, Leading zero omitted, Abs format (unit mm)*
G04 Created by KiCad (PCBNEW (7.0.0)) date 2024-02-06 19:59:14*
%MOMM*%
%LPD*%
G01*
G04 APERTURE LIST*
%ADD10C,0.500000*%
%ADD11R,1.600000X1.600000*%
%ADD12O,1.600000X1.600000*%
%ADD13C,1.600000*%
%ADD14C,1.440000*%
%ADD15R,2.600000X2.600000*%
%ADD16C,2.600000*%
%ADD17R,4.500000X2.000000*%
%ADD18O,4.000000X2.000000*%
%ADD19O,2.000000X4.000000*%
%ADD20R,1.700000X1.700000*%
%ADD21O,1.700000X1.700000*%
%ADD22R,1.800000X1.800000*%
%ADD23C,1.800000*%
%ADD24C,1.700000*%
%ADD25C,3.500000*%
%ADD26C,2.000000*%
%ADD27R,2.200000X2.200000*%
%ADD28O,2.200000X2.200000*%
%ADD29R,2.400000X1.600000*%
%ADD30O,2.400000X1.600000*%
G04 APERTURE END LIST*
D10*
%TO.C,mouse-bite-2mm-slot*%
X178750000Y-102000000D03*
X178750000Y-103500000D03*
X179500000Y-102000000D03*
X179500000Y-103500000D03*
X180250000Y-102000000D03*
X180250000Y-103500000D03*
%TD*%
%TO.C,mouse-bite-2mm-slot*%
X136750000Y-102000000D03*
X136750000Y-103500000D03*
X137500000Y-102000000D03*
X137500000Y-103500000D03*
X138250000Y-102000000D03*
X138250000Y-103500000D03*
%TD*%
D11*
%TO.C,SW8*%
X162803999Y-125869999D03*
D12*
X165343999Y-125869999D03*
X167883999Y-125869999D03*
X170423999Y-125869999D03*
X170423999Y-118249999D03*
X167883999Y-118249999D03*
X165343999Y-118249999D03*
X162803999Y-118249999D03*
%TD*%
D13*
%TO.C,R11*%
X174130000Y-111900000D03*
D12*
X181749999Y-111899999D03*
%TD*%
D13*
%TO.C,R12*%
X182108000Y-123838000D03*
D12*
X189727999Y-123837999D03*
%TD*%
D14*
%TO.C,RV4*%
X194010000Y-123532000D03*
X196550000Y-120992000D03*
X194010000Y-118452000D03*
%TD*%
D15*
%TO.C,J24*%
X180499999Y-108249999D03*
D16*
X175420000Y-108250000D03*
%TD*%
D17*
%TO.C,J22*%
X166741999Y-114137999D03*
D18*
X166741999Y-107937999D03*
D19*
X162041999Y-110937999D03*
%TD*%
D20*
%TO.C,J25*%
X179499999Y-117789999D03*
D21*
X179499999Y-115249999D03*
X176959999Y-117789999D03*
X176959999Y-115249999D03*
%TD*%
D22*
%TO.C,D11*%
X175249999Y-125107999D03*
D23*
X175250000Y-122568000D03*
%TD*%
D20*
%TO.C,J28*%
X185849999Y-141363999D03*
D21*
X183309999Y-141363999D03*
X180769999Y-141363999D03*
X178229999Y-141363999D03*
X175689999Y-141363999D03*
X173149999Y-141363999D03*
%TD*%
D20*
%TO.C,J23*%
X189979999Y-115175499D03*
D24*
X192480000Y-115175500D03*
X192480000Y-113175500D03*
X189980000Y-113175500D03*
D25*
X185210000Y-110465500D03*
X197250000Y-110465500D03*
%TD*%
D26*
%TO.C,SW7*%
X183922000Y-125564000D03*
X183922000Y-119064000D03*
X188422000Y-125564000D03*
X188422000Y-119064000D03*
%TD*%
D21*
%TO.C,J26*%
X162549999Y-137299999D03*
X165089999Y-137299999D03*
X162549999Y-134759999D03*
X165089999Y-134759999D03*
X162549999Y-132219999D03*
X165089999Y-132219999D03*
X162549999Y-129679999D03*
D20*
X165089999Y-129679999D03*
%TD*%
%TO.C,J27*%
X196499999Y-129679999D03*
D21*
X193959999Y-129679999D03*
X196499999Y-132219999D03*
X193959999Y-132219999D03*
X196499999Y-134759999D03*
X193959999Y-134759999D03*
X196499999Y-137299999D03*
X193959999Y-137299999D03*
%TD*%
D13*
%TO.C,R10*%
X182108000Y-120790000D03*
D12*
X189727999Y-120789999D03*
%TD*%
D27*
%TO.C,D10*%
X173089999Y-115249999D03*
D28*
X183249999Y-115249999D03*
%TD*%
D22*
%TO.C,D12*%
X179821999Y-125107999D03*
D23*
X179822000Y-122568000D03*
%TD*%
D29*
%TO.C,U4*%
X175629999Y-129679999D03*
D30*
X175629999Y-132219999D03*
X175629999Y-134759999D03*
X175629999Y-137299999D03*
X183249999Y-137299999D03*
X183249999Y-134759999D03*
X183249999Y-132219999D03*
X183249999Y-129679999D03*
%TD*%
D10*
%TO.C,mouse-bite-2mm-slot4*%
X157750000Y-123250000D03*
X159250000Y-123250000D03*
X157750000Y-122500000D03*
X159250000Y-122500000D03*
X157750000Y-121750000D03*
X159250000Y-121750000D03*
%TD*%
D11*
%TO.C,SW6*%
X120803999Y-125869999D03*
D12*
X123343999Y-125869999D03*
X125883999Y-125869999D03*
X128423999Y-125869999D03*
X128423999Y-118249999D03*
X125883999Y-118249999D03*
X123343999Y-118249999D03*
X120803999Y-118249999D03*
%TD*%
D13*
%TO.C,R8*%
X132130000Y-111900000D03*
D12*
X139749999Y-111899999D03*
%TD*%
D13*
%TO.C,R9*%
X140108000Y-123838000D03*
D12*
X147727999Y-123837999D03*
%TD*%
D14*
%TO.C,RV3*%
X152010000Y-123532000D03*
X154550000Y-120992000D03*
X152010000Y-118452000D03*
%TD*%
D15*
%TO.C,J17*%
X138499999Y-108249999D03*
D16*
X133420000Y-108250000D03*
%TD*%
D17*
%TO.C,J15*%
X124741999Y-114137999D03*
D18*
X124741999Y-107937999D03*
D19*
X120041999Y-110937999D03*
%TD*%
D20*
%TO.C,J18*%
X137499999Y-117789999D03*
D21*
X137499999Y-115249999D03*
X134959999Y-117789999D03*
X134959999Y-115249999D03*
%TD*%
D22*
%TO.C,D8*%
X133249999Y-125107999D03*
D23*
X133250000Y-122568000D03*
%TD*%
D20*
%TO.C,J21*%
X143849999Y-141363999D03*
D21*
X141309999Y-141363999D03*
X138769999Y-141363999D03*
X136229999Y-141363999D03*
X133689999Y-141363999D03*
X131149999Y-141363999D03*
%TD*%
D20*
%TO.C,J16*%
X147979999Y-115175499D03*
D24*
X150480000Y-115175500D03*
X150480000Y-113175500D03*
X147980000Y-113175500D03*
D25*
X143210000Y-110465500D03*
X155250000Y-110465500D03*
%TD*%
D26*
%TO.C,SW5*%
X141922000Y-125564000D03*
X141922000Y-119064000D03*
X146422000Y-125564000D03*
X146422000Y-119064000D03*
%TD*%
D21*
%TO.C,J19*%
X120549999Y-137299999D03*
X123089999Y-137299999D03*
X120549999Y-134759999D03*
X123089999Y-134759999D03*
X120549999Y-132219999D03*
X123089999Y-132219999D03*
X120549999Y-129679999D03*
D20*
X123089999Y-129679999D03*
%TD*%
%TO.C,J20*%
X154499999Y-129679999D03*
D21*
X151959999Y-129679999D03*
X154499999Y-132219999D03*
X151959999Y-132219999D03*
X154499999Y-134759999D03*
X151959999Y-134759999D03*
X154499999Y-137299999D03*
X151959999Y-137299999D03*
%TD*%
D13*
%TO.C,R7*%
X140108000Y-120790000D03*
D12*
X147727999Y-120789999D03*
%TD*%
D27*
%TO.C,D7*%
X131089999Y-115249999D03*
D28*
X141249999Y-115249999D03*
%TD*%
D22*
%TO.C,D9*%
X137821999Y-125107999D03*
D23*
X137822000Y-122568000D03*
%TD*%
D29*
%TO.C,U3*%
X133629999Y-129679999D03*
D30*
X133629999Y-132219999D03*
X133629999Y-134759999D03*
X133629999Y-137299999D03*
X141249999Y-137299999D03*
X141249999Y-134759999D03*
X141249999Y-132219999D03*
X141249999Y-129679999D03*
%TD*%
D11*
%TO.C,SW4*%
X162803999Y-82119999D03*
D12*
X165343999Y-82119999D03*
X167883999Y-82119999D03*
X170423999Y-82119999D03*
X170423999Y-74499999D03*
X167883999Y-74499999D03*
X165343999Y-74499999D03*
X162803999Y-74499999D03*
%TD*%
D13*
%TO.C,R5*%
X174130000Y-68150000D03*
D12*
X181749999Y-68149999D03*
%TD*%
D13*
%TO.C,R6*%
X182108000Y-80088000D03*
D12*
X189727999Y-80087999D03*
%TD*%
D14*
%TO.C,RV2*%
X194010000Y-79782000D03*
X196550000Y-77242000D03*
X194010000Y-74702000D03*
%TD*%
D15*
%TO.C,J10*%
X180499999Y-64499999D03*
D16*
X175420000Y-64500000D03*
%TD*%
D17*
%TO.C,J8*%
X166741999Y-70387999D03*
D18*
X166741999Y-64187999D03*
D19*
X162041999Y-67187999D03*
%TD*%
D20*
%TO.C,J11*%
X179499999Y-74039999D03*
D21*
X179499999Y-71499999D03*
X176959999Y-74039999D03*
X176959999Y-71499999D03*
%TD*%
D22*
%TO.C,D5*%
X175249999Y-81357999D03*
D23*
X175250000Y-78818000D03*
%TD*%
D20*
%TO.C,J14*%
X185849999Y-97613999D03*
D21*
X183309999Y-97613999D03*
X180769999Y-97613999D03*
X178229999Y-97613999D03*
X175689999Y-97613999D03*
X173149999Y-97613999D03*
%TD*%
D20*
%TO.C,J9*%
X189979999Y-71425499D03*
D24*
X192480000Y-71425500D03*
X192480000Y-69425500D03*
X189980000Y-69425500D03*
D25*
X185210000Y-66715500D03*
X197250000Y-66715500D03*
%TD*%
D26*
%TO.C,SW3*%
X183922000Y-81814000D03*
X183922000Y-75314000D03*
X188422000Y-81814000D03*
X188422000Y-75314000D03*
%TD*%
D21*
%TO.C,J12*%
X162549999Y-93549999D03*
X165089999Y-93549999D03*
X162549999Y-91009999D03*
X165089999Y-91009999D03*
X162549999Y-88469999D03*
X165089999Y-88469999D03*
X162549999Y-85929999D03*
D20*
X165089999Y-85929999D03*
%TD*%
%TO.C,J13*%
X196499999Y-85929999D03*
D21*
X193959999Y-85929999D03*
X196499999Y-88469999D03*
X193959999Y-88469999D03*
X196499999Y-91009999D03*
X193959999Y-91009999D03*
X196499999Y-93549999D03*
X193959999Y-93549999D03*
%TD*%
D13*
%TO.C,R4*%
X182108000Y-77040000D03*
D12*
X189727999Y-77039999D03*
%TD*%
D27*
%TO.C,D4*%
X173089999Y-71499999D03*
D28*
X183249999Y-71499999D03*
%TD*%
D22*
%TO.C,D6*%
X179821999Y-81357999D03*
D23*
X179822000Y-78818000D03*
%TD*%
D29*
%TO.C,U2*%
X175629999Y-85929999D03*
D30*
X175629999Y-88469999D03*
X175629999Y-91009999D03*
X175629999Y-93549999D03*
X183249999Y-93549999D03*
X183249999Y-91009999D03*
X183249999Y-88469999D03*
X183249999Y-85929999D03*
%TD*%
D10*
%TO.C,mouse-bite-2mm-slot*%
X157750000Y-79500000D03*
X159250000Y-79500000D03*
X157750000Y-78750000D03*
X159250000Y-78750000D03*
X157750000Y-78000000D03*
X159250000Y-78000000D03*
%TD*%
D21*
%TO.C,J5*%
X120549999Y-93549999D03*
X123089999Y-93549999D03*
X120549999Y-91009999D03*
X123089999Y-91009999D03*
X120549999Y-88469999D03*
X123089999Y-88469999D03*
X120549999Y-85929999D03*
D20*
X123089999Y-85929999D03*
%TD*%
%TO.C,J6*%
X154499999Y-85929999D03*
D21*
X151959999Y-85929999D03*
X154499999Y-88469999D03*
X151959999Y-88469999D03*
X154499999Y-91009999D03*
X151959999Y-91009999D03*
X154499999Y-93549999D03*
X151959999Y-93549999D03*
%TD*%
D29*
%TO.C,U1*%
X133629999Y-85929999D03*
D30*
X133629999Y-88469999D03*
X133629999Y-91009999D03*
X133629999Y-93549999D03*
X141249999Y-93549999D03*
X141249999Y-91009999D03*
X141249999Y-88469999D03*
X141249999Y-85929999D03*
%TD*%
D20*
%TO.C,J4*%
X137499999Y-74039999D03*
D21*
X137499999Y-71499999D03*
X134959999Y-74039999D03*
X134959999Y-71499999D03*
%TD*%
D26*
%TO.C,SW1*%
X141922000Y-81814000D03*
X141922000Y-75314000D03*
X146422000Y-81814000D03*
X146422000Y-75314000D03*
%TD*%
D15*
%TO.C,J3*%
X138499999Y-64499999D03*
D16*
X133420000Y-64500000D03*
%TD*%
D22*
%TO.C,D3*%
X137821999Y-81357999D03*
D23*
X137822000Y-78818000D03*
%TD*%
D11*
%TO.C,SW2*%
X120803999Y-82119999D03*
D12*
X123343999Y-82119999D03*
X125883999Y-82119999D03*
X128423999Y-82119999D03*
X128423999Y-74499999D03*
X125883999Y-74499999D03*
X123343999Y-74499999D03*
X120803999Y-74499999D03*
%TD*%
D20*
%TO.C,J7*%
X143849999Y-97613999D03*
D21*
X141309999Y-97613999D03*
X138769999Y-97613999D03*
X136229999Y-97613999D03*
X133689999Y-97613999D03*
X131149999Y-97613999D03*
%TD*%
D17*
%TO.C,J1*%
X124741999Y-70387999D03*
D18*
X124741999Y-64187999D03*
D19*
X120041999Y-67187999D03*
%TD*%
D20*
%TO.C,J2*%
X147979999Y-71425499D03*
D24*
X150480000Y-71425500D03*
X150480000Y-69425500D03*
X147980000Y-69425500D03*
D25*
X143210000Y-66715500D03*
X155250000Y-66715500D03*
%TD*%
D22*
%TO.C,D2*%
X133249999Y-81357999D03*
D23*
X133250000Y-78818000D03*
%TD*%
D14*
%TO.C,RV1*%
X152010000Y-79782000D03*
X154550000Y-77242000D03*
X152010000Y-74702000D03*
%TD*%
D13*
%TO.C,R2*%
X132130000Y-68150000D03*
D12*
X139749999Y-68149999D03*
%TD*%
D13*
%TO.C,R3*%
X140108000Y-80088000D03*
D12*
X147727999Y-80087999D03*
%TD*%
D13*
%TO.C,R1*%
X140108000Y-77040000D03*
D12*
X147727999Y-77039999D03*
%TD*%
D27*
%TO.C,D1*%
X131089999Y-71499999D03*
D28*
X141249999Y-71499999D03*
%TD*%
M02*
