M48
; DRILL file {KiCad (7.0.0)} date Tue Feb  6 19:59:20 2024
; FORMAT={-:-/ absolute / inch / decimal}
; #@! TF.CreationDate,2024-02-06T19:59:20-06:00
; #@! TF.GenerationSoftware,Kicad,Pcbnew,(7.0.0)
; #@! TF.FileFunction,NonPlated,1,2,NPTH
FMAT,2
INCH
; #@! TA.AperFunction,NonPlated,NPTH,ComponentDrill
T1C0.0197
%
G90
G05
T1
X5.3839Y-4.0157
X5.3839Y-4.0748
X5.4134Y-4.0157
X5.4134Y-4.0748
X5.4429Y-4.0157
X5.4429Y-4.0748
X6.2106Y-3.0709
X6.2106Y-3.1004
X6.2106Y-3.1299
X6.2106Y-4.7933
X6.2106Y-4.8228
X6.2106Y-4.8524
X6.2697Y-3.0709
X6.2697Y-3.1004
X6.2697Y-3.1299
X6.2697Y-4.7933
X6.2697Y-4.8228
X6.2697Y-4.8524
X7.0374Y-4.0157
X7.0374Y-4.0748
X7.0669Y-4.0157
X7.0669Y-4.0748
X7.0965Y-4.0157
X7.0965Y-4.0748
T0
M30
