M48
; DRILL file {KiCad (7.0.0)} date Tue Feb  6 19:59:20 2024
; FORMAT={-:-/ absolute / inch / decimal}
; #@! TF.CreationDate,2024-02-06T19:59:20-06:00
; #@! TF.GenerationSoftware,Kicad,Pcbnew,(7.0.0)
; #@! TF.FileFunction,Plated,1,2,PTH
FMAT,2
INCH
; #@! TA.AperFunction,Plated,PTH,ViaDrill
T1C0.0157
; #@! TA.AperFunction,Plated,PTH,ComponentDrill
T2C0.0315
; #@! TA.AperFunction,Plated,PTH,ComponentDrill
T3C0.0354
; #@! TA.AperFunction,Plated,PTH,ComponentDrill
T4C0.0362
; #@! TA.AperFunction,Plated,PTH,ComponentDrill
T5C0.0394
; #@! TA.AperFunction,Plated,PTH,ComponentDrill
T6C0.0433
; #@! TA.AperFunction,Plated,PTH,ComponentDrill
T7C0.0512
; #@! TA.AperFunction,Plated,PTH,ComponentDrill
T8C0.0917
%
G90
G05
T1
X4.9361Y-3.1031
X4.9361Y-4.8255
X4.9961Y-3.0631
X4.9961Y-4.7855
X5.1161Y-2.9831
X5.1161Y-4.7055
X5.1661Y-3.3531
X5.1661Y-5.0755
X5.2961Y-3.2975
X5.2961Y-5.02
X5.3351Y-3.0507
X5.3351Y-4.7731
X5.3661Y-3.6431
X5.3661Y-5.3655
X5.4602Y-3.0193
X5.4602Y-4.7417
X5.4961Y-3.2831
X5.4961Y-5.0055
X5.5561Y-3.1031
X5.5561Y-4.8255
X5.6459Y-3.2831
X5.6459Y-5.0055
X6.5896Y-3.1031
X6.5896Y-4.8255
X6.6496Y-3.0631
X6.6496Y-4.7855
X6.7696Y-2.9831
X6.7696Y-4.7055
X6.8196Y-3.3531
X6.8196Y-5.0755
X6.9496Y-3.2975
X6.9496Y-5.02
X6.9887Y-3.0507
X6.9887Y-4.7731
X7.0196Y-3.6431
X7.0196Y-5.3655
X7.1138Y-3.0193
X7.1138Y-4.7417
X7.1496Y-3.2831
X7.1496Y-5.0055
X7.2096Y-3.1031
X7.2096Y-4.8255
X7.2994Y-3.2831
X7.2994Y-5.0055
T2
X4.7561Y-2.9331
X4.7561Y-3.2331
X4.7561Y-4.6555
X4.7561Y-4.9555
X4.8561Y-2.9331
X4.8561Y-3.2331
X4.8561Y-4.6555
X4.8561Y-4.9555
X4.9561Y-2.9331
X4.9561Y-3.2331
X4.9561Y-4.6555
X4.9561Y-4.9555
X5.0561Y-2.9331
X5.0561Y-3.2331
X5.0561Y-4.6555
X5.0561Y-4.9555
X5.202Y-2.6831
X5.202Y-4.4055
X5.261Y-3.3831
X5.261Y-3.4831
X5.261Y-3.5831
X5.261Y-3.6831
X5.261Y-5.1055
X5.261Y-5.2055
X5.261Y-5.3055
X5.261Y-5.4055
X5.502Y-2.6831
X5.502Y-4.4055
X5.5161Y-3.0331
X5.5161Y-3.1531
X5.5161Y-4.7555
X5.5161Y-4.8755
X5.561Y-3.3831
X5.561Y-3.4831
X5.561Y-3.5831
X5.561Y-3.6831
X5.561Y-5.1055
X5.561Y-5.2055
X5.561Y-5.3055
X5.561Y-5.4055
X5.8161Y-3.0331
X5.8161Y-3.1531
X5.8161Y-4.7555
X5.8161Y-4.8755
X5.9846Y-2.941
X5.9846Y-3.141
X5.9846Y-4.6635
X5.9846Y-4.8635
X6.0846Y-3.041
X6.0846Y-4.7635
X6.4096Y-2.9331
X6.4096Y-3.2331
X6.4096Y-4.6555
X6.4096Y-4.9555
X6.5096Y-2.9331
X6.5096Y-3.2331
X6.5096Y-4.6555
X6.5096Y-4.9555
X6.6096Y-2.9331
X6.6096Y-3.2331
X6.6096Y-4.6555
X6.6096Y-4.9555
X6.7096Y-2.9331
X6.7096Y-3.2331
X6.7096Y-4.6555
X6.7096Y-4.9555
X6.8555Y-2.6831
X6.8555Y-4.4055
X6.9146Y-3.3831
X6.9146Y-3.4831
X6.9146Y-3.5831
X6.9146Y-3.6831
X6.9146Y-5.1055
X6.9146Y-5.2055
X6.9146Y-5.3055
X6.9146Y-5.4055
X7.1555Y-2.6831
X7.1555Y-4.4055
X7.1696Y-3.0331
X7.1696Y-3.1531
X7.1696Y-4.7555
X7.1696Y-4.8755
X7.2146Y-3.3831
X7.2146Y-3.4831
X7.2146Y-3.5831
X7.2146Y-3.6831
X7.2146Y-5.1055
X7.2146Y-5.2055
X7.2146Y-5.3055
X7.2146Y-5.4055
X7.4696Y-3.0331
X7.4696Y-3.1531
X7.4696Y-4.7555
X7.4696Y-4.8755
X7.6382Y-2.941
X7.6382Y-3.141
X7.6382Y-4.6635
X7.6382Y-4.8635
X7.7382Y-3.041
X7.7382Y-4.7635
T3
X5.2461Y-3.1031
X5.2461Y-3.2031
X5.2461Y-4.8255
X5.2461Y-4.9255
X5.4261Y-3.1031
X5.4261Y-3.2031
X5.4261Y-4.8255
X5.4261Y-4.9255
X6.8996Y-3.1031
X6.8996Y-3.2031
X6.8996Y-4.8255
X6.8996Y-4.9255
X7.0796Y-3.1031
X7.0796Y-3.2031
X7.0796Y-4.8255
X7.0796Y-4.9255
T4
X5.826Y-2.7333
X5.826Y-2.812
X5.826Y-4.4557
X5.826Y-4.5345
X5.9244Y-2.7333
X5.9244Y-2.812
X5.9244Y-4.4557
X5.9244Y-4.5345
X7.4795Y-2.7333
X7.4795Y-2.812
X7.4795Y-4.4557
X7.4795Y-4.5345
X7.578Y-2.7333
X7.578Y-2.812
X7.578Y-4.4557
X7.578Y-4.5345
T5
X4.7461Y-3.3831
X4.7461Y-3.4831
X4.7461Y-3.5831
X4.7461Y-3.6831
X4.7461Y-5.1055
X4.7461Y-5.2055
X4.7461Y-5.3055
X4.7461Y-5.4055
X4.8461Y-3.3831
X4.8461Y-3.4831
X4.8461Y-3.5831
X4.8461Y-3.6831
X4.8461Y-5.1055
X4.8461Y-5.2055
X4.8461Y-5.3055
X4.8461Y-5.4055
X5.1634Y-3.8431
X5.1634Y-5.5655
X5.2634Y-3.8431
X5.2634Y-5.5655
X5.3134Y-2.815
X5.3134Y-2.915
X5.3134Y-4.5374
X5.3134Y-4.6374
X5.3634Y-3.8431
X5.3634Y-5.5655
X5.4134Y-2.815
X5.4134Y-2.915
X5.4134Y-4.5374
X5.4134Y-4.6374
X5.4634Y-3.8431
X5.4634Y-5.5655
X5.5634Y-3.8431
X5.5634Y-5.5655
X5.6634Y-3.8431
X5.6634Y-5.5655
X5.9827Y-3.3831
X5.9827Y-3.4831
X5.9827Y-3.5831
X5.9827Y-3.6831
X5.9827Y-5.1055
X5.9827Y-5.2055
X5.9827Y-5.3055
X5.9827Y-5.4055
X6.0827Y-3.3831
X6.0827Y-3.4831
X6.0827Y-3.5831
X6.0827Y-3.6831
X6.0827Y-5.1055
X6.0827Y-5.2055
X6.0827Y-5.3055
X6.0827Y-5.4055
X6.3996Y-3.3831
X6.3996Y-3.4831
X6.3996Y-3.5831
X6.3996Y-3.6831
X6.3996Y-5.1055
X6.3996Y-5.2055
X6.3996Y-5.3055
X6.3996Y-5.4055
X6.4996Y-3.3831
X6.4996Y-3.4831
X6.4996Y-3.5831
X6.4996Y-3.6831
X6.4996Y-5.1055
X6.4996Y-5.2055
X6.4996Y-5.3055
X6.4996Y-5.4055
X6.8169Y-3.8431
X6.8169Y-5.5655
X6.9169Y-3.8431
X6.9169Y-5.5655
X6.9669Y-2.815
X6.9669Y-2.915
X6.9669Y-4.5374
X6.9669Y-4.6374
X7.0169Y-3.8431
X7.0169Y-5.5655
X7.0669Y-2.815
X7.0669Y-2.915
X7.0669Y-4.5374
X7.0669Y-4.6374
X7.1169Y-3.8431
X7.1169Y-5.5655
X7.2169Y-3.8431
X7.2169Y-5.5655
X7.3169Y-3.8431
X7.3169Y-5.5655
X7.6362Y-3.3831
X7.6362Y-3.4831
X7.6362Y-3.5831
X7.6362Y-3.6831
X7.6362Y-5.1055
X7.6362Y-5.2055
X7.6362Y-5.3055
X7.6362Y-5.4055
X7.7362Y-3.3831
X7.7362Y-3.4831
X7.7362Y-3.5831
X7.7362Y-3.6831
X7.7362Y-5.1055
X7.7362Y-5.2055
X7.7362Y-5.3055
X7.7362Y-5.4055
T6
X5.161Y-2.815
X5.161Y-4.5374
X5.561Y-2.815
X5.561Y-4.5374
X5.5875Y-2.9651
X5.5875Y-3.221
X5.5875Y-4.6876
X5.5875Y-4.9435
X5.7646Y-2.9651
X5.7646Y-3.221
X5.7646Y-4.6876
X5.7646Y-4.9435
X6.8146Y-2.815
X6.8146Y-4.5374
X7.2146Y-2.815
X7.2146Y-4.5374
X7.241Y-2.9651
X7.241Y-3.221
X7.241Y-4.6876
X7.241Y-4.9435
X7.4182Y-2.9651
X7.4182Y-3.221
X7.4182Y-4.6876
X7.4182Y-4.9435
T7
X5.2528Y-2.5394
X5.2528Y-4.2618
X5.4528Y-2.5394
X5.4528Y-4.2618
X6.9063Y-2.5394
X6.9063Y-4.2618
X7.1063Y-2.5394
X7.1063Y-4.2618
T8
X5.6382Y-2.6266
X5.6382Y-4.349
X6.1122Y-2.6266
X6.1122Y-4.349
X7.2917Y-2.6266
X7.2917Y-4.349
X7.7657Y-2.6266
X7.7657Y-4.349
T5
G00X4.7261Y-2.6058
M15
G01X4.7261Y-2.6846
M16
G05
G00X4.7261Y-4.3283
M15
G01X4.7261Y-4.407
M16
G05
G00X4.9505Y-2.5271
M15
G01X4.8717Y-2.5271
M16
G05
G00X4.9603Y-2.7712
M15
G01X4.8619Y-2.7712
M16
G05
G00X4.9505Y-4.2495
M15
G01X4.8717Y-4.2495
M16
G05
G00X4.9603Y-4.4936
M15
G01X4.8619Y-4.4936
M16
G05
G00X6.3796Y-2.6058
M15
G01X6.3796Y-2.6846
M16
G05
G00X6.3796Y-4.3283
M15
G01X6.3796Y-4.407
M16
G05
G00X6.604Y-2.5271
M15
G01X6.5253Y-2.5271
M16
G05
G00X6.6139Y-2.7712
M15
G01X6.5154Y-2.7712
M16
G05
G00X6.604Y-4.2495
M15
G01X6.5253Y-4.2495
M16
G05
G00X6.6139Y-4.4936
M15
G01X6.5154Y-4.4936
M16
G05
T0
M30
