%TF.GenerationSoftware,KiCad,Pcbnew,(7.0.0)*%
%TF.CreationDate,2024-02-06T19:59:14-06:00*%
%TF.ProjectId,Panel,50616e65-6c2e-46b6-9963-61645f706362,rev?*%
%TF.SameCoordinates,Original*%
%TF.FileFunction,Profile,NP*%
%FSLAX46Y46*%
G04 Gerber Fmt 4.6, Leading zero omitted, Abs format (unit mm)*
G04 Created by KiCad (PCBNEW (7.0.0)) date 2024-02-06 19:59:14*
%MOMM*%
%LPD*%
G01*
G04 APERTURE LIST*
%TA.AperFunction,Profile*%
%ADD10C,0.050000*%
%TD*%
%TA.AperFunction,Profile*%
%ADD11C,0.100000*%
%TD*%
G04 APERTURE END LIST*
D10*
X157500000Y-137500000D02*
X157500000Y-124500000D01*
X159500000Y-124500000D02*
X159500000Y-137500000D01*
X157499999Y-105767766D02*
X157500000Y-120500000D01*
X159500000Y-120500000D02*
X159500001Y-105767767D01*
X159500000Y-124500000D02*
G75*
G03*
X157500000Y-124500000I-1000000J0D01*
G01*
X157500000Y-120500000D02*
G75*
G03*
X159500000Y-120500000I1000000J0D01*
G01*
X139500000Y-103750000D02*
X155500000Y-103749922D01*
X135500000Y-103750000D02*
X119500000Y-103749922D01*
X135500000Y-101750000D02*
X133078427Y-101750000D01*
X139500000Y-101750000D02*
X141999999Y-101749999D01*
X135500000Y-103750000D02*
G75*
G03*
X135500000Y-101750000I0J1000000D01*
G01*
X139500000Y-101750000D02*
G75*
G03*
X139500000Y-103750000I0J-1000000D01*
G01*
X157500000Y-76750000D02*
X157499999Y-62017766D01*
X157500000Y-93750000D02*
X157500000Y-80750000D01*
X159500000Y-80750000D02*
X159500000Y-93750000D01*
X159500000Y-76750000D02*
X159500001Y-62017767D01*
X157500000Y-76750000D02*
G75*
G03*
X159500000Y-76750000I1000000J0D01*
G01*
X159500000Y-80750000D02*
G75*
G03*
X157500000Y-80750000I-1000000J0D01*
G01*
X181500000Y-103750000D02*
X197500000Y-103749922D01*
X177500000Y-103750000D02*
X161500000Y-103749922D01*
X177500000Y-101750000D02*
X175078427Y-101750000D01*
X181500000Y-101750000D02*
X183999999Y-101749999D01*
X177500000Y-103750000D02*
G75*
G03*
X177500000Y-101750000I0J1000000D01*
G01*
X181500000Y-101750000D02*
G75*
G03*
X181500000Y-103750000I0J-1000000D01*
G01*
X197750000Y-139250000D02*
G75*
G03*
X199500000Y-137500000I0J1750000D01*
G01*
X199499999Y-105767766D02*
G75*
G03*
X197500000Y-103749922I-1999999J17766D01*
G01*
X161500000Y-103749923D02*
G75*
G03*
X159500002Y-105767767I0J-2000077D01*
G01*
D11*
X171078400Y-141500000D02*
G75*
G03*
X168828427Y-139250000I-2250000J0D01*
G01*
X190250000Y-133500000D02*
G75*
G03*
X190250000Y-133500000I-1750000J0D01*
G01*
X183999999Y-145499999D02*
G75*
G03*
X187999999Y-141499999I1J3999999D01*
G01*
X159500000Y-137500000D02*
G75*
G03*
X161250000Y-139250000I1750000J0D01*
G01*
X175078427Y-145500000D02*
X179500000Y-145500000D01*
X168828427Y-139250000D02*
X161250000Y-139250000D01*
D10*
X199500000Y-137500000D02*
X199499999Y-105767766D01*
D11*
X190249999Y-139249999D02*
X197750000Y-139250000D01*
X190249999Y-139249999D02*
G75*
G03*
X187999999Y-141499999I1J-2250001D01*
G01*
X183999999Y-145499999D02*
X179500000Y-145500000D01*
X171078400Y-141500000D02*
G75*
G03*
X175078427Y-145500000I4000000J0D01*
G01*
X172250000Y-133500000D02*
G75*
G03*
X172250000Y-133500000I-1750000J0D01*
G01*
D10*
X155750000Y-139250000D02*
G75*
G03*
X157500000Y-137500000I0J1750000D01*
G01*
X157499999Y-105767766D02*
G75*
G03*
X155500000Y-103749922I-1999999J17766D01*
G01*
X119500000Y-103749923D02*
G75*
G03*
X117500002Y-105767767I0J-2000077D01*
G01*
D11*
X129078400Y-141500000D02*
G75*
G03*
X126828427Y-139250000I-2250000J0D01*
G01*
X148250000Y-133500000D02*
G75*
G03*
X148250000Y-133500000I-1750000J0D01*
G01*
X141999999Y-145499999D02*
G75*
G03*
X145999999Y-141499999I1J3999999D01*
G01*
X117500000Y-137500000D02*
G75*
G03*
X119250000Y-139250000I1750000J0D01*
G01*
X133078427Y-145500000D02*
X137500000Y-145500000D01*
X117500000Y-137500000D02*
X117500000Y-105767767D01*
X126828427Y-139250000D02*
X119250000Y-139250000D01*
X148249999Y-139249999D02*
X155750000Y-139250000D01*
X148249999Y-139249999D02*
G75*
G03*
X145999999Y-141499999I1J-2250001D01*
G01*
X141999999Y-145499999D02*
X137500000Y-145500000D01*
X129078400Y-141500000D02*
G75*
G03*
X133078427Y-145500000I4000000J0D01*
G01*
X130250000Y-133500000D02*
G75*
G03*
X130250000Y-133500000I-1750000J0D01*
G01*
D10*
X197750000Y-95500000D02*
G75*
G03*
X199500000Y-93750000I0J1750000D01*
G01*
X161500000Y-59999922D02*
X197500000Y-59999922D01*
X199499999Y-62017766D02*
G75*
G03*
X197500000Y-59999922I-1999999J17766D01*
G01*
X161500000Y-59999923D02*
G75*
G03*
X159500002Y-62017767I0J-2000077D01*
G01*
D11*
X171078400Y-97750000D02*
G75*
G03*
X168828427Y-95500000I-2250000J0D01*
G01*
X190250000Y-89750000D02*
G75*
G03*
X190250000Y-89750000I-1750000J0D01*
G01*
X183999999Y-101749999D02*
G75*
G03*
X187999999Y-97749999I1J3999999D01*
G01*
X159500000Y-93750000D02*
G75*
G03*
X161250000Y-95500000I1750000J0D01*
G01*
X168828427Y-95500000D02*
X161250000Y-95500000D01*
D10*
X199500000Y-93750000D02*
X199499999Y-62017766D01*
D11*
X190249999Y-95499999D02*
X197750000Y-95500000D01*
X190249999Y-95499999D02*
G75*
G03*
X187999999Y-97749999I1J-2250001D01*
G01*
X171078400Y-97750000D02*
G75*
G03*
X175078427Y-101750000I4000000J0D01*
G01*
X172250000Y-89750000D02*
G75*
G03*
X172250000Y-89750000I-1750000J0D01*
G01*
D10*
X155750000Y-95500000D02*
G75*
G03*
X157500000Y-93750000I0J1750000D01*
G01*
X119500000Y-59999923D02*
G75*
G03*
X117500002Y-62017767I0J-2000077D01*
G01*
X157499999Y-62017766D02*
G75*
G03*
X155500000Y-59999922I-1999999J17766D01*
G01*
X119500000Y-59999922D02*
X155500000Y-59999922D01*
D11*
X129078400Y-97750000D02*
G75*
G03*
X133078427Y-101750000I4000000J0D01*
G01*
X117500000Y-93750000D02*
X117500000Y-62017767D01*
X117500000Y-93750000D02*
G75*
G03*
X119250000Y-95500000I1750000J0D01*
G01*
X126828427Y-95500000D02*
X119250000Y-95500000D01*
X129078400Y-97750000D02*
G75*
G03*
X126828427Y-95500000I-2250000J0D01*
G01*
X141999999Y-101749999D02*
G75*
G03*
X145999999Y-97749999I1J3999999D01*
G01*
X148250000Y-89750000D02*
G75*
G03*
X148250000Y-89750000I-1750000J0D01*
G01*
X130250000Y-89750000D02*
G75*
G03*
X130250000Y-89750000I-1750000J0D01*
G01*
X148249999Y-95499999D02*
X155750000Y-95500000D01*
X148249999Y-95499999D02*
G75*
G03*
X145999999Y-97749999I1J-2250001D01*
G01*
M02*
