%TF.GenerationSoftware,KiCad,Pcbnew,(7.0.0)*%
%TF.CreationDate,2024-02-06T19:59:14-06:00*%
%TF.ProjectId,Panel,50616e65-6c2e-46b6-9963-61645f706362,rev?*%
%TF.SameCoordinates,Original*%
%TF.FileFunction,Legend,Top*%
%TF.FilePolarity,Positive*%
%FSLAX46Y46*%
G04 Gerber Fmt 4.6, Leading zero omitted, Abs format (unit mm)*
G04 Created by KiCad (PCBNEW (7.0.0)) date 2024-02-06 19:59:14*
%MOMM*%
%LPD*%
G01*
G04 APERTURE LIST*
%ADD10C,0.250000*%
%ADD11C,0.125000*%
%ADD12C,0.150000*%
%ADD13C,0.100000*%
%ADD14C,0.120000*%
G04 APERTURE END LIST*
D10*
X171059523Y-131282380D02*
X170726190Y-130806190D01*
X170488095Y-131282380D02*
X170488095Y-130282380D01*
X170488095Y-130282380D02*
X170869047Y-130282380D01*
X170869047Y-130282380D02*
X170964285Y-130330000D01*
X170964285Y-130330000D02*
X171011904Y-130377619D01*
X171011904Y-130377619D02*
X171059523Y-130472857D01*
X171059523Y-130472857D02*
X171059523Y-130615714D01*
X171059523Y-130615714D02*
X171011904Y-130710952D01*
X171011904Y-130710952D02*
X170964285Y-130758571D01*
X170964285Y-130758571D02*
X170869047Y-130806190D01*
X170869047Y-130806190D02*
X170488095Y-130806190D01*
X171440476Y-130996666D02*
X171916666Y-130996666D01*
X171345238Y-131282380D02*
X171678571Y-130282380D01*
X171678571Y-130282380D02*
X172011904Y-131282380D01*
X172821428Y-130282380D02*
X172345238Y-130282380D01*
X172345238Y-130282380D02*
X172297619Y-130758571D01*
X172297619Y-130758571D02*
X172345238Y-130710952D01*
X172345238Y-130710952D02*
X172440476Y-130663333D01*
X172440476Y-130663333D02*
X172678571Y-130663333D01*
X172678571Y-130663333D02*
X172773809Y-130710952D01*
X172773809Y-130710952D02*
X172821428Y-130758571D01*
X172821428Y-130758571D02*
X172869047Y-130853809D01*
X172869047Y-130853809D02*
X172869047Y-131091904D01*
X172869047Y-131091904D02*
X172821428Y-131187142D01*
X172821428Y-131187142D02*
X172773809Y-131234761D01*
X172773809Y-131234761D02*
X172678571Y-131282380D01*
X172678571Y-131282380D02*
X172440476Y-131282380D01*
X172440476Y-131282380D02*
X172345238Y-131234761D01*
X172345238Y-131234761D02*
X172297619Y-131187142D01*
D11*
X174964285Y-120641190D02*
X175059523Y-120641190D01*
X175059523Y-120641190D02*
X175107142Y-120665000D01*
X175107142Y-120665000D02*
X175154761Y-120712619D01*
X175154761Y-120712619D02*
X175178571Y-120807857D01*
X175178571Y-120807857D02*
X175178571Y-120974523D01*
X175178571Y-120974523D02*
X175154761Y-121069761D01*
X175154761Y-121069761D02*
X175107142Y-121117380D01*
X175107142Y-121117380D02*
X175059523Y-121141190D01*
X175059523Y-121141190D02*
X174964285Y-121141190D01*
X174964285Y-121141190D02*
X174916666Y-121117380D01*
X174916666Y-121117380D02*
X174869047Y-121069761D01*
X174869047Y-121069761D02*
X174845238Y-120974523D01*
X174845238Y-120974523D02*
X174845238Y-120807857D01*
X174845238Y-120807857D02*
X174869047Y-120712619D01*
X174869047Y-120712619D02*
X174916666Y-120665000D01*
X174916666Y-120665000D02*
X174964285Y-120641190D01*
X175392857Y-121141190D02*
X175392857Y-120641190D01*
X175392857Y-120641190D02*
X175678571Y-121141190D01*
X175678571Y-121141190D02*
X175678571Y-120641190D01*
D10*
X181238095Y-115401428D02*
X182000000Y-115401428D01*
X181619047Y-115782380D02*
X181619047Y-115020476D01*
X174488095Y-115401428D02*
X175250000Y-115401428D01*
D11*
X179404761Y-121141190D02*
X179238095Y-120903095D01*
X179119047Y-121141190D02*
X179119047Y-120641190D01*
X179119047Y-120641190D02*
X179309523Y-120641190D01*
X179309523Y-120641190D02*
X179357142Y-120665000D01*
X179357142Y-120665000D02*
X179380952Y-120688809D01*
X179380952Y-120688809D02*
X179404761Y-120736428D01*
X179404761Y-120736428D02*
X179404761Y-120807857D01*
X179404761Y-120807857D02*
X179380952Y-120855476D01*
X179380952Y-120855476D02*
X179357142Y-120879285D01*
X179357142Y-120879285D02*
X179309523Y-120903095D01*
X179309523Y-120903095D02*
X179119047Y-120903095D01*
X179595238Y-120998333D02*
X179833333Y-120998333D01*
X179547619Y-121141190D02*
X179714285Y-120641190D01*
X179714285Y-120641190D02*
X179880952Y-121141190D01*
X180285713Y-120641190D02*
X180047618Y-120641190D01*
X180047618Y-120641190D02*
X180023809Y-120879285D01*
X180023809Y-120879285D02*
X180047618Y-120855476D01*
X180047618Y-120855476D02*
X180095237Y-120831666D01*
X180095237Y-120831666D02*
X180214285Y-120831666D01*
X180214285Y-120831666D02*
X180261904Y-120855476D01*
X180261904Y-120855476D02*
X180285713Y-120879285D01*
X180285713Y-120879285D02*
X180309523Y-120926904D01*
X180309523Y-120926904D02*
X180309523Y-121045952D01*
X180309523Y-121045952D02*
X180285713Y-121093571D01*
X180285713Y-121093571D02*
X180261904Y-121117380D01*
X180261904Y-121117380D02*
X180214285Y-121141190D01*
X180214285Y-121141190D02*
X180095237Y-121141190D01*
X180095237Y-121141190D02*
X180047618Y-121117380D01*
X180047618Y-121117380D02*
X180023809Y-121093571D01*
D10*
X181238095Y-118151428D02*
X182000000Y-118151428D01*
X181619047Y-118532380D02*
X181619047Y-117770476D01*
X186749999Y-131282380D02*
X186416666Y-130806190D01*
X186178571Y-131282380D02*
X186178571Y-130282380D01*
X186178571Y-130282380D02*
X186559523Y-130282380D01*
X186559523Y-130282380D02*
X186654761Y-130330000D01*
X186654761Y-130330000D02*
X186702380Y-130377619D01*
X186702380Y-130377619D02*
X186749999Y-130472857D01*
X186749999Y-130472857D02*
X186749999Y-130615714D01*
X186749999Y-130615714D02*
X186702380Y-130710952D01*
X186702380Y-130710952D02*
X186654761Y-130758571D01*
X186654761Y-130758571D02*
X186559523Y-130806190D01*
X186559523Y-130806190D02*
X186178571Y-130806190D01*
X187130952Y-130996666D02*
X187607142Y-130996666D01*
X187035714Y-131282380D02*
X187369047Y-130282380D01*
X187369047Y-130282380D02*
X187702380Y-131282380D01*
X188226190Y-130282380D02*
X188321428Y-130282380D01*
X188321428Y-130282380D02*
X188416666Y-130330000D01*
X188416666Y-130330000D02*
X188464285Y-130377619D01*
X188464285Y-130377619D02*
X188511904Y-130472857D01*
X188511904Y-130472857D02*
X188559523Y-130663333D01*
X188559523Y-130663333D02*
X188559523Y-130901428D01*
X188559523Y-130901428D02*
X188511904Y-131091904D01*
X188511904Y-131091904D02*
X188464285Y-131187142D01*
X188464285Y-131187142D02*
X188416666Y-131234761D01*
X188416666Y-131234761D02*
X188321428Y-131282380D01*
X188321428Y-131282380D02*
X188226190Y-131282380D01*
X188226190Y-131282380D02*
X188130952Y-131234761D01*
X188130952Y-131234761D02*
X188083333Y-131187142D01*
X188083333Y-131187142D02*
X188035714Y-131091904D01*
X188035714Y-131091904D02*
X187988095Y-130901428D01*
X187988095Y-130901428D02*
X187988095Y-130663333D01*
X187988095Y-130663333D02*
X188035714Y-130472857D01*
X188035714Y-130472857D02*
X188083333Y-130377619D01*
X188083333Y-130377619D02*
X188130952Y-130330000D01*
X188130952Y-130330000D02*
X188226190Y-130282380D01*
X166845238Y-129282380D02*
X167178571Y-130282380D01*
X167178571Y-130282380D02*
X167511904Y-129282380D01*
X168416666Y-130187142D02*
X168369047Y-130234761D01*
X168369047Y-130234761D02*
X168226190Y-130282380D01*
X168226190Y-130282380D02*
X168130952Y-130282380D01*
X168130952Y-130282380D02*
X167988095Y-130234761D01*
X167988095Y-130234761D02*
X167892857Y-130139523D01*
X167892857Y-130139523D02*
X167845238Y-130044285D01*
X167845238Y-130044285D02*
X167797619Y-129853809D01*
X167797619Y-129853809D02*
X167797619Y-129710952D01*
X167797619Y-129710952D02*
X167845238Y-129520476D01*
X167845238Y-129520476D02*
X167892857Y-129425238D01*
X167892857Y-129425238D02*
X167988095Y-129330000D01*
X167988095Y-129330000D02*
X168130952Y-129282380D01*
X168130952Y-129282380D02*
X168226190Y-129282380D01*
X168226190Y-129282380D02*
X168369047Y-129330000D01*
X168369047Y-129330000D02*
X168416666Y-129377619D01*
X169416666Y-130187142D02*
X169369047Y-130234761D01*
X169369047Y-130234761D02*
X169226190Y-130282380D01*
X169226190Y-130282380D02*
X169130952Y-130282380D01*
X169130952Y-130282380D02*
X168988095Y-130234761D01*
X168988095Y-130234761D02*
X168892857Y-130139523D01*
X168892857Y-130139523D02*
X168845238Y-130044285D01*
X168845238Y-130044285D02*
X168797619Y-129853809D01*
X168797619Y-129853809D02*
X168797619Y-129710952D01*
X168797619Y-129710952D02*
X168845238Y-129520476D01*
X168845238Y-129520476D02*
X168892857Y-129425238D01*
X168892857Y-129425238D02*
X168988095Y-129330000D01*
X168988095Y-129330000D02*
X169130952Y-129282380D01*
X169130952Y-129282380D02*
X169226190Y-129282380D01*
X169226190Y-129282380D02*
X169369047Y-129330000D01*
X169369047Y-129330000D02*
X169416666Y-129377619D01*
D11*
X169869047Y-116891190D02*
X169869047Y-116391190D01*
X169869047Y-116391190D02*
X170059523Y-116391190D01*
X170059523Y-116391190D02*
X170107142Y-116415000D01*
X170107142Y-116415000D02*
X170130952Y-116438809D01*
X170130952Y-116438809D02*
X170154761Y-116486428D01*
X170154761Y-116486428D02*
X170154761Y-116557857D01*
X170154761Y-116557857D02*
X170130952Y-116605476D01*
X170130952Y-116605476D02*
X170107142Y-116629285D01*
X170107142Y-116629285D02*
X170059523Y-116653095D01*
X170059523Y-116653095D02*
X169869047Y-116653095D01*
X170464285Y-116391190D02*
X170559523Y-116391190D01*
X170559523Y-116391190D02*
X170607142Y-116415000D01*
X170607142Y-116415000D02*
X170654761Y-116462619D01*
X170654761Y-116462619D02*
X170678571Y-116557857D01*
X170678571Y-116557857D02*
X170678571Y-116724523D01*
X170678571Y-116724523D02*
X170654761Y-116819761D01*
X170654761Y-116819761D02*
X170607142Y-116867380D01*
X170607142Y-116867380D02*
X170559523Y-116891190D01*
X170559523Y-116891190D02*
X170464285Y-116891190D01*
X170464285Y-116891190D02*
X170416666Y-116867380D01*
X170416666Y-116867380D02*
X170369047Y-116819761D01*
X170369047Y-116819761D02*
X170345238Y-116724523D01*
X170345238Y-116724523D02*
X170345238Y-116557857D01*
X170345238Y-116557857D02*
X170369047Y-116462619D01*
X170369047Y-116462619D02*
X170416666Y-116415000D01*
X170416666Y-116415000D02*
X170464285Y-116391190D01*
X170821429Y-116391190D02*
X171107143Y-116391190D01*
X170964286Y-116891190D02*
X170964286Y-116391190D01*
D10*
X167559523Y-137782380D02*
X167226190Y-137306190D01*
X166988095Y-137782380D02*
X166988095Y-136782380D01*
X166988095Y-136782380D02*
X167369047Y-136782380D01*
X167369047Y-136782380D02*
X167464285Y-136830000D01*
X167464285Y-136830000D02*
X167511904Y-136877619D01*
X167511904Y-136877619D02*
X167559523Y-136972857D01*
X167559523Y-136972857D02*
X167559523Y-137115714D01*
X167559523Y-137115714D02*
X167511904Y-137210952D01*
X167511904Y-137210952D02*
X167464285Y-137258571D01*
X167464285Y-137258571D02*
X167369047Y-137306190D01*
X167369047Y-137306190D02*
X166988095Y-137306190D01*
X167940476Y-137496666D02*
X168416666Y-137496666D01*
X167845238Y-137782380D02*
X168178571Y-136782380D01*
X168178571Y-136782380D02*
X168511904Y-137782380D01*
X168750000Y-136782380D02*
X169369047Y-136782380D01*
X169369047Y-136782380D02*
X169035714Y-137163333D01*
X169035714Y-137163333D02*
X169178571Y-137163333D01*
X169178571Y-137163333D02*
X169273809Y-137210952D01*
X169273809Y-137210952D02*
X169321428Y-137258571D01*
X169321428Y-137258571D02*
X169369047Y-137353809D01*
X169369047Y-137353809D02*
X169369047Y-137591904D01*
X169369047Y-137591904D02*
X169321428Y-137687142D01*
X169321428Y-137687142D02*
X169273809Y-137734761D01*
X169273809Y-137734761D02*
X169178571Y-137782380D01*
X169178571Y-137782380D02*
X168892857Y-137782380D01*
X168892857Y-137782380D02*
X168797619Y-137734761D01*
X168797619Y-137734761D02*
X168750000Y-137687142D01*
D12*
X169250000Y-103750000D02*
X173750000Y-107000000D01*
X194000000Y-132250000D02*
X191250000Y-132250000D01*
G36*
X173000000Y-140250000D02*
G01*
X172500000Y-139000000D01*
X173500000Y-139000000D01*
X173000000Y-140250000D01*
G37*
X173000000Y-140250000D02*
X172500000Y-139000000D01*
X173500000Y-139000000D01*
X173000000Y-140250000D01*
G36*
X199500000Y-126250000D02*
G01*
X199500000Y-133750000D01*
X190250000Y-119500000D01*
X199500000Y-126250000D01*
G37*
X199500000Y-126250000D02*
X199500000Y-133750000D01*
X190250000Y-119500000D01*
X199500000Y-126250000D01*
D10*
X190249999Y-137782380D02*
X189916666Y-137306190D01*
X189678571Y-137782380D02*
X189678571Y-136782380D01*
X189678571Y-136782380D02*
X190059523Y-136782380D01*
X190059523Y-136782380D02*
X190154761Y-136830000D01*
X190154761Y-136830000D02*
X190202380Y-136877619D01*
X190202380Y-136877619D02*
X190249999Y-136972857D01*
X190249999Y-136972857D02*
X190249999Y-137115714D01*
X190249999Y-137115714D02*
X190202380Y-137210952D01*
X190202380Y-137210952D02*
X190154761Y-137258571D01*
X190154761Y-137258571D02*
X190059523Y-137306190D01*
X190059523Y-137306190D02*
X189678571Y-137306190D01*
X190630952Y-137496666D02*
X191107142Y-137496666D01*
X190535714Y-137782380D02*
X190869047Y-136782380D01*
X190869047Y-136782380D02*
X191202380Y-137782380D01*
X191488095Y-136877619D02*
X191535714Y-136830000D01*
X191535714Y-136830000D02*
X191630952Y-136782380D01*
X191630952Y-136782380D02*
X191869047Y-136782380D01*
X191869047Y-136782380D02*
X191964285Y-136830000D01*
X191964285Y-136830000D02*
X192011904Y-136877619D01*
X192011904Y-136877619D02*
X192059523Y-136972857D01*
X192059523Y-136972857D02*
X192059523Y-137068095D01*
X192059523Y-137068095D02*
X192011904Y-137210952D01*
X192011904Y-137210952D02*
X191440476Y-137782380D01*
X191440476Y-137782380D02*
X192059523Y-137782380D01*
D11*
X185404761Y-126641190D02*
X185238095Y-126403095D01*
X185119047Y-126641190D02*
X185119047Y-126141190D01*
X185119047Y-126141190D02*
X185309523Y-126141190D01*
X185309523Y-126141190D02*
X185357142Y-126165000D01*
X185357142Y-126165000D02*
X185380952Y-126188809D01*
X185380952Y-126188809D02*
X185404761Y-126236428D01*
X185404761Y-126236428D02*
X185404761Y-126307857D01*
X185404761Y-126307857D02*
X185380952Y-126355476D01*
X185380952Y-126355476D02*
X185357142Y-126379285D01*
X185357142Y-126379285D02*
X185309523Y-126403095D01*
X185309523Y-126403095D02*
X185119047Y-126403095D01*
X185619047Y-126379285D02*
X185785714Y-126379285D01*
X185857142Y-126641190D02*
X185619047Y-126641190D01*
X185619047Y-126641190D02*
X185619047Y-126141190D01*
X185619047Y-126141190D02*
X185857142Y-126141190D01*
X186047619Y-126617380D02*
X186119047Y-126641190D01*
X186119047Y-126641190D02*
X186238095Y-126641190D01*
X186238095Y-126641190D02*
X186285714Y-126617380D01*
X186285714Y-126617380D02*
X186309523Y-126593571D01*
X186309523Y-126593571D02*
X186333333Y-126545952D01*
X186333333Y-126545952D02*
X186333333Y-126498333D01*
X186333333Y-126498333D02*
X186309523Y-126450714D01*
X186309523Y-126450714D02*
X186285714Y-126426904D01*
X186285714Y-126426904D02*
X186238095Y-126403095D01*
X186238095Y-126403095D02*
X186142857Y-126379285D01*
X186142857Y-126379285D02*
X186095238Y-126355476D01*
X186095238Y-126355476D02*
X186071428Y-126331666D01*
X186071428Y-126331666D02*
X186047619Y-126284047D01*
X186047619Y-126284047D02*
X186047619Y-126236428D01*
X186047619Y-126236428D02*
X186071428Y-126188809D01*
X186071428Y-126188809D02*
X186095238Y-126165000D01*
X186095238Y-126165000D02*
X186142857Y-126141190D01*
X186142857Y-126141190D02*
X186261904Y-126141190D01*
X186261904Y-126141190D02*
X186333333Y-126165000D01*
X186547618Y-126379285D02*
X186714285Y-126379285D01*
X186785713Y-126641190D02*
X186547618Y-126641190D01*
X186547618Y-126641190D02*
X186547618Y-126141190D01*
X186547618Y-126141190D02*
X186785713Y-126141190D01*
X186928571Y-126141190D02*
X187214285Y-126141190D01*
X187071428Y-126641190D02*
X187071428Y-126141190D01*
X162464285Y-116391190D02*
X162559523Y-116391190D01*
X162559523Y-116391190D02*
X162607142Y-116415000D01*
X162607142Y-116415000D02*
X162654761Y-116462619D01*
X162654761Y-116462619D02*
X162678571Y-116557857D01*
X162678571Y-116557857D02*
X162678571Y-116724523D01*
X162678571Y-116724523D02*
X162654761Y-116819761D01*
X162654761Y-116819761D02*
X162607142Y-116867380D01*
X162607142Y-116867380D02*
X162559523Y-116891190D01*
X162559523Y-116891190D02*
X162464285Y-116891190D01*
X162464285Y-116891190D02*
X162416666Y-116867380D01*
X162416666Y-116867380D02*
X162369047Y-116819761D01*
X162369047Y-116819761D02*
X162345238Y-116724523D01*
X162345238Y-116724523D02*
X162345238Y-116557857D01*
X162345238Y-116557857D02*
X162369047Y-116462619D01*
X162369047Y-116462619D02*
X162416666Y-116415000D01*
X162416666Y-116415000D02*
X162464285Y-116391190D01*
X162892857Y-116891190D02*
X162892857Y-116391190D01*
X162892857Y-116391190D02*
X163178571Y-116891190D01*
X163178571Y-116891190D02*
X163178571Y-116391190D01*
X185404761Y-118391190D02*
X185238095Y-118153095D01*
X185119047Y-118391190D02*
X185119047Y-117891190D01*
X185119047Y-117891190D02*
X185309523Y-117891190D01*
X185309523Y-117891190D02*
X185357142Y-117915000D01*
X185357142Y-117915000D02*
X185380952Y-117938809D01*
X185380952Y-117938809D02*
X185404761Y-117986428D01*
X185404761Y-117986428D02*
X185404761Y-118057857D01*
X185404761Y-118057857D02*
X185380952Y-118105476D01*
X185380952Y-118105476D02*
X185357142Y-118129285D01*
X185357142Y-118129285D02*
X185309523Y-118153095D01*
X185309523Y-118153095D02*
X185119047Y-118153095D01*
X185619047Y-118129285D02*
X185785714Y-118129285D01*
X185857142Y-118391190D02*
X185619047Y-118391190D01*
X185619047Y-118391190D02*
X185619047Y-117891190D01*
X185619047Y-117891190D02*
X185857142Y-117891190D01*
X186047619Y-118367380D02*
X186119047Y-118391190D01*
X186119047Y-118391190D02*
X186238095Y-118391190D01*
X186238095Y-118391190D02*
X186285714Y-118367380D01*
X186285714Y-118367380D02*
X186309523Y-118343571D01*
X186309523Y-118343571D02*
X186333333Y-118295952D01*
X186333333Y-118295952D02*
X186333333Y-118248333D01*
X186333333Y-118248333D02*
X186309523Y-118200714D01*
X186309523Y-118200714D02*
X186285714Y-118176904D01*
X186285714Y-118176904D02*
X186238095Y-118153095D01*
X186238095Y-118153095D02*
X186142857Y-118129285D01*
X186142857Y-118129285D02*
X186095238Y-118105476D01*
X186095238Y-118105476D02*
X186071428Y-118081666D01*
X186071428Y-118081666D02*
X186047619Y-118034047D01*
X186047619Y-118034047D02*
X186047619Y-117986428D01*
X186047619Y-117986428D02*
X186071428Y-117938809D01*
X186071428Y-117938809D02*
X186095238Y-117915000D01*
X186095238Y-117915000D02*
X186142857Y-117891190D01*
X186142857Y-117891190D02*
X186261904Y-117891190D01*
X186261904Y-117891190D02*
X186333333Y-117915000D01*
X186547618Y-118129285D02*
X186714285Y-118129285D01*
X186785713Y-118391190D02*
X186547618Y-118391190D01*
X186547618Y-118391190D02*
X186547618Y-117891190D01*
X186547618Y-117891190D02*
X186785713Y-117891190D01*
X186928571Y-117891190D02*
X187214285Y-117891190D01*
X187071428Y-118391190D02*
X187071428Y-117891190D01*
D10*
X186749999Y-136782380D02*
X186416666Y-136306190D01*
X186178571Y-136782380D02*
X186178571Y-135782380D01*
X186178571Y-135782380D02*
X186559523Y-135782380D01*
X186559523Y-135782380D02*
X186654761Y-135830000D01*
X186654761Y-135830000D02*
X186702380Y-135877619D01*
X186702380Y-135877619D02*
X186749999Y-135972857D01*
X186749999Y-135972857D02*
X186749999Y-136115714D01*
X186749999Y-136115714D02*
X186702380Y-136210952D01*
X186702380Y-136210952D02*
X186654761Y-136258571D01*
X186654761Y-136258571D02*
X186559523Y-136306190D01*
X186559523Y-136306190D02*
X186178571Y-136306190D01*
X187130952Y-136496666D02*
X187607142Y-136496666D01*
X187035714Y-136782380D02*
X187369047Y-135782380D01*
X187369047Y-135782380D02*
X187702380Y-136782380D01*
X188559523Y-136782380D02*
X187988095Y-136782380D01*
X188273809Y-136782380D02*
X188273809Y-135782380D01*
X188273809Y-135782380D02*
X188178571Y-135925238D01*
X188178571Y-135925238D02*
X188083333Y-136020476D01*
X188083333Y-136020476D02*
X187988095Y-136068095D01*
X177107142Y-140032380D02*
X177107142Y-139032380D01*
X178678571Y-139937142D02*
X178607143Y-139984761D01*
X178607143Y-139984761D02*
X178392857Y-140032380D01*
X178392857Y-140032380D02*
X178250000Y-140032380D01*
X178250000Y-140032380D02*
X178035714Y-139984761D01*
X178035714Y-139984761D02*
X177892857Y-139889523D01*
X177892857Y-139889523D02*
X177821428Y-139794285D01*
X177821428Y-139794285D02*
X177750000Y-139603809D01*
X177750000Y-139603809D02*
X177750000Y-139460952D01*
X177750000Y-139460952D02*
X177821428Y-139270476D01*
X177821428Y-139270476D02*
X177892857Y-139175238D01*
X177892857Y-139175238D02*
X178035714Y-139080000D01*
X178035714Y-139080000D02*
X178250000Y-139032380D01*
X178250000Y-139032380D02*
X178392857Y-139032380D01*
X178392857Y-139032380D02*
X178607143Y-139080000D01*
X178607143Y-139080000D02*
X178678571Y-139127619D01*
X179250000Y-139984761D02*
X179464286Y-140032380D01*
X179464286Y-140032380D02*
X179821428Y-140032380D01*
X179821428Y-140032380D02*
X179964286Y-139984761D01*
X179964286Y-139984761D02*
X180035714Y-139937142D01*
X180035714Y-139937142D02*
X180107143Y-139841904D01*
X180107143Y-139841904D02*
X180107143Y-139746666D01*
X180107143Y-139746666D02*
X180035714Y-139651428D01*
X180035714Y-139651428D02*
X179964286Y-139603809D01*
X179964286Y-139603809D02*
X179821428Y-139556190D01*
X179821428Y-139556190D02*
X179535714Y-139508571D01*
X179535714Y-139508571D02*
X179392857Y-139460952D01*
X179392857Y-139460952D02*
X179321428Y-139413333D01*
X179321428Y-139413333D02*
X179250000Y-139318095D01*
X179250000Y-139318095D02*
X179250000Y-139222857D01*
X179250000Y-139222857D02*
X179321428Y-139127619D01*
X179321428Y-139127619D02*
X179392857Y-139080000D01*
X179392857Y-139080000D02*
X179535714Y-139032380D01*
X179535714Y-139032380D02*
X179892857Y-139032380D01*
X179892857Y-139032380D02*
X180107143Y-139080000D01*
X180749999Y-140032380D02*
X180749999Y-139032380D01*
X180749999Y-139032380D02*
X181321428Y-139032380D01*
X181321428Y-139032380D02*
X181464285Y-139080000D01*
X181464285Y-139080000D02*
X181535714Y-139127619D01*
X181535714Y-139127619D02*
X181607142Y-139222857D01*
X181607142Y-139222857D02*
X181607142Y-139365714D01*
X181607142Y-139365714D02*
X181535714Y-139460952D01*
X181535714Y-139460952D02*
X181464285Y-139508571D01*
X181464285Y-139508571D02*
X181321428Y-139556190D01*
X181321428Y-139556190D02*
X180749999Y-139556190D01*
X174488095Y-118151428D02*
X175250000Y-118151428D01*
D11*
X164654761Y-116891190D02*
X164488095Y-116653095D01*
X164369047Y-116891190D02*
X164369047Y-116391190D01*
X164369047Y-116391190D02*
X164559523Y-116391190D01*
X164559523Y-116391190D02*
X164607142Y-116415000D01*
X164607142Y-116415000D02*
X164630952Y-116438809D01*
X164630952Y-116438809D02*
X164654761Y-116486428D01*
X164654761Y-116486428D02*
X164654761Y-116557857D01*
X164654761Y-116557857D02*
X164630952Y-116605476D01*
X164630952Y-116605476D02*
X164607142Y-116629285D01*
X164607142Y-116629285D02*
X164559523Y-116653095D01*
X164559523Y-116653095D02*
X164369047Y-116653095D01*
X164869047Y-116629285D02*
X165035714Y-116629285D01*
X165107142Y-116891190D02*
X164869047Y-116891190D01*
X164869047Y-116891190D02*
X164869047Y-116391190D01*
X164869047Y-116391190D02*
X165107142Y-116391190D01*
X165297619Y-116867380D02*
X165369047Y-116891190D01*
X165369047Y-116891190D02*
X165488095Y-116891190D01*
X165488095Y-116891190D02*
X165535714Y-116867380D01*
X165535714Y-116867380D02*
X165559523Y-116843571D01*
X165559523Y-116843571D02*
X165583333Y-116795952D01*
X165583333Y-116795952D02*
X165583333Y-116748333D01*
X165583333Y-116748333D02*
X165559523Y-116700714D01*
X165559523Y-116700714D02*
X165535714Y-116676904D01*
X165535714Y-116676904D02*
X165488095Y-116653095D01*
X165488095Y-116653095D02*
X165392857Y-116629285D01*
X165392857Y-116629285D02*
X165345238Y-116605476D01*
X165345238Y-116605476D02*
X165321428Y-116581666D01*
X165321428Y-116581666D02*
X165297619Y-116534047D01*
X165297619Y-116534047D02*
X165297619Y-116486428D01*
X165297619Y-116486428D02*
X165321428Y-116438809D01*
X165321428Y-116438809D02*
X165345238Y-116415000D01*
X165345238Y-116415000D02*
X165392857Y-116391190D01*
X165392857Y-116391190D02*
X165511904Y-116391190D01*
X165511904Y-116391190D02*
X165583333Y-116415000D01*
X165797618Y-116629285D02*
X165964285Y-116629285D01*
X166035713Y-116891190D02*
X165797618Y-116891190D01*
X165797618Y-116891190D02*
X165797618Y-116391190D01*
X165797618Y-116391190D02*
X166035713Y-116391190D01*
X166178571Y-116391190D02*
X166464285Y-116391190D01*
X166321428Y-116891190D02*
X166321428Y-116391190D01*
D10*
X171059523Y-136782380D02*
X170726190Y-136306190D01*
X170488095Y-136782380D02*
X170488095Y-135782380D01*
X170488095Y-135782380D02*
X170869047Y-135782380D01*
X170869047Y-135782380D02*
X170964285Y-135830000D01*
X170964285Y-135830000D02*
X171011904Y-135877619D01*
X171011904Y-135877619D02*
X171059523Y-135972857D01*
X171059523Y-135972857D02*
X171059523Y-136115714D01*
X171059523Y-136115714D02*
X171011904Y-136210952D01*
X171011904Y-136210952D02*
X170964285Y-136258571D01*
X170964285Y-136258571D02*
X170869047Y-136306190D01*
X170869047Y-136306190D02*
X170488095Y-136306190D01*
X171440476Y-136496666D02*
X171916666Y-136496666D01*
X171345238Y-136782380D02*
X171678571Y-135782380D01*
X171678571Y-135782380D02*
X172011904Y-136782380D01*
X172773809Y-136115714D02*
X172773809Y-136782380D01*
X172535714Y-135734761D02*
X172297619Y-136449047D01*
X172297619Y-136449047D02*
X172916666Y-136449047D01*
D11*
X167607142Y-116891190D02*
X167369047Y-116891190D01*
X167369047Y-116891190D02*
X167369047Y-116391190D01*
X167773809Y-116629285D02*
X167940476Y-116629285D01*
X168011904Y-116891190D02*
X167773809Y-116891190D01*
X167773809Y-116891190D02*
X167773809Y-116391190D01*
X167773809Y-116391190D02*
X168011904Y-116391190D01*
X168226190Y-116891190D02*
X168226190Y-116391190D01*
X168226190Y-116391190D02*
X168345238Y-116391190D01*
X168345238Y-116391190D02*
X168416666Y-116415000D01*
X168416666Y-116415000D02*
X168464285Y-116462619D01*
X168464285Y-116462619D02*
X168488095Y-116510238D01*
X168488095Y-116510238D02*
X168511904Y-116605476D01*
X168511904Y-116605476D02*
X168511904Y-116676904D01*
X168511904Y-116676904D02*
X168488095Y-116772142D01*
X168488095Y-116772142D02*
X168464285Y-116819761D01*
X168464285Y-116819761D02*
X168416666Y-116867380D01*
X168416666Y-116867380D02*
X168345238Y-116891190D01*
X168345238Y-116891190D02*
X168226190Y-116891190D01*
D10*
X189964285Y-129330000D02*
X189869047Y-129282380D01*
X189869047Y-129282380D02*
X189726190Y-129282380D01*
X189726190Y-129282380D02*
X189583333Y-129330000D01*
X189583333Y-129330000D02*
X189488095Y-129425238D01*
X189488095Y-129425238D02*
X189440476Y-129520476D01*
X189440476Y-129520476D02*
X189392857Y-129710952D01*
X189392857Y-129710952D02*
X189392857Y-129853809D01*
X189392857Y-129853809D02*
X189440476Y-130044285D01*
X189440476Y-130044285D02*
X189488095Y-130139523D01*
X189488095Y-130139523D02*
X189583333Y-130234761D01*
X189583333Y-130234761D02*
X189726190Y-130282380D01*
X189726190Y-130282380D02*
X189821428Y-130282380D01*
X189821428Y-130282380D02*
X189964285Y-130234761D01*
X189964285Y-130234761D02*
X190011904Y-130187142D01*
X190011904Y-130187142D02*
X190011904Y-129853809D01*
X190011904Y-129853809D02*
X189821428Y-129853809D01*
X190440476Y-130282380D02*
X190440476Y-129282380D01*
X190440476Y-129282380D02*
X191011904Y-130282380D01*
X191011904Y-130282380D02*
X191011904Y-129282380D01*
X191488095Y-130282380D02*
X191488095Y-129282380D01*
X191488095Y-129282380D02*
X191726190Y-129282380D01*
X191726190Y-129282380D02*
X191869047Y-129330000D01*
X191869047Y-129330000D02*
X191964285Y-129425238D01*
X191964285Y-129425238D02*
X192011904Y-129520476D01*
X192011904Y-129520476D02*
X192059523Y-129710952D01*
X192059523Y-129710952D02*
X192059523Y-129853809D01*
X192059523Y-129853809D02*
X192011904Y-130044285D01*
X192011904Y-130044285D02*
X191964285Y-130139523D01*
X191964285Y-130139523D02*
X191869047Y-130234761D01*
X191869047Y-130234761D02*
X191726190Y-130282380D01*
X191726190Y-130282380D02*
X191488095Y-130282380D01*
D11*
X160174095Y-129690476D02*
X160974095Y-129690476D01*
X160974095Y-129690476D02*
X160974095Y-129995238D01*
X160974095Y-129995238D02*
X160936000Y-130071428D01*
X160936000Y-130071428D02*
X160897904Y-130109523D01*
X160897904Y-130109523D02*
X160821714Y-130147619D01*
X160821714Y-130147619D02*
X160707428Y-130147619D01*
X160707428Y-130147619D02*
X160631238Y-130109523D01*
X160631238Y-130109523D02*
X160593142Y-130071428D01*
X160593142Y-130071428D02*
X160555047Y-129995238D01*
X160555047Y-129995238D02*
X160555047Y-129690476D01*
X160174095Y-130490476D02*
X160974095Y-130490476D01*
X160250285Y-131328571D02*
X160212190Y-131290475D01*
X160212190Y-131290475D02*
X160174095Y-131176190D01*
X160174095Y-131176190D02*
X160174095Y-131099999D01*
X160174095Y-131099999D02*
X160212190Y-130985713D01*
X160212190Y-130985713D02*
X160288380Y-130909523D01*
X160288380Y-130909523D02*
X160364571Y-130871428D01*
X160364571Y-130871428D02*
X160516952Y-130833332D01*
X160516952Y-130833332D02*
X160631238Y-130833332D01*
X160631238Y-130833332D02*
X160783619Y-130871428D01*
X160783619Y-130871428D02*
X160859809Y-130909523D01*
X160859809Y-130909523D02*
X160936000Y-130985713D01*
X160936000Y-130985713D02*
X160974095Y-131099999D01*
X160974095Y-131099999D02*
X160974095Y-131176190D01*
X160974095Y-131176190D02*
X160936000Y-131290475D01*
X160936000Y-131290475D02*
X160897904Y-131328571D01*
X160174095Y-132090475D02*
X160174095Y-131633332D01*
X160174095Y-131861904D02*
X160974095Y-131861904D01*
X160974095Y-131861904D02*
X160859809Y-131785713D01*
X160859809Y-131785713D02*
X160783619Y-131709523D01*
X160783619Y-131709523D02*
X160745523Y-131633332D01*
X160974095Y-132776190D02*
X160974095Y-132623809D01*
X160974095Y-132623809D02*
X160936000Y-132547618D01*
X160936000Y-132547618D02*
X160897904Y-132509523D01*
X160897904Y-132509523D02*
X160783619Y-132433333D01*
X160783619Y-132433333D02*
X160631238Y-132395237D01*
X160631238Y-132395237D02*
X160326476Y-132395237D01*
X160326476Y-132395237D02*
X160250285Y-132433333D01*
X160250285Y-132433333D02*
X160212190Y-132471428D01*
X160212190Y-132471428D02*
X160174095Y-132547618D01*
X160174095Y-132547618D02*
X160174095Y-132699999D01*
X160174095Y-132699999D02*
X160212190Y-132776190D01*
X160212190Y-132776190D02*
X160250285Y-132814285D01*
X160250285Y-132814285D02*
X160326476Y-132852380D01*
X160326476Y-132852380D02*
X160516952Y-132852380D01*
X160516952Y-132852380D02*
X160593142Y-132814285D01*
X160593142Y-132814285D02*
X160631238Y-132776190D01*
X160631238Y-132776190D02*
X160669333Y-132699999D01*
X160669333Y-132699999D02*
X160669333Y-132547618D01*
X160669333Y-132547618D02*
X160631238Y-132471428D01*
X160631238Y-132471428D02*
X160593142Y-132433333D01*
X160593142Y-132433333D02*
X160516952Y-132395237D01*
X160593142Y-133461904D02*
X160593142Y-133195238D01*
X160174095Y-133195238D02*
X160974095Y-133195238D01*
X160974095Y-133195238D02*
X160974095Y-133576190D01*
X160174095Y-134299999D02*
X160174095Y-133842856D01*
X160174095Y-134071428D02*
X160974095Y-134071428D01*
X160974095Y-134071428D02*
X160859809Y-133995237D01*
X160859809Y-133995237D02*
X160783619Y-133919047D01*
X160783619Y-133919047D02*
X160745523Y-133842856D01*
X160974095Y-135023809D02*
X160974095Y-134642857D01*
X160974095Y-134642857D02*
X160593142Y-134604761D01*
X160593142Y-134604761D02*
X160631238Y-134642857D01*
X160631238Y-134642857D02*
X160669333Y-134719047D01*
X160669333Y-134719047D02*
X160669333Y-134909523D01*
X160669333Y-134909523D02*
X160631238Y-134985714D01*
X160631238Y-134985714D02*
X160593142Y-135023809D01*
X160593142Y-135023809D02*
X160516952Y-135061904D01*
X160516952Y-135061904D02*
X160326476Y-135061904D01*
X160326476Y-135061904D02*
X160250285Y-135023809D01*
X160250285Y-135023809D02*
X160212190Y-134985714D01*
X160212190Y-134985714D02*
X160174095Y-134909523D01*
X160174095Y-134909523D02*
X160174095Y-134719047D01*
X160174095Y-134719047D02*
X160212190Y-134642857D01*
X160212190Y-134642857D02*
X160250285Y-134604761D01*
X160974095Y-135328571D02*
X160974095Y-135823809D01*
X160974095Y-135823809D02*
X160669333Y-135557143D01*
X160669333Y-135557143D02*
X160669333Y-135671428D01*
X160669333Y-135671428D02*
X160631238Y-135747619D01*
X160631238Y-135747619D02*
X160593142Y-135785714D01*
X160593142Y-135785714D02*
X160516952Y-135823809D01*
X160516952Y-135823809D02*
X160326476Y-135823809D01*
X160326476Y-135823809D02*
X160250285Y-135785714D01*
X160250285Y-135785714D02*
X160212190Y-135747619D01*
X160212190Y-135747619D02*
X160174095Y-135671428D01*
X160174095Y-135671428D02*
X160174095Y-135442857D01*
X160174095Y-135442857D02*
X160212190Y-135366666D01*
X160212190Y-135366666D02*
X160250285Y-135328571D01*
X160174095Y-136585714D02*
X160174095Y-136128571D01*
X160174095Y-136357143D02*
X160974095Y-136357143D01*
X160974095Y-136357143D02*
X160859809Y-136280952D01*
X160859809Y-136280952D02*
X160783619Y-136204762D01*
X160783619Y-136204762D02*
X160745523Y-136128571D01*
X160974095Y-136852381D02*
X160974095Y-137347619D01*
X160974095Y-137347619D02*
X160669333Y-137080953D01*
X160669333Y-137080953D02*
X160669333Y-137195238D01*
X160669333Y-137195238D02*
X160631238Y-137271429D01*
X160631238Y-137271429D02*
X160593142Y-137309524D01*
X160593142Y-137309524D02*
X160516952Y-137347619D01*
X160516952Y-137347619D02*
X160326476Y-137347619D01*
X160326476Y-137347619D02*
X160250285Y-137309524D01*
X160250285Y-137309524D02*
X160212190Y-137271429D01*
X160212190Y-137271429D02*
X160174095Y-137195238D01*
X160174095Y-137195238D02*
X160174095Y-136966667D01*
X160174095Y-136966667D02*
X160212190Y-136890476D01*
X160212190Y-136890476D02*
X160250285Y-136852381D01*
D12*
X173750000Y-107000000D02*
X159500000Y-116500000D01*
G36*
X199500000Y-125250000D02*
G01*
X170000000Y-103750000D01*
X199250000Y-103750000D01*
X199500000Y-125250000D01*
G37*
X199500000Y-125250000D02*
X170000000Y-103750000D01*
X199250000Y-103750000D01*
X199500000Y-125250000D01*
X191250000Y-132250000D02*
X189000000Y-130750000D01*
G36*
X173000000Y-107000000D02*
G01*
X159500000Y-116000000D01*
X159500000Y-103750000D01*
X168000000Y-103750000D01*
X173000000Y-107000000D01*
G37*
X173000000Y-107000000D02*
X159500000Y-116000000D01*
X159500000Y-103750000D01*
X168000000Y-103750000D01*
X173000000Y-107000000D01*
X167750000Y-134750000D02*
X170000000Y-136250000D01*
X167750000Y-132250000D02*
X170000000Y-130750000D01*
X191250000Y-134750000D02*
X189000000Y-136250000D01*
X165000000Y-134750000D02*
X167750000Y-134750000D01*
X194000000Y-134750000D02*
X191250000Y-134750000D01*
X165000000Y-132250000D02*
X167750000Y-132250000D01*
D10*
X129059523Y-131282380D02*
X128726190Y-130806190D01*
X128488095Y-131282380D02*
X128488095Y-130282380D01*
X128488095Y-130282380D02*
X128869047Y-130282380D01*
X128869047Y-130282380D02*
X128964285Y-130330000D01*
X128964285Y-130330000D02*
X129011904Y-130377619D01*
X129011904Y-130377619D02*
X129059523Y-130472857D01*
X129059523Y-130472857D02*
X129059523Y-130615714D01*
X129059523Y-130615714D02*
X129011904Y-130710952D01*
X129011904Y-130710952D02*
X128964285Y-130758571D01*
X128964285Y-130758571D02*
X128869047Y-130806190D01*
X128869047Y-130806190D02*
X128488095Y-130806190D01*
X129440476Y-130996666D02*
X129916666Y-130996666D01*
X129345238Y-131282380D02*
X129678571Y-130282380D01*
X129678571Y-130282380D02*
X130011904Y-131282380D01*
X130821428Y-130282380D02*
X130345238Y-130282380D01*
X130345238Y-130282380D02*
X130297619Y-130758571D01*
X130297619Y-130758571D02*
X130345238Y-130710952D01*
X130345238Y-130710952D02*
X130440476Y-130663333D01*
X130440476Y-130663333D02*
X130678571Y-130663333D01*
X130678571Y-130663333D02*
X130773809Y-130710952D01*
X130773809Y-130710952D02*
X130821428Y-130758571D01*
X130821428Y-130758571D02*
X130869047Y-130853809D01*
X130869047Y-130853809D02*
X130869047Y-131091904D01*
X130869047Y-131091904D02*
X130821428Y-131187142D01*
X130821428Y-131187142D02*
X130773809Y-131234761D01*
X130773809Y-131234761D02*
X130678571Y-131282380D01*
X130678571Y-131282380D02*
X130440476Y-131282380D01*
X130440476Y-131282380D02*
X130345238Y-131234761D01*
X130345238Y-131234761D02*
X130297619Y-131187142D01*
D11*
X132964285Y-120641190D02*
X133059523Y-120641190D01*
X133059523Y-120641190D02*
X133107142Y-120665000D01*
X133107142Y-120665000D02*
X133154761Y-120712619D01*
X133154761Y-120712619D02*
X133178571Y-120807857D01*
X133178571Y-120807857D02*
X133178571Y-120974523D01*
X133178571Y-120974523D02*
X133154761Y-121069761D01*
X133154761Y-121069761D02*
X133107142Y-121117380D01*
X133107142Y-121117380D02*
X133059523Y-121141190D01*
X133059523Y-121141190D02*
X132964285Y-121141190D01*
X132964285Y-121141190D02*
X132916666Y-121117380D01*
X132916666Y-121117380D02*
X132869047Y-121069761D01*
X132869047Y-121069761D02*
X132845238Y-120974523D01*
X132845238Y-120974523D02*
X132845238Y-120807857D01*
X132845238Y-120807857D02*
X132869047Y-120712619D01*
X132869047Y-120712619D02*
X132916666Y-120665000D01*
X132916666Y-120665000D02*
X132964285Y-120641190D01*
X133392857Y-121141190D02*
X133392857Y-120641190D01*
X133392857Y-120641190D02*
X133678571Y-121141190D01*
X133678571Y-121141190D02*
X133678571Y-120641190D01*
D10*
X139238095Y-115401428D02*
X140000000Y-115401428D01*
X139619047Y-115782380D02*
X139619047Y-115020476D01*
X132488095Y-115401428D02*
X133250000Y-115401428D01*
D11*
X137404761Y-121141190D02*
X137238095Y-120903095D01*
X137119047Y-121141190D02*
X137119047Y-120641190D01*
X137119047Y-120641190D02*
X137309523Y-120641190D01*
X137309523Y-120641190D02*
X137357142Y-120665000D01*
X137357142Y-120665000D02*
X137380952Y-120688809D01*
X137380952Y-120688809D02*
X137404761Y-120736428D01*
X137404761Y-120736428D02*
X137404761Y-120807857D01*
X137404761Y-120807857D02*
X137380952Y-120855476D01*
X137380952Y-120855476D02*
X137357142Y-120879285D01*
X137357142Y-120879285D02*
X137309523Y-120903095D01*
X137309523Y-120903095D02*
X137119047Y-120903095D01*
X137595238Y-120998333D02*
X137833333Y-120998333D01*
X137547619Y-121141190D02*
X137714285Y-120641190D01*
X137714285Y-120641190D02*
X137880952Y-121141190D01*
X138285713Y-120641190D02*
X138047618Y-120641190D01*
X138047618Y-120641190D02*
X138023809Y-120879285D01*
X138023809Y-120879285D02*
X138047618Y-120855476D01*
X138047618Y-120855476D02*
X138095237Y-120831666D01*
X138095237Y-120831666D02*
X138214285Y-120831666D01*
X138214285Y-120831666D02*
X138261904Y-120855476D01*
X138261904Y-120855476D02*
X138285713Y-120879285D01*
X138285713Y-120879285D02*
X138309523Y-120926904D01*
X138309523Y-120926904D02*
X138309523Y-121045952D01*
X138309523Y-121045952D02*
X138285713Y-121093571D01*
X138285713Y-121093571D02*
X138261904Y-121117380D01*
X138261904Y-121117380D02*
X138214285Y-121141190D01*
X138214285Y-121141190D02*
X138095237Y-121141190D01*
X138095237Y-121141190D02*
X138047618Y-121117380D01*
X138047618Y-121117380D02*
X138023809Y-121093571D01*
D10*
X139238095Y-118151428D02*
X140000000Y-118151428D01*
X139619047Y-118532380D02*
X139619047Y-117770476D01*
X144749999Y-131282380D02*
X144416666Y-130806190D01*
X144178571Y-131282380D02*
X144178571Y-130282380D01*
X144178571Y-130282380D02*
X144559523Y-130282380D01*
X144559523Y-130282380D02*
X144654761Y-130330000D01*
X144654761Y-130330000D02*
X144702380Y-130377619D01*
X144702380Y-130377619D02*
X144749999Y-130472857D01*
X144749999Y-130472857D02*
X144749999Y-130615714D01*
X144749999Y-130615714D02*
X144702380Y-130710952D01*
X144702380Y-130710952D02*
X144654761Y-130758571D01*
X144654761Y-130758571D02*
X144559523Y-130806190D01*
X144559523Y-130806190D02*
X144178571Y-130806190D01*
X145130952Y-130996666D02*
X145607142Y-130996666D01*
X145035714Y-131282380D02*
X145369047Y-130282380D01*
X145369047Y-130282380D02*
X145702380Y-131282380D01*
X146226190Y-130282380D02*
X146321428Y-130282380D01*
X146321428Y-130282380D02*
X146416666Y-130330000D01*
X146416666Y-130330000D02*
X146464285Y-130377619D01*
X146464285Y-130377619D02*
X146511904Y-130472857D01*
X146511904Y-130472857D02*
X146559523Y-130663333D01*
X146559523Y-130663333D02*
X146559523Y-130901428D01*
X146559523Y-130901428D02*
X146511904Y-131091904D01*
X146511904Y-131091904D02*
X146464285Y-131187142D01*
X146464285Y-131187142D02*
X146416666Y-131234761D01*
X146416666Y-131234761D02*
X146321428Y-131282380D01*
X146321428Y-131282380D02*
X146226190Y-131282380D01*
X146226190Y-131282380D02*
X146130952Y-131234761D01*
X146130952Y-131234761D02*
X146083333Y-131187142D01*
X146083333Y-131187142D02*
X146035714Y-131091904D01*
X146035714Y-131091904D02*
X145988095Y-130901428D01*
X145988095Y-130901428D02*
X145988095Y-130663333D01*
X145988095Y-130663333D02*
X146035714Y-130472857D01*
X146035714Y-130472857D02*
X146083333Y-130377619D01*
X146083333Y-130377619D02*
X146130952Y-130330000D01*
X146130952Y-130330000D02*
X146226190Y-130282380D01*
X124845238Y-129282380D02*
X125178571Y-130282380D01*
X125178571Y-130282380D02*
X125511904Y-129282380D01*
X126416666Y-130187142D02*
X126369047Y-130234761D01*
X126369047Y-130234761D02*
X126226190Y-130282380D01*
X126226190Y-130282380D02*
X126130952Y-130282380D01*
X126130952Y-130282380D02*
X125988095Y-130234761D01*
X125988095Y-130234761D02*
X125892857Y-130139523D01*
X125892857Y-130139523D02*
X125845238Y-130044285D01*
X125845238Y-130044285D02*
X125797619Y-129853809D01*
X125797619Y-129853809D02*
X125797619Y-129710952D01*
X125797619Y-129710952D02*
X125845238Y-129520476D01*
X125845238Y-129520476D02*
X125892857Y-129425238D01*
X125892857Y-129425238D02*
X125988095Y-129330000D01*
X125988095Y-129330000D02*
X126130952Y-129282380D01*
X126130952Y-129282380D02*
X126226190Y-129282380D01*
X126226190Y-129282380D02*
X126369047Y-129330000D01*
X126369047Y-129330000D02*
X126416666Y-129377619D01*
X127416666Y-130187142D02*
X127369047Y-130234761D01*
X127369047Y-130234761D02*
X127226190Y-130282380D01*
X127226190Y-130282380D02*
X127130952Y-130282380D01*
X127130952Y-130282380D02*
X126988095Y-130234761D01*
X126988095Y-130234761D02*
X126892857Y-130139523D01*
X126892857Y-130139523D02*
X126845238Y-130044285D01*
X126845238Y-130044285D02*
X126797619Y-129853809D01*
X126797619Y-129853809D02*
X126797619Y-129710952D01*
X126797619Y-129710952D02*
X126845238Y-129520476D01*
X126845238Y-129520476D02*
X126892857Y-129425238D01*
X126892857Y-129425238D02*
X126988095Y-129330000D01*
X126988095Y-129330000D02*
X127130952Y-129282380D01*
X127130952Y-129282380D02*
X127226190Y-129282380D01*
X127226190Y-129282380D02*
X127369047Y-129330000D01*
X127369047Y-129330000D02*
X127416666Y-129377619D01*
D11*
X127869047Y-116891190D02*
X127869047Y-116391190D01*
X127869047Y-116391190D02*
X128059523Y-116391190D01*
X128059523Y-116391190D02*
X128107142Y-116415000D01*
X128107142Y-116415000D02*
X128130952Y-116438809D01*
X128130952Y-116438809D02*
X128154761Y-116486428D01*
X128154761Y-116486428D02*
X128154761Y-116557857D01*
X128154761Y-116557857D02*
X128130952Y-116605476D01*
X128130952Y-116605476D02*
X128107142Y-116629285D01*
X128107142Y-116629285D02*
X128059523Y-116653095D01*
X128059523Y-116653095D02*
X127869047Y-116653095D01*
X128464285Y-116391190D02*
X128559523Y-116391190D01*
X128559523Y-116391190D02*
X128607142Y-116415000D01*
X128607142Y-116415000D02*
X128654761Y-116462619D01*
X128654761Y-116462619D02*
X128678571Y-116557857D01*
X128678571Y-116557857D02*
X128678571Y-116724523D01*
X128678571Y-116724523D02*
X128654761Y-116819761D01*
X128654761Y-116819761D02*
X128607142Y-116867380D01*
X128607142Y-116867380D02*
X128559523Y-116891190D01*
X128559523Y-116891190D02*
X128464285Y-116891190D01*
X128464285Y-116891190D02*
X128416666Y-116867380D01*
X128416666Y-116867380D02*
X128369047Y-116819761D01*
X128369047Y-116819761D02*
X128345238Y-116724523D01*
X128345238Y-116724523D02*
X128345238Y-116557857D01*
X128345238Y-116557857D02*
X128369047Y-116462619D01*
X128369047Y-116462619D02*
X128416666Y-116415000D01*
X128416666Y-116415000D02*
X128464285Y-116391190D01*
X128821429Y-116391190D02*
X129107143Y-116391190D01*
X128964286Y-116891190D02*
X128964286Y-116391190D01*
D10*
X125559523Y-137782380D02*
X125226190Y-137306190D01*
X124988095Y-137782380D02*
X124988095Y-136782380D01*
X124988095Y-136782380D02*
X125369047Y-136782380D01*
X125369047Y-136782380D02*
X125464285Y-136830000D01*
X125464285Y-136830000D02*
X125511904Y-136877619D01*
X125511904Y-136877619D02*
X125559523Y-136972857D01*
X125559523Y-136972857D02*
X125559523Y-137115714D01*
X125559523Y-137115714D02*
X125511904Y-137210952D01*
X125511904Y-137210952D02*
X125464285Y-137258571D01*
X125464285Y-137258571D02*
X125369047Y-137306190D01*
X125369047Y-137306190D02*
X124988095Y-137306190D01*
X125940476Y-137496666D02*
X126416666Y-137496666D01*
X125845238Y-137782380D02*
X126178571Y-136782380D01*
X126178571Y-136782380D02*
X126511904Y-137782380D01*
X126750000Y-136782380D02*
X127369047Y-136782380D01*
X127369047Y-136782380D02*
X127035714Y-137163333D01*
X127035714Y-137163333D02*
X127178571Y-137163333D01*
X127178571Y-137163333D02*
X127273809Y-137210952D01*
X127273809Y-137210952D02*
X127321428Y-137258571D01*
X127321428Y-137258571D02*
X127369047Y-137353809D01*
X127369047Y-137353809D02*
X127369047Y-137591904D01*
X127369047Y-137591904D02*
X127321428Y-137687142D01*
X127321428Y-137687142D02*
X127273809Y-137734761D01*
X127273809Y-137734761D02*
X127178571Y-137782380D01*
X127178571Y-137782380D02*
X126892857Y-137782380D01*
X126892857Y-137782380D02*
X126797619Y-137734761D01*
X126797619Y-137734761D02*
X126750000Y-137687142D01*
D12*
X127250000Y-103750000D02*
X131750000Y-107000000D01*
X152000000Y-132250000D02*
X149250000Y-132250000D01*
G36*
X131000000Y-140250000D02*
G01*
X130500000Y-139000000D01*
X131500000Y-139000000D01*
X131000000Y-140250000D01*
G37*
X131000000Y-140250000D02*
X130500000Y-139000000D01*
X131500000Y-139000000D01*
X131000000Y-140250000D01*
G36*
X157500000Y-126250000D02*
G01*
X157500000Y-133750000D01*
X148250000Y-119500000D01*
X157500000Y-126250000D01*
G37*
X157500000Y-126250000D02*
X157500000Y-133750000D01*
X148250000Y-119500000D01*
X157500000Y-126250000D01*
D10*
X148249999Y-137782380D02*
X147916666Y-137306190D01*
X147678571Y-137782380D02*
X147678571Y-136782380D01*
X147678571Y-136782380D02*
X148059523Y-136782380D01*
X148059523Y-136782380D02*
X148154761Y-136830000D01*
X148154761Y-136830000D02*
X148202380Y-136877619D01*
X148202380Y-136877619D02*
X148249999Y-136972857D01*
X148249999Y-136972857D02*
X148249999Y-137115714D01*
X148249999Y-137115714D02*
X148202380Y-137210952D01*
X148202380Y-137210952D02*
X148154761Y-137258571D01*
X148154761Y-137258571D02*
X148059523Y-137306190D01*
X148059523Y-137306190D02*
X147678571Y-137306190D01*
X148630952Y-137496666D02*
X149107142Y-137496666D01*
X148535714Y-137782380D02*
X148869047Y-136782380D01*
X148869047Y-136782380D02*
X149202380Y-137782380D01*
X149488095Y-136877619D02*
X149535714Y-136830000D01*
X149535714Y-136830000D02*
X149630952Y-136782380D01*
X149630952Y-136782380D02*
X149869047Y-136782380D01*
X149869047Y-136782380D02*
X149964285Y-136830000D01*
X149964285Y-136830000D02*
X150011904Y-136877619D01*
X150011904Y-136877619D02*
X150059523Y-136972857D01*
X150059523Y-136972857D02*
X150059523Y-137068095D01*
X150059523Y-137068095D02*
X150011904Y-137210952D01*
X150011904Y-137210952D02*
X149440476Y-137782380D01*
X149440476Y-137782380D02*
X150059523Y-137782380D01*
D11*
X143404761Y-126641190D02*
X143238095Y-126403095D01*
X143119047Y-126641190D02*
X143119047Y-126141190D01*
X143119047Y-126141190D02*
X143309523Y-126141190D01*
X143309523Y-126141190D02*
X143357142Y-126165000D01*
X143357142Y-126165000D02*
X143380952Y-126188809D01*
X143380952Y-126188809D02*
X143404761Y-126236428D01*
X143404761Y-126236428D02*
X143404761Y-126307857D01*
X143404761Y-126307857D02*
X143380952Y-126355476D01*
X143380952Y-126355476D02*
X143357142Y-126379285D01*
X143357142Y-126379285D02*
X143309523Y-126403095D01*
X143309523Y-126403095D02*
X143119047Y-126403095D01*
X143619047Y-126379285D02*
X143785714Y-126379285D01*
X143857142Y-126641190D02*
X143619047Y-126641190D01*
X143619047Y-126641190D02*
X143619047Y-126141190D01*
X143619047Y-126141190D02*
X143857142Y-126141190D01*
X144047619Y-126617380D02*
X144119047Y-126641190D01*
X144119047Y-126641190D02*
X144238095Y-126641190D01*
X144238095Y-126641190D02*
X144285714Y-126617380D01*
X144285714Y-126617380D02*
X144309523Y-126593571D01*
X144309523Y-126593571D02*
X144333333Y-126545952D01*
X144333333Y-126545952D02*
X144333333Y-126498333D01*
X144333333Y-126498333D02*
X144309523Y-126450714D01*
X144309523Y-126450714D02*
X144285714Y-126426904D01*
X144285714Y-126426904D02*
X144238095Y-126403095D01*
X144238095Y-126403095D02*
X144142857Y-126379285D01*
X144142857Y-126379285D02*
X144095238Y-126355476D01*
X144095238Y-126355476D02*
X144071428Y-126331666D01*
X144071428Y-126331666D02*
X144047619Y-126284047D01*
X144047619Y-126284047D02*
X144047619Y-126236428D01*
X144047619Y-126236428D02*
X144071428Y-126188809D01*
X144071428Y-126188809D02*
X144095238Y-126165000D01*
X144095238Y-126165000D02*
X144142857Y-126141190D01*
X144142857Y-126141190D02*
X144261904Y-126141190D01*
X144261904Y-126141190D02*
X144333333Y-126165000D01*
X144547618Y-126379285D02*
X144714285Y-126379285D01*
X144785713Y-126641190D02*
X144547618Y-126641190D01*
X144547618Y-126641190D02*
X144547618Y-126141190D01*
X144547618Y-126141190D02*
X144785713Y-126141190D01*
X144928571Y-126141190D02*
X145214285Y-126141190D01*
X145071428Y-126641190D02*
X145071428Y-126141190D01*
X120464285Y-116391190D02*
X120559523Y-116391190D01*
X120559523Y-116391190D02*
X120607142Y-116415000D01*
X120607142Y-116415000D02*
X120654761Y-116462619D01*
X120654761Y-116462619D02*
X120678571Y-116557857D01*
X120678571Y-116557857D02*
X120678571Y-116724523D01*
X120678571Y-116724523D02*
X120654761Y-116819761D01*
X120654761Y-116819761D02*
X120607142Y-116867380D01*
X120607142Y-116867380D02*
X120559523Y-116891190D01*
X120559523Y-116891190D02*
X120464285Y-116891190D01*
X120464285Y-116891190D02*
X120416666Y-116867380D01*
X120416666Y-116867380D02*
X120369047Y-116819761D01*
X120369047Y-116819761D02*
X120345238Y-116724523D01*
X120345238Y-116724523D02*
X120345238Y-116557857D01*
X120345238Y-116557857D02*
X120369047Y-116462619D01*
X120369047Y-116462619D02*
X120416666Y-116415000D01*
X120416666Y-116415000D02*
X120464285Y-116391190D01*
X120892857Y-116891190D02*
X120892857Y-116391190D01*
X120892857Y-116391190D02*
X121178571Y-116891190D01*
X121178571Y-116891190D02*
X121178571Y-116391190D01*
X143404761Y-118391190D02*
X143238095Y-118153095D01*
X143119047Y-118391190D02*
X143119047Y-117891190D01*
X143119047Y-117891190D02*
X143309523Y-117891190D01*
X143309523Y-117891190D02*
X143357142Y-117915000D01*
X143357142Y-117915000D02*
X143380952Y-117938809D01*
X143380952Y-117938809D02*
X143404761Y-117986428D01*
X143404761Y-117986428D02*
X143404761Y-118057857D01*
X143404761Y-118057857D02*
X143380952Y-118105476D01*
X143380952Y-118105476D02*
X143357142Y-118129285D01*
X143357142Y-118129285D02*
X143309523Y-118153095D01*
X143309523Y-118153095D02*
X143119047Y-118153095D01*
X143619047Y-118129285D02*
X143785714Y-118129285D01*
X143857142Y-118391190D02*
X143619047Y-118391190D01*
X143619047Y-118391190D02*
X143619047Y-117891190D01*
X143619047Y-117891190D02*
X143857142Y-117891190D01*
X144047619Y-118367380D02*
X144119047Y-118391190D01*
X144119047Y-118391190D02*
X144238095Y-118391190D01*
X144238095Y-118391190D02*
X144285714Y-118367380D01*
X144285714Y-118367380D02*
X144309523Y-118343571D01*
X144309523Y-118343571D02*
X144333333Y-118295952D01*
X144333333Y-118295952D02*
X144333333Y-118248333D01*
X144333333Y-118248333D02*
X144309523Y-118200714D01*
X144309523Y-118200714D02*
X144285714Y-118176904D01*
X144285714Y-118176904D02*
X144238095Y-118153095D01*
X144238095Y-118153095D02*
X144142857Y-118129285D01*
X144142857Y-118129285D02*
X144095238Y-118105476D01*
X144095238Y-118105476D02*
X144071428Y-118081666D01*
X144071428Y-118081666D02*
X144047619Y-118034047D01*
X144047619Y-118034047D02*
X144047619Y-117986428D01*
X144047619Y-117986428D02*
X144071428Y-117938809D01*
X144071428Y-117938809D02*
X144095238Y-117915000D01*
X144095238Y-117915000D02*
X144142857Y-117891190D01*
X144142857Y-117891190D02*
X144261904Y-117891190D01*
X144261904Y-117891190D02*
X144333333Y-117915000D01*
X144547618Y-118129285D02*
X144714285Y-118129285D01*
X144785713Y-118391190D02*
X144547618Y-118391190D01*
X144547618Y-118391190D02*
X144547618Y-117891190D01*
X144547618Y-117891190D02*
X144785713Y-117891190D01*
X144928571Y-117891190D02*
X145214285Y-117891190D01*
X145071428Y-118391190D02*
X145071428Y-117891190D01*
D10*
X144749999Y-136782380D02*
X144416666Y-136306190D01*
X144178571Y-136782380D02*
X144178571Y-135782380D01*
X144178571Y-135782380D02*
X144559523Y-135782380D01*
X144559523Y-135782380D02*
X144654761Y-135830000D01*
X144654761Y-135830000D02*
X144702380Y-135877619D01*
X144702380Y-135877619D02*
X144749999Y-135972857D01*
X144749999Y-135972857D02*
X144749999Y-136115714D01*
X144749999Y-136115714D02*
X144702380Y-136210952D01*
X144702380Y-136210952D02*
X144654761Y-136258571D01*
X144654761Y-136258571D02*
X144559523Y-136306190D01*
X144559523Y-136306190D02*
X144178571Y-136306190D01*
X145130952Y-136496666D02*
X145607142Y-136496666D01*
X145035714Y-136782380D02*
X145369047Y-135782380D01*
X145369047Y-135782380D02*
X145702380Y-136782380D01*
X146559523Y-136782380D02*
X145988095Y-136782380D01*
X146273809Y-136782380D02*
X146273809Y-135782380D01*
X146273809Y-135782380D02*
X146178571Y-135925238D01*
X146178571Y-135925238D02*
X146083333Y-136020476D01*
X146083333Y-136020476D02*
X145988095Y-136068095D01*
X135107142Y-140032380D02*
X135107142Y-139032380D01*
X136678571Y-139937142D02*
X136607143Y-139984761D01*
X136607143Y-139984761D02*
X136392857Y-140032380D01*
X136392857Y-140032380D02*
X136250000Y-140032380D01*
X136250000Y-140032380D02*
X136035714Y-139984761D01*
X136035714Y-139984761D02*
X135892857Y-139889523D01*
X135892857Y-139889523D02*
X135821428Y-139794285D01*
X135821428Y-139794285D02*
X135750000Y-139603809D01*
X135750000Y-139603809D02*
X135750000Y-139460952D01*
X135750000Y-139460952D02*
X135821428Y-139270476D01*
X135821428Y-139270476D02*
X135892857Y-139175238D01*
X135892857Y-139175238D02*
X136035714Y-139080000D01*
X136035714Y-139080000D02*
X136250000Y-139032380D01*
X136250000Y-139032380D02*
X136392857Y-139032380D01*
X136392857Y-139032380D02*
X136607143Y-139080000D01*
X136607143Y-139080000D02*
X136678571Y-139127619D01*
X137250000Y-139984761D02*
X137464286Y-140032380D01*
X137464286Y-140032380D02*
X137821428Y-140032380D01*
X137821428Y-140032380D02*
X137964286Y-139984761D01*
X137964286Y-139984761D02*
X138035714Y-139937142D01*
X138035714Y-139937142D02*
X138107143Y-139841904D01*
X138107143Y-139841904D02*
X138107143Y-139746666D01*
X138107143Y-139746666D02*
X138035714Y-139651428D01*
X138035714Y-139651428D02*
X137964286Y-139603809D01*
X137964286Y-139603809D02*
X137821428Y-139556190D01*
X137821428Y-139556190D02*
X137535714Y-139508571D01*
X137535714Y-139508571D02*
X137392857Y-139460952D01*
X137392857Y-139460952D02*
X137321428Y-139413333D01*
X137321428Y-139413333D02*
X137250000Y-139318095D01*
X137250000Y-139318095D02*
X137250000Y-139222857D01*
X137250000Y-139222857D02*
X137321428Y-139127619D01*
X137321428Y-139127619D02*
X137392857Y-139080000D01*
X137392857Y-139080000D02*
X137535714Y-139032380D01*
X137535714Y-139032380D02*
X137892857Y-139032380D01*
X137892857Y-139032380D02*
X138107143Y-139080000D01*
X138749999Y-140032380D02*
X138749999Y-139032380D01*
X138749999Y-139032380D02*
X139321428Y-139032380D01*
X139321428Y-139032380D02*
X139464285Y-139080000D01*
X139464285Y-139080000D02*
X139535714Y-139127619D01*
X139535714Y-139127619D02*
X139607142Y-139222857D01*
X139607142Y-139222857D02*
X139607142Y-139365714D01*
X139607142Y-139365714D02*
X139535714Y-139460952D01*
X139535714Y-139460952D02*
X139464285Y-139508571D01*
X139464285Y-139508571D02*
X139321428Y-139556190D01*
X139321428Y-139556190D02*
X138749999Y-139556190D01*
X132488095Y-118151428D02*
X133250000Y-118151428D01*
D11*
X122654761Y-116891190D02*
X122488095Y-116653095D01*
X122369047Y-116891190D02*
X122369047Y-116391190D01*
X122369047Y-116391190D02*
X122559523Y-116391190D01*
X122559523Y-116391190D02*
X122607142Y-116415000D01*
X122607142Y-116415000D02*
X122630952Y-116438809D01*
X122630952Y-116438809D02*
X122654761Y-116486428D01*
X122654761Y-116486428D02*
X122654761Y-116557857D01*
X122654761Y-116557857D02*
X122630952Y-116605476D01*
X122630952Y-116605476D02*
X122607142Y-116629285D01*
X122607142Y-116629285D02*
X122559523Y-116653095D01*
X122559523Y-116653095D02*
X122369047Y-116653095D01*
X122869047Y-116629285D02*
X123035714Y-116629285D01*
X123107142Y-116891190D02*
X122869047Y-116891190D01*
X122869047Y-116891190D02*
X122869047Y-116391190D01*
X122869047Y-116391190D02*
X123107142Y-116391190D01*
X123297619Y-116867380D02*
X123369047Y-116891190D01*
X123369047Y-116891190D02*
X123488095Y-116891190D01*
X123488095Y-116891190D02*
X123535714Y-116867380D01*
X123535714Y-116867380D02*
X123559523Y-116843571D01*
X123559523Y-116843571D02*
X123583333Y-116795952D01*
X123583333Y-116795952D02*
X123583333Y-116748333D01*
X123583333Y-116748333D02*
X123559523Y-116700714D01*
X123559523Y-116700714D02*
X123535714Y-116676904D01*
X123535714Y-116676904D02*
X123488095Y-116653095D01*
X123488095Y-116653095D02*
X123392857Y-116629285D01*
X123392857Y-116629285D02*
X123345238Y-116605476D01*
X123345238Y-116605476D02*
X123321428Y-116581666D01*
X123321428Y-116581666D02*
X123297619Y-116534047D01*
X123297619Y-116534047D02*
X123297619Y-116486428D01*
X123297619Y-116486428D02*
X123321428Y-116438809D01*
X123321428Y-116438809D02*
X123345238Y-116415000D01*
X123345238Y-116415000D02*
X123392857Y-116391190D01*
X123392857Y-116391190D02*
X123511904Y-116391190D01*
X123511904Y-116391190D02*
X123583333Y-116415000D01*
X123797618Y-116629285D02*
X123964285Y-116629285D01*
X124035713Y-116891190D02*
X123797618Y-116891190D01*
X123797618Y-116891190D02*
X123797618Y-116391190D01*
X123797618Y-116391190D02*
X124035713Y-116391190D01*
X124178571Y-116391190D02*
X124464285Y-116391190D01*
X124321428Y-116891190D02*
X124321428Y-116391190D01*
D10*
X129059523Y-136782380D02*
X128726190Y-136306190D01*
X128488095Y-136782380D02*
X128488095Y-135782380D01*
X128488095Y-135782380D02*
X128869047Y-135782380D01*
X128869047Y-135782380D02*
X128964285Y-135830000D01*
X128964285Y-135830000D02*
X129011904Y-135877619D01*
X129011904Y-135877619D02*
X129059523Y-135972857D01*
X129059523Y-135972857D02*
X129059523Y-136115714D01*
X129059523Y-136115714D02*
X129011904Y-136210952D01*
X129011904Y-136210952D02*
X128964285Y-136258571D01*
X128964285Y-136258571D02*
X128869047Y-136306190D01*
X128869047Y-136306190D02*
X128488095Y-136306190D01*
X129440476Y-136496666D02*
X129916666Y-136496666D01*
X129345238Y-136782380D02*
X129678571Y-135782380D01*
X129678571Y-135782380D02*
X130011904Y-136782380D01*
X130773809Y-136115714D02*
X130773809Y-136782380D01*
X130535714Y-135734761D02*
X130297619Y-136449047D01*
X130297619Y-136449047D02*
X130916666Y-136449047D01*
D11*
X125607142Y-116891190D02*
X125369047Y-116891190D01*
X125369047Y-116891190D02*
X125369047Y-116391190D01*
X125773809Y-116629285D02*
X125940476Y-116629285D01*
X126011904Y-116891190D02*
X125773809Y-116891190D01*
X125773809Y-116891190D02*
X125773809Y-116391190D01*
X125773809Y-116391190D02*
X126011904Y-116391190D01*
X126226190Y-116891190D02*
X126226190Y-116391190D01*
X126226190Y-116391190D02*
X126345238Y-116391190D01*
X126345238Y-116391190D02*
X126416666Y-116415000D01*
X126416666Y-116415000D02*
X126464285Y-116462619D01*
X126464285Y-116462619D02*
X126488095Y-116510238D01*
X126488095Y-116510238D02*
X126511904Y-116605476D01*
X126511904Y-116605476D02*
X126511904Y-116676904D01*
X126511904Y-116676904D02*
X126488095Y-116772142D01*
X126488095Y-116772142D02*
X126464285Y-116819761D01*
X126464285Y-116819761D02*
X126416666Y-116867380D01*
X126416666Y-116867380D02*
X126345238Y-116891190D01*
X126345238Y-116891190D02*
X126226190Y-116891190D01*
D10*
X147964285Y-129330000D02*
X147869047Y-129282380D01*
X147869047Y-129282380D02*
X147726190Y-129282380D01*
X147726190Y-129282380D02*
X147583333Y-129330000D01*
X147583333Y-129330000D02*
X147488095Y-129425238D01*
X147488095Y-129425238D02*
X147440476Y-129520476D01*
X147440476Y-129520476D02*
X147392857Y-129710952D01*
X147392857Y-129710952D02*
X147392857Y-129853809D01*
X147392857Y-129853809D02*
X147440476Y-130044285D01*
X147440476Y-130044285D02*
X147488095Y-130139523D01*
X147488095Y-130139523D02*
X147583333Y-130234761D01*
X147583333Y-130234761D02*
X147726190Y-130282380D01*
X147726190Y-130282380D02*
X147821428Y-130282380D01*
X147821428Y-130282380D02*
X147964285Y-130234761D01*
X147964285Y-130234761D02*
X148011904Y-130187142D01*
X148011904Y-130187142D02*
X148011904Y-129853809D01*
X148011904Y-129853809D02*
X147821428Y-129853809D01*
X148440476Y-130282380D02*
X148440476Y-129282380D01*
X148440476Y-129282380D02*
X149011904Y-130282380D01*
X149011904Y-130282380D02*
X149011904Y-129282380D01*
X149488095Y-130282380D02*
X149488095Y-129282380D01*
X149488095Y-129282380D02*
X149726190Y-129282380D01*
X149726190Y-129282380D02*
X149869047Y-129330000D01*
X149869047Y-129330000D02*
X149964285Y-129425238D01*
X149964285Y-129425238D02*
X150011904Y-129520476D01*
X150011904Y-129520476D02*
X150059523Y-129710952D01*
X150059523Y-129710952D02*
X150059523Y-129853809D01*
X150059523Y-129853809D02*
X150011904Y-130044285D01*
X150011904Y-130044285D02*
X149964285Y-130139523D01*
X149964285Y-130139523D02*
X149869047Y-130234761D01*
X149869047Y-130234761D02*
X149726190Y-130282380D01*
X149726190Y-130282380D02*
X149488095Y-130282380D01*
D11*
X118174095Y-129690476D02*
X118974095Y-129690476D01*
X118974095Y-129690476D02*
X118974095Y-129995238D01*
X118974095Y-129995238D02*
X118936000Y-130071428D01*
X118936000Y-130071428D02*
X118897904Y-130109523D01*
X118897904Y-130109523D02*
X118821714Y-130147619D01*
X118821714Y-130147619D02*
X118707428Y-130147619D01*
X118707428Y-130147619D02*
X118631238Y-130109523D01*
X118631238Y-130109523D02*
X118593142Y-130071428D01*
X118593142Y-130071428D02*
X118555047Y-129995238D01*
X118555047Y-129995238D02*
X118555047Y-129690476D01*
X118174095Y-130490476D02*
X118974095Y-130490476D01*
X118250285Y-131328571D02*
X118212190Y-131290475D01*
X118212190Y-131290475D02*
X118174095Y-131176190D01*
X118174095Y-131176190D02*
X118174095Y-131099999D01*
X118174095Y-131099999D02*
X118212190Y-130985713D01*
X118212190Y-130985713D02*
X118288380Y-130909523D01*
X118288380Y-130909523D02*
X118364571Y-130871428D01*
X118364571Y-130871428D02*
X118516952Y-130833332D01*
X118516952Y-130833332D02*
X118631238Y-130833332D01*
X118631238Y-130833332D02*
X118783619Y-130871428D01*
X118783619Y-130871428D02*
X118859809Y-130909523D01*
X118859809Y-130909523D02*
X118936000Y-130985713D01*
X118936000Y-130985713D02*
X118974095Y-131099999D01*
X118974095Y-131099999D02*
X118974095Y-131176190D01*
X118974095Y-131176190D02*
X118936000Y-131290475D01*
X118936000Y-131290475D02*
X118897904Y-131328571D01*
X118174095Y-132090475D02*
X118174095Y-131633332D01*
X118174095Y-131861904D02*
X118974095Y-131861904D01*
X118974095Y-131861904D02*
X118859809Y-131785713D01*
X118859809Y-131785713D02*
X118783619Y-131709523D01*
X118783619Y-131709523D02*
X118745523Y-131633332D01*
X118974095Y-132776190D02*
X118974095Y-132623809D01*
X118974095Y-132623809D02*
X118936000Y-132547618D01*
X118936000Y-132547618D02*
X118897904Y-132509523D01*
X118897904Y-132509523D02*
X118783619Y-132433333D01*
X118783619Y-132433333D02*
X118631238Y-132395237D01*
X118631238Y-132395237D02*
X118326476Y-132395237D01*
X118326476Y-132395237D02*
X118250285Y-132433333D01*
X118250285Y-132433333D02*
X118212190Y-132471428D01*
X118212190Y-132471428D02*
X118174095Y-132547618D01*
X118174095Y-132547618D02*
X118174095Y-132699999D01*
X118174095Y-132699999D02*
X118212190Y-132776190D01*
X118212190Y-132776190D02*
X118250285Y-132814285D01*
X118250285Y-132814285D02*
X118326476Y-132852380D01*
X118326476Y-132852380D02*
X118516952Y-132852380D01*
X118516952Y-132852380D02*
X118593142Y-132814285D01*
X118593142Y-132814285D02*
X118631238Y-132776190D01*
X118631238Y-132776190D02*
X118669333Y-132699999D01*
X118669333Y-132699999D02*
X118669333Y-132547618D01*
X118669333Y-132547618D02*
X118631238Y-132471428D01*
X118631238Y-132471428D02*
X118593142Y-132433333D01*
X118593142Y-132433333D02*
X118516952Y-132395237D01*
X118593142Y-133461904D02*
X118593142Y-133195238D01*
X118174095Y-133195238D02*
X118974095Y-133195238D01*
X118974095Y-133195238D02*
X118974095Y-133576190D01*
X118174095Y-134299999D02*
X118174095Y-133842856D01*
X118174095Y-134071428D02*
X118974095Y-134071428D01*
X118974095Y-134071428D02*
X118859809Y-133995237D01*
X118859809Y-133995237D02*
X118783619Y-133919047D01*
X118783619Y-133919047D02*
X118745523Y-133842856D01*
X118974095Y-135023809D02*
X118974095Y-134642857D01*
X118974095Y-134642857D02*
X118593142Y-134604761D01*
X118593142Y-134604761D02*
X118631238Y-134642857D01*
X118631238Y-134642857D02*
X118669333Y-134719047D01*
X118669333Y-134719047D02*
X118669333Y-134909523D01*
X118669333Y-134909523D02*
X118631238Y-134985714D01*
X118631238Y-134985714D02*
X118593142Y-135023809D01*
X118593142Y-135023809D02*
X118516952Y-135061904D01*
X118516952Y-135061904D02*
X118326476Y-135061904D01*
X118326476Y-135061904D02*
X118250285Y-135023809D01*
X118250285Y-135023809D02*
X118212190Y-134985714D01*
X118212190Y-134985714D02*
X118174095Y-134909523D01*
X118174095Y-134909523D02*
X118174095Y-134719047D01*
X118174095Y-134719047D02*
X118212190Y-134642857D01*
X118212190Y-134642857D02*
X118250285Y-134604761D01*
X118974095Y-135328571D02*
X118974095Y-135823809D01*
X118974095Y-135823809D02*
X118669333Y-135557143D01*
X118669333Y-135557143D02*
X118669333Y-135671428D01*
X118669333Y-135671428D02*
X118631238Y-135747619D01*
X118631238Y-135747619D02*
X118593142Y-135785714D01*
X118593142Y-135785714D02*
X118516952Y-135823809D01*
X118516952Y-135823809D02*
X118326476Y-135823809D01*
X118326476Y-135823809D02*
X118250285Y-135785714D01*
X118250285Y-135785714D02*
X118212190Y-135747619D01*
X118212190Y-135747619D02*
X118174095Y-135671428D01*
X118174095Y-135671428D02*
X118174095Y-135442857D01*
X118174095Y-135442857D02*
X118212190Y-135366666D01*
X118212190Y-135366666D02*
X118250285Y-135328571D01*
X118174095Y-136585714D02*
X118174095Y-136128571D01*
X118174095Y-136357143D02*
X118974095Y-136357143D01*
X118974095Y-136357143D02*
X118859809Y-136280952D01*
X118859809Y-136280952D02*
X118783619Y-136204762D01*
X118783619Y-136204762D02*
X118745523Y-136128571D01*
X118974095Y-136852381D02*
X118974095Y-137347619D01*
X118974095Y-137347619D02*
X118669333Y-137080953D01*
X118669333Y-137080953D02*
X118669333Y-137195238D01*
X118669333Y-137195238D02*
X118631238Y-137271429D01*
X118631238Y-137271429D02*
X118593142Y-137309524D01*
X118593142Y-137309524D02*
X118516952Y-137347619D01*
X118516952Y-137347619D02*
X118326476Y-137347619D01*
X118326476Y-137347619D02*
X118250285Y-137309524D01*
X118250285Y-137309524D02*
X118212190Y-137271429D01*
X118212190Y-137271429D02*
X118174095Y-137195238D01*
X118174095Y-137195238D02*
X118174095Y-136966667D01*
X118174095Y-136966667D02*
X118212190Y-136890476D01*
X118212190Y-136890476D02*
X118250285Y-136852381D01*
D12*
X131750000Y-107000000D02*
X117500000Y-116500000D01*
G36*
X157500000Y-125250000D02*
G01*
X128000000Y-103750000D01*
X157250000Y-103750000D01*
X157500000Y-125250000D01*
G37*
X157500000Y-125250000D02*
X128000000Y-103750000D01*
X157250000Y-103750000D01*
X157500000Y-125250000D01*
X149250000Y-132250000D02*
X147000000Y-130750000D01*
G36*
X131000000Y-107000000D02*
G01*
X117500000Y-116000000D01*
X117500000Y-103750000D01*
X126000000Y-103750000D01*
X131000000Y-107000000D01*
G37*
X131000000Y-107000000D02*
X117500000Y-116000000D01*
X117500000Y-103750000D01*
X126000000Y-103750000D01*
X131000000Y-107000000D01*
X125750000Y-134750000D02*
X128000000Y-136250000D01*
X125750000Y-132250000D02*
X128000000Y-130750000D01*
X149250000Y-134750000D02*
X147000000Y-136250000D01*
X123000000Y-134750000D02*
X125750000Y-134750000D01*
X152000000Y-134750000D02*
X149250000Y-134750000D01*
X123000000Y-132250000D02*
X125750000Y-132250000D01*
D10*
X171059523Y-87532380D02*
X170726190Y-87056190D01*
X170488095Y-87532380D02*
X170488095Y-86532380D01*
X170488095Y-86532380D02*
X170869047Y-86532380D01*
X170869047Y-86532380D02*
X170964285Y-86580000D01*
X170964285Y-86580000D02*
X171011904Y-86627619D01*
X171011904Y-86627619D02*
X171059523Y-86722857D01*
X171059523Y-86722857D02*
X171059523Y-86865714D01*
X171059523Y-86865714D02*
X171011904Y-86960952D01*
X171011904Y-86960952D02*
X170964285Y-87008571D01*
X170964285Y-87008571D02*
X170869047Y-87056190D01*
X170869047Y-87056190D02*
X170488095Y-87056190D01*
X171440476Y-87246666D02*
X171916666Y-87246666D01*
X171345238Y-87532380D02*
X171678571Y-86532380D01*
X171678571Y-86532380D02*
X172011904Y-87532380D01*
X172821428Y-86532380D02*
X172345238Y-86532380D01*
X172345238Y-86532380D02*
X172297619Y-87008571D01*
X172297619Y-87008571D02*
X172345238Y-86960952D01*
X172345238Y-86960952D02*
X172440476Y-86913333D01*
X172440476Y-86913333D02*
X172678571Y-86913333D01*
X172678571Y-86913333D02*
X172773809Y-86960952D01*
X172773809Y-86960952D02*
X172821428Y-87008571D01*
X172821428Y-87008571D02*
X172869047Y-87103809D01*
X172869047Y-87103809D02*
X172869047Y-87341904D01*
X172869047Y-87341904D02*
X172821428Y-87437142D01*
X172821428Y-87437142D02*
X172773809Y-87484761D01*
X172773809Y-87484761D02*
X172678571Y-87532380D01*
X172678571Y-87532380D02*
X172440476Y-87532380D01*
X172440476Y-87532380D02*
X172345238Y-87484761D01*
X172345238Y-87484761D02*
X172297619Y-87437142D01*
D11*
X174964285Y-76891190D02*
X175059523Y-76891190D01*
X175059523Y-76891190D02*
X175107142Y-76915000D01*
X175107142Y-76915000D02*
X175154761Y-76962619D01*
X175154761Y-76962619D02*
X175178571Y-77057857D01*
X175178571Y-77057857D02*
X175178571Y-77224523D01*
X175178571Y-77224523D02*
X175154761Y-77319761D01*
X175154761Y-77319761D02*
X175107142Y-77367380D01*
X175107142Y-77367380D02*
X175059523Y-77391190D01*
X175059523Y-77391190D02*
X174964285Y-77391190D01*
X174964285Y-77391190D02*
X174916666Y-77367380D01*
X174916666Y-77367380D02*
X174869047Y-77319761D01*
X174869047Y-77319761D02*
X174845238Y-77224523D01*
X174845238Y-77224523D02*
X174845238Y-77057857D01*
X174845238Y-77057857D02*
X174869047Y-76962619D01*
X174869047Y-76962619D02*
X174916666Y-76915000D01*
X174916666Y-76915000D02*
X174964285Y-76891190D01*
X175392857Y-77391190D02*
X175392857Y-76891190D01*
X175392857Y-76891190D02*
X175678571Y-77391190D01*
X175678571Y-77391190D02*
X175678571Y-76891190D01*
D10*
X181238095Y-71651428D02*
X182000000Y-71651428D01*
X181619047Y-72032380D02*
X181619047Y-71270476D01*
X174488095Y-71651428D02*
X175250000Y-71651428D01*
D11*
X179404761Y-77391190D02*
X179238095Y-77153095D01*
X179119047Y-77391190D02*
X179119047Y-76891190D01*
X179119047Y-76891190D02*
X179309523Y-76891190D01*
X179309523Y-76891190D02*
X179357142Y-76915000D01*
X179357142Y-76915000D02*
X179380952Y-76938809D01*
X179380952Y-76938809D02*
X179404761Y-76986428D01*
X179404761Y-76986428D02*
X179404761Y-77057857D01*
X179404761Y-77057857D02*
X179380952Y-77105476D01*
X179380952Y-77105476D02*
X179357142Y-77129285D01*
X179357142Y-77129285D02*
X179309523Y-77153095D01*
X179309523Y-77153095D02*
X179119047Y-77153095D01*
X179595238Y-77248333D02*
X179833333Y-77248333D01*
X179547619Y-77391190D02*
X179714285Y-76891190D01*
X179714285Y-76891190D02*
X179880952Y-77391190D01*
X180285713Y-76891190D02*
X180047618Y-76891190D01*
X180047618Y-76891190D02*
X180023809Y-77129285D01*
X180023809Y-77129285D02*
X180047618Y-77105476D01*
X180047618Y-77105476D02*
X180095237Y-77081666D01*
X180095237Y-77081666D02*
X180214285Y-77081666D01*
X180214285Y-77081666D02*
X180261904Y-77105476D01*
X180261904Y-77105476D02*
X180285713Y-77129285D01*
X180285713Y-77129285D02*
X180309523Y-77176904D01*
X180309523Y-77176904D02*
X180309523Y-77295952D01*
X180309523Y-77295952D02*
X180285713Y-77343571D01*
X180285713Y-77343571D02*
X180261904Y-77367380D01*
X180261904Y-77367380D02*
X180214285Y-77391190D01*
X180214285Y-77391190D02*
X180095237Y-77391190D01*
X180095237Y-77391190D02*
X180047618Y-77367380D01*
X180047618Y-77367380D02*
X180023809Y-77343571D01*
D10*
X181238095Y-74401428D02*
X182000000Y-74401428D01*
X181619047Y-74782380D02*
X181619047Y-74020476D01*
X186749999Y-87532380D02*
X186416666Y-87056190D01*
X186178571Y-87532380D02*
X186178571Y-86532380D01*
X186178571Y-86532380D02*
X186559523Y-86532380D01*
X186559523Y-86532380D02*
X186654761Y-86580000D01*
X186654761Y-86580000D02*
X186702380Y-86627619D01*
X186702380Y-86627619D02*
X186749999Y-86722857D01*
X186749999Y-86722857D02*
X186749999Y-86865714D01*
X186749999Y-86865714D02*
X186702380Y-86960952D01*
X186702380Y-86960952D02*
X186654761Y-87008571D01*
X186654761Y-87008571D02*
X186559523Y-87056190D01*
X186559523Y-87056190D02*
X186178571Y-87056190D01*
X187130952Y-87246666D02*
X187607142Y-87246666D01*
X187035714Y-87532380D02*
X187369047Y-86532380D01*
X187369047Y-86532380D02*
X187702380Y-87532380D01*
X188226190Y-86532380D02*
X188321428Y-86532380D01*
X188321428Y-86532380D02*
X188416666Y-86580000D01*
X188416666Y-86580000D02*
X188464285Y-86627619D01*
X188464285Y-86627619D02*
X188511904Y-86722857D01*
X188511904Y-86722857D02*
X188559523Y-86913333D01*
X188559523Y-86913333D02*
X188559523Y-87151428D01*
X188559523Y-87151428D02*
X188511904Y-87341904D01*
X188511904Y-87341904D02*
X188464285Y-87437142D01*
X188464285Y-87437142D02*
X188416666Y-87484761D01*
X188416666Y-87484761D02*
X188321428Y-87532380D01*
X188321428Y-87532380D02*
X188226190Y-87532380D01*
X188226190Y-87532380D02*
X188130952Y-87484761D01*
X188130952Y-87484761D02*
X188083333Y-87437142D01*
X188083333Y-87437142D02*
X188035714Y-87341904D01*
X188035714Y-87341904D02*
X187988095Y-87151428D01*
X187988095Y-87151428D02*
X187988095Y-86913333D01*
X187988095Y-86913333D02*
X188035714Y-86722857D01*
X188035714Y-86722857D02*
X188083333Y-86627619D01*
X188083333Y-86627619D02*
X188130952Y-86580000D01*
X188130952Y-86580000D02*
X188226190Y-86532380D01*
X166845238Y-85532380D02*
X167178571Y-86532380D01*
X167178571Y-86532380D02*
X167511904Y-85532380D01*
X168416666Y-86437142D02*
X168369047Y-86484761D01*
X168369047Y-86484761D02*
X168226190Y-86532380D01*
X168226190Y-86532380D02*
X168130952Y-86532380D01*
X168130952Y-86532380D02*
X167988095Y-86484761D01*
X167988095Y-86484761D02*
X167892857Y-86389523D01*
X167892857Y-86389523D02*
X167845238Y-86294285D01*
X167845238Y-86294285D02*
X167797619Y-86103809D01*
X167797619Y-86103809D02*
X167797619Y-85960952D01*
X167797619Y-85960952D02*
X167845238Y-85770476D01*
X167845238Y-85770476D02*
X167892857Y-85675238D01*
X167892857Y-85675238D02*
X167988095Y-85580000D01*
X167988095Y-85580000D02*
X168130952Y-85532380D01*
X168130952Y-85532380D02*
X168226190Y-85532380D01*
X168226190Y-85532380D02*
X168369047Y-85580000D01*
X168369047Y-85580000D02*
X168416666Y-85627619D01*
X169416666Y-86437142D02*
X169369047Y-86484761D01*
X169369047Y-86484761D02*
X169226190Y-86532380D01*
X169226190Y-86532380D02*
X169130952Y-86532380D01*
X169130952Y-86532380D02*
X168988095Y-86484761D01*
X168988095Y-86484761D02*
X168892857Y-86389523D01*
X168892857Y-86389523D02*
X168845238Y-86294285D01*
X168845238Y-86294285D02*
X168797619Y-86103809D01*
X168797619Y-86103809D02*
X168797619Y-85960952D01*
X168797619Y-85960952D02*
X168845238Y-85770476D01*
X168845238Y-85770476D02*
X168892857Y-85675238D01*
X168892857Y-85675238D02*
X168988095Y-85580000D01*
X168988095Y-85580000D02*
X169130952Y-85532380D01*
X169130952Y-85532380D02*
X169226190Y-85532380D01*
X169226190Y-85532380D02*
X169369047Y-85580000D01*
X169369047Y-85580000D02*
X169416666Y-85627619D01*
D11*
X169869047Y-73141190D02*
X169869047Y-72641190D01*
X169869047Y-72641190D02*
X170059523Y-72641190D01*
X170059523Y-72641190D02*
X170107142Y-72665000D01*
X170107142Y-72665000D02*
X170130952Y-72688809D01*
X170130952Y-72688809D02*
X170154761Y-72736428D01*
X170154761Y-72736428D02*
X170154761Y-72807857D01*
X170154761Y-72807857D02*
X170130952Y-72855476D01*
X170130952Y-72855476D02*
X170107142Y-72879285D01*
X170107142Y-72879285D02*
X170059523Y-72903095D01*
X170059523Y-72903095D02*
X169869047Y-72903095D01*
X170464285Y-72641190D02*
X170559523Y-72641190D01*
X170559523Y-72641190D02*
X170607142Y-72665000D01*
X170607142Y-72665000D02*
X170654761Y-72712619D01*
X170654761Y-72712619D02*
X170678571Y-72807857D01*
X170678571Y-72807857D02*
X170678571Y-72974523D01*
X170678571Y-72974523D02*
X170654761Y-73069761D01*
X170654761Y-73069761D02*
X170607142Y-73117380D01*
X170607142Y-73117380D02*
X170559523Y-73141190D01*
X170559523Y-73141190D02*
X170464285Y-73141190D01*
X170464285Y-73141190D02*
X170416666Y-73117380D01*
X170416666Y-73117380D02*
X170369047Y-73069761D01*
X170369047Y-73069761D02*
X170345238Y-72974523D01*
X170345238Y-72974523D02*
X170345238Y-72807857D01*
X170345238Y-72807857D02*
X170369047Y-72712619D01*
X170369047Y-72712619D02*
X170416666Y-72665000D01*
X170416666Y-72665000D02*
X170464285Y-72641190D01*
X170821429Y-72641190D02*
X171107143Y-72641190D01*
X170964286Y-73141190D02*
X170964286Y-72641190D01*
D10*
X167559523Y-94032380D02*
X167226190Y-93556190D01*
X166988095Y-94032380D02*
X166988095Y-93032380D01*
X166988095Y-93032380D02*
X167369047Y-93032380D01*
X167369047Y-93032380D02*
X167464285Y-93080000D01*
X167464285Y-93080000D02*
X167511904Y-93127619D01*
X167511904Y-93127619D02*
X167559523Y-93222857D01*
X167559523Y-93222857D02*
X167559523Y-93365714D01*
X167559523Y-93365714D02*
X167511904Y-93460952D01*
X167511904Y-93460952D02*
X167464285Y-93508571D01*
X167464285Y-93508571D02*
X167369047Y-93556190D01*
X167369047Y-93556190D02*
X166988095Y-93556190D01*
X167940476Y-93746666D02*
X168416666Y-93746666D01*
X167845238Y-94032380D02*
X168178571Y-93032380D01*
X168178571Y-93032380D02*
X168511904Y-94032380D01*
X168750000Y-93032380D02*
X169369047Y-93032380D01*
X169369047Y-93032380D02*
X169035714Y-93413333D01*
X169035714Y-93413333D02*
X169178571Y-93413333D01*
X169178571Y-93413333D02*
X169273809Y-93460952D01*
X169273809Y-93460952D02*
X169321428Y-93508571D01*
X169321428Y-93508571D02*
X169369047Y-93603809D01*
X169369047Y-93603809D02*
X169369047Y-93841904D01*
X169369047Y-93841904D02*
X169321428Y-93937142D01*
X169321428Y-93937142D02*
X169273809Y-93984761D01*
X169273809Y-93984761D02*
X169178571Y-94032380D01*
X169178571Y-94032380D02*
X168892857Y-94032380D01*
X168892857Y-94032380D02*
X168797619Y-93984761D01*
X168797619Y-93984761D02*
X168750000Y-93937142D01*
D12*
X169250000Y-60000000D02*
X173750000Y-63250000D01*
X194000000Y-88500000D02*
X191250000Y-88500000D01*
G36*
X173000000Y-96500000D02*
G01*
X172500000Y-95250000D01*
X173500000Y-95250000D01*
X173000000Y-96500000D01*
G37*
X173000000Y-96500000D02*
X172500000Y-95250000D01*
X173500000Y-95250000D01*
X173000000Y-96500000D01*
G36*
X199500000Y-82500000D02*
G01*
X199500000Y-90000000D01*
X190250000Y-75750000D01*
X199500000Y-82500000D01*
G37*
X199500000Y-82500000D02*
X199500000Y-90000000D01*
X190250000Y-75750000D01*
X199500000Y-82500000D01*
D10*
X190249999Y-94032380D02*
X189916666Y-93556190D01*
X189678571Y-94032380D02*
X189678571Y-93032380D01*
X189678571Y-93032380D02*
X190059523Y-93032380D01*
X190059523Y-93032380D02*
X190154761Y-93080000D01*
X190154761Y-93080000D02*
X190202380Y-93127619D01*
X190202380Y-93127619D02*
X190249999Y-93222857D01*
X190249999Y-93222857D02*
X190249999Y-93365714D01*
X190249999Y-93365714D02*
X190202380Y-93460952D01*
X190202380Y-93460952D02*
X190154761Y-93508571D01*
X190154761Y-93508571D02*
X190059523Y-93556190D01*
X190059523Y-93556190D02*
X189678571Y-93556190D01*
X190630952Y-93746666D02*
X191107142Y-93746666D01*
X190535714Y-94032380D02*
X190869047Y-93032380D01*
X190869047Y-93032380D02*
X191202380Y-94032380D01*
X191488095Y-93127619D02*
X191535714Y-93080000D01*
X191535714Y-93080000D02*
X191630952Y-93032380D01*
X191630952Y-93032380D02*
X191869047Y-93032380D01*
X191869047Y-93032380D02*
X191964285Y-93080000D01*
X191964285Y-93080000D02*
X192011904Y-93127619D01*
X192011904Y-93127619D02*
X192059523Y-93222857D01*
X192059523Y-93222857D02*
X192059523Y-93318095D01*
X192059523Y-93318095D02*
X192011904Y-93460952D01*
X192011904Y-93460952D02*
X191440476Y-94032380D01*
X191440476Y-94032380D02*
X192059523Y-94032380D01*
D11*
X185404761Y-82891190D02*
X185238095Y-82653095D01*
X185119047Y-82891190D02*
X185119047Y-82391190D01*
X185119047Y-82391190D02*
X185309523Y-82391190D01*
X185309523Y-82391190D02*
X185357142Y-82415000D01*
X185357142Y-82415000D02*
X185380952Y-82438809D01*
X185380952Y-82438809D02*
X185404761Y-82486428D01*
X185404761Y-82486428D02*
X185404761Y-82557857D01*
X185404761Y-82557857D02*
X185380952Y-82605476D01*
X185380952Y-82605476D02*
X185357142Y-82629285D01*
X185357142Y-82629285D02*
X185309523Y-82653095D01*
X185309523Y-82653095D02*
X185119047Y-82653095D01*
X185619047Y-82629285D02*
X185785714Y-82629285D01*
X185857142Y-82891190D02*
X185619047Y-82891190D01*
X185619047Y-82891190D02*
X185619047Y-82391190D01*
X185619047Y-82391190D02*
X185857142Y-82391190D01*
X186047619Y-82867380D02*
X186119047Y-82891190D01*
X186119047Y-82891190D02*
X186238095Y-82891190D01*
X186238095Y-82891190D02*
X186285714Y-82867380D01*
X186285714Y-82867380D02*
X186309523Y-82843571D01*
X186309523Y-82843571D02*
X186333333Y-82795952D01*
X186333333Y-82795952D02*
X186333333Y-82748333D01*
X186333333Y-82748333D02*
X186309523Y-82700714D01*
X186309523Y-82700714D02*
X186285714Y-82676904D01*
X186285714Y-82676904D02*
X186238095Y-82653095D01*
X186238095Y-82653095D02*
X186142857Y-82629285D01*
X186142857Y-82629285D02*
X186095238Y-82605476D01*
X186095238Y-82605476D02*
X186071428Y-82581666D01*
X186071428Y-82581666D02*
X186047619Y-82534047D01*
X186047619Y-82534047D02*
X186047619Y-82486428D01*
X186047619Y-82486428D02*
X186071428Y-82438809D01*
X186071428Y-82438809D02*
X186095238Y-82415000D01*
X186095238Y-82415000D02*
X186142857Y-82391190D01*
X186142857Y-82391190D02*
X186261904Y-82391190D01*
X186261904Y-82391190D02*
X186333333Y-82415000D01*
X186547618Y-82629285D02*
X186714285Y-82629285D01*
X186785713Y-82891190D02*
X186547618Y-82891190D01*
X186547618Y-82891190D02*
X186547618Y-82391190D01*
X186547618Y-82391190D02*
X186785713Y-82391190D01*
X186928571Y-82391190D02*
X187214285Y-82391190D01*
X187071428Y-82891190D02*
X187071428Y-82391190D01*
X162464285Y-72641190D02*
X162559523Y-72641190D01*
X162559523Y-72641190D02*
X162607142Y-72665000D01*
X162607142Y-72665000D02*
X162654761Y-72712619D01*
X162654761Y-72712619D02*
X162678571Y-72807857D01*
X162678571Y-72807857D02*
X162678571Y-72974523D01*
X162678571Y-72974523D02*
X162654761Y-73069761D01*
X162654761Y-73069761D02*
X162607142Y-73117380D01*
X162607142Y-73117380D02*
X162559523Y-73141190D01*
X162559523Y-73141190D02*
X162464285Y-73141190D01*
X162464285Y-73141190D02*
X162416666Y-73117380D01*
X162416666Y-73117380D02*
X162369047Y-73069761D01*
X162369047Y-73069761D02*
X162345238Y-72974523D01*
X162345238Y-72974523D02*
X162345238Y-72807857D01*
X162345238Y-72807857D02*
X162369047Y-72712619D01*
X162369047Y-72712619D02*
X162416666Y-72665000D01*
X162416666Y-72665000D02*
X162464285Y-72641190D01*
X162892857Y-73141190D02*
X162892857Y-72641190D01*
X162892857Y-72641190D02*
X163178571Y-73141190D01*
X163178571Y-73141190D02*
X163178571Y-72641190D01*
X185404761Y-74641190D02*
X185238095Y-74403095D01*
X185119047Y-74641190D02*
X185119047Y-74141190D01*
X185119047Y-74141190D02*
X185309523Y-74141190D01*
X185309523Y-74141190D02*
X185357142Y-74165000D01*
X185357142Y-74165000D02*
X185380952Y-74188809D01*
X185380952Y-74188809D02*
X185404761Y-74236428D01*
X185404761Y-74236428D02*
X185404761Y-74307857D01*
X185404761Y-74307857D02*
X185380952Y-74355476D01*
X185380952Y-74355476D02*
X185357142Y-74379285D01*
X185357142Y-74379285D02*
X185309523Y-74403095D01*
X185309523Y-74403095D02*
X185119047Y-74403095D01*
X185619047Y-74379285D02*
X185785714Y-74379285D01*
X185857142Y-74641190D02*
X185619047Y-74641190D01*
X185619047Y-74641190D02*
X185619047Y-74141190D01*
X185619047Y-74141190D02*
X185857142Y-74141190D01*
X186047619Y-74617380D02*
X186119047Y-74641190D01*
X186119047Y-74641190D02*
X186238095Y-74641190D01*
X186238095Y-74641190D02*
X186285714Y-74617380D01*
X186285714Y-74617380D02*
X186309523Y-74593571D01*
X186309523Y-74593571D02*
X186333333Y-74545952D01*
X186333333Y-74545952D02*
X186333333Y-74498333D01*
X186333333Y-74498333D02*
X186309523Y-74450714D01*
X186309523Y-74450714D02*
X186285714Y-74426904D01*
X186285714Y-74426904D02*
X186238095Y-74403095D01*
X186238095Y-74403095D02*
X186142857Y-74379285D01*
X186142857Y-74379285D02*
X186095238Y-74355476D01*
X186095238Y-74355476D02*
X186071428Y-74331666D01*
X186071428Y-74331666D02*
X186047619Y-74284047D01*
X186047619Y-74284047D02*
X186047619Y-74236428D01*
X186047619Y-74236428D02*
X186071428Y-74188809D01*
X186071428Y-74188809D02*
X186095238Y-74165000D01*
X186095238Y-74165000D02*
X186142857Y-74141190D01*
X186142857Y-74141190D02*
X186261904Y-74141190D01*
X186261904Y-74141190D02*
X186333333Y-74165000D01*
X186547618Y-74379285D02*
X186714285Y-74379285D01*
X186785713Y-74641190D02*
X186547618Y-74641190D01*
X186547618Y-74641190D02*
X186547618Y-74141190D01*
X186547618Y-74141190D02*
X186785713Y-74141190D01*
X186928571Y-74141190D02*
X187214285Y-74141190D01*
X187071428Y-74641190D02*
X187071428Y-74141190D01*
D10*
X186749999Y-93032380D02*
X186416666Y-92556190D01*
X186178571Y-93032380D02*
X186178571Y-92032380D01*
X186178571Y-92032380D02*
X186559523Y-92032380D01*
X186559523Y-92032380D02*
X186654761Y-92080000D01*
X186654761Y-92080000D02*
X186702380Y-92127619D01*
X186702380Y-92127619D02*
X186749999Y-92222857D01*
X186749999Y-92222857D02*
X186749999Y-92365714D01*
X186749999Y-92365714D02*
X186702380Y-92460952D01*
X186702380Y-92460952D02*
X186654761Y-92508571D01*
X186654761Y-92508571D02*
X186559523Y-92556190D01*
X186559523Y-92556190D02*
X186178571Y-92556190D01*
X187130952Y-92746666D02*
X187607142Y-92746666D01*
X187035714Y-93032380D02*
X187369047Y-92032380D01*
X187369047Y-92032380D02*
X187702380Y-93032380D01*
X188559523Y-93032380D02*
X187988095Y-93032380D01*
X188273809Y-93032380D02*
X188273809Y-92032380D01*
X188273809Y-92032380D02*
X188178571Y-92175238D01*
X188178571Y-92175238D02*
X188083333Y-92270476D01*
X188083333Y-92270476D02*
X187988095Y-92318095D01*
X177107142Y-96282380D02*
X177107142Y-95282380D01*
X178678571Y-96187142D02*
X178607143Y-96234761D01*
X178607143Y-96234761D02*
X178392857Y-96282380D01*
X178392857Y-96282380D02*
X178250000Y-96282380D01*
X178250000Y-96282380D02*
X178035714Y-96234761D01*
X178035714Y-96234761D02*
X177892857Y-96139523D01*
X177892857Y-96139523D02*
X177821428Y-96044285D01*
X177821428Y-96044285D02*
X177750000Y-95853809D01*
X177750000Y-95853809D02*
X177750000Y-95710952D01*
X177750000Y-95710952D02*
X177821428Y-95520476D01*
X177821428Y-95520476D02*
X177892857Y-95425238D01*
X177892857Y-95425238D02*
X178035714Y-95330000D01*
X178035714Y-95330000D02*
X178250000Y-95282380D01*
X178250000Y-95282380D02*
X178392857Y-95282380D01*
X178392857Y-95282380D02*
X178607143Y-95330000D01*
X178607143Y-95330000D02*
X178678571Y-95377619D01*
X179250000Y-96234761D02*
X179464286Y-96282380D01*
X179464286Y-96282380D02*
X179821428Y-96282380D01*
X179821428Y-96282380D02*
X179964286Y-96234761D01*
X179964286Y-96234761D02*
X180035714Y-96187142D01*
X180035714Y-96187142D02*
X180107143Y-96091904D01*
X180107143Y-96091904D02*
X180107143Y-95996666D01*
X180107143Y-95996666D02*
X180035714Y-95901428D01*
X180035714Y-95901428D02*
X179964286Y-95853809D01*
X179964286Y-95853809D02*
X179821428Y-95806190D01*
X179821428Y-95806190D02*
X179535714Y-95758571D01*
X179535714Y-95758571D02*
X179392857Y-95710952D01*
X179392857Y-95710952D02*
X179321428Y-95663333D01*
X179321428Y-95663333D02*
X179250000Y-95568095D01*
X179250000Y-95568095D02*
X179250000Y-95472857D01*
X179250000Y-95472857D02*
X179321428Y-95377619D01*
X179321428Y-95377619D02*
X179392857Y-95330000D01*
X179392857Y-95330000D02*
X179535714Y-95282380D01*
X179535714Y-95282380D02*
X179892857Y-95282380D01*
X179892857Y-95282380D02*
X180107143Y-95330000D01*
X180749999Y-96282380D02*
X180749999Y-95282380D01*
X180749999Y-95282380D02*
X181321428Y-95282380D01*
X181321428Y-95282380D02*
X181464285Y-95330000D01*
X181464285Y-95330000D02*
X181535714Y-95377619D01*
X181535714Y-95377619D02*
X181607142Y-95472857D01*
X181607142Y-95472857D02*
X181607142Y-95615714D01*
X181607142Y-95615714D02*
X181535714Y-95710952D01*
X181535714Y-95710952D02*
X181464285Y-95758571D01*
X181464285Y-95758571D02*
X181321428Y-95806190D01*
X181321428Y-95806190D02*
X180749999Y-95806190D01*
X174488095Y-74401428D02*
X175250000Y-74401428D01*
D11*
X164654761Y-73141190D02*
X164488095Y-72903095D01*
X164369047Y-73141190D02*
X164369047Y-72641190D01*
X164369047Y-72641190D02*
X164559523Y-72641190D01*
X164559523Y-72641190D02*
X164607142Y-72665000D01*
X164607142Y-72665000D02*
X164630952Y-72688809D01*
X164630952Y-72688809D02*
X164654761Y-72736428D01*
X164654761Y-72736428D02*
X164654761Y-72807857D01*
X164654761Y-72807857D02*
X164630952Y-72855476D01*
X164630952Y-72855476D02*
X164607142Y-72879285D01*
X164607142Y-72879285D02*
X164559523Y-72903095D01*
X164559523Y-72903095D02*
X164369047Y-72903095D01*
X164869047Y-72879285D02*
X165035714Y-72879285D01*
X165107142Y-73141190D02*
X164869047Y-73141190D01*
X164869047Y-73141190D02*
X164869047Y-72641190D01*
X164869047Y-72641190D02*
X165107142Y-72641190D01*
X165297619Y-73117380D02*
X165369047Y-73141190D01*
X165369047Y-73141190D02*
X165488095Y-73141190D01*
X165488095Y-73141190D02*
X165535714Y-73117380D01*
X165535714Y-73117380D02*
X165559523Y-73093571D01*
X165559523Y-73093571D02*
X165583333Y-73045952D01*
X165583333Y-73045952D02*
X165583333Y-72998333D01*
X165583333Y-72998333D02*
X165559523Y-72950714D01*
X165559523Y-72950714D02*
X165535714Y-72926904D01*
X165535714Y-72926904D02*
X165488095Y-72903095D01*
X165488095Y-72903095D02*
X165392857Y-72879285D01*
X165392857Y-72879285D02*
X165345238Y-72855476D01*
X165345238Y-72855476D02*
X165321428Y-72831666D01*
X165321428Y-72831666D02*
X165297619Y-72784047D01*
X165297619Y-72784047D02*
X165297619Y-72736428D01*
X165297619Y-72736428D02*
X165321428Y-72688809D01*
X165321428Y-72688809D02*
X165345238Y-72665000D01*
X165345238Y-72665000D02*
X165392857Y-72641190D01*
X165392857Y-72641190D02*
X165511904Y-72641190D01*
X165511904Y-72641190D02*
X165583333Y-72665000D01*
X165797618Y-72879285D02*
X165964285Y-72879285D01*
X166035713Y-73141190D02*
X165797618Y-73141190D01*
X165797618Y-73141190D02*
X165797618Y-72641190D01*
X165797618Y-72641190D02*
X166035713Y-72641190D01*
X166178571Y-72641190D02*
X166464285Y-72641190D01*
X166321428Y-73141190D02*
X166321428Y-72641190D01*
D10*
X171059523Y-93032380D02*
X170726190Y-92556190D01*
X170488095Y-93032380D02*
X170488095Y-92032380D01*
X170488095Y-92032380D02*
X170869047Y-92032380D01*
X170869047Y-92032380D02*
X170964285Y-92080000D01*
X170964285Y-92080000D02*
X171011904Y-92127619D01*
X171011904Y-92127619D02*
X171059523Y-92222857D01*
X171059523Y-92222857D02*
X171059523Y-92365714D01*
X171059523Y-92365714D02*
X171011904Y-92460952D01*
X171011904Y-92460952D02*
X170964285Y-92508571D01*
X170964285Y-92508571D02*
X170869047Y-92556190D01*
X170869047Y-92556190D02*
X170488095Y-92556190D01*
X171440476Y-92746666D02*
X171916666Y-92746666D01*
X171345238Y-93032380D02*
X171678571Y-92032380D01*
X171678571Y-92032380D02*
X172011904Y-93032380D01*
X172773809Y-92365714D02*
X172773809Y-93032380D01*
X172535714Y-91984761D02*
X172297619Y-92699047D01*
X172297619Y-92699047D02*
X172916666Y-92699047D01*
D11*
X167607142Y-73141190D02*
X167369047Y-73141190D01*
X167369047Y-73141190D02*
X167369047Y-72641190D01*
X167773809Y-72879285D02*
X167940476Y-72879285D01*
X168011904Y-73141190D02*
X167773809Y-73141190D01*
X167773809Y-73141190D02*
X167773809Y-72641190D01*
X167773809Y-72641190D02*
X168011904Y-72641190D01*
X168226190Y-73141190D02*
X168226190Y-72641190D01*
X168226190Y-72641190D02*
X168345238Y-72641190D01*
X168345238Y-72641190D02*
X168416666Y-72665000D01*
X168416666Y-72665000D02*
X168464285Y-72712619D01*
X168464285Y-72712619D02*
X168488095Y-72760238D01*
X168488095Y-72760238D02*
X168511904Y-72855476D01*
X168511904Y-72855476D02*
X168511904Y-72926904D01*
X168511904Y-72926904D02*
X168488095Y-73022142D01*
X168488095Y-73022142D02*
X168464285Y-73069761D01*
X168464285Y-73069761D02*
X168416666Y-73117380D01*
X168416666Y-73117380D02*
X168345238Y-73141190D01*
X168345238Y-73141190D02*
X168226190Y-73141190D01*
D10*
X189964285Y-85580000D02*
X189869047Y-85532380D01*
X189869047Y-85532380D02*
X189726190Y-85532380D01*
X189726190Y-85532380D02*
X189583333Y-85580000D01*
X189583333Y-85580000D02*
X189488095Y-85675238D01*
X189488095Y-85675238D02*
X189440476Y-85770476D01*
X189440476Y-85770476D02*
X189392857Y-85960952D01*
X189392857Y-85960952D02*
X189392857Y-86103809D01*
X189392857Y-86103809D02*
X189440476Y-86294285D01*
X189440476Y-86294285D02*
X189488095Y-86389523D01*
X189488095Y-86389523D02*
X189583333Y-86484761D01*
X189583333Y-86484761D02*
X189726190Y-86532380D01*
X189726190Y-86532380D02*
X189821428Y-86532380D01*
X189821428Y-86532380D02*
X189964285Y-86484761D01*
X189964285Y-86484761D02*
X190011904Y-86437142D01*
X190011904Y-86437142D02*
X190011904Y-86103809D01*
X190011904Y-86103809D02*
X189821428Y-86103809D01*
X190440476Y-86532380D02*
X190440476Y-85532380D01*
X190440476Y-85532380D02*
X191011904Y-86532380D01*
X191011904Y-86532380D02*
X191011904Y-85532380D01*
X191488095Y-86532380D02*
X191488095Y-85532380D01*
X191488095Y-85532380D02*
X191726190Y-85532380D01*
X191726190Y-85532380D02*
X191869047Y-85580000D01*
X191869047Y-85580000D02*
X191964285Y-85675238D01*
X191964285Y-85675238D02*
X192011904Y-85770476D01*
X192011904Y-85770476D02*
X192059523Y-85960952D01*
X192059523Y-85960952D02*
X192059523Y-86103809D01*
X192059523Y-86103809D02*
X192011904Y-86294285D01*
X192011904Y-86294285D02*
X191964285Y-86389523D01*
X191964285Y-86389523D02*
X191869047Y-86484761D01*
X191869047Y-86484761D02*
X191726190Y-86532380D01*
X191726190Y-86532380D02*
X191488095Y-86532380D01*
D11*
X160174095Y-85940476D02*
X160974095Y-85940476D01*
X160974095Y-85940476D02*
X160974095Y-86245238D01*
X160974095Y-86245238D02*
X160936000Y-86321428D01*
X160936000Y-86321428D02*
X160897904Y-86359523D01*
X160897904Y-86359523D02*
X160821714Y-86397619D01*
X160821714Y-86397619D02*
X160707428Y-86397619D01*
X160707428Y-86397619D02*
X160631238Y-86359523D01*
X160631238Y-86359523D02*
X160593142Y-86321428D01*
X160593142Y-86321428D02*
X160555047Y-86245238D01*
X160555047Y-86245238D02*
X160555047Y-85940476D01*
X160174095Y-86740476D02*
X160974095Y-86740476D01*
X160250285Y-87578571D02*
X160212190Y-87540475D01*
X160212190Y-87540475D02*
X160174095Y-87426190D01*
X160174095Y-87426190D02*
X160174095Y-87349999D01*
X160174095Y-87349999D02*
X160212190Y-87235713D01*
X160212190Y-87235713D02*
X160288380Y-87159523D01*
X160288380Y-87159523D02*
X160364571Y-87121428D01*
X160364571Y-87121428D02*
X160516952Y-87083332D01*
X160516952Y-87083332D02*
X160631238Y-87083332D01*
X160631238Y-87083332D02*
X160783619Y-87121428D01*
X160783619Y-87121428D02*
X160859809Y-87159523D01*
X160859809Y-87159523D02*
X160936000Y-87235713D01*
X160936000Y-87235713D02*
X160974095Y-87349999D01*
X160974095Y-87349999D02*
X160974095Y-87426190D01*
X160974095Y-87426190D02*
X160936000Y-87540475D01*
X160936000Y-87540475D02*
X160897904Y-87578571D01*
X160174095Y-88340475D02*
X160174095Y-87883332D01*
X160174095Y-88111904D02*
X160974095Y-88111904D01*
X160974095Y-88111904D02*
X160859809Y-88035713D01*
X160859809Y-88035713D02*
X160783619Y-87959523D01*
X160783619Y-87959523D02*
X160745523Y-87883332D01*
X160974095Y-89026190D02*
X160974095Y-88873809D01*
X160974095Y-88873809D02*
X160936000Y-88797618D01*
X160936000Y-88797618D02*
X160897904Y-88759523D01*
X160897904Y-88759523D02*
X160783619Y-88683333D01*
X160783619Y-88683333D02*
X160631238Y-88645237D01*
X160631238Y-88645237D02*
X160326476Y-88645237D01*
X160326476Y-88645237D02*
X160250285Y-88683333D01*
X160250285Y-88683333D02*
X160212190Y-88721428D01*
X160212190Y-88721428D02*
X160174095Y-88797618D01*
X160174095Y-88797618D02*
X160174095Y-88949999D01*
X160174095Y-88949999D02*
X160212190Y-89026190D01*
X160212190Y-89026190D02*
X160250285Y-89064285D01*
X160250285Y-89064285D02*
X160326476Y-89102380D01*
X160326476Y-89102380D02*
X160516952Y-89102380D01*
X160516952Y-89102380D02*
X160593142Y-89064285D01*
X160593142Y-89064285D02*
X160631238Y-89026190D01*
X160631238Y-89026190D02*
X160669333Y-88949999D01*
X160669333Y-88949999D02*
X160669333Y-88797618D01*
X160669333Y-88797618D02*
X160631238Y-88721428D01*
X160631238Y-88721428D02*
X160593142Y-88683333D01*
X160593142Y-88683333D02*
X160516952Y-88645237D01*
X160593142Y-89711904D02*
X160593142Y-89445238D01*
X160174095Y-89445238D02*
X160974095Y-89445238D01*
X160974095Y-89445238D02*
X160974095Y-89826190D01*
X160174095Y-90549999D02*
X160174095Y-90092856D01*
X160174095Y-90321428D02*
X160974095Y-90321428D01*
X160974095Y-90321428D02*
X160859809Y-90245237D01*
X160859809Y-90245237D02*
X160783619Y-90169047D01*
X160783619Y-90169047D02*
X160745523Y-90092856D01*
X160974095Y-91273809D02*
X160974095Y-90892857D01*
X160974095Y-90892857D02*
X160593142Y-90854761D01*
X160593142Y-90854761D02*
X160631238Y-90892857D01*
X160631238Y-90892857D02*
X160669333Y-90969047D01*
X160669333Y-90969047D02*
X160669333Y-91159523D01*
X160669333Y-91159523D02*
X160631238Y-91235714D01*
X160631238Y-91235714D02*
X160593142Y-91273809D01*
X160593142Y-91273809D02*
X160516952Y-91311904D01*
X160516952Y-91311904D02*
X160326476Y-91311904D01*
X160326476Y-91311904D02*
X160250285Y-91273809D01*
X160250285Y-91273809D02*
X160212190Y-91235714D01*
X160212190Y-91235714D02*
X160174095Y-91159523D01*
X160174095Y-91159523D02*
X160174095Y-90969047D01*
X160174095Y-90969047D02*
X160212190Y-90892857D01*
X160212190Y-90892857D02*
X160250285Y-90854761D01*
X160974095Y-91578571D02*
X160974095Y-92073809D01*
X160974095Y-92073809D02*
X160669333Y-91807143D01*
X160669333Y-91807143D02*
X160669333Y-91921428D01*
X160669333Y-91921428D02*
X160631238Y-91997619D01*
X160631238Y-91997619D02*
X160593142Y-92035714D01*
X160593142Y-92035714D02*
X160516952Y-92073809D01*
X160516952Y-92073809D02*
X160326476Y-92073809D01*
X160326476Y-92073809D02*
X160250285Y-92035714D01*
X160250285Y-92035714D02*
X160212190Y-91997619D01*
X160212190Y-91997619D02*
X160174095Y-91921428D01*
X160174095Y-91921428D02*
X160174095Y-91692857D01*
X160174095Y-91692857D02*
X160212190Y-91616666D01*
X160212190Y-91616666D02*
X160250285Y-91578571D01*
X160174095Y-92835714D02*
X160174095Y-92378571D01*
X160174095Y-92607143D02*
X160974095Y-92607143D01*
X160974095Y-92607143D02*
X160859809Y-92530952D01*
X160859809Y-92530952D02*
X160783619Y-92454762D01*
X160783619Y-92454762D02*
X160745523Y-92378571D01*
X160974095Y-93102381D02*
X160974095Y-93597619D01*
X160974095Y-93597619D02*
X160669333Y-93330953D01*
X160669333Y-93330953D02*
X160669333Y-93445238D01*
X160669333Y-93445238D02*
X160631238Y-93521429D01*
X160631238Y-93521429D02*
X160593142Y-93559524D01*
X160593142Y-93559524D02*
X160516952Y-93597619D01*
X160516952Y-93597619D02*
X160326476Y-93597619D01*
X160326476Y-93597619D02*
X160250285Y-93559524D01*
X160250285Y-93559524D02*
X160212190Y-93521429D01*
X160212190Y-93521429D02*
X160174095Y-93445238D01*
X160174095Y-93445238D02*
X160174095Y-93216667D01*
X160174095Y-93216667D02*
X160212190Y-93140476D01*
X160212190Y-93140476D02*
X160250285Y-93102381D01*
D12*
X173750000Y-63250000D02*
X159500000Y-72750000D01*
G36*
X199500000Y-81500000D02*
G01*
X170000000Y-60000000D01*
X199250000Y-60000000D01*
X199500000Y-81500000D01*
G37*
X199500000Y-81500000D02*
X170000000Y-60000000D01*
X199250000Y-60000000D01*
X199500000Y-81500000D01*
X191250000Y-88500000D02*
X189000000Y-87000000D01*
G36*
X173000000Y-63250000D02*
G01*
X159500000Y-72250000D01*
X159500000Y-60000000D01*
X168000000Y-60000000D01*
X173000000Y-63250000D01*
G37*
X173000000Y-63250000D02*
X159500000Y-72250000D01*
X159500000Y-60000000D01*
X168000000Y-60000000D01*
X173000000Y-63250000D01*
X167750000Y-91000000D02*
X170000000Y-92500000D01*
X167750000Y-88500000D02*
X170000000Y-87000000D01*
X191250000Y-91000000D02*
X189000000Y-92500000D01*
X165000000Y-91000000D02*
X167750000Y-91000000D01*
X194000000Y-91000000D02*
X191250000Y-91000000D01*
X165000000Y-88500000D02*
X167750000Y-88500000D01*
G36*
X157500000Y-82500000D02*
G01*
X157500000Y-90000000D01*
X148250000Y-75750000D01*
X157500000Y-82500000D01*
G37*
X157500000Y-82500000D02*
X157500000Y-90000000D01*
X148250000Y-75750000D01*
X157500000Y-82500000D01*
G36*
X131000000Y-96500000D02*
G01*
X130500000Y-95250000D01*
X131500000Y-95250000D01*
X131000000Y-96500000D01*
G37*
X131000000Y-96500000D02*
X130500000Y-95250000D01*
X131500000Y-95250000D01*
X131000000Y-96500000D01*
X152000000Y-88500000D02*
X149250000Y-88500000D01*
X127250000Y-60000000D02*
X131750000Y-63250000D01*
X125750000Y-88500000D02*
X128000000Y-87000000D01*
X123000000Y-88500000D02*
X125750000Y-88500000D01*
X125750000Y-91000000D02*
X128000000Y-92500000D01*
X152000000Y-91000000D02*
X149250000Y-91000000D01*
X123000000Y-91000000D02*
X125750000Y-91000000D01*
G36*
X157500000Y-81500000D02*
G01*
X128000000Y-60000000D01*
X157250000Y-60000000D01*
X157500000Y-81500000D01*
G37*
X157500000Y-81500000D02*
X128000000Y-60000000D01*
X157250000Y-60000000D01*
X157500000Y-81500000D01*
X131750000Y-63250000D02*
X117500000Y-72750000D01*
G36*
X131000000Y-63250000D02*
G01*
X117500000Y-72250000D01*
X117500000Y-60000000D01*
X126000000Y-60000000D01*
X131000000Y-63250000D01*
G37*
X131000000Y-63250000D02*
X117500000Y-72250000D01*
X117500000Y-60000000D01*
X126000000Y-60000000D01*
X131000000Y-63250000D01*
X149250000Y-91000000D02*
X147000000Y-92500000D01*
X149250000Y-88500000D02*
X147000000Y-87000000D01*
D11*
X125607142Y-73141190D02*
X125369047Y-73141190D01*
X125369047Y-73141190D02*
X125369047Y-72641190D01*
X125773809Y-72879285D02*
X125940476Y-72879285D01*
X126011904Y-73141190D02*
X125773809Y-73141190D01*
X125773809Y-73141190D02*
X125773809Y-72641190D01*
X125773809Y-72641190D02*
X126011904Y-72641190D01*
X126226190Y-73141190D02*
X126226190Y-72641190D01*
X126226190Y-72641190D02*
X126345238Y-72641190D01*
X126345238Y-72641190D02*
X126416666Y-72665000D01*
X126416666Y-72665000D02*
X126464285Y-72712619D01*
X126464285Y-72712619D02*
X126488095Y-72760238D01*
X126488095Y-72760238D02*
X126511904Y-72855476D01*
X126511904Y-72855476D02*
X126511904Y-72926904D01*
X126511904Y-72926904D02*
X126488095Y-73022142D01*
X126488095Y-73022142D02*
X126464285Y-73069761D01*
X126464285Y-73069761D02*
X126416666Y-73117380D01*
X126416666Y-73117380D02*
X126345238Y-73141190D01*
X126345238Y-73141190D02*
X126226190Y-73141190D01*
D10*
X129059523Y-93032380D02*
X128726190Y-92556190D01*
X128488095Y-93032380D02*
X128488095Y-92032380D01*
X128488095Y-92032380D02*
X128869047Y-92032380D01*
X128869047Y-92032380D02*
X128964285Y-92080000D01*
X128964285Y-92080000D02*
X129011904Y-92127619D01*
X129011904Y-92127619D02*
X129059523Y-92222857D01*
X129059523Y-92222857D02*
X129059523Y-92365714D01*
X129059523Y-92365714D02*
X129011904Y-92460952D01*
X129011904Y-92460952D02*
X128964285Y-92508571D01*
X128964285Y-92508571D02*
X128869047Y-92556190D01*
X128869047Y-92556190D02*
X128488095Y-92556190D01*
X129440476Y-92746666D02*
X129916666Y-92746666D01*
X129345238Y-93032380D02*
X129678571Y-92032380D01*
X129678571Y-92032380D02*
X130011904Y-93032380D01*
X130773809Y-92365714D02*
X130773809Y-93032380D01*
X130535714Y-91984761D02*
X130297619Y-92699047D01*
X130297619Y-92699047D02*
X130916666Y-92699047D01*
D11*
X122654761Y-73141190D02*
X122488095Y-72903095D01*
X122369047Y-73141190D02*
X122369047Y-72641190D01*
X122369047Y-72641190D02*
X122559523Y-72641190D01*
X122559523Y-72641190D02*
X122607142Y-72665000D01*
X122607142Y-72665000D02*
X122630952Y-72688809D01*
X122630952Y-72688809D02*
X122654761Y-72736428D01*
X122654761Y-72736428D02*
X122654761Y-72807857D01*
X122654761Y-72807857D02*
X122630952Y-72855476D01*
X122630952Y-72855476D02*
X122607142Y-72879285D01*
X122607142Y-72879285D02*
X122559523Y-72903095D01*
X122559523Y-72903095D02*
X122369047Y-72903095D01*
X122869047Y-72879285D02*
X123035714Y-72879285D01*
X123107142Y-73141190D02*
X122869047Y-73141190D01*
X122869047Y-73141190D02*
X122869047Y-72641190D01*
X122869047Y-72641190D02*
X123107142Y-72641190D01*
X123297619Y-73117380D02*
X123369047Y-73141190D01*
X123369047Y-73141190D02*
X123488095Y-73141190D01*
X123488095Y-73141190D02*
X123535714Y-73117380D01*
X123535714Y-73117380D02*
X123559523Y-73093571D01*
X123559523Y-73093571D02*
X123583333Y-73045952D01*
X123583333Y-73045952D02*
X123583333Y-72998333D01*
X123583333Y-72998333D02*
X123559523Y-72950714D01*
X123559523Y-72950714D02*
X123535714Y-72926904D01*
X123535714Y-72926904D02*
X123488095Y-72903095D01*
X123488095Y-72903095D02*
X123392857Y-72879285D01*
X123392857Y-72879285D02*
X123345238Y-72855476D01*
X123345238Y-72855476D02*
X123321428Y-72831666D01*
X123321428Y-72831666D02*
X123297619Y-72784047D01*
X123297619Y-72784047D02*
X123297619Y-72736428D01*
X123297619Y-72736428D02*
X123321428Y-72688809D01*
X123321428Y-72688809D02*
X123345238Y-72665000D01*
X123345238Y-72665000D02*
X123392857Y-72641190D01*
X123392857Y-72641190D02*
X123511904Y-72641190D01*
X123511904Y-72641190D02*
X123583333Y-72665000D01*
X123797618Y-72879285D02*
X123964285Y-72879285D01*
X124035713Y-73141190D02*
X123797618Y-73141190D01*
X123797618Y-73141190D02*
X123797618Y-72641190D01*
X123797618Y-72641190D02*
X124035713Y-72641190D01*
X124178571Y-72641190D02*
X124464285Y-72641190D01*
X124321428Y-73141190D02*
X124321428Y-72641190D01*
D10*
X132488095Y-74401428D02*
X133250000Y-74401428D01*
X135107142Y-96282380D02*
X135107142Y-95282380D01*
X136678571Y-96187142D02*
X136607143Y-96234761D01*
X136607143Y-96234761D02*
X136392857Y-96282380D01*
X136392857Y-96282380D02*
X136250000Y-96282380D01*
X136250000Y-96282380D02*
X136035714Y-96234761D01*
X136035714Y-96234761D02*
X135892857Y-96139523D01*
X135892857Y-96139523D02*
X135821428Y-96044285D01*
X135821428Y-96044285D02*
X135750000Y-95853809D01*
X135750000Y-95853809D02*
X135750000Y-95710952D01*
X135750000Y-95710952D02*
X135821428Y-95520476D01*
X135821428Y-95520476D02*
X135892857Y-95425238D01*
X135892857Y-95425238D02*
X136035714Y-95330000D01*
X136035714Y-95330000D02*
X136250000Y-95282380D01*
X136250000Y-95282380D02*
X136392857Y-95282380D01*
X136392857Y-95282380D02*
X136607143Y-95330000D01*
X136607143Y-95330000D02*
X136678571Y-95377619D01*
X137250000Y-96234761D02*
X137464286Y-96282380D01*
X137464286Y-96282380D02*
X137821428Y-96282380D01*
X137821428Y-96282380D02*
X137964286Y-96234761D01*
X137964286Y-96234761D02*
X138035714Y-96187142D01*
X138035714Y-96187142D02*
X138107143Y-96091904D01*
X138107143Y-96091904D02*
X138107143Y-95996666D01*
X138107143Y-95996666D02*
X138035714Y-95901428D01*
X138035714Y-95901428D02*
X137964286Y-95853809D01*
X137964286Y-95853809D02*
X137821428Y-95806190D01*
X137821428Y-95806190D02*
X137535714Y-95758571D01*
X137535714Y-95758571D02*
X137392857Y-95710952D01*
X137392857Y-95710952D02*
X137321428Y-95663333D01*
X137321428Y-95663333D02*
X137250000Y-95568095D01*
X137250000Y-95568095D02*
X137250000Y-95472857D01*
X137250000Y-95472857D02*
X137321428Y-95377619D01*
X137321428Y-95377619D02*
X137392857Y-95330000D01*
X137392857Y-95330000D02*
X137535714Y-95282380D01*
X137535714Y-95282380D02*
X137892857Y-95282380D01*
X137892857Y-95282380D02*
X138107143Y-95330000D01*
X138749999Y-96282380D02*
X138749999Y-95282380D01*
X138749999Y-95282380D02*
X139321428Y-95282380D01*
X139321428Y-95282380D02*
X139464285Y-95330000D01*
X139464285Y-95330000D02*
X139535714Y-95377619D01*
X139535714Y-95377619D02*
X139607142Y-95472857D01*
X139607142Y-95472857D02*
X139607142Y-95615714D01*
X139607142Y-95615714D02*
X139535714Y-95710952D01*
X139535714Y-95710952D02*
X139464285Y-95758571D01*
X139464285Y-95758571D02*
X139321428Y-95806190D01*
X139321428Y-95806190D02*
X138749999Y-95806190D01*
X144749999Y-93032380D02*
X144416666Y-92556190D01*
X144178571Y-93032380D02*
X144178571Y-92032380D01*
X144178571Y-92032380D02*
X144559523Y-92032380D01*
X144559523Y-92032380D02*
X144654761Y-92080000D01*
X144654761Y-92080000D02*
X144702380Y-92127619D01*
X144702380Y-92127619D02*
X144749999Y-92222857D01*
X144749999Y-92222857D02*
X144749999Y-92365714D01*
X144749999Y-92365714D02*
X144702380Y-92460952D01*
X144702380Y-92460952D02*
X144654761Y-92508571D01*
X144654761Y-92508571D02*
X144559523Y-92556190D01*
X144559523Y-92556190D02*
X144178571Y-92556190D01*
X145130952Y-92746666D02*
X145607142Y-92746666D01*
X145035714Y-93032380D02*
X145369047Y-92032380D01*
X145369047Y-92032380D02*
X145702380Y-93032380D01*
X146559523Y-93032380D02*
X145988095Y-93032380D01*
X146273809Y-93032380D02*
X146273809Y-92032380D01*
X146273809Y-92032380D02*
X146178571Y-92175238D01*
X146178571Y-92175238D02*
X146083333Y-92270476D01*
X146083333Y-92270476D02*
X145988095Y-92318095D01*
D11*
X143404761Y-74641190D02*
X143238095Y-74403095D01*
X143119047Y-74641190D02*
X143119047Y-74141190D01*
X143119047Y-74141190D02*
X143309523Y-74141190D01*
X143309523Y-74141190D02*
X143357142Y-74165000D01*
X143357142Y-74165000D02*
X143380952Y-74188809D01*
X143380952Y-74188809D02*
X143404761Y-74236428D01*
X143404761Y-74236428D02*
X143404761Y-74307857D01*
X143404761Y-74307857D02*
X143380952Y-74355476D01*
X143380952Y-74355476D02*
X143357142Y-74379285D01*
X143357142Y-74379285D02*
X143309523Y-74403095D01*
X143309523Y-74403095D02*
X143119047Y-74403095D01*
X143619047Y-74379285D02*
X143785714Y-74379285D01*
X143857142Y-74641190D02*
X143619047Y-74641190D01*
X143619047Y-74641190D02*
X143619047Y-74141190D01*
X143619047Y-74141190D02*
X143857142Y-74141190D01*
X144047619Y-74617380D02*
X144119047Y-74641190D01*
X144119047Y-74641190D02*
X144238095Y-74641190D01*
X144238095Y-74641190D02*
X144285714Y-74617380D01*
X144285714Y-74617380D02*
X144309523Y-74593571D01*
X144309523Y-74593571D02*
X144333333Y-74545952D01*
X144333333Y-74545952D02*
X144333333Y-74498333D01*
X144333333Y-74498333D02*
X144309523Y-74450714D01*
X144309523Y-74450714D02*
X144285714Y-74426904D01*
X144285714Y-74426904D02*
X144238095Y-74403095D01*
X144238095Y-74403095D02*
X144142857Y-74379285D01*
X144142857Y-74379285D02*
X144095238Y-74355476D01*
X144095238Y-74355476D02*
X144071428Y-74331666D01*
X144071428Y-74331666D02*
X144047619Y-74284047D01*
X144047619Y-74284047D02*
X144047619Y-74236428D01*
X144047619Y-74236428D02*
X144071428Y-74188809D01*
X144071428Y-74188809D02*
X144095238Y-74165000D01*
X144095238Y-74165000D02*
X144142857Y-74141190D01*
X144142857Y-74141190D02*
X144261904Y-74141190D01*
X144261904Y-74141190D02*
X144333333Y-74165000D01*
X144547618Y-74379285D02*
X144714285Y-74379285D01*
X144785713Y-74641190D02*
X144547618Y-74641190D01*
X144547618Y-74641190D02*
X144547618Y-74141190D01*
X144547618Y-74141190D02*
X144785713Y-74141190D01*
X144928571Y-74141190D02*
X145214285Y-74141190D01*
X145071428Y-74641190D02*
X145071428Y-74141190D01*
X120464285Y-72641190D02*
X120559523Y-72641190D01*
X120559523Y-72641190D02*
X120607142Y-72665000D01*
X120607142Y-72665000D02*
X120654761Y-72712619D01*
X120654761Y-72712619D02*
X120678571Y-72807857D01*
X120678571Y-72807857D02*
X120678571Y-72974523D01*
X120678571Y-72974523D02*
X120654761Y-73069761D01*
X120654761Y-73069761D02*
X120607142Y-73117380D01*
X120607142Y-73117380D02*
X120559523Y-73141190D01*
X120559523Y-73141190D02*
X120464285Y-73141190D01*
X120464285Y-73141190D02*
X120416666Y-73117380D01*
X120416666Y-73117380D02*
X120369047Y-73069761D01*
X120369047Y-73069761D02*
X120345238Y-72974523D01*
X120345238Y-72974523D02*
X120345238Y-72807857D01*
X120345238Y-72807857D02*
X120369047Y-72712619D01*
X120369047Y-72712619D02*
X120416666Y-72665000D01*
X120416666Y-72665000D02*
X120464285Y-72641190D01*
X120892857Y-73141190D02*
X120892857Y-72641190D01*
X120892857Y-72641190D02*
X121178571Y-73141190D01*
X121178571Y-73141190D02*
X121178571Y-72641190D01*
X143404761Y-82891190D02*
X143238095Y-82653095D01*
X143119047Y-82891190D02*
X143119047Y-82391190D01*
X143119047Y-82391190D02*
X143309523Y-82391190D01*
X143309523Y-82391190D02*
X143357142Y-82415000D01*
X143357142Y-82415000D02*
X143380952Y-82438809D01*
X143380952Y-82438809D02*
X143404761Y-82486428D01*
X143404761Y-82486428D02*
X143404761Y-82557857D01*
X143404761Y-82557857D02*
X143380952Y-82605476D01*
X143380952Y-82605476D02*
X143357142Y-82629285D01*
X143357142Y-82629285D02*
X143309523Y-82653095D01*
X143309523Y-82653095D02*
X143119047Y-82653095D01*
X143619047Y-82629285D02*
X143785714Y-82629285D01*
X143857142Y-82891190D02*
X143619047Y-82891190D01*
X143619047Y-82891190D02*
X143619047Y-82391190D01*
X143619047Y-82391190D02*
X143857142Y-82391190D01*
X144047619Y-82867380D02*
X144119047Y-82891190D01*
X144119047Y-82891190D02*
X144238095Y-82891190D01*
X144238095Y-82891190D02*
X144285714Y-82867380D01*
X144285714Y-82867380D02*
X144309523Y-82843571D01*
X144309523Y-82843571D02*
X144333333Y-82795952D01*
X144333333Y-82795952D02*
X144333333Y-82748333D01*
X144333333Y-82748333D02*
X144309523Y-82700714D01*
X144309523Y-82700714D02*
X144285714Y-82676904D01*
X144285714Y-82676904D02*
X144238095Y-82653095D01*
X144238095Y-82653095D02*
X144142857Y-82629285D01*
X144142857Y-82629285D02*
X144095238Y-82605476D01*
X144095238Y-82605476D02*
X144071428Y-82581666D01*
X144071428Y-82581666D02*
X144047619Y-82534047D01*
X144047619Y-82534047D02*
X144047619Y-82486428D01*
X144047619Y-82486428D02*
X144071428Y-82438809D01*
X144071428Y-82438809D02*
X144095238Y-82415000D01*
X144095238Y-82415000D02*
X144142857Y-82391190D01*
X144142857Y-82391190D02*
X144261904Y-82391190D01*
X144261904Y-82391190D02*
X144333333Y-82415000D01*
X144547618Y-82629285D02*
X144714285Y-82629285D01*
X144785713Y-82891190D02*
X144547618Y-82891190D01*
X144547618Y-82891190D02*
X144547618Y-82391190D01*
X144547618Y-82391190D02*
X144785713Y-82391190D01*
X144928571Y-82391190D02*
X145214285Y-82391190D01*
X145071428Y-82891190D02*
X145071428Y-82391190D01*
D10*
X148249999Y-94032380D02*
X147916666Y-93556190D01*
X147678571Y-94032380D02*
X147678571Y-93032380D01*
X147678571Y-93032380D02*
X148059523Y-93032380D01*
X148059523Y-93032380D02*
X148154761Y-93080000D01*
X148154761Y-93080000D02*
X148202380Y-93127619D01*
X148202380Y-93127619D02*
X148249999Y-93222857D01*
X148249999Y-93222857D02*
X148249999Y-93365714D01*
X148249999Y-93365714D02*
X148202380Y-93460952D01*
X148202380Y-93460952D02*
X148154761Y-93508571D01*
X148154761Y-93508571D02*
X148059523Y-93556190D01*
X148059523Y-93556190D02*
X147678571Y-93556190D01*
X148630952Y-93746666D02*
X149107142Y-93746666D01*
X148535714Y-94032380D02*
X148869047Y-93032380D01*
X148869047Y-93032380D02*
X149202380Y-94032380D01*
X149488095Y-93127619D02*
X149535714Y-93080000D01*
X149535714Y-93080000D02*
X149630952Y-93032380D01*
X149630952Y-93032380D02*
X149869047Y-93032380D01*
X149869047Y-93032380D02*
X149964285Y-93080000D01*
X149964285Y-93080000D02*
X150011904Y-93127619D01*
X150011904Y-93127619D02*
X150059523Y-93222857D01*
X150059523Y-93222857D02*
X150059523Y-93318095D01*
X150059523Y-93318095D02*
X150011904Y-93460952D01*
X150011904Y-93460952D02*
X149440476Y-94032380D01*
X149440476Y-94032380D02*
X150059523Y-94032380D01*
D11*
X118174095Y-85940476D02*
X118974095Y-85940476D01*
X118974095Y-85940476D02*
X118974095Y-86245238D01*
X118974095Y-86245238D02*
X118936000Y-86321428D01*
X118936000Y-86321428D02*
X118897904Y-86359523D01*
X118897904Y-86359523D02*
X118821714Y-86397619D01*
X118821714Y-86397619D02*
X118707428Y-86397619D01*
X118707428Y-86397619D02*
X118631238Y-86359523D01*
X118631238Y-86359523D02*
X118593142Y-86321428D01*
X118593142Y-86321428D02*
X118555047Y-86245238D01*
X118555047Y-86245238D02*
X118555047Y-85940476D01*
X118174095Y-86740476D02*
X118974095Y-86740476D01*
X118250285Y-87578571D02*
X118212190Y-87540475D01*
X118212190Y-87540475D02*
X118174095Y-87426190D01*
X118174095Y-87426190D02*
X118174095Y-87349999D01*
X118174095Y-87349999D02*
X118212190Y-87235713D01*
X118212190Y-87235713D02*
X118288380Y-87159523D01*
X118288380Y-87159523D02*
X118364571Y-87121428D01*
X118364571Y-87121428D02*
X118516952Y-87083332D01*
X118516952Y-87083332D02*
X118631238Y-87083332D01*
X118631238Y-87083332D02*
X118783619Y-87121428D01*
X118783619Y-87121428D02*
X118859809Y-87159523D01*
X118859809Y-87159523D02*
X118936000Y-87235713D01*
X118936000Y-87235713D02*
X118974095Y-87349999D01*
X118974095Y-87349999D02*
X118974095Y-87426190D01*
X118974095Y-87426190D02*
X118936000Y-87540475D01*
X118936000Y-87540475D02*
X118897904Y-87578571D01*
X118174095Y-88340475D02*
X118174095Y-87883332D01*
X118174095Y-88111904D02*
X118974095Y-88111904D01*
X118974095Y-88111904D02*
X118859809Y-88035713D01*
X118859809Y-88035713D02*
X118783619Y-87959523D01*
X118783619Y-87959523D02*
X118745523Y-87883332D01*
X118974095Y-89026190D02*
X118974095Y-88873809D01*
X118974095Y-88873809D02*
X118936000Y-88797618D01*
X118936000Y-88797618D02*
X118897904Y-88759523D01*
X118897904Y-88759523D02*
X118783619Y-88683333D01*
X118783619Y-88683333D02*
X118631238Y-88645237D01*
X118631238Y-88645237D02*
X118326476Y-88645237D01*
X118326476Y-88645237D02*
X118250285Y-88683333D01*
X118250285Y-88683333D02*
X118212190Y-88721428D01*
X118212190Y-88721428D02*
X118174095Y-88797618D01*
X118174095Y-88797618D02*
X118174095Y-88949999D01*
X118174095Y-88949999D02*
X118212190Y-89026190D01*
X118212190Y-89026190D02*
X118250285Y-89064285D01*
X118250285Y-89064285D02*
X118326476Y-89102380D01*
X118326476Y-89102380D02*
X118516952Y-89102380D01*
X118516952Y-89102380D02*
X118593142Y-89064285D01*
X118593142Y-89064285D02*
X118631238Y-89026190D01*
X118631238Y-89026190D02*
X118669333Y-88949999D01*
X118669333Y-88949999D02*
X118669333Y-88797618D01*
X118669333Y-88797618D02*
X118631238Y-88721428D01*
X118631238Y-88721428D02*
X118593142Y-88683333D01*
X118593142Y-88683333D02*
X118516952Y-88645237D01*
X118593142Y-89711904D02*
X118593142Y-89445238D01*
X118174095Y-89445238D02*
X118974095Y-89445238D01*
X118974095Y-89445238D02*
X118974095Y-89826190D01*
X118174095Y-90549999D02*
X118174095Y-90092856D01*
X118174095Y-90321428D02*
X118974095Y-90321428D01*
X118974095Y-90321428D02*
X118859809Y-90245237D01*
X118859809Y-90245237D02*
X118783619Y-90169047D01*
X118783619Y-90169047D02*
X118745523Y-90092856D01*
X118974095Y-91273809D02*
X118974095Y-90892857D01*
X118974095Y-90892857D02*
X118593142Y-90854761D01*
X118593142Y-90854761D02*
X118631238Y-90892857D01*
X118631238Y-90892857D02*
X118669333Y-90969047D01*
X118669333Y-90969047D02*
X118669333Y-91159523D01*
X118669333Y-91159523D02*
X118631238Y-91235714D01*
X118631238Y-91235714D02*
X118593142Y-91273809D01*
X118593142Y-91273809D02*
X118516952Y-91311904D01*
X118516952Y-91311904D02*
X118326476Y-91311904D01*
X118326476Y-91311904D02*
X118250285Y-91273809D01*
X118250285Y-91273809D02*
X118212190Y-91235714D01*
X118212190Y-91235714D02*
X118174095Y-91159523D01*
X118174095Y-91159523D02*
X118174095Y-90969047D01*
X118174095Y-90969047D02*
X118212190Y-90892857D01*
X118212190Y-90892857D02*
X118250285Y-90854761D01*
X118974095Y-91578571D02*
X118974095Y-92073809D01*
X118974095Y-92073809D02*
X118669333Y-91807143D01*
X118669333Y-91807143D02*
X118669333Y-91921428D01*
X118669333Y-91921428D02*
X118631238Y-91997619D01*
X118631238Y-91997619D02*
X118593142Y-92035714D01*
X118593142Y-92035714D02*
X118516952Y-92073809D01*
X118516952Y-92073809D02*
X118326476Y-92073809D01*
X118326476Y-92073809D02*
X118250285Y-92035714D01*
X118250285Y-92035714D02*
X118212190Y-91997619D01*
X118212190Y-91997619D02*
X118174095Y-91921428D01*
X118174095Y-91921428D02*
X118174095Y-91692857D01*
X118174095Y-91692857D02*
X118212190Y-91616666D01*
X118212190Y-91616666D02*
X118250285Y-91578571D01*
X118174095Y-92835714D02*
X118174095Y-92378571D01*
X118174095Y-92607143D02*
X118974095Y-92607143D01*
X118974095Y-92607143D02*
X118859809Y-92530952D01*
X118859809Y-92530952D02*
X118783619Y-92454762D01*
X118783619Y-92454762D02*
X118745523Y-92378571D01*
X118974095Y-93102381D02*
X118974095Y-93597619D01*
X118974095Y-93597619D02*
X118669333Y-93330953D01*
X118669333Y-93330953D02*
X118669333Y-93445238D01*
X118669333Y-93445238D02*
X118631238Y-93521429D01*
X118631238Y-93521429D02*
X118593142Y-93559524D01*
X118593142Y-93559524D02*
X118516952Y-93597619D01*
X118516952Y-93597619D02*
X118326476Y-93597619D01*
X118326476Y-93597619D02*
X118250285Y-93559524D01*
X118250285Y-93559524D02*
X118212190Y-93521429D01*
X118212190Y-93521429D02*
X118174095Y-93445238D01*
X118174095Y-93445238D02*
X118174095Y-93216667D01*
X118174095Y-93216667D02*
X118212190Y-93140476D01*
X118212190Y-93140476D02*
X118250285Y-93102381D01*
D10*
X147964285Y-85580000D02*
X147869047Y-85532380D01*
X147869047Y-85532380D02*
X147726190Y-85532380D01*
X147726190Y-85532380D02*
X147583333Y-85580000D01*
X147583333Y-85580000D02*
X147488095Y-85675238D01*
X147488095Y-85675238D02*
X147440476Y-85770476D01*
X147440476Y-85770476D02*
X147392857Y-85960952D01*
X147392857Y-85960952D02*
X147392857Y-86103809D01*
X147392857Y-86103809D02*
X147440476Y-86294285D01*
X147440476Y-86294285D02*
X147488095Y-86389523D01*
X147488095Y-86389523D02*
X147583333Y-86484761D01*
X147583333Y-86484761D02*
X147726190Y-86532380D01*
X147726190Y-86532380D02*
X147821428Y-86532380D01*
X147821428Y-86532380D02*
X147964285Y-86484761D01*
X147964285Y-86484761D02*
X148011904Y-86437142D01*
X148011904Y-86437142D02*
X148011904Y-86103809D01*
X148011904Y-86103809D02*
X147821428Y-86103809D01*
X148440476Y-86532380D02*
X148440476Y-85532380D01*
X148440476Y-85532380D02*
X149011904Y-86532380D01*
X149011904Y-86532380D02*
X149011904Y-85532380D01*
X149488095Y-86532380D02*
X149488095Y-85532380D01*
X149488095Y-85532380D02*
X149726190Y-85532380D01*
X149726190Y-85532380D02*
X149869047Y-85580000D01*
X149869047Y-85580000D02*
X149964285Y-85675238D01*
X149964285Y-85675238D02*
X150011904Y-85770476D01*
X150011904Y-85770476D02*
X150059523Y-85960952D01*
X150059523Y-85960952D02*
X150059523Y-86103809D01*
X150059523Y-86103809D02*
X150011904Y-86294285D01*
X150011904Y-86294285D02*
X149964285Y-86389523D01*
X149964285Y-86389523D02*
X149869047Y-86484761D01*
X149869047Y-86484761D02*
X149726190Y-86532380D01*
X149726190Y-86532380D02*
X149488095Y-86532380D01*
X144749999Y-87532380D02*
X144416666Y-87056190D01*
X144178571Y-87532380D02*
X144178571Y-86532380D01*
X144178571Y-86532380D02*
X144559523Y-86532380D01*
X144559523Y-86532380D02*
X144654761Y-86580000D01*
X144654761Y-86580000D02*
X144702380Y-86627619D01*
X144702380Y-86627619D02*
X144749999Y-86722857D01*
X144749999Y-86722857D02*
X144749999Y-86865714D01*
X144749999Y-86865714D02*
X144702380Y-86960952D01*
X144702380Y-86960952D02*
X144654761Y-87008571D01*
X144654761Y-87008571D02*
X144559523Y-87056190D01*
X144559523Y-87056190D02*
X144178571Y-87056190D01*
X145130952Y-87246666D02*
X145607142Y-87246666D01*
X145035714Y-87532380D02*
X145369047Y-86532380D01*
X145369047Y-86532380D02*
X145702380Y-87532380D01*
X146226190Y-86532380D02*
X146321428Y-86532380D01*
X146321428Y-86532380D02*
X146416666Y-86580000D01*
X146416666Y-86580000D02*
X146464285Y-86627619D01*
X146464285Y-86627619D02*
X146511904Y-86722857D01*
X146511904Y-86722857D02*
X146559523Y-86913333D01*
X146559523Y-86913333D02*
X146559523Y-87151428D01*
X146559523Y-87151428D02*
X146511904Y-87341904D01*
X146511904Y-87341904D02*
X146464285Y-87437142D01*
X146464285Y-87437142D02*
X146416666Y-87484761D01*
X146416666Y-87484761D02*
X146321428Y-87532380D01*
X146321428Y-87532380D02*
X146226190Y-87532380D01*
X146226190Y-87532380D02*
X146130952Y-87484761D01*
X146130952Y-87484761D02*
X146083333Y-87437142D01*
X146083333Y-87437142D02*
X146035714Y-87341904D01*
X146035714Y-87341904D02*
X145988095Y-87151428D01*
X145988095Y-87151428D02*
X145988095Y-86913333D01*
X145988095Y-86913333D02*
X146035714Y-86722857D01*
X146035714Y-86722857D02*
X146083333Y-86627619D01*
X146083333Y-86627619D02*
X146130952Y-86580000D01*
X146130952Y-86580000D02*
X146226190Y-86532380D01*
D11*
X132964285Y-76891190D02*
X133059523Y-76891190D01*
X133059523Y-76891190D02*
X133107142Y-76915000D01*
X133107142Y-76915000D02*
X133154761Y-76962619D01*
X133154761Y-76962619D02*
X133178571Y-77057857D01*
X133178571Y-77057857D02*
X133178571Y-77224523D01*
X133178571Y-77224523D02*
X133154761Y-77319761D01*
X133154761Y-77319761D02*
X133107142Y-77367380D01*
X133107142Y-77367380D02*
X133059523Y-77391190D01*
X133059523Y-77391190D02*
X132964285Y-77391190D01*
X132964285Y-77391190D02*
X132916666Y-77367380D01*
X132916666Y-77367380D02*
X132869047Y-77319761D01*
X132869047Y-77319761D02*
X132845238Y-77224523D01*
X132845238Y-77224523D02*
X132845238Y-77057857D01*
X132845238Y-77057857D02*
X132869047Y-76962619D01*
X132869047Y-76962619D02*
X132916666Y-76915000D01*
X132916666Y-76915000D02*
X132964285Y-76891190D01*
X133392857Y-77391190D02*
X133392857Y-76891190D01*
X133392857Y-76891190D02*
X133678571Y-77391190D01*
X133678571Y-77391190D02*
X133678571Y-76891190D01*
D10*
X139238095Y-71651428D02*
X140000000Y-71651428D01*
X139619047Y-72032380D02*
X139619047Y-71270476D01*
X139238095Y-74401428D02*
X140000000Y-74401428D01*
X139619047Y-74782380D02*
X139619047Y-74020476D01*
X125559523Y-94032380D02*
X125226190Y-93556190D01*
X124988095Y-94032380D02*
X124988095Y-93032380D01*
X124988095Y-93032380D02*
X125369047Y-93032380D01*
X125369047Y-93032380D02*
X125464285Y-93080000D01*
X125464285Y-93080000D02*
X125511904Y-93127619D01*
X125511904Y-93127619D02*
X125559523Y-93222857D01*
X125559523Y-93222857D02*
X125559523Y-93365714D01*
X125559523Y-93365714D02*
X125511904Y-93460952D01*
X125511904Y-93460952D02*
X125464285Y-93508571D01*
X125464285Y-93508571D02*
X125369047Y-93556190D01*
X125369047Y-93556190D02*
X124988095Y-93556190D01*
X125940476Y-93746666D02*
X126416666Y-93746666D01*
X125845238Y-94032380D02*
X126178571Y-93032380D01*
X126178571Y-93032380D02*
X126511904Y-94032380D01*
X126750000Y-93032380D02*
X127369047Y-93032380D01*
X127369047Y-93032380D02*
X127035714Y-93413333D01*
X127035714Y-93413333D02*
X127178571Y-93413333D01*
X127178571Y-93413333D02*
X127273809Y-93460952D01*
X127273809Y-93460952D02*
X127321428Y-93508571D01*
X127321428Y-93508571D02*
X127369047Y-93603809D01*
X127369047Y-93603809D02*
X127369047Y-93841904D01*
X127369047Y-93841904D02*
X127321428Y-93937142D01*
X127321428Y-93937142D02*
X127273809Y-93984761D01*
X127273809Y-93984761D02*
X127178571Y-94032380D01*
X127178571Y-94032380D02*
X126892857Y-94032380D01*
X126892857Y-94032380D02*
X126797619Y-93984761D01*
X126797619Y-93984761D02*
X126750000Y-93937142D01*
X124845238Y-85532380D02*
X125178571Y-86532380D01*
X125178571Y-86532380D02*
X125511904Y-85532380D01*
X126416666Y-86437142D02*
X126369047Y-86484761D01*
X126369047Y-86484761D02*
X126226190Y-86532380D01*
X126226190Y-86532380D02*
X126130952Y-86532380D01*
X126130952Y-86532380D02*
X125988095Y-86484761D01*
X125988095Y-86484761D02*
X125892857Y-86389523D01*
X125892857Y-86389523D02*
X125845238Y-86294285D01*
X125845238Y-86294285D02*
X125797619Y-86103809D01*
X125797619Y-86103809D02*
X125797619Y-85960952D01*
X125797619Y-85960952D02*
X125845238Y-85770476D01*
X125845238Y-85770476D02*
X125892857Y-85675238D01*
X125892857Y-85675238D02*
X125988095Y-85580000D01*
X125988095Y-85580000D02*
X126130952Y-85532380D01*
X126130952Y-85532380D02*
X126226190Y-85532380D01*
X126226190Y-85532380D02*
X126369047Y-85580000D01*
X126369047Y-85580000D02*
X126416666Y-85627619D01*
X127416666Y-86437142D02*
X127369047Y-86484761D01*
X127369047Y-86484761D02*
X127226190Y-86532380D01*
X127226190Y-86532380D02*
X127130952Y-86532380D01*
X127130952Y-86532380D02*
X126988095Y-86484761D01*
X126988095Y-86484761D02*
X126892857Y-86389523D01*
X126892857Y-86389523D02*
X126845238Y-86294285D01*
X126845238Y-86294285D02*
X126797619Y-86103809D01*
X126797619Y-86103809D02*
X126797619Y-85960952D01*
X126797619Y-85960952D02*
X126845238Y-85770476D01*
X126845238Y-85770476D02*
X126892857Y-85675238D01*
X126892857Y-85675238D02*
X126988095Y-85580000D01*
X126988095Y-85580000D02*
X127130952Y-85532380D01*
X127130952Y-85532380D02*
X127226190Y-85532380D01*
X127226190Y-85532380D02*
X127369047Y-85580000D01*
X127369047Y-85580000D02*
X127416666Y-85627619D01*
D11*
X127869047Y-73141190D02*
X127869047Y-72641190D01*
X127869047Y-72641190D02*
X128059523Y-72641190D01*
X128059523Y-72641190D02*
X128107142Y-72665000D01*
X128107142Y-72665000D02*
X128130952Y-72688809D01*
X128130952Y-72688809D02*
X128154761Y-72736428D01*
X128154761Y-72736428D02*
X128154761Y-72807857D01*
X128154761Y-72807857D02*
X128130952Y-72855476D01*
X128130952Y-72855476D02*
X128107142Y-72879285D01*
X128107142Y-72879285D02*
X128059523Y-72903095D01*
X128059523Y-72903095D02*
X127869047Y-72903095D01*
X128464285Y-72641190D02*
X128559523Y-72641190D01*
X128559523Y-72641190D02*
X128607142Y-72665000D01*
X128607142Y-72665000D02*
X128654761Y-72712619D01*
X128654761Y-72712619D02*
X128678571Y-72807857D01*
X128678571Y-72807857D02*
X128678571Y-72974523D01*
X128678571Y-72974523D02*
X128654761Y-73069761D01*
X128654761Y-73069761D02*
X128607142Y-73117380D01*
X128607142Y-73117380D02*
X128559523Y-73141190D01*
X128559523Y-73141190D02*
X128464285Y-73141190D01*
X128464285Y-73141190D02*
X128416666Y-73117380D01*
X128416666Y-73117380D02*
X128369047Y-73069761D01*
X128369047Y-73069761D02*
X128345238Y-72974523D01*
X128345238Y-72974523D02*
X128345238Y-72807857D01*
X128345238Y-72807857D02*
X128369047Y-72712619D01*
X128369047Y-72712619D02*
X128416666Y-72665000D01*
X128416666Y-72665000D02*
X128464285Y-72641190D01*
X128821429Y-72641190D02*
X129107143Y-72641190D01*
X128964286Y-73141190D02*
X128964286Y-72641190D01*
D10*
X129059523Y-87532380D02*
X128726190Y-87056190D01*
X128488095Y-87532380D02*
X128488095Y-86532380D01*
X128488095Y-86532380D02*
X128869047Y-86532380D01*
X128869047Y-86532380D02*
X128964285Y-86580000D01*
X128964285Y-86580000D02*
X129011904Y-86627619D01*
X129011904Y-86627619D02*
X129059523Y-86722857D01*
X129059523Y-86722857D02*
X129059523Y-86865714D01*
X129059523Y-86865714D02*
X129011904Y-86960952D01*
X129011904Y-86960952D02*
X128964285Y-87008571D01*
X128964285Y-87008571D02*
X128869047Y-87056190D01*
X128869047Y-87056190D02*
X128488095Y-87056190D01*
X129440476Y-87246666D02*
X129916666Y-87246666D01*
X129345238Y-87532380D02*
X129678571Y-86532380D01*
X129678571Y-86532380D02*
X130011904Y-87532380D01*
X130821428Y-86532380D02*
X130345238Y-86532380D01*
X130345238Y-86532380D02*
X130297619Y-87008571D01*
X130297619Y-87008571D02*
X130345238Y-86960952D01*
X130345238Y-86960952D02*
X130440476Y-86913333D01*
X130440476Y-86913333D02*
X130678571Y-86913333D01*
X130678571Y-86913333D02*
X130773809Y-86960952D01*
X130773809Y-86960952D02*
X130821428Y-87008571D01*
X130821428Y-87008571D02*
X130869047Y-87103809D01*
X130869047Y-87103809D02*
X130869047Y-87341904D01*
X130869047Y-87341904D02*
X130821428Y-87437142D01*
X130821428Y-87437142D02*
X130773809Y-87484761D01*
X130773809Y-87484761D02*
X130678571Y-87532380D01*
X130678571Y-87532380D02*
X130440476Y-87532380D01*
X130440476Y-87532380D02*
X130345238Y-87484761D01*
X130345238Y-87484761D02*
X130297619Y-87437142D01*
D11*
X137404761Y-77391190D02*
X137238095Y-77153095D01*
X137119047Y-77391190D02*
X137119047Y-76891190D01*
X137119047Y-76891190D02*
X137309523Y-76891190D01*
X137309523Y-76891190D02*
X137357142Y-76915000D01*
X137357142Y-76915000D02*
X137380952Y-76938809D01*
X137380952Y-76938809D02*
X137404761Y-76986428D01*
X137404761Y-76986428D02*
X137404761Y-77057857D01*
X137404761Y-77057857D02*
X137380952Y-77105476D01*
X137380952Y-77105476D02*
X137357142Y-77129285D01*
X137357142Y-77129285D02*
X137309523Y-77153095D01*
X137309523Y-77153095D02*
X137119047Y-77153095D01*
X137595238Y-77248333D02*
X137833333Y-77248333D01*
X137547619Y-77391190D02*
X137714285Y-76891190D01*
X137714285Y-76891190D02*
X137880952Y-77391190D01*
X138285713Y-76891190D02*
X138047618Y-76891190D01*
X138047618Y-76891190D02*
X138023809Y-77129285D01*
X138023809Y-77129285D02*
X138047618Y-77105476D01*
X138047618Y-77105476D02*
X138095237Y-77081666D01*
X138095237Y-77081666D02*
X138214285Y-77081666D01*
X138214285Y-77081666D02*
X138261904Y-77105476D01*
X138261904Y-77105476D02*
X138285713Y-77129285D01*
X138285713Y-77129285D02*
X138309523Y-77176904D01*
X138309523Y-77176904D02*
X138309523Y-77295952D01*
X138309523Y-77295952D02*
X138285713Y-77343571D01*
X138285713Y-77343571D02*
X138261904Y-77367380D01*
X138261904Y-77367380D02*
X138214285Y-77391190D01*
X138214285Y-77391190D02*
X138095237Y-77391190D01*
X138095237Y-77391190D02*
X138047618Y-77367380D01*
X138047618Y-77367380D02*
X138023809Y-77343571D01*
D10*
X132488095Y-71651428D02*
X133250000Y-71651428D01*
D12*
%TO.C,J25*%
X177343380Y-116821523D02*
X178057666Y-116821523D01*
X178057666Y-116821523D02*
X178200523Y-116869142D01*
X178200523Y-116869142D02*
X178295761Y-116964380D01*
X178295761Y-116964380D02*
X178343380Y-117107237D01*
X178343380Y-117107237D02*
X178343380Y-117202475D01*
X177438619Y-116392951D02*
X177391000Y-116345332D01*
X177391000Y-116345332D02*
X177343380Y-116250094D01*
X177343380Y-116250094D02*
X177343380Y-116011999D01*
X177343380Y-116011999D02*
X177391000Y-115916761D01*
X177391000Y-115916761D02*
X177438619Y-115869142D01*
X177438619Y-115869142D02*
X177533857Y-115821523D01*
X177533857Y-115821523D02*
X177629095Y-115821523D01*
X177629095Y-115821523D02*
X177771952Y-115869142D01*
X177771952Y-115869142D02*
X178343380Y-116440570D01*
X178343380Y-116440570D02*
X178343380Y-115821523D01*
X177343380Y-114916761D02*
X177343380Y-115392951D01*
X177343380Y-115392951D02*
X177819571Y-115440570D01*
X177819571Y-115440570D02*
X177771952Y-115392951D01*
X177771952Y-115392951D02*
X177724333Y-115297713D01*
X177724333Y-115297713D02*
X177724333Y-115059618D01*
X177724333Y-115059618D02*
X177771952Y-114964380D01*
X177771952Y-114964380D02*
X177819571Y-114916761D01*
X177819571Y-114916761D02*
X177914809Y-114869142D01*
X177914809Y-114869142D02*
X178152904Y-114869142D01*
X178152904Y-114869142D02*
X178248142Y-114916761D01*
X178248142Y-114916761D02*
X178295761Y-114964380D01*
X178295761Y-114964380D02*
X178343380Y-115059618D01*
X178343380Y-115059618D02*
X178343380Y-115297713D01*
X178343380Y-115297713D02*
X178295761Y-115392951D01*
X178295761Y-115392951D02*
X178248142Y-115440570D01*
%TO.C,J18*%
X135343380Y-116821523D02*
X136057666Y-116821523D01*
X136057666Y-116821523D02*
X136200523Y-116869142D01*
X136200523Y-116869142D02*
X136295761Y-116964380D01*
X136295761Y-116964380D02*
X136343380Y-117107237D01*
X136343380Y-117107237D02*
X136343380Y-117202475D01*
X136343380Y-115821523D02*
X136343380Y-116392951D01*
X136343380Y-116107237D02*
X135343380Y-116107237D01*
X135343380Y-116107237D02*
X135486238Y-116202475D01*
X135486238Y-116202475D02*
X135581476Y-116297713D01*
X135581476Y-116297713D02*
X135629095Y-116392951D01*
X135771952Y-115250094D02*
X135724333Y-115345332D01*
X135724333Y-115345332D02*
X135676714Y-115392951D01*
X135676714Y-115392951D02*
X135581476Y-115440570D01*
X135581476Y-115440570D02*
X135533857Y-115440570D01*
X135533857Y-115440570D02*
X135438619Y-115392951D01*
X135438619Y-115392951D02*
X135391000Y-115345332D01*
X135391000Y-115345332D02*
X135343380Y-115250094D01*
X135343380Y-115250094D02*
X135343380Y-115059618D01*
X135343380Y-115059618D02*
X135391000Y-114964380D01*
X135391000Y-114964380D02*
X135438619Y-114916761D01*
X135438619Y-114916761D02*
X135533857Y-114869142D01*
X135533857Y-114869142D02*
X135581476Y-114869142D01*
X135581476Y-114869142D02*
X135676714Y-114916761D01*
X135676714Y-114916761D02*
X135724333Y-114964380D01*
X135724333Y-114964380D02*
X135771952Y-115059618D01*
X135771952Y-115059618D02*
X135771952Y-115250094D01*
X135771952Y-115250094D02*
X135819571Y-115345332D01*
X135819571Y-115345332D02*
X135867190Y-115392951D01*
X135867190Y-115392951D02*
X135962428Y-115440570D01*
X135962428Y-115440570D02*
X136152904Y-115440570D01*
X136152904Y-115440570D02*
X136248142Y-115392951D01*
X136248142Y-115392951D02*
X136295761Y-115345332D01*
X136295761Y-115345332D02*
X136343380Y-115250094D01*
X136343380Y-115250094D02*
X136343380Y-115059618D01*
X136343380Y-115059618D02*
X136295761Y-114964380D01*
X136295761Y-114964380D02*
X136248142Y-114916761D01*
X136248142Y-114916761D02*
X136152904Y-114869142D01*
X136152904Y-114869142D02*
X135962428Y-114869142D01*
X135962428Y-114869142D02*
X135867190Y-114916761D01*
X135867190Y-114916761D02*
X135819571Y-114964380D01*
X135819571Y-114964380D02*
X135771952Y-115059618D01*
%TO.C,J11*%
X177343380Y-73071523D02*
X178057666Y-73071523D01*
X178057666Y-73071523D02*
X178200523Y-73119142D01*
X178200523Y-73119142D02*
X178295761Y-73214380D01*
X178295761Y-73214380D02*
X178343380Y-73357237D01*
X178343380Y-73357237D02*
X178343380Y-73452475D01*
X178343380Y-72071523D02*
X178343380Y-72642951D01*
X178343380Y-72357237D02*
X177343380Y-72357237D01*
X177343380Y-72357237D02*
X177486238Y-72452475D01*
X177486238Y-72452475D02*
X177581476Y-72547713D01*
X177581476Y-72547713D02*
X177629095Y-72642951D01*
X178343380Y-71119142D02*
X178343380Y-71690570D01*
X178343380Y-71404856D02*
X177343380Y-71404856D01*
X177343380Y-71404856D02*
X177486238Y-71500094D01*
X177486238Y-71500094D02*
X177581476Y-71595332D01*
X177581476Y-71595332D02*
X177629095Y-71690570D01*
%TO.C,J4*%
X135343380Y-72595333D02*
X136057666Y-72595333D01*
X136057666Y-72595333D02*
X136200523Y-72642952D01*
X136200523Y-72642952D02*
X136295761Y-72738190D01*
X136295761Y-72738190D02*
X136343380Y-72881047D01*
X136343380Y-72881047D02*
X136343380Y-72976285D01*
X135676714Y-71690571D02*
X136343380Y-71690571D01*
X135295761Y-71928666D02*
X136010047Y-72166761D01*
X136010047Y-72166761D02*
X136010047Y-71547714D01*
D13*
%TO.C,mouse-bite-2mm-slot*%
X177500000Y-103750000D02*
G75*
G03*
X177500000Y-101750000I0J1000000D01*
G01*
X181500000Y-101750000D02*
G75*
G03*
X181500000Y-103750000I0J-1000000D01*
G01*
X135500000Y-103750000D02*
G75*
G03*
X135500000Y-101750000I0J1000000D01*
G01*
X139500000Y-101750000D02*
G75*
G03*
X139500000Y-103750000I0J-1000000D01*
G01*
D14*
%TO.C,SW8*%
X160454000Y-125710000D02*
X161764000Y-125710000D01*
X160454000Y-125710000D02*
X160454000Y-124327000D01*
X160694000Y-125470000D02*
X161764000Y-125470000D01*
X160694000Y-125470000D02*
X160694000Y-118649000D01*
X163844000Y-125470000D02*
X164355000Y-125470000D01*
X166334000Y-125470000D02*
X166895000Y-125470000D01*
X168874000Y-125470000D02*
X169435000Y-125470000D01*
X171414000Y-125470000D02*
X172534000Y-125470000D01*
X172534000Y-125470000D02*
X172534000Y-118649000D01*
X162169000Y-123870000D02*
X163439000Y-123870000D01*
X162289000Y-123870000D02*
X162289000Y-122663333D01*
X162409000Y-123870000D02*
X162409000Y-122663333D01*
X162529000Y-123870000D02*
X162529000Y-122663333D01*
X162649000Y-123870000D02*
X162649000Y-122663333D01*
X162769000Y-123870000D02*
X162769000Y-122663333D01*
X162889000Y-123870000D02*
X162889000Y-122663333D01*
X163009000Y-123870000D02*
X163009000Y-122663333D01*
X163129000Y-123870000D02*
X163129000Y-122663333D01*
X163249000Y-123870000D02*
X163249000Y-122663333D01*
X163369000Y-123870000D02*
X163369000Y-122663333D01*
X163439000Y-123870000D02*
X163439000Y-120250000D01*
X164709000Y-123870000D02*
X165979000Y-123870000D01*
X164829000Y-123870000D02*
X164829000Y-122663333D01*
X164949000Y-123870000D02*
X164949000Y-122663333D01*
X165069000Y-123870000D02*
X165069000Y-122663333D01*
X165189000Y-123870000D02*
X165189000Y-122663333D01*
X165309000Y-123870000D02*
X165309000Y-122663333D01*
X165429000Y-123870000D02*
X165429000Y-122663333D01*
X165549000Y-123870000D02*
X165549000Y-122663333D01*
X165669000Y-123870000D02*
X165669000Y-122663333D01*
X165789000Y-123870000D02*
X165789000Y-122663333D01*
X165909000Y-123870000D02*
X165909000Y-122663333D01*
X165979000Y-123870000D02*
X165979000Y-120250000D01*
X167249000Y-123870000D02*
X168519000Y-123870000D01*
X167369000Y-123870000D02*
X167369000Y-122663333D01*
X167489000Y-123870000D02*
X167489000Y-122663333D01*
X167609000Y-123870000D02*
X167609000Y-122663333D01*
X167729000Y-123870000D02*
X167729000Y-122663333D01*
X167849000Y-123870000D02*
X167849000Y-122663333D01*
X167969000Y-123870000D02*
X167969000Y-122663333D01*
X168089000Y-123870000D02*
X168089000Y-122663333D01*
X168209000Y-123870000D02*
X168209000Y-122663333D01*
X168329000Y-123870000D02*
X168329000Y-122663333D01*
X168449000Y-123870000D02*
X168449000Y-122663333D01*
X168519000Y-123870000D02*
X168519000Y-120250000D01*
X169789000Y-123870000D02*
X171059000Y-123870000D01*
X169909000Y-123870000D02*
X169909000Y-122663333D01*
X170029000Y-123870000D02*
X170029000Y-122663333D01*
X170149000Y-123870000D02*
X170149000Y-122663333D01*
X170269000Y-123870000D02*
X170269000Y-122663333D01*
X170389000Y-123870000D02*
X170389000Y-122663333D01*
X170509000Y-123870000D02*
X170509000Y-122663333D01*
X170629000Y-123870000D02*
X170629000Y-122663333D01*
X170749000Y-123870000D02*
X170749000Y-122663333D01*
X170869000Y-123870000D02*
X170869000Y-122663333D01*
X170989000Y-123870000D02*
X170989000Y-122663333D01*
X171059000Y-123870000D02*
X171059000Y-120250000D01*
X162169000Y-122663333D02*
X163439000Y-122663333D01*
X164709000Y-122663333D02*
X165979000Y-122663333D01*
X167249000Y-122663333D02*
X168519000Y-122663333D01*
X169789000Y-122663333D02*
X171059000Y-122663333D01*
X162169000Y-120250000D02*
X162169000Y-123870000D01*
X163439000Y-120250000D02*
X162169000Y-120250000D01*
X164709000Y-120250000D02*
X164709000Y-123870000D01*
X165979000Y-120250000D02*
X164709000Y-120250000D01*
X167249000Y-120250000D02*
X167249000Y-123870000D01*
X168519000Y-120250000D02*
X167249000Y-120250000D01*
X169789000Y-120250000D02*
X169789000Y-123870000D01*
X171059000Y-120250000D02*
X169789000Y-120250000D01*
X160694000Y-118649000D02*
X161814000Y-118649000D01*
X163794000Y-118649000D02*
X164355000Y-118649000D01*
X166334000Y-118649000D02*
X166895000Y-118649000D01*
X168874000Y-118649000D02*
X169435000Y-118649000D01*
X171414000Y-118649000D02*
X172534000Y-118649000D01*
%TO.C,RV4*%
X190330000Y-117572000D02*
X190330000Y-124412000D01*
X190330000Y-117572000D02*
X193360000Y-117572000D01*
X190330000Y-124412000D02*
X193360000Y-124412000D01*
X194660000Y-117572000D02*
X197570000Y-117572000D01*
X194660000Y-124412000D02*
X197570000Y-124412000D01*
X197570000Y-117572000D02*
X197570000Y-124412000D01*
%TO.C,J24*%
X183340000Y-104090000D02*
X183340000Y-103350000D01*
X183340000Y-103350000D02*
X182840000Y-103350000D01*
X183100000Y-113511000D02*
X183100000Y-103590000D01*
X183100000Y-113511000D02*
X172820000Y-113511000D01*
X183100000Y-110551000D02*
X172820000Y-110551000D01*
X183100000Y-105650000D02*
X172820000Y-105650000D01*
X183100000Y-104150000D02*
X172820000Y-104150000D01*
X183100000Y-103590000D02*
X172820000Y-103590000D01*
X176647000Y-107227000D02*
X176694000Y-107181000D01*
X176454000Y-107011000D02*
X176489000Y-106976000D01*
X174350000Y-109525000D02*
X174385000Y-109489000D01*
X174145000Y-109319000D02*
X174192000Y-109273000D01*
X172820000Y-113511000D02*
X172820000Y-103590000D01*
X182034999Y-108933999D02*
G75*
G03*
X182035426Y-107566958I-1534992J684000D01*
G01*
X179816001Y-109784999D02*
G75*
G03*
X181183042Y-109785426I684000J1534992D01*
G01*
X181184000Y-106715001D02*
G75*
G03*
X180471195Y-106569748I-683999J-1535000D01*
G01*
X180500000Y-106570001D02*
G75*
G03*
X179816682Y-106715245I0J-1679999D01*
G01*
X178965000Y-107566000D02*
G75*
G03*
X178964574Y-108933042I1535000J-684000D01*
G01*
X177100000Y-108250000D02*
G75*
G03*
X177100000Y-108250000I-1680000J0D01*
G01*
%TO.C,J22*%
X171362000Y-100118000D02*
X162122000Y-100118000D01*
X162122000Y-100118000D02*
X162122000Y-108238000D01*
X162122000Y-113638000D02*
X162122000Y-114858000D01*
X171362000Y-114858000D02*
X171362000Y-100118000D01*
X169692000Y-114858000D02*
X171362000Y-114858000D01*
X162122000Y-114858000D02*
X163792000Y-114858000D01*
%TO.C,J25*%
X180830000Y-113920000D02*
X175630000Y-113920000D01*
X180830000Y-113920000D02*
X180830000Y-116520000D01*
X175630000Y-113920000D02*
X175630000Y-119120000D01*
X180830000Y-116520000D02*
X178230000Y-116520000D01*
X178230000Y-116520000D02*
X178230000Y-119120000D01*
X180830000Y-117790000D02*
X180830000Y-119120000D01*
X180830000Y-119120000D02*
X179500000Y-119120000D01*
X178230000Y-119120000D02*
X175630000Y-119120000D01*
%TO.C,D11*%
X174014000Y-125398000D02*
X174170000Y-125398000D01*
X176330000Y-125398000D02*
X176486000Y-125398000D01*
X174171392Y-122165666D02*
G75*
G03*
X174014485Y-125397999I1078608J-1672334D01*
G01*
X174170164Y-122796871D02*
G75*
G03*
X174170001Y-124878960I1079836J-1041129D01*
G01*
X176329999Y-124878960D02*
G75*
G03*
X176329836Y-122796871I-1079999J1040960D01*
G01*
X176485515Y-125397999D02*
G75*
G03*
X176328608Y-122165666I-1235515J1559999D01*
G01*
%TO.C,J28*%
X187120000Y-140094000D02*
X187120000Y-141364000D01*
X185850000Y-140094000D02*
X187120000Y-140094000D01*
X183690000Y-142406929D02*
X183690000Y-142804000D01*
X182930000Y-142406929D02*
X182930000Y-142804000D01*
X181150000Y-142406929D02*
X181150000Y-142804000D01*
X180390000Y-142406929D02*
X180390000Y-142804000D01*
X178610000Y-142406929D02*
X178610000Y-142804000D01*
X177850000Y-142406929D02*
X177850000Y-142804000D01*
X176070000Y-142406929D02*
X176070000Y-142804000D01*
X175310000Y-142406929D02*
X175310000Y-142804000D01*
X173530000Y-142406929D02*
X173530000Y-142804000D01*
X172770000Y-142406929D02*
X172770000Y-142804000D01*
X186230000Y-142474000D02*
X186230000Y-142804000D01*
X185470000Y-142474000D02*
X185470000Y-142804000D01*
X187180000Y-142804000D02*
X171820000Y-142804000D01*
X184580000Y-142804000D02*
X184580000Y-145464000D01*
X182040000Y-142804000D02*
X182040000Y-145464000D01*
X179500000Y-142804000D02*
X179500000Y-145464000D01*
X176960000Y-142804000D02*
X176960000Y-145464000D01*
X174420000Y-142804000D02*
X174420000Y-145464000D01*
X171820000Y-142804000D02*
X171820000Y-145464000D01*
X187180000Y-145464000D02*
X187180000Y-142804000D01*
X186230000Y-145464000D02*
X186230000Y-151464000D01*
X186170000Y-145464000D02*
X186170000Y-151464000D01*
X186050000Y-145464000D02*
X186050000Y-151464000D01*
X185930000Y-145464000D02*
X185930000Y-151464000D01*
X185810000Y-145464000D02*
X185810000Y-151464000D01*
X185690000Y-145464000D02*
X185690000Y-151464000D01*
X185570000Y-145464000D02*
X185570000Y-151464000D01*
X183690000Y-145464000D02*
X183690000Y-151464000D01*
X181150000Y-145464000D02*
X181150000Y-151464000D01*
X178610000Y-145464000D02*
X178610000Y-151464000D01*
X176070000Y-145464000D02*
X176070000Y-151464000D01*
X173530000Y-145464000D02*
X173530000Y-151464000D01*
X171820000Y-145464000D02*
X187180000Y-145464000D01*
X186230000Y-151464000D02*
X185470000Y-151464000D01*
X185470000Y-151464000D02*
X185470000Y-145464000D01*
X183690000Y-151464000D02*
X182930000Y-151464000D01*
X182930000Y-151464000D02*
X182930000Y-145464000D01*
X181150000Y-151464000D02*
X180390000Y-151464000D01*
X180390000Y-151464000D02*
X180390000Y-145464000D01*
X178610000Y-151464000D02*
X177850000Y-151464000D01*
X177850000Y-151464000D02*
X177850000Y-145464000D01*
X176070000Y-151464000D02*
X175310000Y-151464000D01*
X175310000Y-151464000D02*
X175310000Y-145464000D01*
X173530000Y-151464000D02*
X172770000Y-151464000D01*
X172770000Y-151464000D02*
X172770000Y-145464000D01*
%TO.C,J23*%
X189480000Y-117495500D02*
X190480000Y-117495500D01*
X190480000Y-117495500D02*
X189980000Y-116995500D01*
X189980000Y-116995500D02*
X189480000Y-117495500D01*
X185070000Y-116775500D02*
X197390000Y-116775500D01*
X197390000Y-116775500D02*
X197390000Y-112515500D01*
X185070000Y-112515500D02*
X185070000Y-116775500D01*
X185070000Y-108415500D02*
X185070000Y-100055500D01*
X185070000Y-100055500D02*
X197390000Y-100055500D01*
X197390000Y-100055500D02*
X197390000Y-108415500D01*
%TO.C,SW7*%
X185422000Y-125814000D02*
X186922000Y-125814000D01*
X189422000Y-124564000D02*
X189422000Y-120064000D01*
X182922000Y-120064000D02*
X182922000Y-124564000D01*
X186922000Y-118814000D02*
X185422000Y-118814000D01*
%TO.C,J26*%
X166420000Y-130950000D02*
X166420000Y-138630000D01*
X166420000Y-128350000D02*
X166420000Y-129680000D01*
X165090000Y-128350000D02*
X166420000Y-128350000D01*
X163820000Y-130950000D02*
X166420000Y-130950000D01*
X163820000Y-128350000D02*
X163820000Y-130950000D01*
X161220000Y-138630000D02*
X166420000Y-138630000D01*
X161220000Y-128350000D02*
X163820000Y-128350000D01*
X161220000Y-128350000D02*
X161220000Y-138630000D01*
%TO.C,J27*%
X192630000Y-128350000D02*
X192630000Y-138630000D01*
X192630000Y-128350000D02*
X195230000Y-128350000D01*
X192630000Y-138630000D02*
X197830000Y-138630000D01*
X195230000Y-128350000D02*
X195230000Y-130950000D01*
X195230000Y-130950000D02*
X197830000Y-130950000D01*
X196500000Y-128350000D02*
X197830000Y-128350000D01*
X197830000Y-128350000D02*
X197830000Y-129680000D01*
X197830000Y-130950000D02*
X197830000Y-138630000D01*
%TO.C,D12*%
X178586000Y-125398000D02*
X178742000Y-125398000D01*
X180902000Y-125398000D02*
X181058000Y-125398000D01*
X178743392Y-122165666D02*
G75*
G03*
X178586485Y-125397999I1078608J-1672334D01*
G01*
X178742164Y-122796871D02*
G75*
G03*
X178742001Y-124878960I1079836J-1041129D01*
G01*
X180901999Y-124878960D02*
G75*
G03*
X180901836Y-122796871I-1079999J1040960D01*
G01*
X181057515Y-125397999D02*
G75*
G03*
X180900608Y-122165666I-1235515J1559999D01*
G01*
%TO.C,U4*%
X174190000Y-128290000D02*
X174190000Y-138690000D01*
X174190000Y-138690000D02*
X184690000Y-138690000D01*
X177190000Y-128350000D02*
X177190000Y-138630000D01*
X177190000Y-138630000D02*
X181690000Y-138630000D01*
X178440000Y-128350000D02*
X177190000Y-128350000D01*
X181690000Y-128350000D02*
X180440000Y-128350000D01*
X181690000Y-138630000D02*
X181690000Y-128350000D01*
X184690000Y-128290000D02*
X174190000Y-128290000D01*
X184690000Y-138690000D02*
X184690000Y-128290000D01*
X178440000Y-128350000D02*
G75*
G03*
X180440000Y-128350000I1000000J0D01*
G01*
D13*
%TO.C,mouse-bite-2mm-slot4*%
X159500000Y-124500000D02*
G75*
G03*
X157500000Y-124500000I-1000000J0D01*
G01*
X157500000Y-120500000D02*
G75*
G03*
X159500000Y-120500000I1000000J0D01*
G01*
D14*
%TO.C,SW6*%
X118454000Y-125710000D02*
X119764000Y-125710000D01*
X118454000Y-125710000D02*
X118454000Y-124327000D01*
X118694000Y-125470000D02*
X119764000Y-125470000D01*
X118694000Y-125470000D02*
X118694000Y-118649000D01*
X121844000Y-125470000D02*
X122355000Y-125470000D01*
X124334000Y-125470000D02*
X124895000Y-125470000D01*
X126874000Y-125470000D02*
X127435000Y-125470000D01*
X129414000Y-125470000D02*
X130534000Y-125470000D01*
X130534000Y-125470000D02*
X130534000Y-118649000D01*
X120169000Y-123870000D02*
X121439000Y-123870000D01*
X120289000Y-123870000D02*
X120289000Y-122663333D01*
X120409000Y-123870000D02*
X120409000Y-122663333D01*
X120529000Y-123870000D02*
X120529000Y-122663333D01*
X120649000Y-123870000D02*
X120649000Y-122663333D01*
X120769000Y-123870000D02*
X120769000Y-122663333D01*
X120889000Y-123870000D02*
X120889000Y-122663333D01*
X121009000Y-123870000D02*
X121009000Y-122663333D01*
X121129000Y-123870000D02*
X121129000Y-122663333D01*
X121249000Y-123870000D02*
X121249000Y-122663333D01*
X121369000Y-123870000D02*
X121369000Y-122663333D01*
X121439000Y-123870000D02*
X121439000Y-120250000D01*
X122709000Y-123870000D02*
X123979000Y-123870000D01*
X122829000Y-123870000D02*
X122829000Y-122663333D01*
X122949000Y-123870000D02*
X122949000Y-122663333D01*
X123069000Y-123870000D02*
X123069000Y-122663333D01*
X123189000Y-123870000D02*
X123189000Y-122663333D01*
X123309000Y-123870000D02*
X123309000Y-122663333D01*
X123429000Y-123870000D02*
X123429000Y-122663333D01*
X123549000Y-123870000D02*
X123549000Y-122663333D01*
X123669000Y-123870000D02*
X123669000Y-122663333D01*
X123789000Y-123870000D02*
X123789000Y-122663333D01*
X123909000Y-123870000D02*
X123909000Y-122663333D01*
X123979000Y-123870000D02*
X123979000Y-120250000D01*
X125249000Y-123870000D02*
X126519000Y-123870000D01*
X125369000Y-123870000D02*
X125369000Y-122663333D01*
X125489000Y-123870000D02*
X125489000Y-122663333D01*
X125609000Y-123870000D02*
X125609000Y-122663333D01*
X125729000Y-123870000D02*
X125729000Y-122663333D01*
X125849000Y-123870000D02*
X125849000Y-122663333D01*
X125969000Y-123870000D02*
X125969000Y-122663333D01*
X126089000Y-123870000D02*
X126089000Y-122663333D01*
X126209000Y-123870000D02*
X126209000Y-122663333D01*
X126329000Y-123870000D02*
X126329000Y-122663333D01*
X126449000Y-123870000D02*
X126449000Y-122663333D01*
X126519000Y-123870000D02*
X126519000Y-120250000D01*
X127789000Y-123870000D02*
X129059000Y-123870000D01*
X127909000Y-123870000D02*
X127909000Y-122663333D01*
X128029000Y-123870000D02*
X128029000Y-122663333D01*
X128149000Y-123870000D02*
X128149000Y-122663333D01*
X128269000Y-123870000D02*
X128269000Y-122663333D01*
X128389000Y-123870000D02*
X128389000Y-122663333D01*
X128509000Y-123870000D02*
X128509000Y-122663333D01*
X128629000Y-123870000D02*
X128629000Y-122663333D01*
X128749000Y-123870000D02*
X128749000Y-122663333D01*
X128869000Y-123870000D02*
X128869000Y-122663333D01*
X128989000Y-123870000D02*
X128989000Y-122663333D01*
X129059000Y-123870000D02*
X129059000Y-120250000D01*
X120169000Y-122663333D02*
X121439000Y-122663333D01*
X122709000Y-122663333D02*
X123979000Y-122663333D01*
X125249000Y-122663333D02*
X126519000Y-122663333D01*
X127789000Y-122663333D02*
X129059000Y-122663333D01*
X120169000Y-120250000D02*
X120169000Y-123870000D01*
X121439000Y-120250000D02*
X120169000Y-120250000D01*
X122709000Y-120250000D02*
X122709000Y-123870000D01*
X123979000Y-120250000D02*
X122709000Y-120250000D01*
X125249000Y-120250000D02*
X125249000Y-123870000D01*
X126519000Y-120250000D02*
X125249000Y-120250000D01*
X127789000Y-120250000D02*
X127789000Y-123870000D01*
X129059000Y-120250000D02*
X127789000Y-120250000D01*
X118694000Y-118649000D02*
X119814000Y-118649000D01*
X121794000Y-118649000D02*
X122355000Y-118649000D01*
X124334000Y-118649000D02*
X124895000Y-118649000D01*
X126874000Y-118649000D02*
X127435000Y-118649000D01*
X129414000Y-118649000D02*
X130534000Y-118649000D01*
%TO.C,RV3*%
X148330000Y-117572000D02*
X148330000Y-124412000D01*
X148330000Y-117572000D02*
X151360000Y-117572000D01*
X148330000Y-124412000D02*
X151360000Y-124412000D01*
X152660000Y-117572000D02*
X155570000Y-117572000D01*
X152660000Y-124412000D02*
X155570000Y-124412000D01*
X155570000Y-117572000D02*
X155570000Y-124412000D01*
%TO.C,J17*%
X141340000Y-104090000D02*
X141340000Y-103350000D01*
X141340000Y-103350000D02*
X140840000Y-103350000D01*
X141100000Y-113511000D02*
X141100000Y-103590000D01*
X141100000Y-113511000D02*
X130820000Y-113511000D01*
X141100000Y-110551000D02*
X130820000Y-110551000D01*
X141100000Y-105650000D02*
X130820000Y-105650000D01*
X141100000Y-104150000D02*
X130820000Y-104150000D01*
X141100000Y-103590000D02*
X130820000Y-103590000D01*
X134647000Y-107227000D02*
X134694000Y-107181000D01*
X134454000Y-107011000D02*
X134489000Y-106976000D01*
X132350000Y-109525000D02*
X132385000Y-109489000D01*
X132145000Y-109319000D02*
X132192000Y-109273000D01*
X130820000Y-113511000D02*
X130820000Y-103590000D01*
X140034999Y-108933999D02*
G75*
G03*
X140035426Y-107566958I-1534992J684000D01*
G01*
X137816001Y-109784999D02*
G75*
G03*
X139183042Y-109785426I684000J1534992D01*
G01*
X139184000Y-106715001D02*
G75*
G03*
X138471195Y-106569748I-683999J-1535000D01*
G01*
X138500000Y-106570001D02*
G75*
G03*
X137816682Y-106715245I0J-1679999D01*
G01*
X136965000Y-107566000D02*
G75*
G03*
X136964574Y-108933042I1535000J-684000D01*
G01*
X135100000Y-108250000D02*
G75*
G03*
X135100000Y-108250000I-1680000J0D01*
G01*
%TO.C,J15*%
X129362000Y-100118000D02*
X120122000Y-100118000D01*
X120122000Y-100118000D02*
X120122000Y-108238000D01*
X120122000Y-113638000D02*
X120122000Y-114858000D01*
X129362000Y-114858000D02*
X129362000Y-100118000D01*
X127692000Y-114858000D02*
X129362000Y-114858000D01*
X120122000Y-114858000D02*
X121792000Y-114858000D01*
%TO.C,J18*%
X138830000Y-113920000D02*
X133630000Y-113920000D01*
X138830000Y-113920000D02*
X138830000Y-116520000D01*
X133630000Y-113920000D02*
X133630000Y-119120000D01*
X138830000Y-116520000D02*
X136230000Y-116520000D01*
X136230000Y-116520000D02*
X136230000Y-119120000D01*
X138830000Y-117790000D02*
X138830000Y-119120000D01*
X138830000Y-119120000D02*
X137500000Y-119120000D01*
X136230000Y-119120000D02*
X133630000Y-119120000D01*
%TO.C,D8*%
X132014000Y-125398000D02*
X132170000Y-125398000D01*
X134330000Y-125398000D02*
X134486000Y-125398000D01*
X132171392Y-122165666D02*
G75*
G03*
X132014485Y-125397999I1078608J-1672334D01*
G01*
X132170164Y-122796871D02*
G75*
G03*
X132170001Y-124878960I1079836J-1041129D01*
G01*
X134329999Y-124878960D02*
G75*
G03*
X134329836Y-122796871I-1079999J1040960D01*
G01*
X134485515Y-125397999D02*
G75*
G03*
X134328608Y-122165666I-1235515J1559999D01*
G01*
%TO.C,J21*%
X145120000Y-140094000D02*
X145120000Y-141364000D01*
X143850000Y-140094000D02*
X145120000Y-140094000D01*
X141690000Y-142406929D02*
X141690000Y-142804000D01*
X140930000Y-142406929D02*
X140930000Y-142804000D01*
X139150000Y-142406929D02*
X139150000Y-142804000D01*
X138390000Y-142406929D02*
X138390000Y-142804000D01*
X136610000Y-142406929D02*
X136610000Y-142804000D01*
X135850000Y-142406929D02*
X135850000Y-142804000D01*
X134070000Y-142406929D02*
X134070000Y-142804000D01*
X133310000Y-142406929D02*
X133310000Y-142804000D01*
X131530000Y-142406929D02*
X131530000Y-142804000D01*
X130770000Y-142406929D02*
X130770000Y-142804000D01*
X144230000Y-142474000D02*
X144230000Y-142804000D01*
X143470000Y-142474000D02*
X143470000Y-142804000D01*
X145180000Y-142804000D02*
X129820000Y-142804000D01*
X142580000Y-142804000D02*
X142580000Y-145464000D01*
X140040000Y-142804000D02*
X140040000Y-145464000D01*
X137500000Y-142804000D02*
X137500000Y-145464000D01*
X134960000Y-142804000D02*
X134960000Y-145464000D01*
X132420000Y-142804000D02*
X132420000Y-145464000D01*
X129820000Y-142804000D02*
X129820000Y-145464000D01*
X145180000Y-145464000D02*
X145180000Y-142804000D01*
X144230000Y-145464000D02*
X144230000Y-151464000D01*
X144170000Y-145464000D02*
X144170000Y-151464000D01*
X144050000Y-145464000D02*
X144050000Y-151464000D01*
X143930000Y-145464000D02*
X143930000Y-151464000D01*
X143810000Y-145464000D02*
X143810000Y-151464000D01*
X143690000Y-145464000D02*
X143690000Y-151464000D01*
X143570000Y-145464000D02*
X143570000Y-151464000D01*
X141690000Y-145464000D02*
X141690000Y-151464000D01*
X139150000Y-145464000D02*
X139150000Y-151464000D01*
X136610000Y-145464000D02*
X136610000Y-151464000D01*
X134070000Y-145464000D02*
X134070000Y-151464000D01*
X131530000Y-145464000D02*
X131530000Y-151464000D01*
X129820000Y-145464000D02*
X145180000Y-145464000D01*
X144230000Y-151464000D02*
X143470000Y-151464000D01*
X143470000Y-151464000D02*
X143470000Y-145464000D01*
X141690000Y-151464000D02*
X140930000Y-151464000D01*
X140930000Y-151464000D02*
X140930000Y-145464000D01*
X139150000Y-151464000D02*
X138390000Y-151464000D01*
X138390000Y-151464000D02*
X138390000Y-145464000D01*
X136610000Y-151464000D02*
X135850000Y-151464000D01*
X135850000Y-151464000D02*
X135850000Y-145464000D01*
X134070000Y-151464000D02*
X133310000Y-151464000D01*
X133310000Y-151464000D02*
X133310000Y-145464000D01*
X131530000Y-151464000D02*
X130770000Y-151464000D01*
X130770000Y-151464000D02*
X130770000Y-145464000D01*
%TO.C,J16*%
X147480000Y-117495500D02*
X148480000Y-117495500D01*
X148480000Y-117495500D02*
X147980000Y-116995500D01*
X147980000Y-116995500D02*
X147480000Y-117495500D01*
X143070000Y-116775500D02*
X155390000Y-116775500D01*
X155390000Y-116775500D02*
X155390000Y-112515500D01*
X143070000Y-112515500D02*
X143070000Y-116775500D01*
X143070000Y-108415500D02*
X143070000Y-100055500D01*
X143070000Y-100055500D02*
X155390000Y-100055500D01*
X155390000Y-100055500D02*
X155390000Y-108415500D01*
%TO.C,SW5*%
X143422000Y-125814000D02*
X144922000Y-125814000D01*
X147422000Y-124564000D02*
X147422000Y-120064000D01*
X140922000Y-120064000D02*
X140922000Y-124564000D01*
X144922000Y-118814000D02*
X143422000Y-118814000D01*
%TO.C,J19*%
X124420000Y-130950000D02*
X124420000Y-138630000D01*
X124420000Y-128350000D02*
X124420000Y-129680000D01*
X123090000Y-128350000D02*
X124420000Y-128350000D01*
X121820000Y-130950000D02*
X124420000Y-130950000D01*
X121820000Y-128350000D02*
X121820000Y-130950000D01*
X119220000Y-138630000D02*
X124420000Y-138630000D01*
X119220000Y-128350000D02*
X121820000Y-128350000D01*
X119220000Y-128350000D02*
X119220000Y-138630000D01*
%TO.C,J20*%
X150630000Y-128350000D02*
X150630000Y-138630000D01*
X150630000Y-128350000D02*
X153230000Y-128350000D01*
X150630000Y-138630000D02*
X155830000Y-138630000D01*
X153230000Y-128350000D02*
X153230000Y-130950000D01*
X153230000Y-130950000D02*
X155830000Y-130950000D01*
X154500000Y-128350000D02*
X155830000Y-128350000D01*
X155830000Y-128350000D02*
X155830000Y-129680000D01*
X155830000Y-130950000D02*
X155830000Y-138630000D01*
%TO.C,D9*%
X136586000Y-125398000D02*
X136742000Y-125398000D01*
X138902000Y-125398000D02*
X139058000Y-125398000D01*
X136743392Y-122165666D02*
G75*
G03*
X136586485Y-125397999I1078608J-1672334D01*
G01*
X136742164Y-122796871D02*
G75*
G03*
X136742001Y-124878960I1079836J-1041129D01*
G01*
X138901999Y-124878960D02*
G75*
G03*
X138901836Y-122796871I-1079999J1040960D01*
G01*
X139057515Y-125397999D02*
G75*
G03*
X138900608Y-122165666I-1235515J1559999D01*
G01*
%TO.C,U3*%
X132190000Y-128290000D02*
X132190000Y-138690000D01*
X132190000Y-138690000D02*
X142690000Y-138690000D01*
X135190000Y-128350000D02*
X135190000Y-138630000D01*
X135190000Y-138630000D02*
X139690000Y-138630000D01*
X136440000Y-128350000D02*
X135190000Y-128350000D01*
X139690000Y-128350000D02*
X138440000Y-128350000D01*
X139690000Y-138630000D02*
X139690000Y-128350000D01*
X142690000Y-128290000D02*
X132190000Y-128290000D01*
X142690000Y-138690000D02*
X142690000Y-128290000D01*
X136440000Y-128350000D02*
G75*
G03*
X138440000Y-128350000I1000000J0D01*
G01*
%TO.C,SW4*%
X160454000Y-81960000D02*
X161764000Y-81960000D01*
X160454000Y-81960000D02*
X160454000Y-80577000D01*
X160694000Y-81720000D02*
X161764000Y-81720000D01*
X160694000Y-81720000D02*
X160694000Y-74899000D01*
X163844000Y-81720000D02*
X164355000Y-81720000D01*
X166334000Y-81720000D02*
X166895000Y-81720000D01*
X168874000Y-81720000D02*
X169435000Y-81720000D01*
X171414000Y-81720000D02*
X172534000Y-81720000D01*
X172534000Y-81720000D02*
X172534000Y-74899000D01*
X162169000Y-80120000D02*
X163439000Y-80120000D01*
X162289000Y-80120000D02*
X162289000Y-78913333D01*
X162409000Y-80120000D02*
X162409000Y-78913333D01*
X162529000Y-80120000D02*
X162529000Y-78913333D01*
X162649000Y-80120000D02*
X162649000Y-78913333D01*
X162769000Y-80120000D02*
X162769000Y-78913333D01*
X162889000Y-80120000D02*
X162889000Y-78913333D01*
X163009000Y-80120000D02*
X163009000Y-78913333D01*
X163129000Y-80120000D02*
X163129000Y-78913333D01*
X163249000Y-80120000D02*
X163249000Y-78913333D01*
X163369000Y-80120000D02*
X163369000Y-78913333D01*
X163439000Y-80120000D02*
X163439000Y-76500000D01*
X164709000Y-80120000D02*
X165979000Y-80120000D01*
X164829000Y-80120000D02*
X164829000Y-78913333D01*
X164949000Y-80120000D02*
X164949000Y-78913333D01*
X165069000Y-80120000D02*
X165069000Y-78913333D01*
X165189000Y-80120000D02*
X165189000Y-78913333D01*
X165309000Y-80120000D02*
X165309000Y-78913333D01*
X165429000Y-80120000D02*
X165429000Y-78913333D01*
X165549000Y-80120000D02*
X165549000Y-78913333D01*
X165669000Y-80120000D02*
X165669000Y-78913333D01*
X165789000Y-80120000D02*
X165789000Y-78913333D01*
X165909000Y-80120000D02*
X165909000Y-78913333D01*
X165979000Y-80120000D02*
X165979000Y-76500000D01*
X167249000Y-80120000D02*
X168519000Y-80120000D01*
X167369000Y-80120000D02*
X167369000Y-78913333D01*
X167489000Y-80120000D02*
X167489000Y-78913333D01*
X167609000Y-80120000D02*
X167609000Y-78913333D01*
X167729000Y-80120000D02*
X167729000Y-78913333D01*
X167849000Y-80120000D02*
X167849000Y-78913333D01*
X167969000Y-80120000D02*
X167969000Y-78913333D01*
X168089000Y-80120000D02*
X168089000Y-78913333D01*
X168209000Y-80120000D02*
X168209000Y-78913333D01*
X168329000Y-80120000D02*
X168329000Y-78913333D01*
X168449000Y-80120000D02*
X168449000Y-78913333D01*
X168519000Y-80120000D02*
X168519000Y-76500000D01*
X169789000Y-80120000D02*
X171059000Y-80120000D01*
X169909000Y-80120000D02*
X169909000Y-78913333D01*
X170029000Y-80120000D02*
X170029000Y-78913333D01*
X170149000Y-80120000D02*
X170149000Y-78913333D01*
X170269000Y-80120000D02*
X170269000Y-78913333D01*
X170389000Y-80120000D02*
X170389000Y-78913333D01*
X170509000Y-80120000D02*
X170509000Y-78913333D01*
X170629000Y-80120000D02*
X170629000Y-78913333D01*
X170749000Y-80120000D02*
X170749000Y-78913333D01*
X170869000Y-80120000D02*
X170869000Y-78913333D01*
X170989000Y-80120000D02*
X170989000Y-78913333D01*
X171059000Y-80120000D02*
X171059000Y-76500000D01*
X162169000Y-78913333D02*
X163439000Y-78913333D01*
X164709000Y-78913333D02*
X165979000Y-78913333D01*
X167249000Y-78913333D02*
X168519000Y-78913333D01*
X169789000Y-78913333D02*
X171059000Y-78913333D01*
X162169000Y-76500000D02*
X162169000Y-80120000D01*
X163439000Y-76500000D02*
X162169000Y-76500000D01*
X164709000Y-76500000D02*
X164709000Y-80120000D01*
X165979000Y-76500000D02*
X164709000Y-76500000D01*
X167249000Y-76500000D02*
X167249000Y-80120000D01*
X168519000Y-76500000D02*
X167249000Y-76500000D01*
X169789000Y-76500000D02*
X169789000Y-80120000D01*
X171059000Y-76500000D02*
X169789000Y-76500000D01*
X160694000Y-74899000D02*
X161814000Y-74899000D01*
X163794000Y-74899000D02*
X164355000Y-74899000D01*
X166334000Y-74899000D02*
X166895000Y-74899000D01*
X168874000Y-74899000D02*
X169435000Y-74899000D01*
X171414000Y-74899000D02*
X172534000Y-74899000D01*
%TO.C,RV2*%
X190330000Y-73822000D02*
X190330000Y-80662000D01*
X190330000Y-73822000D02*
X193360000Y-73822000D01*
X190330000Y-80662000D02*
X193360000Y-80662000D01*
X194660000Y-73822000D02*
X197570000Y-73822000D01*
X194660000Y-80662000D02*
X197570000Y-80662000D01*
X197570000Y-73822000D02*
X197570000Y-80662000D01*
%TO.C,J10*%
X183340000Y-60340000D02*
X183340000Y-59600000D01*
X183340000Y-59600000D02*
X182840000Y-59600000D01*
X183100000Y-69761000D02*
X183100000Y-59840000D01*
X183100000Y-69761000D02*
X172820000Y-69761000D01*
X183100000Y-66801000D02*
X172820000Y-66801000D01*
X183100000Y-61900000D02*
X172820000Y-61900000D01*
X183100000Y-60400000D02*
X172820000Y-60400000D01*
X183100000Y-59840000D02*
X172820000Y-59840000D01*
X176647000Y-63477000D02*
X176694000Y-63431000D01*
X176454000Y-63261000D02*
X176489000Y-63226000D01*
X174350000Y-65775000D02*
X174385000Y-65739000D01*
X174145000Y-65569000D02*
X174192000Y-65523000D01*
X172820000Y-69761000D02*
X172820000Y-59840000D01*
X182034999Y-65183999D02*
G75*
G03*
X182035426Y-63816958I-1534992J684000D01*
G01*
X179816001Y-66034999D02*
G75*
G03*
X181183042Y-66035426I684000J1534992D01*
G01*
X181184000Y-62965001D02*
G75*
G03*
X180471195Y-62819748I-683999J-1535000D01*
G01*
X180500000Y-62820001D02*
G75*
G03*
X179816682Y-62965245I0J-1679999D01*
G01*
X178965000Y-63816000D02*
G75*
G03*
X178964574Y-65183042I1535000J-684000D01*
G01*
X177100000Y-64500000D02*
G75*
G03*
X177100000Y-64500000I-1680000J0D01*
G01*
%TO.C,J8*%
X171362000Y-56368000D02*
X162122000Y-56368000D01*
X162122000Y-56368000D02*
X162122000Y-64488000D01*
X162122000Y-69888000D02*
X162122000Y-71108000D01*
X171362000Y-71108000D02*
X171362000Y-56368000D01*
X169692000Y-71108000D02*
X171362000Y-71108000D01*
X162122000Y-71108000D02*
X163792000Y-71108000D01*
%TO.C,J11*%
X180830000Y-70170000D02*
X175630000Y-70170000D01*
X180830000Y-70170000D02*
X180830000Y-72770000D01*
X175630000Y-70170000D02*
X175630000Y-75370000D01*
X180830000Y-72770000D02*
X178230000Y-72770000D01*
X178230000Y-72770000D02*
X178230000Y-75370000D01*
X180830000Y-74040000D02*
X180830000Y-75370000D01*
X180830000Y-75370000D02*
X179500000Y-75370000D01*
X178230000Y-75370000D02*
X175630000Y-75370000D01*
%TO.C,D5*%
X174014000Y-81648000D02*
X174170000Y-81648000D01*
X176330000Y-81648000D02*
X176486000Y-81648000D01*
X174171392Y-78415666D02*
G75*
G03*
X174014485Y-81647999I1078608J-1672334D01*
G01*
X174170164Y-79046871D02*
G75*
G03*
X174170001Y-81128960I1079836J-1041129D01*
G01*
X176329999Y-81128960D02*
G75*
G03*
X176329836Y-79046871I-1079999J1040960D01*
G01*
X176485515Y-81647999D02*
G75*
G03*
X176328608Y-78415666I-1235515J1559999D01*
G01*
%TO.C,J14*%
X187120000Y-96344000D02*
X187120000Y-97614000D01*
X185850000Y-96344000D02*
X187120000Y-96344000D01*
X183690000Y-98656929D02*
X183690000Y-99054000D01*
X182930000Y-98656929D02*
X182930000Y-99054000D01*
X181150000Y-98656929D02*
X181150000Y-99054000D01*
X180390000Y-98656929D02*
X180390000Y-99054000D01*
X178610000Y-98656929D02*
X178610000Y-99054000D01*
X177850000Y-98656929D02*
X177850000Y-99054000D01*
X176070000Y-98656929D02*
X176070000Y-99054000D01*
X175310000Y-98656929D02*
X175310000Y-99054000D01*
X173530000Y-98656929D02*
X173530000Y-99054000D01*
X172770000Y-98656929D02*
X172770000Y-99054000D01*
X186230000Y-98724000D02*
X186230000Y-99054000D01*
X185470000Y-98724000D02*
X185470000Y-99054000D01*
X187180000Y-99054000D02*
X171820000Y-99054000D01*
X184580000Y-99054000D02*
X184580000Y-101714000D01*
X182040000Y-99054000D02*
X182040000Y-101714000D01*
X179500000Y-99054000D02*
X179500000Y-101714000D01*
X176960000Y-99054000D02*
X176960000Y-101714000D01*
X174420000Y-99054000D02*
X174420000Y-101714000D01*
X171820000Y-99054000D02*
X171820000Y-101714000D01*
X187180000Y-101714000D02*
X187180000Y-99054000D01*
X186230000Y-101714000D02*
X186230000Y-107714000D01*
X186170000Y-101714000D02*
X186170000Y-107714000D01*
X186050000Y-101714000D02*
X186050000Y-107714000D01*
X185930000Y-101714000D02*
X185930000Y-107714000D01*
X185810000Y-101714000D02*
X185810000Y-107714000D01*
X185690000Y-101714000D02*
X185690000Y-107714000D01*
X185570000Y-101714000D02*
X185570000Y-107714000D01*
X183690000Y-101714000D02*
X183690000Y-107714000D01*
X181150000Y-101714000D02*
X181150000Y-107714000D01*
X178610000Y-101714000D02*
X178610000Y-107714000D01*
X176070000Y-101714000D02*
X176070000Y-107714000D01*
X173530000Y-101714000D02*
X173530000Y-107714000D01*
X171820000Y-101714000D02*
X187180000Y-101714000D01*
X186230000Y-107714000D02*
X185470000Y-107714000D01*
X185470000Y-107714000D02*
X185470000Y-101714000D01*
X183690000Y-107714000D02*
X182930000Y-107714000D01*
X182930000Y-107714000D02*
X182930000Y-101714000D01*
X181150000Y-107714000D02*
X180390000Y-107714000D01*
X180390000Y-107714000D02*
X180390000Y-101714000D01*
X178610000Y-107714000D02*
X177850000Y-107714000D01*
X177850000Y-107714000D02*
X177850000Y-101714000D01*
X176070000Y-107714000D02*
X175310000Y-107714000D01*
X175310000Y-107714000D02*
X175310000Y-101714000D01*
X173530000Y-107714000D02*
X172770000Y-107714000D01*
X172770000Y-107714000D02*
X172770000Y-101714000D01*
%TO.C,J9*%
X189480000Y-73745500D02*
X190480000Y-73745500D01*
X190480000Y-73745500D02*
X189980000Y-73245500D01*
X189980000Y-73245500D02*
X189480000Y-73745500D01*
X185070000Y-73025500D02*
X197390000Y-73025500D01*
X197390000Y-73025500D02*
X197390000Y-68765500D01*
X185070000Y-68765500D02*
X185070000Y-73025500D01*
X185070000Y-64665500D02*
X185070000Y-56305500D01*
X185070000Y-56305500D02*
X197390000Y-56305500D01*
X197390000Y-56305500D02*
X197390000Y-64665500D01*
%TO.C,SW3*%
X185422000Y-82064000D02*
X186922000Y-82064000D01*
X189422000Y-80814000D02*
X189422000Y-76314000D01*
X182922000Y-76314000D02*
X182922000Y-80814000D01*
X186922000Y-75064000D02*
X185422000Y-75064000D01*
%TO.C,J12*%
X166420000Y-87200000D02*
X166420000Y-94880000D01*
X166420000Y-84600000D02*
X166420000Y-85930000D01*
X165090000Y-84600000D02*
X166420000Y-84600000D01*
X163820000Y-87200000D02*
X166420000Y-87200000D01*
X163820000Y-84600000D02*
X163820000Y-87200000D01*
X161220000Y-94880000D02*
X166420000Y-94880000D01*
X161220000Y-84600000D02*
X163820000Y-84600000D01*
X161220000Y-84600000D02*
X161220000Y-94880000D01*
%TO.C,J13*%
X192630000Y-84600000D02*
X192630000Y-94880000D01*
X192630000Y-84600000D02*
X195230000Y-84600000D01*
X192630000Y-94880000D02*
X197830000Y-94880000D01*
X195230000Y-84600000D02*
X195230000Y-87200000D01*
X195230000Y-87200000D02*
X197830000Y-87200000D01*
X196500000Y-84600000D02*
X197830000Y-84600000D01*
X197830000Y-84600000D02*
X197830000Y-85930000D01*
X197830000Y-87200000D02*
X197830000Y-94880000D01*
%TO.C,D6*%
X178586000Y-81648000D02*
X178742000Y-81648000D01*
X180902000Y-81648000D02*
X181058000Y-81648000D01*
X178743392Y-78415666D02*
G75*
G03*
X178586485Y-81647999I1078608J-1672334D01*
G01*
X178742164Y-79046871D02*
G75*
G03*
X178742001Y-81128960I1079836J-1041129D01*
G01*
X180901999Y-81128960D02*
G75*
G03*
X180901836Y-79046871I-1079999J1040960D01*
G01*
X181057515Y-81647999D02*
G75*
G03*
X180900608Y-78415666I-1235515J1559999D01*
G01*
%TO.C,U2*%
X174190000Y-84540000D02*
X174190000Y-94940000D01*
X174190000Y-94940000D02*
X184690000Y-94940000D01*
X177190000Y-84600000D02*
X177190000Y-94880000D01*
X177190000Y-94880000D02*
X181690000Y-94880000D01*
X178440000Y-84600000D02*
X177190000Y-84600000D01*
X181690000Y-84600000D02*
X180440000Y-84600000D01*
X181690000Y-94880000D02*
X181690000Y-84600000D01*
X184690000Y-84540000D02*
X174190000Y-84540000D01*
X184690000Y-94940000D02*
X184690000Y-84540000D01*
X178440000Y-84600000D02*
G75*
G03*
X180440000Y-84600000I1000000J0D01*
G01*
D13*
%TO.C,mouse-bite-2mm-slot*%
X159500000Y-80750000D02*
G75*
G03*
X157500000Y-80750000I-1000000J0D01*
G01*
X157500000Y-76750000D02*
G75*
G03*
X159500000Y-76750000I1000000J0D01*
G01*
D14*
%TO.C,J5*%
X124420000Y-87200000D02*
X124420000Y-94880000D01*
X124420000Y-84600000D02*
X124420000Y-85930000D01*
X123090000Y-84600000D02*
X124420000Y-84600000D01*
X121820000Y-87200000D02*
X124420000Y-87200000D01*
X121820000Y-84600000D02*
X121820000Y-87200000D01*
X119220000Y-94880000D02*
X124420000Y-94880000D01*
X119220000Y-84600000D02*
X121820000Y-84600000D01*
X119220000Y-84600000D02*
X119220000Y-94880000D01*
%TO.C,J6*%
X150630000Y-84600000D02*
X150630000Y-94880000D01*
X150630000Y-84600000D02*
X153230000Y-84600000D01*
X150630000Y-94880000D02*
X155830000Y-94880000D01*
X153230000Y-84600000D02*
X153230000Y-87200000D01*
X153230000Y-87200000D02*
X155830000Y-87200000D01*
X154500000Y-84600000D02*
X155830000Y-84600000D01*
X155830000Y-84600000D02*
X155830000Y-85930000D01*
X155830000Y-87200000D02*
X155830000Y-94880000D01*
%TO.C,U1*%
X132190000Y-84540000D02*
X132190000Y-94940000D01*
X132190000Y-94940000D02*
X142690000Y-94940000D01*
X135190000Y-84600000D02*
X135190000Y-94880000D01*
X135190000Y-94880000D02*
X139690000Y-94880000D01*
X136440000Y-84600000D02*
X135190000Y-84600000D01*
X139690000Y-84600000D02*
X138440000Y-84600000D01*
X139690000Y-94880000D02*
X139690000Y-84600000D01*
X142690000Y-84540000D02*
X132190000Y-84540000D01*
X142690000Y-94940000D02*
X142690000Y-84540000D01*
X136440000Y-84600000D02*
G75*
G03*
X138440000Y-84600000I1000000J0D01*
G01*
%TO.C,J4*%
X138830000Y-70170000D02*
X133630000Y-70170000D01*
X138830000Y-70170000D02*
X138830000Y-72770000D01*
X133630000Y-70170000D02*
X133630000Y-75370000D01*
X138830000Y-72770000D02*
X136230000Y-72770000D01*
X136230000Y-72770000D02*
X136230000Y-75370000D01*
X138830000Y-74040000D02*
X138830000Y-75370000D01*
X138830000Y-75370000D02*
X137500000Y-75370000D01*
X136230000Y-75370000D02*
X133630000Y-75370000D01*
%TO.C,SW1*%
X143422000Y-82064000D02*
X144922000Y-82064000D01*
X147422000Y-80814000D02*
X147422000Y-76314000D01*
X140922000Y-76314000D02*
X140922000Y-80814000D01*
X144922000Y-75064000D02*
X143422000Y-75064000D01*
%TO.C,J3*%
X141340000Y-60340000D02*
X141340000Y-59600000D01*
X141340000Y-59600000D02*
X140840000Y-59600000D01*
X141100000Y-69761000D02*
X141100000Y-59840000D01*
X141100000Y-69761000D02*
X130820000Y-69761000D01*
X141100000Y-66801000D02*
X130820000Y-66801000D01*
X141100000Y-61900000D02*
X130820000Y-61900000D01*
X141100000Y-60400000D02*
X130820000Y-60400000D01*
X141100000Y-59840000D02*
X130820000Y-59840000D01*
X134647000Y-63477000D02*
X134694000Y-63431000D01*
X134454000Y-63261000D02*
X134489000Y-63226000D01*
X132350000Y-65775000D02*
X132385000Y-65739000D01*
X132145000Y-65569000D02*
X132192000Y-65523000D01*
X130820000Y-69761000D02*
X130820000Y-59840000D01*
X140034999Y-65183999D02*
G75*
G03*
X140035426Y-63816958I-1534992J684000D01*
G01*
X137816001Y-66034999D02*
G75*
G03*
X139183042Y-66035426I684000J1534992D01*
G01*
X139184000Y-62965001D02*
G75*
G03*
X138471195Y-62819748I-683999J-1535000D01*
G01*
X138500000Y-62820001D02*
G75*
G03*
X137816682Y-62965245I0J-1679999D01*
G01*
X136965000Y-63816000D02*
G75*
G03*
X136964574Y-65183042I1535000J-684000D01*
G01*
X135100000Y-64500000D02*
G75*
G03*
X135100000Y-64500000I-1680000J0D01*
G01*
%TO.C,D3*%
X136586000Y-81648000D02*
X136742000Y-81648000D01*
X138902000Y-81648000D02*
X139058000Y-81648000D01*
X136743392Y-78415666D02*
G75*
G03*
X136586485Y-81647999I1078608J-1672334D01*
G01*
X136742164Y-79046871D02*
G75*
G03*
X136742001Y-81128960I1079836J-1041129D01*
G01*
X138901999Y-81128960D02*
G75*
G03*
X138901836Y-79046871I-1079999J1040960D01*
G01*
X139057515Y-81647999D02*
G75*
G03*
X138900608Y-78415666I-1235515J1559999D01*
G01*
%TO.C,SW2*%
X118454000Y-81960000D02*
X119764000Y-81960000D01*
X118454000Y-81960000D02*
X118454000Y-80577000D01*
X118694000Y-81720000D02*
X119764000Y-81720000D01*
X118694000Y-81720000D02*
X118694000Y-74899000D01*
X121844000Y-81720000D02*
X122355000Y-81720000D01*
X124334000Y-81720000D02*
X124895000Y-81720000D01*
X126874000Y-81720000D02*
X127435000Y-81720000D01*
X129414000Y-81720000D02*
X130534000Y-81720000D01*
X130534000Y-81720000D02*
X130534000Y-74899000D01*
X120169000Y-80120000D02*
X121439000Y-80120000D01*
X120289000Y-80120000D02*
X120289000Y-78913333D01*
X120409000Y-80120000D02*
X120409000Y-78913333D01*
X120529000Y-80120000D02*
X120529000Y-78913333D01*
X120649000Y-80120000D02*
X120649000Y-78913333D01*
X120769000Y-80120000D02*
X120769000Y-78913333D01*
X120889000Y-80120000D02*
X120889000Y-78913333D01*
X121009000Y-80120000D02*
X121009000Y-78913333D01*
X121129000Y-80120000D02*
X121129000Y-78913333D01*
X121249000Y-80120000D02*
X121249000Y-78913333D01*
X121369000Y-80120000D02*
X121369000Y-78913333D01*
X121439000Y-80120000D02*
X121439000Y-76500000D01*
X122709000Y-80120000D02*
X123979000Y-80120000D01*
X122829000Y-80120000D02*
X122829000Y-78913333D01*
X122949000Y-80120000D02*
X122949000Y-78913333D01*
X123069000Y-80120000D02*
X123069000Y-78913333D01*
X123189000Y-80120000D02*
X123189000Y-78913333D01*
X123309000Y-80120000D02*
X123309000Y-78913333D01*
X123429000Y-80120000D02*
X123429000Y-78913333D01*
X123549000Y-80120000D02*
X123549000Y-78913333D01*
X123669000Y-80120000D02*
X123669000Y-78913333D01*
X123789000Y-80120000D02*
X123789000Y-78913333D01*
X123909000Y-80120000D02*
X123909000Y-78913333D01*
X123979000Y-80120000D02*
X123979000Y-76500000D01*
X125249000Y-80120000D02*
X126519000Y-80120000D01*
X125369000Y-80120000D02*
X125369000Y-78913333D01*
X125489000Y-80120000D02*
X125489000Y-78913333D01*
X125609000Y-80120000D02*
X125609000Y-78913333D01*
X125729000Y-80120000D02*
X125729000Y-78913333D01*
X125849000Y-80120000D02*
X125849000Y-78913333D01*
X125969000Y-80120000D02*
X125969000Y-78913333D01*
X126089000Y-80120000D02*
X126089000Y-78913333D01*
X126209000Y-80120000D02*
X126209000Y-78913333D01*
X126329000Y-80120000D02*
X126329000Y-78913333D01*
X126449000Y-80120000D02*
X126449000Y-78913333D01*
X126519000Y-80120000D02*
X126519000Y-76500000D01*
X127789000Y-80120000D02*
X129059000Y-80120000D01*
X127909000Y-80120000D02*
X127909000Y-78913333D01*
X128029000Y-80120000D02*
X128029000Y-78913333D01*
X128149000Y-80120000D02*
X128149000Y-78913333D01*
X128269000Y-80120000D02*
X128269000Y-78913333D01*
X128389000Y-80120000D02*
X128389000Y-78913333D01*
X128509000Y-80120000D02*
X128509000Y-78913333D01*
X128629000Y-80120000D02*
X128629000Y-78913333D01*
X128749000Y-80120000D02*
X128749000Y-78913333D01*
X128869000Y-80120000D02*
X128869000Y-78913333D01*
X128989000Y-80120000D02*
X128989000Y-78913333D01*
X129059000Y-80120000D02*
X129059000Y-76500000D01*
X120169000Y-78913333D02*
X121439000Y-78913333D01*
X122709000Y-78913333D02*
X123979000Y-78913333D01*
X125249000Y-78913333D02*
X126519000Y-78913333D01*
X127789000Y-78913333D02*
X129059000Y-78913333D01*
X120169000Y-76500000D02*
X120169000Y-80120000D01*
X121439000Y-76500000D02*
X120169000Y-76500000D01*
X122709000Y-76500000D02*
X122709000Y-80120000D01*
X123979000Y-76500000D02*
X122709000Y-76500000D01*
X125249000Y-76500000D02*
X125249000Y-80120000D01*
X126519000Y-76500000D02*
X125249000Y-76500000D01*
X127789000Y-76500000D02*
X127789000Y-80120000D01*
X129059000Y-76500000D02*
X127789000Y-76500000D01*
X118694000Y-74899000D02*
X119814000Y-74899000D01*
X121794000Y-74899000D02*
X122355000Y-74899000D01*
X124334000Y-74899000D02*
X124895000Y-74899000D01*
X126874000Y-74899000D02*
X127435000Y-74899000D01*
X129414000Y-74899000D02*
X130534000Y-74899000D01*
%TO.C,J7*%
X145120000Y-96344000D02*
X145120000Y-97614000D01*
X143850000Y-96344000D02*
X145120000Y-96344000D01*
X141690000Y-98656929D02*
X141690000Y-99054000D01*
X140930000Y-98656929D02*
X140930000Y-99054000D01*
X139150000Y-98656929D02*
X139150000Y-99054000D01*
X138390000Y-98656929D02*
X138390000Y-99054000D01*
X136610000Y-98656929D02*
X136610000Y-99054000D01*
X135850000Y-98656929D02*
X135850000Y-99054000D01*
X134070000Y-98656929D02*
X134070000Y-99054000D01*
X133310000Y-98656929D02*
X133310000Y-99054000D01*
X131530000Y-98656929D02*
X131530000Y-99054000D01*
X130770000Y-98656929D02*
X130770000Y-99054000D01*
X144230000Y-98724000D02*
X144230000Y-99054000D01*
X143470000Y-98724000D02*
X143470000Y-99054000D01*
X145180000Y-99054000D02*
X129820000Y-99054000D01*
X142580000Y-99054000D02*
X142580000Y-101714000D01*
X140040000Y-99054000D02*
X140040000Y-101714000D01*
X137500000Y-99054000D02*
X137500000Y-101714000D01*
X134960000Y-99054000D02*
X134960000Y-101714000D01*
X132420000Y-99054000D02*
X132420000Y-101714000D01*
X129820000Y-99054000D02*
X129820000Y-101714000D01*
X145180000Y-101714000D02*
X145180000Y-99054000D01*
X144230000Y-101714000D02*
X144230000Y-107714000D01*
X144170000Y-101714000D02*
X144170000Y-107714000D01*
X144050000Y-101714000D02*
X144050000Y-107714000D01*
X143930000Y-101714000D02*
X143930000Y-107714000D01*
X143810000Y-101714000D02*
X143810000Y-107714000D01*
X143690000Y-101714000D02*
X143690000Y-107714000D01*
X143570000Y-101714000D02*
X143570000Y-107714000D01*
X141690000Y-101714000D02*
X141690000Y-107714000D01*
X139150000Y-101714000D02*
X139150000Y-107714000D01*
X136610000Y-101714000D02*
X136610000Y-107714000D01*
X134070000Y-101714000D02*
X134070000Y-107714000D01*
X131530000Y-101714000D02*
X131530000Y-107714000D01*
X129820000Y-101714000D02*
X145180000Y-101714000D01*
X144230000Y-107714000D02*
X143470000Y-107714000D01*
X143470000Y-107714000D02*
X143470000Y-101714000D01*
X141690000Y-107714000D02*
X140930000Y-107714000D01*
X140930000Y-107714000D02*
X140930000Y-101714000D01*
X139150000Y-107714000D02*
X138390000Y-107714000D01*
X138390000Y-107714000D02*
X138390000Y-101714000D01*
X136610000Y-107714000D02*
X135850000Y-107714000D01*
X135850000Y-107714000D02*
X135850000Y-101714000D01*
X134070000Y-107714000D02*
X133310000Y-107714000D01*
X133310000Y-107714000D02*
X133310000Y-101714000D01*
X131530000Y-107714000D02*
X130770000Y-107714000D01*
X130770000Y-107714000D02*
X130770000Y-101714000D01*
%TO.C,J1*%
X129362000Y-56368000D02*
X120122000Y-56368000D01*
X120122000Y-56368000D02*
X120122000Y-64488000D01*
X120122000Y-69888000D02*
X120122000Y-71108000D01*
X129362000Y-71108000D02*
X129362000Y-56368000D01*
X127692000Y-71108000D02*
X129362000Y-71108000D01*
X120122000Y-71108000D02*
X121792000Y-71108000D01*
%TO.C,J2*%
X147480000Y-73745500D02*
X148480000Y-73745500D01*
X148480000Y-73745500D02*
X147980000Y-73245500D01*
X147980000Y-73245500D02*
X147480000Y-73745500D01*
X143070000Y-73025500D02*
X155390000Y-73025500D01*
X155390000Y-73025500D02*
X155390000Y-68765500D01*
X143070000Y-68765500D02*
X143070000Y-73025500D01*
X143070000Y-64665500D02*
X143070000Y-56305500D01*
X143070000Y-56305500D02*
X155390000Y-56305500D01*
X155390000Y-56305500D02*
X155390000Y-64665500D01*
%TO.C,D2*%
X132014000Y-81648000D02*
X132170000Y-81648000D01*
X134330000Y-81648000D02*
X134486000Y-81648000D01*
X132171392Y-78415666D02*
G75*
G03*
X132014485Y-81647999I1078608J-1672334D01*
G01*
X132170164Y-79046871D02*
G75*
G03*
X132170001Y-81128960I1079836J-1041129D01*
G01*
X134329999Y-81128960D02*
G75*
G03*
X134329836Y-79046871I-1079999J1040960D01*
G01*
X134485515Y-81647999D02*
G75*
G03*
X134328608Y-78415666I-1235515J1559999D01*
G01*
%TO.C,RV1*%
X148330000Y-73822000D02*
X148330000Y-80662000D01*
X148330000Y-73822000D02*
X151360000Y-73822000D01*
X148330000Y-80662000D02*
X151360000Y-80662000D01*
X152660000Y-73822000D02*
X155570000Y-73822000D01*
X152660000Y-80662000D02*
X155570000Y-80662000D01*
X155570000Y-73822000D02*
X155570000Y-80662000D01*
%TD*%
M02*
